G04*
G04 #@! TF.GenerationSoftware,Altium Limited,Altium Designer,21.2.2 (38)*
G04*
G04 Layer_Color=255*
%FSLAX25Y25*%
%MOIN*%
G70*
G04*
G04 #@! TF.SameCoordinates,22A5B088-EC4E-48B5-A717-39959E060BC5*
G04*
G04*
G04 #@! TF.FilePolarity,Positive*
G04*
G01*
G75*
%ADD18R,0.05315X0.05709*%
%ADD19R,0.05709X0.04134*%
%ADD21R,0.06004X0.02559*%
%ADD43C,0.04724*%
%ADD44R,0.04724X0.04724*%
%ADD45R,0.04724X0.04724*%
%ADD51C,0.11811*%
%ADD52O,0.07874X0.05118*%
%ADD75C,0.06000*%
%ADD76C,0.07677*%
%ADD77R,0.04449X0.04449*%
%ADD78C,0.04449*%
%ADD79R,0.06400X0.06400*%
%ADD80C,0.06400*%
%ADD81C,0.10335*%
%ADD82C,0.06102*%
G04:AMPARAMS|DCode=83|XSize=61.02mil|YSize=61.02mil|CornerRadius=1.83mil|HoleSize=0mil|Usage=FLASHONLY|Rotation=180.000|XOffset=0mil|YOffset=0mil|HoleType=Round|Shape=RoundedRectangle|*
%AMROUNDEDRECTD83*
21,1,0.06102,0.05736,0,0,180.0*
21,1,0.05736,0.06102,0,0,180.0*
1,1,0.00366,-0.02868,0.02868*
1,1,0.00366,0.02868,0.02868*
1,1,0.00366,0.02868,-0.02868*
1,1,0.00366,-0.02868,-0.02868*
%
%ADD83ROUNDEDRECTD83*%
%ADD84C,0.08858*%
%ADD85R,0.08858X0.08858*%
%ADD86R,0.05020X0.05020*%
%ADD87C,0.05020*%
%ADD88R,0.04449X0.04449*%
%ADD89C,0.08268*%
%ADD90C,0.06260*%
%ADD91C,0.08150*%
%ADD92R,0.08150X0.08150*%
%ADD93C,0.06791*%
%ADD95R,0.03347X0.03347*%
%ADD96R,0.04528X0.05709*%
%ADD97R,0.05709X0.04528*%
%ADD98R,0.06102X0.06102*%
%ADD99R,0.06299X0.11024*%
%ADD100R,0.06102X0.06102*%
%ADD101R,0.03740X0.05315*%
%ADD102R,0.05315X0.03740*%
%ADD103R,0.06102X0.05315*%
%ADD104R,0.05512X0.05906*%
%ADD105R,0.05315X0.06102*%
%ADD106R,0.03937X0.05315*%
%ADD107R,0.06102X0.05906*%
%ADD108R,0.06102X0.05512*%
%ADD109R,0.08268X0.16535*%
D18*
X489496Y176000D02*
D03*
X483000D02*
D03*
D19*
X260000Y392000D02*
D03*
Y399284D02*
D03*
X252000Y392000D02*
D03*
Y399284D02*
D03*
X285000Y343284D02*
D03*
Y336000D02*
D03*
X302000Y342284D02*
D03*
Y335000D02*
D03*
D21*
X312677Y384500D02*
D03*
Y389500D02*
D03*
Y394500D02*
D03*
Y399500D02*
D03*
X291323D02*
D03*
Y394500D02*
D03*
Y389500D02*
D03*
Y384500D02*
D03*
D43*
X260000Y437012D02*
D03*
X281000Y319000D02*
D03*
X292000Y376000D02*
D03*
X311685D02*
D03*
X273000Y485000D02*
D03*
X292685D02*
D03*
X283000Y446315D02*
D03*
Y466000D02*
D03*
D44*
X260000Y406988D02*
D03*
D45*
X311024Y319000D02*
D03*
D51*
X240000Y469606D02*
D03*
Y320000D02*
D03*
Y370000D02*
D03*
Y398346D02*
D03*
X449874Y430748D02*
D03*
Y400748D02*
D03*
Y370748D02*
D03*
Y340748D02*
D03*
Y310748D02*
D03*
Y295000D02*
D03*
Y279252D02*
D03*
D52*
X557984Y414500D02*
D03*
Y407500D02*
D03*
Y379500D02*
D03*
Y372500D02*
D03*
Y344500D02*
D03*
Y337500D02*
D03*
X574126Y432535D02*
D03*
Y424465D02*
D03*
Y397535D02*
D03*
Y389465D02*
D03*
Y362535D02*
D03*
Y354465D02*
D03*
Y316500D02*
D03*
Y309500D02*
D03*
Y302500D02*
D03*
Y295500D02*
D03*
Y288500D02*
D03*
Y281500D02*
D03*
Y274500D02*
D03*
Y323500D02*
D03*
D75*
X582500Y482500D02*
D03*
X17500Y17500D02*
D03*
X580000D02*
D03*
X17500Y482500D02*
D03*
D76*
X112315Y476000D02*
D03*
X132000D02*
D03*
X381685Y477000D02*
D03*
X362000D02*
D03*
X46000Y17000D02*
D03*
X66000D02*
D03*
X86000D02*
D03*
X106000D02*
D03*
X126000D02*
D03*
X355000Y29000D02*
D03*
X375000D02*
D03*
X395000D02*
D03*
D77*
X150370Y178000D02*
D03*
D78*
Y188000D02*
D03*
Y198000D02*
D03*
Y208000D02*
D03*
X181630D02*
D03*
Y198000D02*
D03*
Y188000D02*
D03*
Y178000D02*
D03*
X459000Y132370D02*
D03*
X469000D02*
D03*
X479000D02*
D03*
X489000D02*
D03*
Y163630D02*
D03*
X479000D02*
D03*
X469000D02*
D03*
D79*
X303000Y428800D02*
D03*
D80*
Y486000D02*
D03*
D81*
X32000Y439000D02*
D03*
Y419000D02*
D03*
Y399000D02*
D03*
Y379000D02*
D03*
Y359000D02*
D03*
Y339000D02*
D03*
Y319000D02*
D03*
Y299000D02*
D03*
Y279000D02*
D03*
X172000D02*
D03*
Y299000D02*
D03*
Y319000D02*
D03*
Y339000D02*
D03*
Y359000D02*
D03*
Y379000D02*
D03*
Y399000D02*
D03*
Y419000D02*
D03*
Y439000D02*
D03*
D82*
X300000Y199000D02*
D03*
X270000D02*
D03*
X260000D02*
D03*
X290000D02*
D03*
X280000D02*
D03*
X290000Y209000D02*
D03*
X270000D02*
D03*
X260000D02*
D03*
X280000D02*
D03*
X250000Y199000D02*
D03*
X240000D02*
D03*
X230000D02*
D03*
X220000D02*
D03*
X210000D02*
D03*
X230000Y209000D02*
D03*
X220000D02*
D03*
X250000D02*
D03*
X240000D02*
D03*
X210000D02*
D03*
X300000Y29000D02*
D03*
Y39000D02*
D03*
X290000Y29000D02*
D03*
X270000D02*
D03*
X280000D02*
D03*
X260000D02*
D03*
X240000D02*
D03*
X250000D02*
D03*
X220000D02*
D03*
X210000D02*
D03*
X280000Y39000D02*
D03*
X290000D02*
D03*
X270000D02*
D03*
X250000D02*
D03*
X260000D02*
D03*
X240000D02*
D03*
X230000Y29000D02*
D03*
X220000Y39000D02*
D03*
X230000D02*
D03*
X210000D02*
D03*
X460000Y199000D02*
D03*
X470000D02*
D03*
X480000D02*
D03*
X490000D02*
D03*
X500000D02*
D03*
X510000D02*
D03*
X520000D02*
D03*
X530000D02*
D03*
X540000D02*
D03*
X550000D02*
D03*
X460000Y209000D02*
D03*
X470000D02*
D03*
X480000D02*
D03*
X490000D02*
D03*
X500000D02*
D03*
X510000D02*
D03*
X520000D02*
D03*
X530000D02*
D03*
X540000D02*
D03*
X460000Y29000D02*
D03*
X470000D02*
D03*
X480000D02*
D03*
X490000D02*
D03*
X500000D02*
D03*
X510000D02*
D03*
X520000D02*
D03*
X530000D02*
D03*
X540000D02*
D03*
X550000D02*
D03*
X460000Y39000D02*
D03*
X470000D02*
D03*
X480000D02*
D03*
X490000D02*
D03*
X500000D02*
D03*
X510000D02*
D03*
X520000D02*
D03*
X530000D02*
D03*
X540000D02*
D03*
X550000D02*
D03*
D83*
X300000Y209000D02*
D03*
X550000D02*
D03*
D84*
X327000Y488000D02*
D03*
X75000Y387024D02*
D03*
Y476000D02*
D03*
D85*
X327000Y375402D02*
D03*
D86*
X362000Y398000D02*
D03*
Y294000D02*
D03*
Y345000D02*
D03*
X64000Y361000D02*
D03*
D87*
X381685Y398000D02*
D03*
Y294000D02*
D03*
Y345000D02*
D03*
X77780Y361000D02*
D03*
D88*
X459000Y163630D02*
D03*
D89*
X470000Y457000D02*
D03*
Y486724D02*
D03*
X490000Y457000D02*
D03*
Y486724D02*
D03*
X510000Y457000D02*
D03*
Y486724D02*
D03*
D90*
X335842Y464528D02*
D03*
X326000Y435000D02*
D03*
D91*
X249000Y456000D02*
D03*
Y446000D02*
D03*
Y361000D02*
D03*
Y351000D02*
D03*
D92*
Y436000D02*
D03*
Y341000D02*
D03*
D93*
X46000Y184000D02*
D03*
X56000D02*
D03*
X66000D02*
D03*
X86000D02*
D03*
X96000D02*
D03*
X106000D02*
D03*
X116000D02*
D03*
X46000Y144000D02*
D03*
X56000D02*
D03*
X66000D02*
D03*
X86000D02*
D03*
X96000D02*
D03*
X106000D02*
D03*
X116000D02*
D03*
X47000Y106000D02*
D03*
X57000D02*
D03*
X67000D02*
D03*
X87000D02*
D03*
X97000D02*
D03*
X107000D02*
D03*
X117000D02*
D03*
D95*
X558000Y283189D02*
D03*
Y270000D02*
D03*
X539000Y399594D02*
D03*
Y386405D02*
D03*
X540000Y364189D02*
D03*
Y351000D02*
D03*
Y434594D02*
D03*
Y421406D02*
D03*
D96*
X181000Y216000D02*
D03*
X187890D02*
D03*
D97*
X135000Y206445D02*
D03*
Y199555D02*
D03*
X143000Y206445D02*
D03*
Y199555D02*
D03*
X427000Y215110D02*
D03*
Y222000D02*
D03*
D98*
X521000Y396284D02*
D03*
Y389000D02*
D03*
X520000Y361642D02*
D03*
Y354358D02*
D03*
X522000Y432000D02*
D03*
Y424717D02*
D03*
X412000Y478284D02*
D03*
Y471000D02*
D03*
X436000Y206716D02*
D03*
Y214000D02*
D03*
Y198000D02*
D03*
Y190717D02*
D03*
X527000Y273716D02*
D03*
Y281000D02*
D03*
X499000Y87000D02*
D03*
Y94283D02*
D03*
X469000Y86000D02*
D03*
Y93283D02*
D03*
X510000Y87000D02*
D03*
Y94283D02*
D03*
X540000Y88000D02*
D03*
Y95284D02*
D03*
X550000Y87717D02*
D03*
Y95000D02*
D03*
X458000Y86000D02*
D03*
Y93283D02*
D03*
D99*
X492000Y365929D02*
D03*
Y349000D02*
D03*
X493000Y401465D02*
D03*
Y384535D02*
D03*
X494000Y437465D02*
D03*
Y420535D02*
D03*
D100*
X541284Y448000D02*
D03*
X534000D02*
D03*
D101*
X541905Y474000D02*
D03*
X536000D02*
D03*
D102*
X438000Y470000D02*
D03*
Y475906D02*
D03*
X172000Y203000D02*
D03*
Y208906D02*
D03*
D103*
X237000Y437323D02*
D03*
Y445000D02*
D03*
Y346000D02*
D03*
Y353677D02*
D03*
D104*
X62000Y281000D02*
D03*
X69480D02*
D03*
X370000Y431000D02*
D03*
X362520D02*
D03*
X370000Y444000D02*
D03*
X362520D02*
D03*
D105*
X297000Y495000D02*
D03*
X289323D02*
D03*
D106*
X166000Y216000D02*
D03*
X171906D02*
D03*
D107*
X160000Y200913D02*
D03*
Y208000D02*
D03*
D108*
X427000Y206000D02*
D03*
Y198520D02*
D03*
X511000Y62520D02*
D03*
Y70000D02*
D03*
X550000Y63520D02*
D03*
Y71000D02*
D03*
X540000D02*
D03*
Y63520D02*
D03*
X499000Y70000D02*
D03*
Y62520D02*
D03*
X469000Y60520D02*
D03*
Y68000D02*
D03*
X459000Y60000D02*
D03*
Y67480D02*
D03*
D109*
X491000Y256000D02*
D03*
Y284937D02*
D03*
M02*
