G04*
G04 #@! TF.GenerationSoftware,Altium Limited,Altium Designer,21.2.2 (38)*
G04*
G04 Layer_Color=16711935*
%FSLAX25Y25*%
%MOIN*%
G70*
G04*
G04 #@! TF.SameCoordinates,22A5B088-EC4E-48B5-A717-39959E060BC5*
G04*
G04*
G04 #@! TF.FilePolarity,Negative*
G04*
G01*
G75*
%ADD31R,0.06115X0.06509*%
%ADD32R,0.06509X0.04934*%
%ADD34R,0.06804X0.03359*%
%ADD42C,0.06800*%
%ADD43C,0.04724*%
%ADD44R,0.04724X0.04724*%
%ADD45R,0.04724X0.04724*%
%ADD46C,0.12611*%
%ADD47C,0.05524*%
%ADD48C,0.08477*%
%ADD49R,0.05249X0.05249*%
%ADD50C,0.05249*%
%ADD51C,0.11811*%
%ADD52O,0.07874X0.05118*%
%ADD53R,0.07200X0.07200*%
%ADD54C,0.07200*%
%ADD55C,0.11135*%
%ADD56C,0.06902*%
G04:AMPARAMS|DCode=57|XSize=69.02mil|YSize=69.02mil|CornerRadius=5.83mil|HoleSize=0mil|Usage=FLASHONLY|Rotation=180.000|XOffset=0mil|YOffset=0mil|HoleType=Round|Shape=RoundedRectangle|*
%AMROUNDEDRECTD57*
21,1,0.06902,0.05736,0,0,180.0*
21,1,0.05736,0.06902,0,0,180.0*
1,1,0.01166,-0.02868,0.02868*
1,1,0.01166,0.02868,0.02868*
1,1,0.01166,0.02868,-0.02868*
1,1,0.01166,-0.02868,-0.02868*
%
%ADD57ROUNDEDRECTD57*%
%ADD58C,0.09658*%
%ADD59R,0.09658X0.09658*%
%ADD60R,0.05820X0.05820*%
%ADD61C,0.05820*%
%ADD62R,0.05249X0.05249*%
%ADD63C,0.09068*%
%ADD64C,0.07060*%
%ADD65C,0.08950*%
%ADD66R,0.08950X0.08950*%
%ADD67C,0.07591*%
%ADD68C,0.05800*%
%ADD101R,0.03740X0.05315*%
%ADD102R,0.05315X0.03740*%
%ADD111R,0.04147X0.04147*%
%ADD112R,0.05328X0.06509*%
%ADD113R,0.06509X0.05328*%
%ADD114R,0.06902X0.06902*%
%ADD115R,0.07099X0.11824*%
%ADD116R,0.06902X0.06902*%
%ADD117R,0.06902X0.06115*%
%ADD118R,0.06312X0.06706*%
%ADD119R,0.06115X0.06902*%
%ADD120R,0.04737X0.06115*%
%ADD121R,0.06902X0.06706*%
%ADD122R,0.06902X0.06312*%
%ADD123R,0.09068X0.17335*%
D31*
X489496Y176000D02*
D03*
X483000D02*
D03*
D32*
X260000Y392000D02*
D03*
Y399284D02*
D03*
X252000Y392000D02*
D03*
Y399284D02*
D03*
X285000Y343284D02*
D03*
Y336000D02*
D03*
X302000Y342284D02*
D03*
Y335000D02*
D03*
D34*
X312677Y384500D02*
D03*
Y389500D02*
D03*
Y394500D02*
D03*
Y399500D02*
D03*
X291323D02*
D03*
Y394500D02*
D03*
Y389500D02*
D03*
Y384500D02*
D03*
D42*
X582500Y482500D02*
D03*
X17500Y17500D02*
D03*
X580000D02*
D03*
X17500Y482500D02*
D03*
D43*
X260000Y437012D02*
D03*
X281000Y319000D02*
D03*
D44*
X260000Y406988D02*
D03*
D45*
X311024Y319000D02*
D03*
D46*
X240000Y469606D02*
D03*
Y320000D02*
D03*
Y370000D02*
D03*
Y398346D02*
D03*
D47*
X292000Y376000D02*
D03*
X311685D02*
D03*
X273000Y485000D02*
D03*
X292685D02*
D03*
X283000Y446315D02*
D03*
Y466000D02*
D03*
D48*
X112315Y476000D02*
D03*
X132000D02*
D03*
X381685Y477000D02*
D03*
X362000D02*
D03*
X46000Y17000D02*
D03*
X66000D02*
D03*
X86000D02*
D03*
X106000D02*
D03*
X126000D02*
D03*
X355000Y29000D02*
D03*
X375000D02*
D03*
X395000D02*
D03*
D49*
X150370Y178000D02*
D03*
D50*
Y188000D02*
D03*
Y198000D02*
D03*
Y208000D02*
D03*
X181630D02*
D03*
Y198000D02*
D03*
Y188000D02*
D03*
Y178000D02*
D03*
X459000Y132370D02*
D03*
X469000D02*
D03*
X479000D02*
D03*
X489000D02*
D03*
Y163630D02*
D03*
X479000D02*
D03*
X469000D02*
D03*
D51*
X449874Y430748D02*
D03*
Y400748D02*
D03*
Y370748D02*
D03*
Y340748D02*
D03*
Y310748D02*
D03*
Y295000D02*
D03*
Y279252D02*
D03*
D52*
X557984Y414500D02*
D03*
Y407500D02*
D03*
Y379500D02*
D03*
Y372500D02*
D03*
Y344500D02*
D03*
Y337500D02*
D03*
X574126Y432535D02*
D03*
Y424465D02*
D03*
Y397535D02*
D03*
Y389465D02*
D03*
Y362535D02*
D03*
Y354465D02*
D03*
Y316500D02*
D03*
Y309500D02*
D03*
Y302500D02*
D03*
Y295500D02*
D03*
Y288500D02*
D03*
Y281500D02*
D03*
Y274500D02*
D03*
Y323500D02*
D03*
D53*
X303000Y428800D02*
D03*
D54*
Y486000D02*
D03*
D55*
X32000Y439000D02*
D03*
Y419000D02*
D03*
Y399000D02*
D03*
Y379000D02*
D03*
Y359000D02*
D03*
Y339000D02*
D03*
Y319000D02*
D03*
Y299000D02*
D03*
Y279000D02*
D03*
X172000D02*
D03*
Y299000D02*
D03*
Y319000D02*
D03*
Y339000D02*
D03*
Y359000D02*
D03*
Y379000D02*
D03*
Y399000D02*
D03*
Y419000D02*
D03*
Y439000D02*
D03*
D56*
X300000Y199000D02*
D03*
X270000D02*
D03*
X260000D02*
D03*
X290000D02*
D03*
X280000D02*
D03*
X290000Y209000D02*
D03*
X270000D02*
D03*
X260000D02*
D03*
X280000D02*
D03*
X250000Y199000D02*
D03*
X240000D02*
D03*
X230000D02*
D03*
X220000D02*
D03*
X210000D02*
D03*
X230000Y209000D02*
D03*
X220000D02*
D03*
X250000D02*
D03*
X240000D02*
D03*
X210000D02*
D03*
X300000Y29000D02*
D03*
Y39000D02*
D03*
X290000Y29000D02*
D03*
X270000D02*
D03*
X280000D02*
D03*
X260000D02*
D03*
X240000D02*
D03*
X250000D02*
D03*
X220000D02*
D03*
X210000D02*
D03*
X280000Y39000D02*
D03*
X290000D02*
D03*
X270000D02*
D03*
X250000D02*
D03*
X260000D02*
D03*
X240000D02*
D03*
X230000Y29000D02*
D03*
X220000Y39000D02*
D03*
X230000D02*
D03*
X210000D02*
D03*
X460000Y199000D02*
D03*
X470000D02*
D03*
X480000D02*
D03*
X490000D02*
D03*
X500000D02*
D03*
X510000D02*
D03*
X520000D02*
D03*
X530000D02*
D03*
X540000D02*
D03*
X550000D02*
D03*
X460000Y209000D02*
D03*
X470000D02*
D03*
X480000D02*
D03*
X490000D02*
D03*
X500000D02*
D03*
X510000D02*
D03*
X520000D02*
D03*
X530000D02*
D03*
X540000D02*
D03*
X460000Y29000D02*
D03*
X470000D02*
D03*
X480000D02*
D03*
X490000D02*
D03*
X500000D02*
D03*
X510000D02*
D03*
X520000D02*
D03*
X530000D02*
D03*
X540000D02*
D03*
X550000D02*
D03*
X460000Y39000D02*
D03*
X470000D02*
D03*
X480000D02*
D03*
X490000D02*
D03*
X500000D02*
D03*
X510000D02*
D03*
X520000D02*
D03*
X530000D02*
D03*
X540000D02*
D03*
X550000D02*
D03*
D57*
X300000Y209000D02*
D03*
X550000D02*
D03*
D58*
X327000Y488000D02*
D03*
X75000Y387024D02*
D03*
Y476000D02*
D03*
D59*
X327000Y375402D02*
D03*
D60*
X362000Y398000D02*
D03*
Y294000D02*
D03*
Y345000D02*
D03*
X64000Y361000D02*
D03*
D61*
X381685Y398000D02*
D03*
Y294000D02*
D03*
Y345000D02*
D03*
X77780Y361000D02*
D03*
D62*
X459000Y163630D02*
D03*
D63*
X470000Y457000D02*
D03*
Y486724D02*
D03*
X490000Y457000D02*
D03*
Y486724D02*
D03*
X510000Y457000D02*
D03*
Y486724D02*
D03*
D64*
X335842Y464528D02*
D03*
X326000Y435000D02*
D03*
D65*
X249000Y456000D02*
D03*
Y446000D02*
D03*
Y361000D02*
D03*
Y351000D02*
D03*
D66*
Y436000D02*
D03*
Y341000D02*
D03*
D67*
X46000Y184000D02*
D03*
X56000D02*
D03*
X66000D02*
D03*
X86000D02*
D03*
X96000D02*
D03*
X106000D02*
D03*
X116000D02*
D03*
X46000Y144000D02*
D03*
X56000D02*
D03*
X66000D02*
D03*
X86000D02*
D03*
X96000D02*
D03*
X106000D02*
D03*
X116000D02*
D03*
X47000Y106000D02*
D03*
X57000D02*
D03*
X67000D02*
D03*
X87000D02*
D03*
X97000D02*
D03*
X107000D02*
D03*
X117000D02*
D03*
D68*
X561320Y491893D02*
D03*
X381000Y438000D02*
D03*
X355000Y437000D02*
D03*
X437000Y402000D02*
D03*
X110000Y72000D02*
D03*
X146000Y52000D02*
D03*
Y60000D02*
D03*
Y68000D02*
D03*
X545000Y104000D02*
D03*
X464000Y103000D02*
D03*
X323000Y11000D02*
D03*
X532000Y159000D02*
D03*
X593000Y95000D02*
D03*
Y83000D02*
D03*
X561000Y162000D02*
D03*
X593000Y70000D02*
D03*
Y59000D02*
D03*
Y48000D02*
D03*
Y37000D02*
D03*
X566000Y154000D02*
D03*
X570000Y127000D02*
D03*
X565000Y112000D02*
D03*
X422000Y6000D02*
D03*
X429000Y487000D02*
D03*
X526000Y463000D02*
D03*
X436000Y183000D02*
D03*
X302000Y405000D02*
D03*
X436000Y222000D02*
D03*
X80000Y270000D02*
D03*
X73000Y317000D02*
D03*
X504000Y102000D02*
D03*
X10000Y223000D02*
D03*
X11000Y192000D02*
D03*
X216000Y295000D02*
D03*
X155000Y495000D02*
D03*
X9000Y86000D02*
D03*
X98000Y237000D02*
D03*
X19000Y126000D02*
D03*
X213000Y245000D02*
D03*
X313000Y406000D02*
D03*
X418000Y325000D02*
D03*
X584000Y454000D02*
D03*
Y466000D02*
D03*
X595000Y454000D02*
D03*
Y466000D02*
D03*
X385000Y235000D02*
D03*
X432500Y459000D02*
D03*
X418000Y215000D02*
D03*
X62000Y262000D02*
D03*
X573000Y200000D02*
D03*
X594000Y337000D02*
D03*
Y288000D02*
D03*
X586000Y295000D02*
D03*
X476000Y176000D02*
D03*
X50000Y270000D02*
D03*
X540000Y79000D02*
D03*
X590000Y372000D02*
D03*
X550000Y79000D02*
D03*
X510000Y78000D02*
D03*
X499000Y79000D02*
D03*
X469000Y77000D02*
D03*
X458000D02*
D03*
X552000Y463000D02*
D03*
X541000Y456000D02*
D03*
X420000Y471000D02*
D03*
X324000Y389000D02*
D03*
X283000Y400000D02*
D03*
X89000Y63000D02*
D03*
X68000Y62000D02*
D03*
X44000Y63000D02*
D03*
D101*
X541905Y474000D02*
D03*
X536000D02*
D03*
D102*
X438000Y470000D02*
D03*
Y475906D02*
D03*
X172000Y203000D02*
D03*
Y208906D02*
D03*
D111*
X558000Y283189D02*
D03*
Y270000D02*
D03*
X539000Y399594D02*
D03*
Y386405D02*
D03*
X540000Y364189D02*
D03*
Y351000D02*
D03*
Y434594D02*
D03*
Y421406D02*
D03*
D112*
X181000Y216000D02*
D03*
X187890D02*
D03*
D113*
X135000Y206445D02*
D03*
Y199555D02*
D03*
X143000Y206445D02*
D03*
Y199555D02*
D03*
X427000Y215110D02*
D03*
Y222000D02*
D03*
D114*
X521000Y396284D02*
D03*
Y389000D02*
D03*
X520000Y361642D02*
D03*
Y354358D02*
D03*
X522000Y432000D02*
D03*
Y424717D02*
D03*
X412000Y478284D02*
D03*
Y471000D02*
D03*
X436000Y206716D02*
D03*
Y214000D02*
D03*
Y198000D02*
D03*
Y190717D02*
D03*
X527000Y273716D02*
D03*
Y281000D02*
D03*
X499000Y87000D02*
D03*
Y94283D02*
D03*
X469000Y86000D02*
D03*
Y93283D02*
D03*
X510000Y87000D02*
D03*
Y94283D02*
D03*
X540000Y88000D02*
D03*
Y95284D02*
D03*
X550000Y87717D02*
D03*
Y95000D02*
D03*
X458000Y86000D02*
D03*
Y93283D02*
D03*
D115*
X492000Y365929D02*
D03*
Y349000D02*
D03*
X493000Y401465D02*
D03*
Y384535D02*
D03*
X494000Y437465D02*
D03*
Y420535D02*
D03*
D116*
X541284Y448000D02*
D03*
X534000D02*
D03*
D117*
X237000Y437323D02*
D03*
Y445000D02*
D03*
Y346000D02*
D03*
Y353677D02*
D03*
D118*
X62000Y281000D02*
D03*
X69480D02*
D03*
X370000Y431000D02*
D03*
X362520D02*
D03*
X370000Y444000D02*
D03*
X362520D02*
D03*
D119*
X297000Y495000D02*
D03*
X289323D02*
D03*
D120*
X166000Y216000D02*
D03*
X171906D02*
D03*
D121*
X160000Y200913D02*
D03*
Y208000D02*
D03*
D122*
X427000Y206000D02*
D03*
Y198520D02*
D03*
X511000Y62520D02*
D03*
Y70000D02*
D03*
X550000Y63520D02*
D03*
Y71000D02*
D03*
X540000D02*
D03*
Y63520D02*
D03*
X499000Y70000D02*
D03*
Y62520D02*
D03*
X469000Y60520D02*
D03*
Y68000D02*
D03*
X459000Y60000D02*
D03*
Y67480D02*
D03*
D123*
X491000Y256000D02*
D03*
Y284937D02*
D03*
M02*
