G04*
G04 #@! TF.GenerationSoftware,Altium Limited,Altium Designer,21.2.2 (38)*
G04*
G04 Layer_Color=8421504*
%FSLAX25Y25*%
%MOIN*%
G70*
G04*
G04 #@! TF.SameCoordinates,22A5B088-EC4E-48B5-A717-39959E060BC5*
G04*
G04*
G04 #@! TF.FilePolarity,Positive*
G04*
G01*
G75*
%ADD16R,0.05807X0.00787*%
%ADD17R,0.04134X0.05709*%
%ADD18R,0.05315X0.05709*%
%ADD19R,0.05709X0.04134*%
%ADD20R,0.02559X0.06004*%
%ADD21R,0.06004X0.02559*%
%ADD22R,0.13780X0.20079*%
%ADD23R,0.05906X0.05512*%
%ADD24R,0.05512X0.04331*%
%ADD25R,0.02953X0.02362*%
%ADD26R,0.08661X0.08465*%
%ADD27R,0.05315X0.03937*%
%ADD28R,0.05315X0.03347*%
D16*
X112433Y51913D02*
D03*
Y53488D02*
D03*
Y55063D02*
D03*
Y56638D02*
D03*
Y58213D02*
D03*
Y59787D02*
D03*
Y61362D02*
D03*
Y62937D02*
D03*
Y64512D02*
D03*
Y66087D02*
D03*
X135567D02*
D03*
Y64512D02*
D03*
Y62937D02*
D03*
Y61362D02*
D03*
Y59787D02*
D03*
Y58213D02*
D03*
Y56638D02*
D03*
Y55063D02*
D03*
Y53488D02*
D03*
Y51913D02*
D03*
D17*
X67000Y254000D02*
D03*
X59716D02*
D03*
X421000Y314000D02*
D03*
X428284D02*
D03*
X534717Y448000D02*
D03*
X542000D02*
D03*
D18*
X407000Y314000D02*
D03*
X413496D02*
D03*
D19*
X412000Y471000D02*
D03*
Y478284D02*
D03*
D20*
X546500Y463323D02*
D03*
X541500D02*
D03*
X536500D02*
D03*
X531500D02*
D03*
Y484677D02*
D03*
X536500D02*
D03*
X541500D02*
D03*
X546500D02*
D03*
X57500Y291677D02*
D03*
X62500D02*
D03*
X67500D02*
D03*
X72500D02*
D03*
Y270323D02*
D03*
X67500D02*
D03*
X62500D02*
D03*
X57500D02*
D03*
D21*
X428323Y465500D02*
D03*
Y470500D02*
D03*
Y475500D02*
D03*
Y480500D02*
D03*
X449677D02*
D03*
Y475500D02*
D03*
Y470500D02*
D03*
Y465500D02*
D03*
D22*
X408819Y295000D02*
D03*
X425000D02*
D03*
D23*
X437000Y410260D02*
D03*
Y417740D02*
D03*
D24*
X52000Y69445D02*
D03*
Y62555D02*
D03*
X76000Y61555D02*
D03*
Y68445D02*
D03*
X98000Y62555D02*
D03*
Y69445D02*
D03*
D25*
X66331Y316000D02*
D03*
X62000D02*
D03*
D26*
X55677Y329000D02*
D03*
X73000D02*
D03*
D27*
X19000Y58047D02*
D03*
Y63953D02*
D03*
D28*
Y112752D02*
D03*
Y119248D02*
D03*
M02*
