G04*
G04 #@! TF.GenerationSoftware,Altium Limited,Altium Designer,21.2.2 (38)*
G04*
G04 Layer_Color=255*
%FSLAX25Y25*%
%MOIN*%
G70*
G04*
G04 #@! TF.SameCoordinates,22A5B088-EC4E-48B5-A717-39959E060BC5*
G04*
G04*
G04 #@! TF.FilePolarity,Positive*
G04*
G01*
G75*
%ADD16R,0.05807X0.00787*%
%ADD17R,0.04134X0.05709*%
%ADD18R,0.05315X0.05709*%
%ADD19R,0.05709X0.04134*%
%ADD20R,0.02559X0.06004*%
%ADD21R,0.06004X0.02559*%
%ADD22R,0.13780X0.20079*%
%ADD23R,0.05906X0.05512*%
%ADD24R,0.05512X0.04331*%
%ADD25R,0.02953X0.02362*%
%ADD26R,0.08661X0.08465*%
%ADD27R,0.05315X0.03937*%
%ADD28R,0.05315X0.03347*%
%ADD43C,0.04724*%
%ADD44R,0.04724X0.04724*%
%ADD45R,0.04724X0.04724*%
%ADD51C,0.11811*%
%ADD52O,0.07874X0.05118*%
%ADD75C,0.06000*%
%ADD76C,0.07677*%
%ADD77R,0.04449X0.04449*%
%ADD78C,0.04449*%
%ADD79R,0.06400X0.06400*%
%ADD80C,0.06400*%
%ADD81C,0.10335*%
%ADD82C,0.06102*%
G04:AMPARAMS|DCode=83|XSize=61.02mil|YSize=61.02mil|CornerRadius=1.83mil|HoleSize=0mil|Usage=FLASHONLY|Rotation=180.000|XOffset=0mil|YOffset=0mil|HoleType=Round|Shape=RoundedRectangle|*
%AMROUNDEDRECTD83*
21,1,0.06102,0.05736,0,0,180.0*
21,1,0.05736,0.06102,0,0,180.0*
1,1,0.00366,-0.02868,0.02868*
1,1,0.00366,0.02868,0.02868*
1,1,0.00366,0.02868,-0.02868*
1,1,0.00366,-0.02868,-0.02868*
%
%ADD83ROUNDEDRECTD83*%
%ADD84C,0.08858*%
%ADD85R,0.08858X0.08858*%
%ADD86R,0.05020X0.05020*%
%ADD87C,0.05020*%
%ADD88R,0.04449X0.04449*%
%ADD89C,0.08268*%
%ADD90C,0.06260*%
%ADD91C,0.08150*%
%ADD92R,0.08150X0.08150*%
%ADD93C,0.06791*%
D16*
X112433Y51913D02*
D03*
Y53488D02*
D03*
Y55063D02*
D03*
Y56638D02*
D03*
Y58213D02*
D03*
Y59787D02*
D03*
Y61362D02*
D03*
Y62937D02*
D03*
Y64512D02*
D03*
Y66087D02*
D03*
X135567D02*
D03*
Y64512D02*
D03*
Y62937D02*
D03*
Y61362D02*
D03*
Y59787D02*
D03*
Y58213D02*
D03*
Y56638D02*
D03*
Y55063D02*
D03*
Y53488D02*
D03*
Y51913D02*
D03*
D17*
X67000Y254000D02*
D03*
X59716D02*
D03*
X421000Y314000D02*
D03*
X428284D02*
D03*
X534717Y448000D02*
D03*
X542000D02*
D03*
D18*
X407000Y314000D02*
D03*
X413496D02*
D03*
D19*
X412000Y471000D02*
D03*
Y478284D02*
D03*
D20*
X546500Y463323D02*
D03*
X541500D02*
D03*
X536500D02*
D03*
X531500D02*
D03*
Y484677D02*
D03*
X536500D02*
D03*
X541500D02*
D03*
X546500D02*
D03*
X57500Y291677D02*
D03*
X62500D02*
D03*
X67500D02*
D03*
X72500D02*
D03*
Y270323D02*
D03*
X67500D02*
D03*
X62500D02*
D03*
X57500D02*
D03*
D21*
X428323Y465500D02*
D03*
Y470500D02*
D03*
Y475500D02*
D03*
Y480500D02*
D03*
X449677D02*
D03*
Y475500D02*
D03*
Y470500D02*
D03*
Y465500D02*
D03*
D22*
X408819Y295000D02*
D03*
X425000D02*
D03*
D23*
X437000Y410260D02*
D03*
Y417740D02*
D03*
D24*
X52000Y69445D02*
D03*
Y62555D02*
D03*
X76000Y61555D02*
D03*
Y68445D02*
D03*
X98000Y62555D02*
D03*
Y69445D02*
D03*
D25*
X66331Y316000D02*
D03*
X62000D02*
D03*
D26*
X55677Y329000D02*
D03*
X73000D02*
D03*
D27*
X19000Y58047D02*
D03*
Y63953D02*
D03*
D28*
Y112752D02*
D03*
Y119248D02*
D03*
D43*
X260000Y437012D02*
D03*
X281000Y319000D02*
D03*
X292000Y376000D02*
D03*
X311685D02*
D03*
X273000Y485000D02*
D03*
X292685D02*
D03*
X283000Y446315D02*
D03*
Y466000D02*
D03*
D44*
X260000Y406988D02*
D03*
D45*
X311024Y319000D02*
D03*
D51*
X240000Y469606D02*
D03*
Y320000D02*
D03*
Y370000D02*
D03*
Y398346D02*
D03*
X449874Y430748D02*
D03*
Y400748D02*
D03*
Y370748D02*
D03*
Y340748D02*
D03*
Y310748D02*
D03*
Y295000D02*
D03*
Y279252D02*
D03*
D52*
X557984Y414500D02*
D03*
Y407500D02*
D03*
Y379500D02*
D03*
Y372500D02*
D03*
Y344500D02*
D03*
Y337500D02*
D03*
X574126Y432535D02*
D03*
Y424465D02*
D03*
Y397535D02*
D03*
Y389465D02*
D03*
Y362535D02*
D03*
Y354465D02*
D03*
Y316500D02*
D03*
Y309500D02*
D03*
Y302500D02*
D03*
Y295500D02*
D03*
Y288500D02*
D03*
Y281500D02*
D03*
Y274500D02*
D03*
Y323500D02*
D03*
D75*
X582500Y482500D02*
D03*
X17500Y17500D02*
D03*
X580000D02*
D03*
X17500Y482500D02*
D03*
D76*
X112315Y476000D02*
D03*
X132000D02*
D03*
X381685Y477000D02*
D03*
X362000D02*
D03*
X46000Y17000D02*
D03*
X66000D02*
D03*
X86000D02*
D03*
X106000D02*
D03*
X126000D02*
D03*
X355000Y29000D02*
D03*
X375000D02*
D03*
X395000D02*
D03*
D77*
X150370Y178000D02*
D03*
D78*
Y188000D02*
D03*
Y198000D02*
D03*
Y208000D02*
D03*
X181630D02*
D03*
Y198000D02*
D03*
Y188000D02*
D03*
Y178000D02*
D03*
X459000Y132370D02*
D03*
X469000D02*
D03*
X479000D02*
D03*
X489000D02*
D03*
Y163630D02*
D03*
X479000D02*
D03*
X469000D02*
D03*
D79*
X303000Y428800D02*
D03*
D80*
Y486000D02*
D03*
D81*
X32000Y439000D02*
D03*
Y419000D02*
D03*
Y399000D02*
D03*
Y379000D02*
D03*
Y359000D02*
D03*
Y339000D02*
D03*
Y319000D02*
D03*
Y299000D02*
D03*
Y279000D02*
D03*
X172000D02*
D03*
Y299000D02*
D03*
Y319000D02*
D03*
Y339000D02*
D03*
Y359000D02*
D03*
Y379000D02*
D03*
Y399000D02*
D03*
Y419000D02*
D03*
Y439000D02*
D03*
D82*
X300000Y199000D02*
D03*
X270000D02*
D03*
X260000D02*
D03*
X290000D02*
D03*
X280000D02*
D03*
X290000Y209000D02*
D03*
X270000D02*
D03*
X260000D02*
D03*
X280000D02*
D03*
X250000Y199000D02*
D03*
X240000D02*
D03*
X230000D02*
D03*
X220000D02*
D03*
X210000D02*
D03*
X230000Y209000D02*
D03*
X220000D02*
D03*
X250000D02*
D03*
X240000D02*
D03*
X210000D02*
D03*
X300000Y29000D02*
D03*
Y39000D02*
D03*
X290000Y29000D02*
D03*
X270000D02*
D03*
X280000D02*
D03*
X260000D02*
D03*
X240000D02*
D03*
X250000D02*
D03*
X220000D02*
D03*
X210000D02*
D03*
X280000Y39000D02*
D03*
X290000D02*
D03*
X270000D02*
D03*
X250000D02*
D03*
X260000D02*
D03*
X240000D02*
D03*
X230000Y29000D02*
D03*
X220000Y39000D02*
D03*
X230000D02*
D03*
X210000D02*
D03*
X460000Y199000D02*
D03*
X470000D02*
D03*
X480000D02*
D03*
X490000D02*
D03*
X500000D02*
D03*
X510000D02*
D03*
X520000D02*
D03*
X530000D02*
D03*
X540000D02*
D03*
X550000D02*
D03*
X460000Y209000D02*
D03*
X470000D02*
D03*
X480000D02*
D03*
X490000D02*
D03*
X500000D02*
D03*
X510000D02*
D03*
X520000D02*
D03*
X530000D02*
D03*
X540000D02*
D03*
X460000Y29000D02*
D03*
X470000D02*
D03*
X480000D02*
D03*
X490000D02*
D03*
X500000D02*
D03*
X510000D02*
D03*
X520000D02*
D03*
X530000D02*
D03*
X540000D02*
D03*
X550000D02*
D03*
X460000Y39000D02*
D03*
X470000D02*
D03*
X480000D02*
D03*
X490000D02*
D03*
X500000D02*
D03*
X510000D02*
D03*
X520000D02*
D03*
X530000D02*
D03*
X540000D02*
D03*
X550000D02*
D03*
D83*
X300000Y209000D02*
D03*
X550000D02*
D03*
D84*
X327000Y488000D02*
D03*
X75000Y387024D02*
D03*
Y476000D02*
D03*
D85*
X327000Y375402D02*
D03*
D86*
X362000Y398000D02*
D03*
Y294000D02*
D03*
Y345000D02*
D03*
X64000Y361000D02*
D03*
D87*
X381685Y398000D02*
D03*
Y294000D02*
D03*
Y345000D02*
D03*
X77780Y361000D02*
D03*
D88*
X459000Y163630D02*
D03*
D89*
X470000Y457000D02*
D03*
Y486724D02*
D03*
X490000Y457000D02*
D03*
Y486724D02*
D03*
X510000Y457000D02*
D03*
Y486724D02*
D03*
D90*
X335842Y464528D02*
D03*
X326000Y435000D02*
D03*
D91*
X249000Y456000D02*
D03*
Y446000D02*
D03*
Y361000D02*
D03*
Y351000D02*
D03*
D92*
Y436000D02*
D03*
Y341000D02*
D03*
D93*
X46000Y184000D02*
D03*
X56000D02*
D03*
X66000D02*
D03*
X86000D02*
D03*
X96000D02*
D03*
X106000D02*
D03*
X116000D02*
D03*
X46000Y144000D02*
D03*
X56000D02*
D03*
X66000D02*
D03*
X86000D02*
D03*
X96000D02*
D03*
X106000D02*
D03*
X116000D02*
D03*
X47000Y106000D02*
D03*
X57000D02*
D03*
X67000D02*
D03*
X87000D02*
D03*
X97000D02*
D03*
X107000D02*
D03*
X117000D02*
D03*
M02*
