G04*
G04 #@! TF.GenerationSoftware,Altium Limited,Altium Designer,21.2.2 (38)*
G04*
G04 Layer_Color=128*
%FSLAX25Y25*%
%MOIN*%
G70*
G04*
G04 #@! TF.SameCoordinates,9089D698-1931-4360-AEFD-B440DD5BBD6E*
G04*
G04*
G04 #@! TF.FilePolarity,Positive*
G04*
G01*
G75*
%ADD18R,0.05315X0.05709*%
%ADD19R,0.05709X0.04134*%
%ADD21R,0.06004X0.02559*%
%ADD95R,0.03347X0.03347*%
%ADD96R,0.04528X0.05709*%
%ADD97R,0.05709X0.04528*%
%ADD98R,0.06102X0.06102*%
%ADD99R,0.06299X0.11024*%
%ADD100R,0.06102X0.06102*%
%ADD101R,0.03740X0.05315*%
%ADD102R,0.05315X0.03740*%
%ADD103R,0.06102X0.05315*%
%ADD104R,0.05512X0.05906*%
%ADD105R,0.05315X0.06102*%
%ADD106R,0.03937X0.05315*%
%ADD107R,0.06102X0.05906*%
%ADD108R,0.06102X0.05512*%
%ADD109R,0.08268X0.16535*%
D18*
X489496Y176000D02*
D03*
X483000D02*
D03*
D19*
X260000Y392000D02*
D03*
Y399284D02*
D03*
X252000Y392000D02*
D03*
Y399284D02*
D03*
X285000Y343284D02*
D03*
Y336000D02*
D03*
X302000Y342284D02*
D03*
Y335000D02*
D03*
D21*
X312677Y384500D02*
D03*
Y389500D02*
D03*
Y394500D02*
D03*
Y399500D02*
D03*
X291323D02*
D03*
Y394500D02*
D03*
Y389500D02*
D03*
Y384500D02*
D03*
D95*
X558000Y283189D02*
D03*
Y270000D02*
D03*
X539000Y399594D02*
D03*
Y386405D02*
D03*
X540000Y364189D02*
D03*
Y351000D02*
D03*
Y434594D02*
D03*
Y421406D02*
D03*
D96*
X181000Y216000D02*
D03*
X187890D02*
D03*
D97*
X135000Y206445D02*
D03*
Y199555D02*
D03*
X143000Y206445D02*
D03*
Y199555D02*
D03*
X427000Y215110D02*
D03*
Y222000D02*
D03*
D98*
X521000Y396284D02*
D03*
Y389000D02*
D03*
X520000Y361642D02*
D03*
Y354358D02*
D03*
X522000Y432000D02*
D03*
Y424717D02*
D03*
X412000Y478284D02*
D03*
Y471000D02*
D03*
X436000Y206716D02*
D03*
Y214000D02*
D03*
Y198000D02*
D03*
Y190717D02*
D03*
X527000Y273716D02*
D03*
Y281000D02*
D03*
X499000Y87000D02*
D03*
Y94283D02*
D03*
X469000Y86000D02*
D03*
Y93283D02*
D03*
X510000Y87000D02*
D03*
Y94283D02*
D03*
X540000Y88000D02*
D03*
Y95284D02*
D03*
X550000Y87717D02*
D03*
Y95000D02*
D03*
X458000Y86000D02*
D03*
Y93283D02*
D03*
D99*
X492000Y365929D02*
D03*
Y349000D02*
D03*
X493000Y401465D02*
D03*
Y384535D02*
D03*
X494000Y437465D02*
D03*
Y420535D02*
D03*
D100*
X541284Y448000D02*
D03*
X534000D02*
D03*
D101*
X541905Y474000D02*
D03*
X536000D02*
D03*
D102*
X438000Y470000D02*
D03*
Y475906D02*
D03*
X172000Y203000D02*
D03*
Y208906D02*
D03*
D103*
X237000Y437323D02*
D03*
Y445000D02*
D03*
Y346000D02*
D03*
Y353677D02*
D03*
D104*
X62000Y281000D02*
D03*
X69480D02*
D03*
X370000Y431000D02*
D03*
X362520D02*
D03*
X370000Y444000D02*
D03*
X362520D02*
D03*
D105*
X297000Y495000D02*
D03*
X289323D02*
D03*
D106*
X166000Y216000D02*
D03*
X171906D02*
D03*
D107*
X160000Y200913D02*
D03*
Y208000D02*
D03*
D108*
X427000Y206000D02*
D03*
Y198520D02*
D03*
X511000Y62520D02*
D03*
Y70000D02*
D03*
X550000Y63520D02*
D03*
Y71000D02*
D03*
X540000D02*
D03*
Y63520D02*
D03*
X499000Y70000D02*
D03*
Y62520D02*
D03*
X469000Y60520D02*
D03*
Y68000D02*
D03*
X459000Y60000D02*
D03*
Y67480D02*
D03*
D109*
X491000Y256000D02*
D03*
Y284937D02*
D03*
M02*
