G04*
G04 #@! TF.GenerationSoftware,Altium Limited,Altium Designer,21.2.2 (38)*
G04*
G04 Layer_Color=8388736*
%FSLAX25Y25*%
%MOIN*%
G70*
G04*
G04 #@! TF.SameCoordinates,22A5B088-EC4E-48B5-A717-39959E060BC5*
G04*
G04*
G04 #@! TF.FilePolarity,Positive*
G04*
G01*
G75*
%ADD11C,0.00787*%
G36*
X513535Y354032D02*
X513531Y353966D01*
X513527Y353893D01*
X513520Y353821D01*
X513509Y353748D01*
X513498Y353686D01*
Y353682D01*
X513495Y353675D01*
Y353664D01*
X513487Y353650D01*
X513476Y353609D01*
X513458Y353559D01*
X513433Y353500D01*
X513400Y353438D01*
X513364Y353377D01*
X513316Y353318D01*
X513313Y353315D01*
X513309Y353311D01*
X513298Y353300D01*
X513287Y353286D01*
X513251Y353249D01*
X513200Y353205D01*
X513138Y353158D01*
X513065Y353107D01*
X512981Y353060D01*
X512887Y353020D01*
X512883D01*
X512876Y353016D01*
X512861Y353009D01*
X512839Y353005D01*
X512814Y352994D01*
X512785Y352987D01*
X512752Y352980D01*
X512712Y352969D01*
X512672Y352958D01*
X512625Y352951D01*
X512523Y352933D01*
X512410Y352922D01*
X512286Y352918D01*
X512283D01*
X512275D01*
X512257D01*
X512239D01*
X512213Y352922D01*
X512184D01*
X512115Y352925D01*
X512035Y352936D01*
X511951Y352947D01*
X511864Y352965D01*
X511776Y352987D01*
X511773D01*
X511766Y352991D01*
X511755Y352994D01*
X511740Y352998D01*
X511700Y353013D01*
X511649Y353034D01*
X511591Y353056D01*
X511533Y353085D01*
X511471Y353122D01*
X511412Y353158D01*
X511405Y353162D01*
X511387Y353176D01*
X511362Y353198D01*
X511329Y353227D01*
X511292Y353260D01*
X511256Y353300D01*
X511216Y353340D01*
X511183Y353387D01*
X511180Y353395D01*
X511169Y353409D01*
X511154Y353435D01*
X511136Y353471D01*
X511114Y353515D01*
X511096Y353566D01*
X511074Y353624D01*
X511056Y353690D01*
Y353697D01*
X511052Y353708D01*
X511049Y353719D01*
X511045Y353755D01*
X511038Y353806D01*
X511030Y353864D01*
X511023Y353934D01*
X511019Y354010D01*
X511016Y354094D01*
Y355000D01*
X513535D01*
Y354032D01*
D02*
G37*
G36*
Y351972D02*
X511747Y351375D01*
X511744D01*
X511736Y351371D01*
X511726Y351367D01*
X511707Y351360D01*
X511664Y351345D01*
X511609Y351327D01*
X511547Y351309D01*
X511485Y351287D01*
X511427Y351269D01*
X511376Y351254D01*
X511383Y351251D01*
X511402Y351247D01*
X511434Y351236D01*
X511478Y351222D01*
X511536Y351203D01*
X511605Y351178D01*
X511686Y351152D01*
X511780Y351120D01*
X513535Y350516D01*
Y350068D01*
X511016D01*
Y350388D01*
X513123D01*
X511016Y351123D01*
Y351422D01*
X513160Y352150D01*
X511016D01*
Y352470D01*
X513535D01*
Y351972D01*
D02*
G37*
G36*
X512082Y348732D02*
X511773D01*
Y349689D01*
X512082D01*
Y348732D01*
D02*
G37*
G36*
X513535Y348015D02*
X512079D01*
X512075D01*
X512064D01*
X512046D01*
X512024D01*
X511999Y348011D01*
X511966D01*
X511897Y348008D01*
X511817Y348000D01*
X511736Y347989D01*
X511660Y347975D01*
X511627Y347968D01*
X511594Y347957D01*
X511587Y347953D01*
X511569Y347946D01*
X511544Y347927D01*
X511507Y347906D01*
X511471Y347880D01*
X511431Y347844D01*
X511391Y347800D01*
X511358Y347749D01*
X511354Y347742D01*
X511343Y347724D01*
X511332Y347691D01*
X511318Y347647D01*
X511300Y347596D01*
X511289Y347531D01*
X511278Y347462D01*
X511274Y347385D01*
Y347349D01*
X511278Y347327D01*
Y347294D01*
X511281Y347261D01*
X511296Y347181D01*
X511314Y347094D01*
X511343Y347010D01*
X511383Y346930D01*
X511409Y346894D01*
X511438Y346861D01*
X511442Y346857D01*
X511445Y346854D01*
X511456Y346846D01*
X511471Y346835D01*
X511493Y346825D01*
X511514Y346810D01*
X511547Y346795D01*
X511580Y346781D01*
X511620Y346766D01*
X511667Y346755D01*
X511722Y346741D01*
X511780Y346730D01*
X511846Y346719D01*
X511915Y346712D01*
X511995Y346704D01*
X512079D01*
X513535D01*
Y346370D01*
X512079D01*
X512075D01*
X512060D01*
X512042D01*
X512017D01*
X511984Y346373D01*
X511948D01*
X511904Y346377D01*
X511860Y346380D01*
X511762Y346391D01*
X511660Y346406D01*
X511562Y346428D01*
X511514Y346442D01*
X511471Y346457D01*
X511467D01*
X511460Y346461D01*
X511449Y346468D01*
X511434Y346475D01*
X511394Y346497D01*
X511343Y346530D01*
X511285Y346573D01*
X511227Y346624D01*
X511165Y346690D01*
X511110Y346770D01*
Y346774D01*
X511103Y346781D01*
X511099Y346792D01*
X511089Y346810D01*
X511078Y346832D01*
X511067Y346861D01*
X511056Y346890D01*
X511041Y346926D01*
X511027Y346967D01*
X511016Y347010D01*
X511005Y347058D01*
X510994Y347112D01*
X510987Y347167D01*
X510979Y347225D01*
X510972Y347356D01*
Y347389D01*
X510976Y347414D01*
Y347443D01*
X510979Y347480D01*
X510983Y347520D01*
X510987Y347560D01*
X511001Y347651D01*
X511023Y347749D01*
X511052Y347844D01*
X511092Y347935D01*
Y347938D01*
X511099Y347946D01*
X511107Y347957D01*
X511114Y347971D01*
X511143Y348011D01*
X511183Y348059D01*
X511234Y348113D01*
X511292Y348164D01*
X511365Y348215D01*
X511445Y348255D01*
X511449D01*
X511456Y348259D01*
X511471Y348262D01*
X511489Y348270D01*
X511511Y348277D01*
X511540Y348284D01*
X511573Y348295D01*
X511613Y348302D01*
X511656Y348310D01*
X511704Y348321D01*
X511755Y348328D01*
X511809Y348335D01*
X511871Y348342D01*
X511937Y348346D01*
X512006Y348350D01*
X512079D01*
X513535D01*
Y348015D01*
D02*
G37*
G36*
X512912Y345700D02*
X512920Y345692D01*
X512923Y345678D01*
X512934Y345660D01*
X512945Y345638D01*
X512959Y345612D01*
X512996Y345551D01*
X513036Y345478D01*
X513087Y345405D01*
X513145Y345328D01*
X513207Y345252D01*
X513211Y345248D01*
X513214Y345245D01*
X513225Y345234D01*
X513236Y345219D01*
X513272Y345187D01*
X513316Y345143D01*
X513367Y345099D01*
X513425Y345052D01*
X513484Y345012D01*
X513546Y344975D01*
Y344775D01*
X511016D01*
Y345085D01*
X512985D01*
X512981Y345088D01*
X512967Y345107D01*
X512945Y345128D01*
X512920Y345165D01*
X512887Y345205D01*
X512850Y345256D01*
X512810Y345314D01*
X512770Y345379D01*
Y345383D01*
X512767Y345387D01*
X512752Y345409D01*
X512734Y345445D01*
X512712Y345489D01*
X512686Y345540D01*
X512661Y345594D01*
X512636Y345649D01*
X512614Y345703D01*
X512912D01*
Y345700D01*
D02*
G37*
%LPC*%
G36*
X513236Y354665D02*
X511314D01*
Y354068D01*
X511318Y354043D01*
X511321Y353988D01*
X511325Y353926D01*
X511332Y353861D01*
X511343Y353795D01*
X511358Y353741D01*
X511362Y353733D01*
X511365Y353715D01*
X511376Y353690D01*
X511391Y353657D01*
X511412Y353620D01*
X511434Y353584D01*
X511460Y353548D01*
X511489Y353511D01*
X511496Y353508D01*
X511511Y353493D01*
X511536Y353471D01*
X511573Y353446D01*
X511620Y353417D01*
X511675Y353384D01*
X511736Y353355D01*
X511806Y353329D01*
X511809D01*
X511817Y353326D01*
X511828Y353322D01*
X511842Y353318D01*
X511860Y353315D01*
X511886Y353307D01*
X511911Y353300D01*
X511940Y353293D01*
X512013Y353282D01*
X512097Y353271D01*
X512191Y353264D01*
X512293Y353260D01*
X512297D01*
X512312D01*
X512330D01*
X512359Y353264D01*
X512392D01*
X512428Y353267D01*
X512472Y353271D01*
X512515Y353275D01*
X512614Y353293D01*
X512716Y353315D01*
X512810Y353347D01*
X512858Y353369D01*
X512898Y353391D01*
X512901D01*
X512909Y353398D01*
X512920Y353406D01*
X512934Y353413D01*
X512970Y353442D01*
X513014Y353479D01*
X513061Y353526D01*
X513109Y353580D01*
X513149Y353642D01*
X513181Y353708D01*
X513185Y353715D01*
X513189Y353733D01*
X513200Y353766D01*
X513211Y353813D01*
X513218Y353872D01*
X513229Y353944D01*
X513233Y353988D01*
Y354035D01*
X513236Y354083D01*
Y354665D01*
D02*
G37*
%LPD*%
D11*
X443575Y442402D02*
X578457D01*
X443575Y267598D02*
Y442402D01*
Y267598D02*
X578457D01*
Y442402D01*
M02*
