G04*
G04 #@! TF.GenerationSoftware,Altium Limited,Altium Designer,21.2.2 (38)*
G04*
G04 Layer_Color=32896*
%FSLAX25Y25*%
%MOIN*%
G70*
G04*
G04 #@! TF.SameCoordinates,9089D698-1931-4360-AEFD-B440DD5BBD6E*
G04*
G04*
G04 #@! TF.FilePolarity,Positive*
G04*
G01*
G75*
%ADD11C,0.00787*%
G36*
X252342Y426681D02*
X252404Y426725D01*
X252430Y426747D01*
X252455Y426765D01*
X252477Y426783D01*
X252491Y426798D01*
X252502Y426809D01*
X252506Y426812D01*
X252524Y426831D01*
X252542Y426853D01*
X252590Y426903D01*
X252644Y426962D01*
X252699Y427024D01*
X252746Y427082D01*
X252768Y427107D01*
X252790Y427129D01*
X252804Y427147D01*
X252815Y427162D01*
X252823Y427169D01*
X252826Y427173D01*
X252877Y427231D01*
X252925Y427289D01*
X252972Y427340D01*
X253012Y427388D01*
X253052Y427431D01*
X253088Y427468D01*
X253121Y427504D01*
X253150Y427533D01*
X253179Y427562D01*
X253201Y427584D01*
X253219Y427602D01*
X253238Y427621D01*
X253259Y427639D01*
X253267Y427646D01*
X253329Y427697D01*
X253383Y427741D01*
X253438Y427777D01*
X253482Y427806D01*
X253521Y427828D01*
X253551Y427843D01*
X253569Y427850D01*
X253576Y427853D01*
X253631Y427875D01*
X253685Y427890D01*
X253736Y427904D01*
X253780Y427912D01*
X253820Y427915D01*
X253849Y427919D01*
X253867D01*
X253875D01*
X253929Y427915D01*
X253980Y427908D01*
X254031Y427901D01*
X254075Y427886D01*
X254162Y427850D01*
X254231Y427813D01*
X254264Y427792D01*
X254290Y427773D01*
X254315Y427755D01*
X254333Y427737D01*
X254348Y427722D01*
X254362Y427715D01*
X254366Y427708D01*
X254370Y427704D01*
X254406Y427664D01*
X254439Y427621D01*
X254464Y427573D01*
X254486Y427526D01*
X254522Y427431D01*
X254548Y427337D01*
X254555Y427297D01*
X254563Y427256D01*
X254566Y427220D01*
X254570Y427191D01*
X254573Y427166D01*
Y427129D01*
X254570Y427064D01*
X254566Y427002D01*
X254555Y426943D01*
X254544Y426889D01*
X254530Y426838D01*
X254515Y426791D01*
X254497Y426747D01*
X254479Y426707D01*
X254461Y426671D01*
X254442Y426641D01*
X254428Y426616D01*
X254413Y426594D01*
X254402Y426576D01*
X254392Y426565D01*
X254388Y426558D01*
X254384Y426554D01*
X254348Y426518D01*
X254308Y426485D01*
X254264Y426452D01*
X254220Y426427D01*
X254133Y426383D01*
X254046Y426354D01*
X254006Y426343D01*
X253966Y426332D01*
X253933Y426325D01*
X253904Y426317D01*
X253878Y426314D01*
X253860D01*
X253849Y426310D01*
X253846D01*
X253813Y426627D01*
X253896Y426634D01*
X253969Y426649D01*
X254035Y426671D01*
X254086Y426696D01*
X254129Y426718D01*
X254158Y426740D01*
X254177Y426754D01*
X254184Y426761D01*
X254228Y426816D01*
X254260Y426874D01*
X254286Y426936D01*
X254300Y426991D01*
X254311Y427042D01*
X254315Y427085D01*
X254319Y427100D01*
Y427122D01*
X254315Y427198D01*
X254300Y427267D01*
X254279Y427326D01*
X254257Y427377D01*
X254231Y427417D01*
X254213Y427442D01*
X254199Y427460D01*
X254191Y427468D01*
X254140Y427511D01*
X254089Y427544D01*
X254038Y427570D01*
X253987Y427584D01*
X253947Y427595D01*
X253911Y427599D01*
X253889Y427602D01*
X253886D01*
X253882D01*
X253816Y427595D01*
X253747Y427580D01*
X253685Y427555D01*
X253627Y427529D01*
X253580Y427500D01*
X253540Y427475D01*
X253525Y427468D01*
X253514Y427460D01*
X253511Y427453D01*
X253507D01*
X253467Y427424D01*
X253427Y427388D01*
X253383Y427348D01*
X253340Y427304D01*
X253252Y427213D01*
X253165Y427122D01*
X253125Y427074D01*
X253088Y427035D01*
X253056Y426994D01*
X253027Y426962D01*
X253005Y426936D01*
X252986Y426914D01*
X252976Y426900D01*
X252972Y426896D01*
X252895Y426805D01*
X252823Y426721D01*
X252757Y426652D01*
X252702Y426598D01*
X252655Y426550D01*
X252622Y426518D01*
X252601Y426499D01*
X252597Y426492D01*
X252593D01*
X252531Y426441D01*
X252473Y426401D01*
X252415Y426365D01*
X252364Y426336D01*
X252320Y426314D01*
X252288Y426299D01*
X252266Y426292D01*
X252262Y426288D01*
X252258D01*
X252218Y426274D01*
X252182Y426266D01*
X252146Y426259D01*
X252113Y426256D01*
X252084Y426252D01*
X252062D01*
X252047D01*
X252044D01*
Y427923D01*
X252342D01*
Y426681D01*
D02*
G37*
G36*
X253438Y425961D02*
X253551Y425950D01*
X253653Y425932D01*
X253700Y425924D01*
X253740Y425913D01*
X253780Y425902D01*
X253813Y425895D01*
X253842Y425888D01*
X253867Y425877D01*
X253889Y425873D01*
X253904Y425866D01*
X253911Y425862D01*
X253915D01*
X254009Y425822D01*
X254093Y425775D01*
X254166Y425724D01*
X254228Y425677D01*
X254279Y425633D01*
X254315Y425597D01*
X254326Y425582D01*
X254337Y425571D01*
X254341Y425568D01*
X254344Y425564D01*
X254392Y425506D01*
X254428Y425444D01*
X254461Y425382D01*
X254486Y425324D01*
X254504Y425273D01*
X254515Y425233D01*
X254522Y425218D01*
Y425207D01*
X254526Y425200D01*
Y425196D01*
X254537Y425134D01*
X254548Y425062D01*
X254555Y424989D01*
X254559Y424916D01*
X254563Y424851D01*
Y423882D01*
X252044D01*
Y424789D01*
X252047Y424872D01*
X252051Y424949D01*
X252058Y425018D01*
X252065Y425076D01*
X252073Y425127D01*
X252076Y425164D01*
X252080Y425174D01*
X252084Y425185D01*
Y425193D01*
X252102Y425258D01*
X252124Y425316D01*
X252142Y425367D01*
X252164Y425411D01*
X252182Y425447D01*
X252197Y425473D01*
X252207Y425488D01*
X252211Y425495D01*
X252244Y425542D01*
X252284Y425582D01*
X252320Y425622D01*
X252357Y425655D01*
X252390Y425684D01*
X252415Y425706D01*
X252433Y425720D01*
X252440Y425724D01*
X252499Y425761D01*
X252561Y425797D01*
X252619Y425826D01*
X252677Y425848D01*
X252728Y425870D01*
X252768Y425884D01*
X252783Y425888D01*
X252794Y425891D01*
X252801Y425895D01*
X252804D01*
X252892Y425917D01*
X252979Y425935D01*
X253063Y425946D01*
X253143Y425957D01*
X253212Y425961D01*
X253241D01*
X253267Y425964D01*
X253285D01*
X253303D01*
X253310D01*
X253314D01*
X253438Y425961D01*
D02*
G37*
G36*
X253110Y422546D02*
X252801D01*
Y423504D01*
X253110D01*
Y422546D01*
D02*
G37*
G36*
X252823Y422248D02*
X252892Y422237D01*
X252954Y422219D01*
X253005Y422201D01*
X253048Y422179D01*
X253081Y422164D01*
X253099Y422150D01*
X253107Y422146D01*
X253161Y422102D01*
X253212Y422051D01*
X253256Y421997D01*
X253296Y421942D01*
X253325Y421895D01*
X253347Y421855D01*
X253354Y421840D01*
X253361Y421829D01*
X253365Y421822D01*
Y421818D01*
X253380Y421789D01*
X253391Y421753D01*
X253405Y421713D01*
X253420Y421669D01*
X253445Y421578D01*
X253471Y421484D01*
X253482Y421440D01*
X253492Y421400D01*
X253503Y421360D01*
X253511Y421327D01*
X253518Y421302D01*
X253521Y421280D01*
X253525Y421265D01*
Y421261D01*
X253543Y421189D01*
X253558Y421123D01*
X253576Y421065D01*
X253591Y421014D01*
X253609Y420967D01*
X253623Y420927D01*
X253638Y420890D01*
X253649Y420857D01*
X253663Y420832D01*
X253674Y420810D01*
X253682Y420795D01*
X253693Y420781D01*
X253703Y420763D01*
X253707Y420759D01*
X253744Y420726D01*
X253780Y420705D01*
X253816Y420686D01*
X253853Y420675D01*
X253882Y420668D01*
X253907Y420665D01*
X253922D01*
X253929D01*
X253987Y420672D01*
X254038Y420686D01*
X254082Y420708D01*
X254122Y420734D01*
X254151Y420755D01*
X254177Y420777D01*
X254191Y420792D01*
X254195Y420799D01*
X254213Y420828D01*
X254231Y420857D01*
X254260Y420927D01*
X254279Y420999D01*
X254293Y421072D01*
X254300Y421138D01*
X254304Y421167D01*
X254308Y421189D01*
Y421240D01*
X254304Y421342D01*
X254290Y421432D01*
X254268Y421505D01*
X254246Y421567D01*
X254224Y421615D01*
X254202Y421651D01*
X254188Y421669D01*
X254184Y421676D01*
X254133Y421727D01*
X254078Y421767D01*
X254020Y421800D01*
X253962Y421822D01*
X253907Y421837D01*
X253867Y421847D01*
X253849Y421851D01*
X253838Y421855D01*
X253831D01*
X253827D01*
X253853Y422175D01*
X253933Y422168D01*
X254006Y422150D01*
X254075Y422131D01*
X254133Y422106D01*
X254180Y422084D01*
X254217Y422066D01*
X254228Y422059D01*
X254239Y422051D01*
X254242Y422048D01*
X254246D01*
X254308Y422000D01*
X254362Y421949D01*
X254410Y421895D01*
X254446Y421840D01*
X254479Y421793D01*
X254497Y421757D01*
X254504Y421742D01*
X254512Y421731D01*
X254515Y421724D01*
Y421720D01*
X254544Y421640D01*
X254566Y421553D01*
X254584Y421473D01*
X254595Y421396D01*
X254603Y421327D01*
Y421302D01*
X254606Y421276D01*
Y421229D01*
X254603Y421134D01*
X254592Y421050D01*
X254577Y420970D01*
X254563Y420901D01*
X254548Y420847D01*
X254541Y420821D01*
X254533Y420803D01*
X254526Y420788D01*
X254522Y420777D01*
X254519Y420770D01*
Y420766D01*
X254483Y420694D01*
X254442Y420628D01*
X254399Y420574D01*
X254359Y420530D01*
X254322Y420497D01*
X254293Y420472D01*
X254271Y420453D01*
X254268Y420450D01*
X254264D01*
X254202Y420413D01*
X254140Y420388D01*
X254078Y420370D01*
X254024Y420359D01*
X253976Y420351D01*
X253940Y420344D01*
X253926D01*
X253915D01*
X253911D01*
X253907D01*
X253846Y420348D01*
X253787Y420359D01*
X253733Y420373D01*
X253685Y420388D01*
X253649Y420402D01*
X253620Y420417D01*
X253602Y420428D01*
X253594Y420432D01*
X253543Y420468D01*
X253496Y420512D01*
X253456Y420555D01*
X253423Y420599D01*
X253394Y420635D01*
X253376Y420668D01*
X253361Y420690D01*
X253358Y420694D01*
Y420697D01*
X253343Y420726D01*
X253329Y420759D01*
X253303Y420832D01*
X253278Y420916D01*
X253252Y420996D01*
X253230Y421068D01*
X253223Y421101D01*
X253216Y421130D01*
X253208Y421152D01*
X253205Y421170D01*
X253201Y421181D01*
Y421185D01*
X253187Y421247D01*
X253172Y421305D01*
X253157Y421356D01*
X253147Y421400D01*
X253136Y421443D01*
X253125Y421480D01*
X253117Y421513D01*
X253107Y421538D01*
X253099Y421564D01*
X253096Y421582D01*
X253085Y421611D01*
X253081Y421629D01*
X253077Y421633D01*
X253056Y421687D01*
X253030Y421735D01*
X253005Y421775D01*
X252983Y421804D01*
X252961Y421829D01*
X252946Y421844D01*
X252936Y421855D01*
X252932Y421858D01*
X252899Y421884D01*
X252863Y421902D01*
X252826Y421913D01*
X252797Y421924D01*
X252768Y421928D01*
X252746Y421931D01*
X252728D01*
X252724D01*
X252681Y421928D01*
X252641Y421920D01*
X252604Y421909D01*
X252575Y421895D01*
X252546Y421880D01*
X252528Y421869D01*
X252513Y421862D01*
X252510Y421858D01*
X252473Y421829D01*
X252444Y421793D01*
X252419Y421757D01*
X252393Y421724D01*
X252379Y421691D01*
X252364Y421665D01*
X252357Y421647D01*
X252353Y421640D01*
X252335Y421585D01*
X252320Y421527D01*
X252313Y421469D01*
X252306Y421418D01*
X252302Y421374D01*
X252298Y421338D01*
Y421305D01*
X252302Y421225D01*
X252309Y421152D01*
X252320Y421087D01*
X252335Y421029D01*
X252349Y420981D01*
X252360Y420945D01*
X252364Y420934D01*
X252368Y420923D01*
X252371Y420919D01*
Y420916D01*
X252400Y420857D01*
X252433Y420803D01*
X252466Y420763D01*
X252499Y420726D01*
X252524Y420697D01*
X252550Y420679D01*
X252564Y420668D01*
X252568Y420665D01*
X252615Y420639D01*
X252666Y420613D01*
X252721Y420599D01*
X252768Y420584D01*
X252815Y420574D01*
X252848Y420566D01*
X252863D01*
X252874Y420563D01*
X252877D01*
X252881D01*
X252852Y420250D01*
X252761Y420257D01*
X252673Y420271D01*
X252597Y420293D01*
X252528Y420319D01*
X252473Y420344D01*
X252451Y420355D01*
X252433Y420362D01*
X252419Y420373D01*
X252408Y420377D01*
X252400Y420384D01*
X252397D01*
X252328Y420439D01*
X252266Y420497D01*
X252215Y420559D01*
X252171Y420617D01*
X252138Y420668D01*
X252116Y420712D01*
X252109Y420726D01*
X252102Y420737D01*
X252098Y420745D01*
Y420748D01*
X252065Y420839D01*
X252040Y420934D01*
X252026Y421029D01*
X252011Y421119D01*
X252007Y421163D01*
X252004Y421200D01*
Y421232D01*
X252000Y421261D01*
Y421320D01*
X252004Y421418D01*
X252015Y421509D01*
X252033Y421593D01*
X252051Y421662D01*
X252065Y421720D01*
X252076Y421746D01*
X252084Y421767D01*
X252091Y421782D01*
X252095Y421793D01*
X252098Y421800D01*
Y421804D01*
X252138Y421880D01*
X252182Y421946D01*
X252229Y422004D01*
X252273Y422051D01*
X252309Y422088D01*
X252342Y422113D01*
X252364Y422131D01*
X252368Y422135D01*
X252371D01*
X252440Y422175D01*
X252506Y422204D01*
X252568Y422222D01*
X252626Y422237D01*
X252677Y422244D01*
X252717Y422252D01*
X252732D01*
X252743D01*
X252746D01*
X252750D01*
X252823Y422248D01*
D02*
G37*
G36*
X252855Y419900D02*
X252928Y419885D01*
X252990Y419864D01*
X253048Y419842D01*
X253092Y419820D01*
X253125Y419798D01*
X253147Y419784D01*
X253154Y419780D01*
X253212Y419729D01*
X253259Y419674D01*
X253299Y419613D01*
X253332Y419558D01*
X253358Y419507D01*
X253372Y419463D01*
X253380Y419449D01*
X253383Y419438D01*
X253387Y419430D01*
Y419427D01*
X253423Y419489D01*
X253460Y419543D01*
X253500Y419587D01*
X253536Y419623D01*
X253565Y419653D01*
X253594Y419674D01*
X253609Y419685D01*
X253616Y419689D01*
X253671Y419718D01*
X253722Y419740D01*
X253773Y419758D01*
X253820Y419769D01*
X253860Y419776D01*
X253893Y419780D01*
X253911D01*
X253918D01*
X253980Y419776D01*
X254042Y419765D01*
X254097Y419747D01*
X254148Y419729D01*
X254191Y419711D01*
X254220Y419693D01*
X254242Y419682D01*
X254250Y419678D01*
X254304Y419638D01*
X254355Y419594D01*
X254395Y419547D01*
X254428Y419503D01*
X254453Y419467D01*
X254472Y419434D01*
X254483Y419412D01*
X254486Y419409D01*
Y419405D01*
X254512Y419336D01*
X254530Y419259D01*
X254544Y419183D01*
X254552Y419110D01*
X254559Y419045D01*
Y419016D01*
X254563Y418990D01*
Y418000D01*
X252044D01*
Y418961D01*
X252047Y419048D01*
X252051Y419125D01*
X252058Y419194D01*
X252065Y419252D01*
X252073Y419300D01*
X252076Y419336D01*
X252084Y419358D01*
Y419365D01*
X252102Y419427D01*
X252120Y419478D01*
X252142Y419525D01*
X252164Y419565D01*
X252178Y419598D01*
X252193Y419623D01*
X252204Y419638D01*
X252207Y419642D01*
X252240Y419682D01*
X252280Y419718D01*
X252320Y419747D01*
X252357Y419776D01*
X252393Y419798D01*
X252419Y419813D01*
X252437Y419824D01*
X252444Y419827D01*
X252502Y419853D01*
X252561Y419871D01*
X252615Y419885D01*
X252666Y419893D01*
X252710Y419900D01*
X252746Y419904D01*
X252768D01*
X252772D01*
X252775D01*
X252855Y419900D01*
D02*
G37*
G36*
X286788Y321512D02*
X286828Y321453D01*
X286876Y321395D01*
X286919Y321344D01*
X286963Y321300D01*
X286996Y321264D01*
X287010Y321253D01*
X287021Y321242D01*
X287025Y321238D01*
X287028Y321235D01*
X287105Y321173D01*
X287181Y321115D01*
X287254Y321064D01*
X287327Y321024D01*
X287389Y320987D01*
X287414Y320973D01*
X287436Y320962D01*
X287454Y320951D01*
X287469Y320947D01*
X287476Y320940D01*
X287480D01*
Y320642D01*
X287425Y320663D01*
X287370Y320689D01*
X287316Y320714D01*
X287265Y320740D01*
X287221Y320762D01*
X287185Y320780D01*
X287163Y320795D01*
X287159Y320798D01*
X287156D01*
X287090Y320838D01*
X287032Y320878D01*
X286981Y320915D01*
X286941Y320947D01*
X286905Y320973D01*
X286883Y320995D01*
X286864Y321009D01*
X286861Y321013D01*
Y319044D01*
X286551D01*
Y321573D01*
X286752D01*
X286788Y321512D01*
D02*
G37*
G36*
X291465Y319801D02*
X290508D01*
Y320110D01*
X291465D01*
Y319801D01*
D02*
G37*
G36*
X296012Y319044D02*
X295051D01*
X294964Y319047D01*
X294887Y319051D01*
X294818Y319058D01*
X294760Y319065D01*
X294712Y319073D01*
X294676Y319076D01*
X294654Y319084D01*
X294647D01*
X294585Y319102D01*
X294534Y319120D01*
X294487Y319142D01*
X294447Y319164D01*
X294414Y319178D01*
X294388Y319193D01*
X294374Y319204D01*
X294370Y319207D01*
X294330Y319240D01*
X294294Y319280D01*
X294265Y319320D01*
X294235Y319357D01*
X294214Y319393D01*
X294199Y319419D01*
X294188Y319437D01*
X294185Y319444D01*
X294159Y319502D01*
X294141Y319561D01*
X294126Y319615D01*
X294119Y319666D01*
X294112Y319710D01*
X294108Y319746D01*
Y319768D01*
Y319772D01*
Y319775D01*
X294112Y319855D01*
X294126Y319928D01*
X294148Y319990D01*
X294170Y320048D01*
X294192Y320092D01*
X294214Y320125D01*
X294228Y320146D01*
X294232Y320154D01*
X294283Y320212D01*
X294338Y320259D01*
X294399Y320299D01*
X294454Y320332D01*
X294505Y320358D01*
X294549Y320372D01*
X294563Y320379D01*
X294574Y320383D01*
X294581Y320387D01*
X294585D01*
X294523Y320423D01*
X294468Y320460D01*
X294425Y320500D01*
X294388Y320536D01*
X294359Y320565D01*
X294338Y320594D01*
X294326Y320609D01*
X294323Y320616D01*
X294294Y320671D01*
X294272Y320722D01*
X294254Y320773D01*
X294243Y320820D01*
X294235Y320860D01*
X294232Y320893D01*
Y320911D01*
Y320918D01*
X294235Y320980D01*
X294247Y321042D01*
X294265Y321097D01*
X294283Y321148D01*
X294301Y321191D01*
X294319Y321220D01*
X294330Y321242D01*
X294334Y321250D01*
X294374Y321304D01*
X294418Y321355D01*
X294465Y321395D01*
X294509Y321428D01*
X294545Y321453D01*
X294578Y321472D01*
X294600Y321482D01*
X294603Y321486D01*
X294607D01*
X294676Y321512D01*
X294752Y321530D01*
X294829Y321544D01*
X294902Y321552D01*
X294967Y321559D01*
X294996D01*
X295022Y321563D01*
X296012D01*
Y319044D01*
D02*
G37*
G36*
X290130D02*
X289223D01*
X289140Y319047D01*
X289063Y319051D01*
X288994Y319058D01*
X288936Y319065D01*
X288885Y319073D01*
X288848Y319076D01*
X288837Y319080D01*
X288826Y319084D01*
X288819D01*
X288754Y319102D01*
X288696Y319124D01*
X288645Y319142D01*
X288601Y319164D01*
X288564Y319182D01*
X288539Y319197D01*
X288524Y319207D01*
X288517Y319211D01*
X288470Y319244D01*
X288430Y319284D01*
X288390Y319320D01*
X288357Y319357D01*
X288328Y319389D01*
X288306Y319415D01*
X288291Y319433D01*
X288288Y319440D01*
X288251Y319499D01*
X288215Y319561D01*
X288186Y319619D01*
X288164Y319677D01*
X288142Y319728D01*
X288128Y319768D01*
X288124Y319782D01*
X288120Y319794D01*
X288117Y319801D01*
Y319804D01*
X288095Y319892D01*
X288077Y319979D01*
X288066Y320063D01*
X288055Y320143D01*
X288051Y320212D01*
Y320241D01*
X288048Y320267D01*
Y320285D01*
Y320303D01*
Y320310D01*
Y320314D01*
X288051Y320438D01*
X288062Y320551D01*
X288080Y320653D01*
X288088Y320700D01*
X288099Y320740D01*
X288109Y320780D01*
X288117Y320813D01*
X288124Y320842D01*
X288135Y320867D01*
X288139Y320889D01*
X288146Y320904D01*
X288149Y320911D01*
Y320915D01*
X288190Y321009D01*
X288237Y321093D01*
X288288Y321166D01*
X288335Y321228D01*
X288379Y321279D01*
X288415Y321315D01*
X288430Y321326D01*
X288441Y321337D01*
X288444Y321340D01*
X288448Y321344D01*
X288506Y321391D01*
X288568Y321428D01*
X288630Y321461D01*
X288688Y321486D01*
X288739Y321504D01*
X288779Y321515D01*
X288794Y321522D01*
X288805D01*
X288812Y321526D01*
X288816D01*
X288878Y321537D01*
X288950Y321548D01*
X289023Y321555D01*
X289096Y321559D01*
X289161Y321563D01*
X290130D01*
Y319044D01*
D02*
G37*
G36*
X292878Y321603D02*
X292962Y321592D01*
X293042Y321577D01*
X293111Y321563D01*
X293165Y321548D01*
X293191Y321541D01*
X293209Y321533D01*
X293224Y321526D01*
X293234Y321522D01*
X293242Y321519D01*
X293246D01*
X293318Y321482D01*
X293384Y321442D01*
X293438Y321399D01*
X293482Y321359D01*
X293515Y321322D01*
X293540Y321293D01*
X293559Y321271D01*
X293562Y321268D01*
Y321264D01*
X293599Y321202D01*
X293624Y321140D01*
X293642Y321078D01*
X293653Y321024D01*
X293660Y320976D01*
X293668Y320940D01*
Y320925D01*
Y320915D01*
Y320911D01*
Y320907D01*
X293664Y320845D01*
X293653Y320787D01*
X293639Y320733D01*
X293624Y320685D01*
X293609Y320649D01*
X293595Y320620D01*
X293584Y320602D01*
X293580Y320594D01*
X293544Y320543D01*
X293500Y320496D01*
X293457Y320456D01*
X293413Y320423D01*
X293376Y320394D01*
X293344Y320376D01*
X293322Y320361D01*
X293318Y320358D01*
X293315D01*
X293285Y320343D01*
X293253Y320328D01*
X293180Y320303D01*
X293096Y320278D01*
X293016Y320252D01*
X292943Y320230D01*
X292911Y320223D01*
X292881Y320216D01*
X292860Y320208D01*
X292841Y320205D01*
X292830Y320201D01*
X292827D01*
X292765Y320187D01*
X292707Y320172D01*
X292656Y320158D01*
X292612Y320146D01*
X292568Y320136D01*
X292532Y320125D01*
X292499Y320117D01*
X292474Y320107D01*
X292448Y320099D01*
X292430Y320096D01*
X292401Y320085D01*
X292383Y320081D01*
X292379Y320077D01*
X292324Y320056D01*
X292277Y320030D01*
X292237Y320005D01*
X292208Y319983D01*
X292183Y319961D01*
X292168Y319946D01*
X292157Y319935D01*
X292154Y319932D01*
X292128Y319899D01*
X292110Y319863D01*
X292099Y319826D01*
X292088Y319797D01*
X292084Y319768D01*
X292081Y319746D01*
Y319728D01*
Y319724D01*
X292084Y319681D01*
X292092Y319641D01*
X292103Y319604D01*
X292117Y319575D01*
X292132Y319546D01*
X292143Y319528D01*
X292150Y319513D01*
X292154Y319510D01*
X292183Y319473D01*
X292219Y319444D01*
X292255Y319419D01*
X292288Y319393D01*
X292321Y319378D01*
X292346Y319364D01*
X292365Y319357D01*
X292372Y319353D01*
X292426Y319335D01*
X292485Y319320D01*
X292543Y319313D01*
X292594Y319306D01*
X292638Y319302D01*
X292674Y319298D01*
X292707D01*
X292787Y319302D01*
X292860Y319309D01*
X292925Y319320D01*
X292983Y319335D01*
X293031Y319349D01*
X293067Y319360D01*
X293078Y319364D01*
X293089Y319368D01*
X293093Y319371D01*
X293096D01*
X293155Y319400D01*
X293209Y319433D01*
X293249Y319466D01*
X293285Y319499D01*
X293315Y319524D01*
X293333Y319550D01*
X293344Y319564D01*
X293347Y319568D01*
X293373Y319615D01*
X293398Y319666D01*
X293413Y319721D01*
X293427Y319768D01*
X293438Y319815D01*
X293446Y319848D01*
Y319863D01*
X293449Y319873D01*
Y319877D01*
Y319881D01*
X293762Y319852D01*
X293755Y319761D01*
X293741Y319673D01*
X293719Y319597D01*
X293693Y319528D01*
X293668Y319473D01*
X293657Y319451D01*
X293650Y319433D01*
X293639Y319419D01*
X293635Y319408D01*
X293628Y319400D01*
Y319397D01*
X293573Y319328D01*
X293515Y319266D01*
X293453Y319215D01*
X293395Y319171D01*
X293344Y319138D01*
X293300Y319116D01*
X293285Y319109D01*
X293275Y319102D01*
X293267Y319098D01*
X293264D01*
X293173Y319065D01*
X293078Y319040D01*
X292983Y319025D01*
X292892Y319011D01*
X292849Y319007D01*
X292812Y319004D01*
X292779D01*
X292750Y319000D01*
X292692D01*
X292594Y319004D01*
X292503Y319015D01*
X292419Y319033D01*
X292350Y319051D01*
X292292Y319065D01*
X292266Y319076D01*
X292245Y319084D01*
X292230Y319091D01*
X292219Y319095D01*
X292212Y319098D01*
X292208D01*
X292132Y319138D01*
X292066Y319182D01*
X292008Y319229D01*
X291961Y319273D01*
X291924Y319309D01*
X291899Y319342D01*
X291880Y319364D01*
X291877Y319368D01*
Y319371D01*
X291837Y319440D01*
X291808Y319506D01*
X291790Y319568D01*
X291775Y319626D01*
X291768Y319677D01*
X291760Y319717D01*
Y319732D01*
Y319742D01*
Y319746D01*
Y319750D01*
X291764Y319823D01*
X291775Y319892D01*
X291793Y319954D01*
X291811Y320005D01*
X291833Y320048D01*
X291848Y320081D01*
X291862Y320099D01*
X291866Y320107D01*
X291910Y320161D01*
X291961Y320212D01*
X292015Y320256D01*
X292070Y320296D01*
X292117Y320325D01*
X292157Y320347D01*
X292172Y320354D01*
X292183Y320361D01*
X292190Y320365D01*
X292194D01*
X292223Y320379D01*
X292259Y320390D01*
X292299Y320405D01*
X292343Y320420D01*
X292434Y320445D01*
X292528Y320470D01*
X292572Y320481D01*
X292612Y320492D01*
X292652Y320503D01*
X292685Y320511D01*
X292710Y320518D01*
X292732Y320521D01*
X292747Y320525D01*
X292750D01*
X292823Y320543D01*
X292889Y320558D01*
X292947Y320576D01*
X292998Y320591D01*
X293045Y320609D01*
X293085Y320623D01*
X293122Y320638D01*
X293155Y320649D01*
X293180Y320663D01*
X293202Y320674D01*
X293216Y320682D01*
X293231Y320692D01*
X293249Y320704D01*
X293253Y320707D01*
X293285Y320743D01*
X293307Y320780D01*
X293325Y320816D01*
X293337Y320853D01*
X293344Y320882D01*
X293347Y320907D01*
Y320922D01*
Y320929D01*
X293340Y320987D01*
X293325Y321038D01*
X293304Y321082D01*
X293278Y321122D01*
X293256Y321151D01*
X293234Y321177D01*
X293220Y321191D01*
X293213Y321195D01*
X293184Y321213D01*
X293155Y321231D01*
X293085Y321260D01*
X293012Y321279D01*
X292940Y321293D01*
X292874Y321300D01*
X292845Y321304D01*
X292823Y321308D01*
X292772D01*
X292670Y321304D01*
X292579Y321289D01*
X292507Y321268D01*
X292445Y321246D01*
X292397Y321224D01*
X292361Y321202D01*
X292343Y321188D01*
X292336Y321184D01*
X292284Y321133D01*
X292245Y321078D01*
X292212Y321020D01*
X292190Y320962D01*
X292175Y320907D01*
X292164Y320867D01*
X292161Y320849D01*
X292157Y320838D01*
Y320831D01*
Y320827D01*
X291837Y320853D01*
X291844Y320933D01*
X291862Y321006D01*
X291880Y321075D01*
X291906Y321133D01*
X291928Y321180D01*
X291946Y321217D01*
X291953Y321228D01*
X291961Y321238D01*
X291964Y321242D01*
Y321246D01*
X292011Y321308D01*
X292062Y321362D01*
X292117Y321410D01*
X292172Y321446D01*
X292219Y321479D01*
X292255Y321497D01*
X292270Y321504D01*
X292281Y321512D01*
X292288Y321515D01*
X292292D01*
X292372Y321544D01*
X292459Y321566D01*
X292539Y321584D01*
X292616Y321595D01*
X292685Y321603D01*
X292710D01*
X292736Y321606D01*
X292783D01*
X292878Y321603D01*
D02*
G37*
G36*
X548485Y476512D02*
X548525Y476453D01*
X548572Y476395D01*
X548616Y476344D01*
X548660Y476300D01*
X548693Y476264D01*
X548707Y476253D01*
X548718Y476242D01*
X548722Y476239D01*
X548725Y476235D01*
X548802Y476173D01*
X548878Y476115D01*
X548951Y476064D01*
X549024Y476024D01*
X549086Y475987D01*
X549111Y475973D01*
X549133Y475962D01*
X549151Y475951D01*
X549166Y475947D01*
X549173Y475940D01*
X549177D01*
Y475642D01*
X549122Y475664D01*
X549067Y475689D01*
X549013Y475714D01*
X548962Y475740D01*
X548918Y475762D01*
X548882Y475780D01*
X548860Y475795D01*
X548856Y475798D01*
X548853D01*
X548787Y475838D01*
X548729Y475878D01*
X548678Y475915D01*
X548638Y475947D01*
X548601Y475973D01*
X548580Y475995D01*
X548561Y476009D01*
X548558Y476013D01*
Y474044D01*
X548248D01*
Y476574D01*
X548449D01*
X548485Y476512D01*
D02*
G37*
G36*
X555528Y474044D02*
X555194D01*
Y475230D01*
X553890D01*
Y474044D01*
X553556D01*
Y476563D01*
X553890D01*
Y475529D01*
X555194D01*
Y476563D01*
X555528D01*
Y474044D01*
D02*
G37*
G36*
X553162Y474801D02*
X552205D01*
Y475110D01*
X553162D01*
Y474801D01*
D02*
G37*
G36*
X550858Y476599D02*
X550975Y476581D01*
X551077Y476559D01*
X551124Y476544D01*
X551168Y476530D01*
X551208Y476515D01*
X551244Y476501D01*
X551273Y476490D01*
X551302Y476479D01*
X551321Y476468D01*
X551335Y476461D01*
X551346Y476457D01*
X551350Y476453D01*
X551448Y476392D01*
X551532Y476319D01*
X551605Y476246D01*
X551666Y476173D01*
X551714Y476108D01*
X551732Y476078D01*
X551747Y476053D01*
X551761Y476035D01*
X551768Y476020D01*
X551772Y476009D01*
X551776Y476006D01*
X551827Y475893D01*
X551863Y475776D01*
X551888Y475660D01*
X551907Y475554D01*
X551914Y475507D01*
X551918Y475460D01*
X551921Y475423D01*
Y475387D01*
X551925Y475361D01*
Y475340D01*
Y475325D01*
Y475321D01*
X551918Y475190D01*
X551903Y475063D01*
X551885Y474950D01*
X551870Y474895D01*
X551859Y474848D01*
X551848Y474804D01*
X551834Y474764D01*
X551823Y474728D01*
X551816Y474699D01*
X551805Y474677D01*
X551801Y474659D01*
X551794Y474648D01*
Y474644D01*
X551739Y474535D01*
X551677Y474437D01*
X551612Y474353D01*
X551579Y474320D01*
X551550Y474288D01*
X551521Y474258D01*
X551492Y474233D01*
X551466Y474211D01*
X551444Y474197D01*
X551430Y474182D01*
X551415Y474171D01*
X551408Y474167D01*
X551404Y474164D01*
X551353Y474135D01*
X551302Y474109D01*
X551193Y474069D01*
X551084Y474040D01*
X550978Y474022D01*
X550927Y474015D01*
X550884Y474007D01*
X550844Y474004D01*
X550811D01*
X550782Y474000D01*
X550742D01*
X550669Y474004D01*
X550600Y474011D01*
X550534Y474018D01*
X550472Y474033D01*
X550414Y474051D01*
X550360Y474069D01*
X550309Y474087D01*
X550261Y474109D01*
X550221Y474127D01*
X550181Y474146D01*
X550152Y474164D01*
X550123Y474182D01*
X550105Y474197D01*
X550087Y474204D01*
X550079Y474211D01*
X550076Y474215D01*
X550025Y474258D01*
X549981Y474302D01*
X549941Y474353D01*
X549901Y474404D01*
X549835Y474506D01*
X549785Y474608D01*
X549763Y474655D01*
X549745Y474699D01*
X549730Y474739D01*
X549719Y474772D01*
X549708Y474801D01*
X549701Y474823D01*
X549697Y474837D01*
Y474841D01*
X550032Y474925D01*
X550047Y474866D01*
X550065Y474812D01*
X550083Y474761D01*
X550101Y474713D01*
X550123Y474670D01*
X550145Y474633D01*
X550170Y474597D01*
X550192Y474564D01*
X550210Y474535D01*
X550232Y474513D01*
X550250Y474491D01*
X550265Y474473D01*
X550280Y474462D01*
X550290Y474451D01*
X550294Y474448D01*
X550298Y474444D01*
X550334Y474415D01*
X550374Y474393D01*
X550454Y474353D01*
X550531Y474324D01*
X550607Y474306D01*
X550673Y474291D01*
X550698Y474288D01*
X550724D01*
X550745Y474284D01*
X550771D01*
X550855Y474288D01*
X550935Y474302D01*
X551008Y474320D01*
X551073Y474342D01*
X551124Y474364D01*
X551146Y474375D01*
X551164Y474382D01*
X551179Y474390D01*
X551190Y474397D01*
X551197Y474400D01*
X551200D01*
X551270Y474451D01*
X551328Y474506D01*
X551379Y474568D01*
X551419Y474626D01*
X551452Y474677D01*
X551474Y474721D01*
X551481Y474739D01*
X551488Y474750D01*
X551492Y474757D01*
Y474761D01*
X551521Y474855D01*
X551543Y474950D01*
X551561Y475045D01*
X551572Y475132D01*
X551575Y475172D01*
X551579Y475209D01*
Y475241D01*
X551583Y475267D01*
Y475289D01*
Y475307D01*
Y475318D01*
Y475321D01*
X551579Y475416D01*
X551572Y475503D01*
X551557Y475583D01*
X551543Y475656D01*
X551532Y475718D01*
X551524Y475744D01*
X551517Y475765D01*
X551513Y475784D01*
X551510Y475795D01*
X551506Y475802D01*
Y475805D01*
X551470Y475889D01*
X551430Y475966D01*
X551386Y476027D01*
X551339Y476082D01*
X551299Y476126D01*
X551266Y476155D01*
X551240Y476173D01*
X551237Y476180D01*
X551233D01*
X551157Y476228D01*
X551073Y476264D01*
X550993Y476290D01*
X550917Y476304D01*
X550847Y476315D01*
X550818Y476319D01*
X550793D01*
X550775Y476322D01*
X550745D01*
X550655Y476319D01*
X550571Y476304D01*
X550502Y476282D01*
X550440Y476260D01*
X550392Y476235D01*
X550356Y476217D01*
X550334Y476202D01*
X550327Y476195D01*
X550269Y476140D01*
X550214Y476078D01*
X550170Y476013D01*
X550134Y475947D01*
X550105Y475889D01*
X550094Y475860D01*
X550087Y475838D01*
X550079Y475820D01*
X550072Y475805D01*
X550068Y475798D01*
Y475795D01*
X549741Y475871D01*
X549763Y475937D01*
X549785Y475995D01*
X549814Y476049D01*
X549839Y476104D01*
X549868Y476151D01*
X549901Y476195D01*
X549930Y476239D01*
X549959Y476275D01*
X549988Y476304D01*
X550014Y476333D01*
X550039Y476359D01*
X550058Y476377D01*
X550076Y476395D01*
X550090Y476406D01*
X550098Y476410D01*
X550101Y476413D01*
X550152Y476446D01*
X550203Y476479D01*
X550254Y476504D01*
X550309Y476526D01*
X550418Y476559D01*
X550516Y476581D01*
X550563Y476592D01*
X550603Y476595D01*
X550644Y476599D01*
X550676Y476603D01*
X550702Y476606D01*
X550738D01*
X550858Y476599D01*
D02*
G37*
G36*
X557116Y476603D02*
X557199Y476592D01*
X557279Y476577D01*
X557348Y476563D01*
X557403Y476548D01*
X557429Y476541D01*
X557447Y476533D01*
X557461Y476526D01*
X557472Y476522D01*
X557479Y476519D01*
X557483D01*
X557556Y476482D01*
X557621Y476442D01*
X557676Y476399D01*
X557720Y476359D01*
X557753Y476322D01*
X557778Y476293D01*
X557796Y476271D01*
X557800Y476268D01*
Y476264D01*
X557836Y476202D01*
X557862Y476140D01*
X557880Y476078D01*
X557891Y476024D01*
X557898Y475977D01*
X557905Y475940D01*
Y475926D01*
Y475915D01*
Y475911D01*
Y475907D01*
X557902Y475845D01*
X557891Y475787D01*
X557876Y475733D01*
X557862Y475685D01*
X557847Y475649D01*
X557833Y475620D01*
X557822Y475602D01*
X557818Y475594D01*
X557782Y475543D01*
X557738Y475496D01*
X557694Y475456D01*
X557651Y475423D01*
X557614Y475394D01*
X557581Y475376D01*
X557560Y475361D01*
X557556Y475358D01*
X557552D01*
X557523Y475343D01*
X557490Y475329D01*
X557418Y475303D01*
X557334Y475278D01*
X557254Y475252D01*
X557181Y475230D01*
X557148Y475223D01*
X557119Y475216D01*
X557097Y475209D01*
X557079Y475205D01*
X557068Y475201D01*
X557064D01*
X557003Y475187D01*
X556944Y475172D01*
X556893Y475157D01*
X556850Y475147D01*
X556806Y475136D01*
X556770Y475125D01*
X556737Y475117D01*
X556711Y475107D01*
X556686Y475099D01*
X556668Y475096D01*
X556639Y475085D01*
X556620Y475081D01*
X556617Y475077D01*
X556562Y475056D01*
X556515Y475030D01*
X556475Y475005D01*
X556446Y474983D01*
X556420Y474961D01*
X556406Y474946D01*
X556395Y474935D01*
X556391Y474932D01*
X556366Y474899D01*
X556347Y474863D01*
X556336Y474826D01*
X556326Y474797D01*
X556322Y474768D01*
X556318Y474746D01*
Y474728D01*
Y474724D01*
X556322Y474681D01*
X556329Y474641D01*
X556340Y474604D01*
X556355Y474575D01*
X556369Y474546D01*
X556380Y474528D01*
X556388Y474513D01*
X556391Y474510D01*
X556420Y474473D01*
X556457Y474444D01*
X556493Y474419D01*
X556526Y474393D01*
X556559Y474379D01*
X556584Y474364D01*
X556602Y474357D01*
X556609Y474353D01*
X556664Y474335D01*
X556722Y474320D01*
X556781Y474313D01*
X556832Y474306D01*
X556875Y474302D01*
X556912Y474298D01*
X556944D01*
X557024Y474302D01*
X557097Y474309D01*
X557163Y474320D01*
X557221Y474335D01*
X557268Y474349D01*
X557305Y474360D01*
X557316Y474364D01*
X557327Y474368D01*
X557330Y474371D01*
X557334D01*
X557392Y474400D01*
X557447Y474433D01*
X557487Y474466D01*
X557523Y474499D01*
X557552Y474524D01*
X557571Y474550D01*
X557581Y474564D01*
X557585Y474568D01*
X557611Y474615D01*
X557636Y474666D01*
X557651Y474721D01*
X557665Y474768D01*
X557676Y474815D01*
X557683Y474848D01*
Y474863D01*
X557687Y474874D01*
Y474877D01*
Y474881D01*
X558000Y474852D01*
X557993Y474761D01*
X557978Y474673D01*
X557956Y474597D01*
X557931Y474528D01*
X557905Y474473D01*
X557894Y474451D01*
X557887Y474433D01*
X557876Y474419D01*
X557873Y474408D01*
X557865Y474400D01*
Y474397D01*
X557811Y474328D01*
X557753Y474266D01*
X557691Y474215D01*
X557632Y474171D01*
X557581Y474138D01*
X557538Y474117D01*
X557523Y474109D01*
X557512Y474102D01*
X557505Y474098D01*
X557501D01*
X557410Y474065D01*
X557316Y474040D01*
X557221Y474025D01*
X557130Y474011D01*
X557086Y474007D01*
X557050Y474004D01*
X557017D01*
X556988Y474000D01*
X556930D01*
X556832Y474004D01*
X556741Y474015D01*
X556657Y474033D01*
X556588Y474051D01*
X556529Y474065D01*
X556504Y474076D01*
X556482Y474084D01*
X556468Y474091D01*
X556457Y474095D01*
X556449Y474098D01*
X556446D01*
X556369Y474138D01*
X556304Y474182D01*
X556246Y474229D01*
X556198Y474273D01*
X556162Y474309D01*
X556136Y474342D01*
X556118Y474364D01*
X556114Y474368D01*
Y474371D01*
X556074Y474440D01*
X556045Y474506D01*
X556027Y474568D01*
X556013Y474626D01*
X556005Y474677D01*
X555998Y474717D01*
Y474732D01*
Y474743D01*
Y474746D01*
Y474750D01*
X556002Y474823D01*
X556013Y474892D01*
X556031Y474954D01*
X556049Y475005D01*
X556071Y475048D01*
X556085Y475081D01*
X556100Y475099D01*
X556104Y475107D01*
X556147Y475161D01*
X556198Y475212D01*
X556253Y475256D01*
X556307Y475296D01*
X556355Y475325D01*
X556395Y475347D01*
X556409Y475354D01*
X556420Y475361D01*
X556427Y475365D01*
X556431D01*
X556460Y475380D01*
X556497Y475390D01*
X556537Y475405D01*
X556580Y475420D01*
X556671Y475445D01*
X556766Y475471D01*
X556810Y475482D01*
X556850Y475492D01*
X556890Y475503D01*
X556923Y475511D01*
X556948Y475518D01*
X556970Y475522D01*
X556984Y475525D01*
X556988D01*
X557061Y475543D01*
X557126Y475558D01*
X557185Y475576D01*
X557236Y475591D01*
X557283Y475609D01*
X557323Y475623D01*
X557359Y475638D01*
X557392Y475649D01*
X557418Y475664D01*
X557439Y475674D01*
X557454Y475682D01*
X557469Y475693D01*
X557487Y475703D01*
X557490Y475707D01*
X557523Y475744D01*
X557545Y475780D01*
X557563Y475816D01*
X557574Y475853D01*
X557581Y475882D01*
X557585Y475907D01*
Y475922D01*
Y475929D01*
X557578Y475987D01*
X557563Y476038D01*
X557541Y476082D01*
X557516Y476122D01*
X557494Y476151D01*
X557472Y476177D01*
X557458Y476191D01*
X557450Y476195D01*
X557421Y476213D01*
X557392Y476231D01*
X557323Y476260D01*
X557250Y476279D01*
X557177Y476293D01*
X557112Y476300D01*
X557083Y476304D01*
X557061Y476308D01*
X557010D01*
X556908Y476304D01*
X556817Y476290D01*
X556744Y476268D01*
X556682Y476246D01*
X556635Y476224D01*
X556599Y476202D01*
X556580Y476188D01*
X556573Y476184D01*
X556522Y476133D01*
X556482Y476078D01*
X556449Y476020D01*
X556427Y475962D01*
X556413Y475907D01*
X556402Y475867D01*
X556398Y475849D01*
X556395Y475838D01*
Y475831D01*
Y475827D01*
X556074Y475853D01*
X556082Y475933D01*
X556100Y476006D01*
X556118Y476075D01*
X556144Y476133D01*
X556165Y476180D01*
X556184Y476217D01*
X556191Y476228D01*
X556198Y476239D01*
X556202Y476242D01*
Y476246D01*
X556249Y476308D01*
X556300Y476362D01*
X556355Y476410D01*
X556409Y476446D01*
X556457Y476479D01*
X556493Y476497D01*
X556508Y476504D01*
X556519Y476512D01*
X556526Y476515D01*
X556529D01*
X556609Y476544D01*
X556697Y476566D01*
X556777Y476584D01*
X556853Y476595D01*
X556923Y476603D01*
X556948D01*
X556974Y476606D01*
X557021D01*
X557116Y476603D01*
D02*
G37*
G36*
X438342Y481925D02*
X438404Y481969D01*
X438429Y481991D01*
X438455Y482009D01*
X438477Y482027D01*
X438491Y482042D01*
X438502Y482053D01*
X438506Y482056D01*
X438524Y482074D01*
X438542Y482096D01*
X438590Y482147D01*
X438644Y482206D01*
X438699Y482268D01*
X438746Y482326D01*
X438768Y482351D01*
X438790Y482373D01*
X438804Y482391D01*
X438815Y482406D01*
X438823Y482413D01*
X438826Y482417D01*
X438877Y482475D01*
X438925Y482533D01*
X438972Y482584D01*
X439012Y482631D01*
X439052Y482675D01*
X439088Y482712D01*
X439121Y482748D01*
X439150Y482777D01*
X439179Y482806D01*
X439201Y482828D01*
X439219Y482846D01*
X439238Y482864D01*
X439259Y482883D01*
X439267Y482890D01*
X439328Y482941D01*
X439383Y482984D01*
X439438Y483021D01*
X439481Y483050D01*
X439522Y483072D01*
X439551Y483086D01*
X439569Y483094D01*
X439576Y483097D01*
X439631Y483119D01*
X439685Y483134D01*
X439736Y483148D01*
X439780Y483156D01*
X439820Y483159D01*
X439849Y483163D01*
X439867D01*
X439875D01*
X439929Y483159D01*
X439980Y483152D01*
X440031Y483145D01*
X440075Y483130D01*
X440162Y483094D01*
X440231Y483057D01*
X440264Y483036D01*
X440289Y483017D01*
X440315Y482999D01*
X440333Y482981D01*
X440348Y482966D01*
X440362Y482959D01*
X440366Y482952D01*
X440370Y482948D01*
X440406Y482908D01*
X440439Y482864D01*
X440464Y482817D01*
X440486Y482770D01*
X440522Y482675D01*
X440548Y482581D01*
X440555Y482540D01*
X440562Y482500D01*
X440566Y482464D01*
X440570Y482435D01*
X440573Y482409D01*
Y482373D01*
X440570Y482307D01*
X440566Y482246D01*
X440555Y482187D01*
X440544Y482133D01*
X440530Y482082D01*
X440515Y482034D01*
X440497Y481991D01*
X440479Y481951D01*
X440461Y481914D01*
X440442Y481885D01*
X440428Y481860D01*
X440413Y481838D01*
X440402Y481820D01*
X440391Y481809D01*
X440388Y481802D01*
X440384Y481798D01*
X440348Y481762D01*
X440308Y481729D01*
X440264Y481696D01*
X440220Y481671D01*
X440133Y481627D01*
X440046Y481598D01*
X440006Y481587D01*
X439965Y481576D01*
X439933Y481569D01*
X439904Y481561D01*
X439878Y481558D01*
X439860D01*
X439849Y481554D01*
X439845D01*
X439813Y481871D01*
X439896Y481878D01*
X439969Y481892D01*
X440035Y481914D01*
X440086Y481940D01*
X440129Y481962D01*
X440159Y481984D01*
X440177Y481998D01*
X440184Y482005D01*
X440228Y482060D01*
X440260Y482118D01*
X440286Y482180D01*
X440300Y482235D01*
X440311Y482286D01*
X440315Y482329D01*
X440319Y482344D01*
Y482366D01*
X440315Y482442D01*
X440300Y482511D01*
X440279Y482570D01*
X440257Y482620D01*
X440231Y482661D01*
X440213Y482686D01*
X440199Y482704D01*
X440191Y482712D01*
X440140Y482755D01*
X440089Y482788D01*
X440038Y482814D01*
X439987Y482828D01*
X439947Y482839D01*
X439911Y482843D01*
X439889Y482846D01*
X439886D01*
X439882D01*
X439816Y482839D01*
X439747Y482824D01*
X439685Y482799D01*
X439627Y482773D01*
X439580Y482744D01*
X439540Y482719D01*
X439525Y482712D01*
X439514Y482704D01*
X439510Y482697D01*
X439507D01*
X439467Y482668D01*
X439427Y482631D01*
X439383Y482591D01*
X439339Y482548D01*
X439252Y482457D01*
X439165Y482366D01*
X439125Y482318D01*
X439088Y482278D01*
X439056Y482238D01*
X439026Y482206D01*
X439005Y482180D01*
X438986Y482158D01*
X438975Y482144D01*
X438972Y482140D01*
X438895Y482049D01*
X438823Y481965D01*
X438757Y481896D01*
X438702Y481842D01*
X438655Y481794D01*
X438622Y481762D01*
X438601Y481743D01*
X438597Y481736D01*
X438593D01*
X438531Y481685D01*
X438473Y481645D01*
X438415Y481609D01*
X438364Y481579D01*
X438320Y481558D01*
X438287Y481543D01*
X438266Y481536D01*
X438262Y481532D01*
X438258D01*
X438218Y481518D01*
X438182Y481510D01*
X438146Y481503D01*
X438113Y481499D01*
X438084Y481496D01*
X438062D01*
X438047D01*
X438044D01*
Y483167D01*
X438342D01*
Y481925D01*
D02*
G37*
G36*
X438925Y480921D02*
X438866Y480906D01*
X438812Y480888D01*
X438761Y480870D01*
X438713Y480852D01*
X438670Y480830D01*
X438633Y480808D01*
X438597Y480782D01*
X438564Y480760D01*
X438535Y480742D01*
X438513Y480720D01*
X438491Y480702D01*
X438473Y480688D01*
X438462Y480673D01*
X438451Y480662D01*
X438448Y480659D01*
X438444Y480655D01*
X438415Y480618D01*
X438393Y480579D01*
X438353Y480498D01*
X438324Y480422D01*
X438306Y480345D01*
X438291Y480280D01*
X438287Y480255D01*
Y480229D01*
X438284Y480207D01*
Y480182D01*
X438287Y480098D01*
X438302Y480018D01*
X438320Y479945D01*
X438342Y479880D01*
X438364Y479829D01*
X438375Y479807D01*
X438382Y479789D01*
X438389Y479774D01*
X438397Y479763D01*
X438400Y479756D01*
Y479752D01*
X438451Y479683D01*
X438506Y479625D01*
X438568Y479574D01*
X438626Y479534D01*
X438677Y479501D01*
X438721Y479479D01*
X438739Y479472D01*
X438750Y479465D01*
X438757Y479461D01*
X438761D01*
X438855Y479432D01*
X438950Y479410D01*
X439045Y479392D01*
X439132Y479381D01*
X439172Y479377D01*
X439208Y479374D01*
X439241D01*
X439267Y479370D01*
X439289D01*
X439307D01*
X439318D01*
X439321D01*
X439416Y479374D01*
X439503Y479381D01*
X439583Y479395D01*
X439656Y479410D01*
X439718Y479421D01*
X439744Y479428D01*
X439765Y479435D01*
X439784Y479439D01*
X439794Y479443D01*
X439802Y479447D01*
X439805D01*
X439889Y479483D01*
X439965Y479523D01*
X440027Y479567D01*
X440082Y479614D01*
X440126Y479654D01*
X440155Y479687D01*
X440173Y479712D01*
X440180Y479716D01*
Y479719D01*
X440228Y479796D01*
X440264Y479880D01*
X440289Y479960D01*
X440304Y480036D01*
X440315Y480105D01*
X440319Y480134D01*
Y480160D01*
X440322Y480178D01*
Y480207D01*
X440319Y480298D01*
X440304Y480382D01*
X440282Y480451D01*
X440260Y480513D01*
X440235Y480560D01*
X440217Y480597D01*
X440202Y480618D01*
X440195Y480626D01*
X440140Y480684D01*
X440078Y480739D01*
X440013Y480782D01*
X439947Y480819D01*
X439889Y480848D01*
X439860Y480859D01*
X439838Y480866D01*
X439820Y480873D01*
X439805Y480881D01*
X439798Y480884D01*
X439794D01*
X439871Y481212D01*
X439936Y481190D01*
X439995Y481168D01*
X440049Y481139D01*
X440104Y481114D01*
X440151Y481084D01*
X440195Y481052D01*
X440239Y481023D01*
X440275Y480994D01*
X440304Y480964D01*
X440333Y480939D01*
X440359Y480913D01*
X440377Y480895D01*
X440395Y480877D01*
X440406Y480862D01*
X440410Y480855D01*
X440413Y480852D01*
X440446Y480800D01*
X440479Y480750D01*
X440504Y480699D01*
X440526Y480644D01*
X440559Y480535D01*
X440581Y480437D01*
X440592Y480389D01*
X440595Y480349D01*
X440599Y480309D01*
X440602Y480276D01*
X440606Y480251D01*
Y480215D01*
X440599Y480094D01*
X440581Y479978D01*
X440559Y479876D01*
X440544Y479829D01*
X440530Y479785D01*
X440515Y479745D01*
X440501Y479708D01*
X440490Y479679D01*
X440479Y479650D01*
X440468Y479632D01*
X440461Y479618D01*
X440457Y479607D01*
X440453Y479603D01*
X440391Y479505D01*
X440319Y479421D01*
X440246Y479348D01*
X440173Y479286D01*
X440107Y479239D01*
X440078Y479221D01*
X440053Y479206D01*
X440035Y479192D01*
X440020Y479184D01*
X440009Y479181D01*
X440006Y479177D01*
X439893Y479126D01*
X439776Y479090D01*
X439660Y479064D01*
X439554Y479046D01*
X439507Y479039D01*
X439460Y479035D01*
X439423Y479032D01*
X439387D01*
X439361Y479028D01*
X439339D01*
X439325D01*
X439321D01*
X439190Y479035D01*
X439063Y479050D01*
X438950Y479068D01*
X438895Y479082D01*
X438848Y479093D01*
X438804Y479104D01*
X438764Y479119D01*
X438728Y479130D01*
X438699Y479137D01*
X438677Y479148D01*
X438659Y479152D01*
X438648Y479159D01*
X438644D01*
X438535Y479213D01*
X438437Y479275D01*
X438353Y479341D01*
X438320Y479374D01*
X438287Y479403D01*
X438258Y479432D01*
X438233Y479461D01*
X438211Y479487D01*
X438197Y479508D01*
X438182Y479523D01*
X438171Y479537D01*
X438167Y479545D01*
X438164Y479548D01*
X438135Y479599D01*
X438109Y479650D01*
X438069Y479760D01*
X438040Y479869D01*
X438022Y479974D01*
X438015Y480025D01*
X438007Y480069D01*
X438004Y480109D01*
Y480142D01*
X438000Y480171D01*
Y480211D01*
X438004Y480284D01*
X438011Y480353D01*
X438018Y480418D01*
X438033Y480480D01*
X438051Y480539D01*
X438069Y480593D01*
X438087Y480644D01*
X438109Y480691D01*
X438127Y480731D01*
X438146Y480771D01*
X438164Y480800D01*
X438182Y480830D01*
X438197Y480848D01*
X438204Y480866D01*
X438211Y480873D01*
X438215Y480877D01*
X438258Y480928D01*
X438302Y480972D01*
X438353Y481012D01*
X438404Y481052D01*
X438506Y481117D01*
X438608Y481168D01*
X438655Y481190D01*
X438699Y481208D01*
X438739Y481223D01*
X438772Y481234D01*
X438801Y481245D01*
X438823Y481252D01*
X438837Y481255D01*
X438841D01*
X438925Y480921D01*
D02*
G37*
G36*
X439110Y477790D02*
X438801D01*
Y478748D01*
X439110D01*
Y477790D01*
D02*
G37*
G36*
X440562Y477062D02*
X439529D01*
Y475759D01*
X440562D01*
Y475424D01*
X438044D01*
Y475759D01*
X439230D01*
Y477062D01*
X438044D01*
Y477397D01*
X440562D01*
Y477062D01*
D02*
G37*
G36*
X438823Y474951D02*
X438892Y474940D01*
X438954Y474922D01*
X439005Y474904D01*
X439048Y474882D01*
X439081Y474867D01*
X439099Y474853D01*
X439107Y474849D01*
X439161Y474805D01*
X439212Y474754D01*
X439256Y474700D01*
X439296Y474645D01*
X439325Y474598D01*
X439347Y474558D01*
X439354Y474543D01*
X439361Y474532D01*
X439365Y474525D01*
Y474521D01*
X439380Y474492D01*
X439390Y474456D01*
X439405Y474416D01*
X439420Y474372D01*
X439445Y474281D01*
X439470Y474187D01*
X439481Y474143D01*
X439492Y474103D01*
X439503Y474063D01*
X439510Y474030D01*
X439518Y474005D01*
X439522Y473983D01*
X439525Y473968D01*
Y473965D01*
X439543Y473892D01*
X439558Y473826D01*
X439576Y473768D01*
X439591Y473717D01*
X439609Y473670D01*
X439623Y473630D01*
X439638Y473593D01*
X439649Y473561D01*
X439663Y473535D01*
X439674Y473513D01*
X439682Y473499D01*
X439693Y473484D01*
X439704Y473466D01*
X439707Y473462D01*
X439744Y473429D01*
X439780Y473408D01*
X439816Y473389D01*
X439853Y473379D01*
X439882Y473371D01*
X439907Y473368D01*
X439922D01*
X439929D01*
X439987Y473375D01*
X440038Y473389D01*
X440082Y473411D01*
X440122Y473437D01*
X440151Y473459D01*
X440177Y473481D01*
X440191Y473495D01*
X440195Y473502D01*
X440213Y473531D01*
X440231Y473561D01*
X440260Y473630D01*
X440279Y473702D01*
X440293Y473775D01*
X440300Y473841D01*
X440304Y473870D01*
X440308Y473892D01*
Y473943D01*
X440304Y474045D01*
X440289Y474136D01*
X440268Y474208D01*
X440246Y474270D01*
X440224Y474318D01*
X440202Y474354D01*
X440188Y474372D01*
X440184Y474380D01*
X440133Y474431D01*
X440078Y474471D01*
X440020Y474503D01*
X439962Y474525D01*
X439907Y474540D01*
X439867Y474551D01*
X439849Y474554D01*
X439838Y474558D01*
X439831D01*
X439827D01*
X439853Y474878D01*
X439933Y474871D01*
X440006Y474853D01*
X440075Y474835D01*
X440133Y474809D01*
X440180Y474787D01*
X440217Y474769D01*
X440228Y474762D01*
X440239Y474754D01*
X440242Y474751D01*
X440246D01*
X440308Y474704D01*
X440362Y474653D01*
X440410Y474598D01*
X440446Y474543D01*
X440479Y474496D01*
X440497Y474460D01*
X440504Y474445D01*
X440512Y474434D01*
X440515Y474427D01*
Y474423D01*
X440544Y474343D01*
X440566Y474256D01*
X440584Y474176D01*
X440595Y474099D01*
X440602Y474030D01*
Y474005D01*
X440606Y473979D01*
Y473932D01*
X440602Y473837D01*
X440592Y473753D01*
X440577Y473673D01*
X440562Y473604D01*
X440548Y473550D01*
X440541Y473524D01*
X440533Y473506D01*
X440526Y473491D01*
X440522Y473481D01*
X440519Y473473D01*
Y473470D01*
X440482Y473397D01*
X440442Y473331D01*
X440399Y473277D01*
X440359Y473233D01*
X440322Y473200D01*
X440293Y473175D01*
X440271Y473156D01*
X440268Y473153D01*
X440264D01*
X440202Y473116D01*
X440140Y473091D01*
X440078Y473073D01*
X440024Y473062D01*
X439977Y473055D01*
X439940Y473047D01*
X439925D01*
X439915D01*
X439911D01*
X439907D01*
X439845Y473051D01*
X439787Y473062D01*
X439733Y473076D01*
X439685Y473091D01*
X439649Y473106D01*
X439620Y473120D01*
X439602Y473131D01*
X439594Y473135D01*
X439543Y473171D01*
X439496Y473215D01*
X439456Y473258D01*
X439423Y473302D01*
X439394Y473339D01*
X439376Y473371D01*
X439361Y473393D01*
X439358Y473397D01*
Y473400D01*
X439343Y473429D01*
X439328Y473462D01*
X439303Y473535D01*
X439278Y473619D01*
X439252Y473699D01*
X439230Y473772D01*
X439223Y473804D01*
X439216Y473834D01*
X439208Y473855D01*
X439205Y473874D01*
X439201Y473884D01*
Y473888D01*
X439187Y473950D01*
X439172Y474008D01*
X439157Y474059D01*
X439147Y474103D01*
X439136Y474147D01*
X439125Y474183D01*
X439117Y474216D01*
X439107Y474241D01*
X439099Y474267D01*
X439096Y474285D01*
X439085Y474314D01*
X439081Y474332D01*
X439077Y474336D01*
X439056Y474391D01*
X439030Y474438D01*
X439005Y474478D01*
X438983Y474507D01*
X438961Y474532D01*
X438946Y474547D01*
X438935Y474558D01*
X438932Y474562D01*
X438899Y474587D01*
X438863Y474605D01*
X438826Y474616D01*
X438797Y474627D01*
X438768Y474631D01*
X438746Y474634D01*
X438728D01*
X438724D01*
X438681Y474631D01*
X438641Y474623D01*
X438604Y474613D01*
X438575Y474598D01*
X438546Y474583D01*
X438528Y474573D01*
X438513Y474565D01*
X438510Y474562D01*
X438473Y474532D01*
X438444Y474496D01*
X438418Y474460D01*
X438393Y474427D01*
X438378Y474394D01*
X438364Y474369D01*
X438357Y474351D01*
X438353Y474343D01*
X438335Y474289D01*
X438320Y474230D01*
X438313Y474172D01*
X438306Y474121D01*
X438302Y474078D01*
X438298Y474041D01*
Y474008D01*
X438302Y473928D01*
X438309Y473855D01*
X438320Y473790D01*
X438335Y473732D01*
X438349Y473684D01*
X438360Y473648D01*
X438364Y473637D01*
X438368Y473626D01*
X438371Y473623D01*
Y473619D01*
X438400Y473561D01*
X438433Y473506D01*
X438466Y473466D01*
X438499Y473429D01*
X438524Y473400D01*
X438550Y473382D01*
X438564Y473371D01*
X438568Y473368D01*
X438615Y473342D01*
X438666Y473317D01*
X438721Y473302D01*
X438768Y473288D01*
X438815Y473277D01*
X438848Y473269D01*
X438863D01*
X438873Y473266D01*
X438877D01*
X438881D01*
X438852Y472953D01*
X438761Y472960D01*
X438673Y472974D01*
X438597Y472996D01*
X438528Y473022D01*
X438473Y473047D01*
X438451Y473058D01*
X438433Y473066D01*
X438418Y473076D01*
X438408Y473080D01*
X438400Y473087D01*
X438397D01*
X438328Y473142D01*
X438266Y473200D01*
X438215Y473262D01*
X438171Y473320D01*
X438138Y473371D01*
X438116Y473415D01*
X438109Y473429D01*
X438102Y473440D01*
X438098Y473448D01*
Y473451D01*
X438065Y473542D01*
X438040Y473637D01*
X438025Y473732D01*
X438011Y473823D01*
X438007Y473866D01*
X438004Y473903D01*
Y473936D01*
X438000Y473965D01*
Y474023D01*
X438004Y474121D01*
X438015Y474212D01*
X438033Y474296D01*
X438051Y474365D01*
X438065Y474423D01*
X438076Y474449D01*
X438084Y474471D01*
X438091Y474485D01*
X438095Y474496D01*
X438098Y474503D01*
Y474507D01*
X438138Y474583D01*
X438182Y474649D01*
X438229Y474707D01*
X438273Y474754D01*
X438309Y474791D01*
X438342Y474816D01*
X438364Y474835D01*
X438368Y474838D01*
X438371D01*
X438440Y474878D01*
X438506Y474907D01*
X438568Y474926D01*
X438626Y474940D01*
X438677Y474947D01*
X438717Y474955D01*
X438732D01*
X438742D01*
X438746D01*
X438750D01*
X438823Y474951D01*
D02*
G37*
%LPC*%
G36*
X253358Y425622D02*
X253340D01*
X253325D01*
X253321D01*
X253219Y425619D01*
X253125Y425611D01*
X253041Y425600D01*
X252968Y425589D01*
X252939Y425582D01*
X252914Y425575D01*
X252888Y425568D01*
X252870Y425564D01*
X252855Y425560D01*
X252845Y425557D01*
X252837Y425553D01*
X252834D01*
X252764Y425527D01*
X252702Y425498D01*
X252648Y425466D01*
X252601Y425436D01*
X252564Y425411D01*
X252539Y425389D01*
X252524Y425375D01*
X252517Y425371D01*
X252488Y425335D01*
X252462Y425298D01*
X252440Y425262D01*
X252419Y425225D01*
X252404Y425193D01*
X252393Y425167D01*
X252390Y425149D01*
X252386Y425142D01*
X252371Y425087D01*
X252360Y425022D01*
X252353Y424956D01*
X252349Y424894D01*
X252346Y424840D01*
X252342Y424814D01*
Y424217D01*
X254264D01*
Y424799D01*
X254260Y424847D01*
Y424894D01*
X254257Y424938D01*
X254246Y425011D01*
X254239Y425069D01*
X254228Y425116D01*
X254217Y425149D01*
X254213Y425167D01*
X254209Y425174D01*
X254177Y425240D01*
X254137Y425302D01*
X254089Y425356D01*
X254042Y425404D01*
X253998Y425440D01*
X253962Y425469D01*
X253947Y425477D01*
X253937Y425484D01*
X253929Y425491D01*
X253926D01*
X253886Y425513D01*
X253838Y425535D01*
X253744Y425568D01*
X253642Y425589D01*
X253543Y425608D01*
X253500Y425611D01*
X253456Y425615D01*
X253420Y425619D01*
X253387D01*
X253358Y425622D01*
D02*
G37*
G36*
X253900Y419452D02*
X253886D01*
X253878D01*
X253831Y419449D01*
X253787Y419441D01*
X253751Y419430D01*
X253722Y419420D01*
X253696Y419409D01*
X253674Y419398D01*
X253663Y419390D01*
X253660Y419387D01*
X253631Y419361D01*
X253602Y419329D01*
X253580Y419296D01*
X253565Y419267D01*
X253551Y419238D01*
X253540Y419216D01*
X253536Y419201D01*
X253532Y419194D01*
X253525Y419154D01*
X253518Y419103D01*
X253514Y419052D01*
X253511Y419001D01*
X253507Y418954D01*
Y418335D01*
X254264D01*
Y418932D01*
X254257Y419012D01*
X254253Y419074D01*
X254246Y419128D01*
X254239Y419168D01*
X254235Y419194D01*
X254228Y419212D01*
Y419216D01*
X254213Y419256D01*
X254191Y419292D01*
X254169Y419321D01*
X254148Y419347D01*
X254129Y419365D01*
X254111Y419380D01*
X254100Y419387D01*
X254097Y419390D01*
X254060Y419412D01*
X254024Y419427D01*
X253987Y419438D01*
X253951Y419445D01*
X253922Y419449D01*
X253900Y419452D01*
D02*
G37*
G36*
X252797Y419562D02*
X252783D01*
X252775D01*
X252732Y419558D01*
X252688Y419554D01*
X252652Y419547D01*
X252622Y419536D01*
X252597Y419525D01*
X252575Y419518D01*
X252564Y419514D01*
X252561Y419511D01*
X252528Y419489D01*
X252499Y419471D01*
X252477Y419445D01*
X252455Y419427D01*
X252440Y419409D01*
X252430Y419394D01*
X252422Y419383D01*
X252419Y419380D01*
X252390Y419318D01*
X252368Y419256D01*
X252360Y419230D01*
X252357Y419208D01*
X252353Y419194D01*
Y419190D01*
X252349Y419161D01*
X252346Y419128D01*
X252342Y419052D01*
Y418335D01*
X253208D01*
Y418997D01*
X253201Y419074D01*
X253194Y419136D01*
X253187Y419187D01*
X253179Y419227D01*
X253172Y419259D01*
X253168Y419274D01*
X253165Y419281D01*
X253147Y419329D01*
X253125Y419369D01*
X253099Y419405D01*
X253074Y419434D01*
X253052Y419456D01*
X253034Y419471D01*
X253019Y419482D01*
X253016Y419485D01*
X252976Y419511D01*
X252936Y419529D01*
X252895Y419543D01*
X252859Y419551D01*
X252826Y419558D01*
X252797Y419562D01*
D02*
G37*
G36*
X295677Y321264D02*
X295080D01*
X295000Y321257D01*
X294938Y321253D01*
X294883Y321246D01*
X294843Y321238D01*
X294818Y321235D01*
X294800Y321228D01*
X294796D01*
X294756Y321213D01*
X294720Y321191D01*
X294690Y321169D01*
X294665Y321148D01*
X294647Y321129D01*
X294632Y321111D01*
X294625Y321100D01*
X294621Y321097D01*
X294600Y321060D01*
X294585Y321024D01*
X294574Y320987D01*
X294567Y320951D01*
X294563Y320922D01*
X294560Y320900D01*
Y320885D01*
Y320878D01*
X294563Y320831D01*
X294570Y320787D01*
X294581Y320751D01*
X294592Y320722D01*
X294603Y320696D01*
X294614Y320674D01*
X294621Y320663D01*
X294625Y320660D01*
X294651Y320631D01*
X294683Y320602D01*
X294716Y320580D01*
X294745Y320565D01*
X294774Y320551D01*
X294796Y320540D01*
X294811Y320536D01*
X294818Y320532D01*
X294858Y320525D01*
X294909Y320518D01*
X294960Y320514D01*
X295011Y320511D01*
X295058Y320507D01*
X295677D01*
Y321264D01*
D02*
G37*
G36*
Y320208D02*
X295015D01*
X294938Y320201D01*
X294876Y320194D01*
X294825Y320187D01*
X294785Y320179D01*
X294752Y320172D01*
X294738Y320168D01*
X294731Y320165D01*
X294683Y320146D01*
X294643Y320125D01*
X294607Y320099D01*
X294578Y320074D01*
X294556Y320052D01*
X294541Y320034D01*
X294530Y320019D01*
X294527Y320016D01*
X294501Y319975D01*
X294483Y319935D01*
X294468Y319895D01*
X294461Y319859D01*
X294454Y319826D01*
X294450Y319797D01*
Y319782D01*
Y319775D01*
X294454Y319732D01*
X294458Y319688D01*
X294465Y319652D01*
X294476Y319622D01*
X294487Y319597D01*
X294494Y319575D01*
X294498Y319564D01*
X294501Y319561D01*
X294523Y319528D01*
X294541Y319499D01*
X294567Y319477D01*
X294585Y319455D01*
X294603Y319440D01*
X294618Y319429D01*
X294629Y319422D01*
X294632Y319419D01*
X294694Y319389D01*
X294756Y319368D01*
X294781Y319360D01*
X294803Y319357D01*
X294818Y319353D01*
X294822D01*
X294851Y319349D01*
X294883Y319346D01*
X294960Y319342D01*
X295677D01*
Y320208D01*
D02*
G37*
G36*
X289795Y321264D02*
X289212D01*
X289165Y321260D01*
X289118D01*
X289074Y321257D01*
X289001Y321246D01*
X288943Y321238D01*
X288896Y321228D01*
X288863Y321217D01*
X288845Y321213D01*
X288837Y321209D01*
X288772Y321177D01*
X288710Y321137D01*
X288655Y321089D01*
X288608Y321042D01*
X288572Y320998D01*
X288543Y320962D01*
X288535Y320947D01*
X288528Y320936D01*
X288521Y320929D01*
Y320925D01*
X288499Y320885D01*
X288477Y320838D01*
X288444Y320743D01*
X288422Y320642D01*
X288404Y320543D01*
X288401Y320500D01*
X288397Y320456D01*
X288393Y320420D01*
Y320387D01*
X288390Y320358D01*
Y320339D01*
Y320325D01*
Y320321D01*
X288393Y320219D01*
X288401Y320125D01*
X288411Y320041D01*
X288422Y319968D01*
X288430Y319939D01*
X288437Y319914D01*
X288444Y319888D01*
X288448Y319870D01*
X288452Y319855D01*
X288455Y319844D01*
X288459Y319837D01*
Y319833D01*
X288484Y319764D01*
X288513Y319703D01*
X288546Y319648D01*
X288575Y319601D01*
X288601Y319564D01*
X288623Y319539D01*
X288637Y319524D01*
X288641Y319517D01*
X288677Y319488D01*
X288714Y319462D01*
X288750Y319440D01*
X288787Y319419D01*
X288819Y319404D01*
X288845Y319393D01*
X288863Y319389D01*
X288870Y319386D01*
X288925Y319371D01*
X288990Y319360D01*
X289056Y319353D01*
X289118Y319349D01*
X289172Y319346D01*
X289198Y319342D01*
X289795D01*
Y321264D01*
D02*
G37*
%LPD*%
D11*
X255847Y404232D02*
X264154D01*
X255847D02*
Y439768D01*
X264154D01*
Y404232D02*
Y439768D01*
X313779Y314846D02*
Y323153D01*
X278244Y314846D02*
X313779D01*
X278244D02*
Y323153D01*
X313779D01*
X533441Y477347D02*
X544465D01*
X533441Y470653D02*
Y477347D01*
Y470653D02*
X544465D01*
Y477347D01*
X441347Y467441D02*
Y478465D01*
X434654D02*
X441347D01*
X434654Y467441D02*
Y478465D01*
Y467441D02*
X441347D01*
X168654Y211465D02*
X175347D01*
Y200441D02*
Y211465D01*
X168654Y200441D02*
X175347D01*
X168654D02*
Y211465D01*
M02*
