G04*
G04 #@! TF.GenerationSoftware,Altium Limited,Altium Designer,21.2.2 (38)*
G04*
G04 Layer_Physical_Order=1*
G04 Layer_Color=255*
%FSLAX25Y25*%
%MOIN*%
G70*
G04*
G04 #@! TF.SameCoordinates,22A5B088-EC4E-48B5-A717-39959E060BC5*
G04*
G04*
G04 #@! TF.FilePolarity,Positive*
G04*
G01*
G75*
%ADD14C,0.01000*%
%ADD16R,0.05807X0.00787*%
%ADD17R,0.04134X0.05709*%
%ADD18R,0.05315X0.05709*%
%ADD19R,0.05709X0.04134*%
%ADD20R,0.02559X0.06004*%
%ADD21R,0.06004X0.02559*%
%ADD22R,0.13780X0.20079*%
%ADD23R,0.05906X0.05512*%
%ADD24R,0.05512X0.04331*%
%ADD25R,0.02953X0.02362*%
%ADD26R,0.08661X0.08465*%
%ADD27R,0.05315X0.03937*%
%ADD28R,0.05315X0.03347*%
%ADD43C,0.04724*%
%ADD44R,0.04724X0.04724*%
%ADD45R,0.04724X0.04724*%
%ADD51C,0.11811*%
%ADD52O,0.07874X0.05118*%
%ADD69C,0.06000*%
%ADD70C,0.08000*%
%ADD71C,0.04000*%
%ADD72C,0.03000*%
%ADD73C,0.02000*%
%ADD74C,0.10000*%
%ADD75C,0.06000*%
%ADD76C,0.07677*%
%ADD77R,0.04449X0.04449*%
%ADD78C,0.04449*%
%ADD79R,0.06400X0.06400*%
%ADD80C,0.06400*%
%ADD81C,0.10335*%
%ADD82C,0.06102*%
G04:AMPARAMS|DCode=83|XSize=61.02mil|YSize=61.02mil|CornerRadius=1.83mil|HoleSize=0mil|Usage=FLASHONLY|Rotation=180.000|XOffset=0mil|YOffset=0mil|HoleType=Round|Shape=RoundedRectangle|*
%AMROUNDEDRECTD83*
21,1,0.06102,0.05736,0,0,180.0*
21,1,0.05736,0.06102,0,0,180.0*
1,1,0.00366,-0.02868,0.02868*
1,1,0.00366,0.02868,0.02868*
1,1,0.00366,0.02868,-0.02868*
1,1,0.00366,-0.02868,-0.02868*
%
%ADD83ROUNDEDRECTD83*%
%ADD84C,0.08858*%
%ADD85R,0.08858X0.08858*%
%ADD86R,0.05020X0.05020*%
%ADD87C,0.05020*%
%ADD88R,0.04449X0.04449*%
%ADD89C,0.08268*%
%ADD90C,0.06260*%
%ADD91C,0.08150*%
%ADD92R,0.08150X0.08150*%
%ADD93C,0.06791*%
%ADD94C,0.05000*%
G36*
X599000Y12000D02*
X594096Y7096D01*
X425330D01*
X425261Y7351D01*
X424801Y8149D01*
X424149Y8801D01*
X423351Y9262D01*
X422461Y9500D01*
X421539D01*
X420649Y9262D01*
X419851Y8801D01*
X419199Y8149D01*
X418739Y7351D01*
X418670Y7096D01*
X323885D01*
X323819Y7596D01*
X324351Y7739D01*
X325149Y8199D01*
X325801Y8851D01*
X326261Y9649D01*
X326500Y10539D01*
Y11461D01*
X326261Y12351D01*
X325801Y13149D01*
X325149Y13801D01*
X324351Y14262D01*
X323461Y14500D01*
X322539D01*
X321649Y14262D01*
X320851Y13801D01*
X320199Y13149D01*
X319739Y12351D01*
X319500Y11461D01*
Y10539D01*
X319739Y9649D01*
X320199Y8851D01*
X320851Y8199D01*
X321649Y7739D01*
X322181Y7596D01*
X322115Y7096D01*
X160303D01*
X160207Y7000D01*
X150000D01*
X105462Y51538D01*
X105653Y52000D01*
X108529D01*
Y50520D01*
X111933D01*
Y51913D01*
X112933D01*
Y50520D01*
X116337D01*
Y52000D01*
X131663D01*
Y50520D01*
X135067D01*
Y51913D01*
X136067D01*
Y50520D01*
X139471D01*
X139471Y50520D01*
Y50520D01*
X139810Y50190D01*
X144000Y46000D01*
X160303D01*
Y70096D01*
X157303Y73096D01*
X142303Y88096D01*
X75303D01*
Y113096D01*
X113096D01*
X177944Y177944D01*
X178405Y177752D01*
Y177576D01*
X178625Y176755D01*
X179050Y176020D01*
X179650Y175420D01*
X180385Y174995D01*
X181130Y174796D01*
Y178000D01*
X181630D01*
Y178500D01*
X184834D01*
X184635Y179245D01*
X184210Y179980D01*
X183610Y180580D01*
X182875Y181005D01*
X182054Y181224D01*
X181878D01*
X181686Y181686D01*
X206541Y206541D01*
X206758Y206512D01*
X207512Y205758D01*
X208436Y205225D01*
X209467Y204949D01*
X210533D01*
X211564Y205225D01*
X212488Y205758D01*
X213242Y206512D01*
X213775Y207436D01*
X214051Y208467D01*
Y209533D01*
X213775Y210564D01*
X213242Y211488D01*
X212488Y212242D01*
X212459Y212459D01*
X213096Y213096D01*
X217992D01*
X218126Y212596D01*
X217512Y212242D01*
X216758Y211488D01*
X216225Y210564D01*
X215949Y209533D01*
Y208467D01*
X216225Y207436D01*
X216758Y206512D01*
X217512Y205758D01*
X218436Y205225D01*
X219467Y204949D01*
X220533D01*
X221564Y205225D01*
X222487Y205758D01*
X223242Y206512D01*
X223775Y207436D01*
X224051Y208467D01*
Y209533D01*
X223775Y210564D01*
X223242Y211488D01*
X222487Y212242D01*
X221874Y212596D01*
X222008Y213096D01*
X227992D01*
X228126Y212596D01*
X227513Y212242D01*
X226758Y211488D01*
X226225Y210564D01*
X225949Y209533D01*
Y208467D01*
X226225Y207436D01*
X226758Y206512D01*
X227513Y205758D01*
X228436Y205225D01*
X229467Y204949D01*
X230533D01*
X231564Y205225D01*
X232488Y205758D01*
X233242Y206512D01*
X233775Y207436D01*
X234051Y208467D01*
Y209533D01*
X233775Y210564D01*
X233242Y211488D01*
X232488Y212242D01*
X231874Y212596D01*
X232008Y213096D01*
X237992D01*
X238126Y212596D01*
X237512Y212242D01*
X236758Y211488D01*
X236225Y210564D01*
X235949Y209533D01*
Y208467D01*
X236225Y207436D01*
X236758Y206512D01*
X237512Y205758D01*
X238436Y205225D01*
X239467Y204949D01*
X240533D01*
X241564Y205225D01*
X242488Y205758D01*
X243242Y206512D01*
X243775Y207436D01*
X244051Y208467D01*
Y209533D01*
X243775Y210564D01*
X243242Y211488D01*
X242488Y212242D01*
X241874Y212596D01*
X242008Y213096D01*
X247992D01*
X248126Y212596D01*
X247513Y212242D01*
X246758Y211488D01*
X246225Y210564D01*
X245949Y209533D01*
Y208467D01*
X246225Y207436D01*
X246758Y206512D01*
X247513Y205758D01*
X248436Y205225D01*
X249467Y204949D01*
X250533D01*
X251564Y205225D01*
X252487Y205758D01*
X253242Y206512D01*
X253775Y207436D01*
X254051Y208467D01*
Y209533D01*
X253775Y210564D01*
X253242Y211488D01*
X252487Y212242D01*
X251874Y212596D01*
X252008Y213096D01*
X257992D01*
X258126Y212596D01*
X257512Y212242D01*
X256758Y211488D01*
X256225Y210564D01*
X255949Y209533D01*
Y208467D01*
X256225Y207436D01*
X256758Y206512D01*
X257512Y205758D01*
X258436Y205225D01*
X259467Y204949D01*
X260533D01*
X261564Y205225D01*
X262488Y205758D01*
X263242Y206512D01*
X263775Y207436D01*
X264051Y208467D01*
Y209533D01*
X263775Y210564D01*
X263242Y211488D01*
X262488Y212242D01*
X261874Y212596D01*
X262008Y213096D01*
X267992D01*
X268126Y212596D01*
X267512Y212242D01*
X266758Y211488D01*
X266225Y210564D01*
X265949Y209533D01*
Y208467D01*
X266225Y207436D01*
X266758Y206512D01*
X267512Y205758D01*
X268436Y205225D01*
X269467Y204949D01*
X270533D01*
X271564Y205225D01*
X272487Y205758D01*
X273242Y206512D01*
X273775Y207436D01*
X274051Y208467D01*
Y209533D01*
X273775Y210564D01*
X273242Y211488D01*
X272487Y212242D01*
X271874Y212596D01*
X272008Y213096D01*
X277992D01*
X278126Y212596D01*
X277513Y212242D01*
X276758Y211488D01*
X276225Y210564D01*
X275949Y209533D01*
Y208467D01*
X276225Y207436D01*
X276758Y206512D01*
X277513Y205758D01*
X278436Y205225D01*
X279467Y204949D01*
X280533D01*
X281564Y205225D01*
X282488Y205758D01*
X283242Y206512D01*
X283775Y207436D01*
X284051Y208467D01*
Y209533D01*
X283775Y210564D01*
X283242Y211488D01*
X282488Y212242D01*
X281874Y212596D01*
X282008Y213096D01*
X287992D01*
X288126Y212596D01*
X287512Y212242D01*
X286758Y211488D01*
X286225Y210564D01*
X285949Y209533D01*
Y208467D01*
X286225Y207436D01*
X286758Y206512D01*
X287512Y205758D01*
X288436Y205225D01*
X289467Y204949D01*
X290533D01*
X291564Y205225D01*
X292488Y205758D01*
X293242Y206512D01*
X293775Y207436D01*
X294051Y208467D01*
Y209533D01*
X293775Y210564D01*
X293242Y211488D01*
X292488Y212242D01*
X291874Y212596D01*
X292008Y213096D01*
X295974D01*
X296038Y213017D01*
X296195Y212596D01*
X296018Y212330D01*
X295926Y211868D01*
Y209500D01*
X300000D01*
X304074D01*
Y211868D01*
X303982Y212330D01*
X303805Y212596D01*
X303962Y213017D01*
X304026Y213096D01*
X415058D01*
X415199Y212851D01*
X415851Y212199D01*
X416649Y211738D01*
X417539Y211500D01*
X418461D01*
X419351Y211738D01*
X420149Y212199D01*
X420801Y212851D01*
X420942Y213096D01*
X457992D01*
X458126Y212596D01*
X457513Y212242D01*
X456758Y211488D01*
X456225Y210564D01*
X455949Y209533D01*
Y208467D01*
X456225Y207436D01*
X456758Y206512D01*
X457513Y205758D01*
X458436Y205225D01*
X459467Y204949D01*
X460533D01*
X461564Y205225D01*
X462488Y205758D01*
X463242Y206512D01*
X463775Y207436D01*
X464051Y208467D01*
Y209533D01*
X463775Y210564D01*
X463242Y211488D01*
X462488Y212242D01*
X461874Y212596D01*
X462008Y213096D01*
X467992D01*
X468126Y212596D01*
X467513Y212242D01*
X466758Y211488D01*
X466225Y210564D01*
X465949Y209533D01*
Y208467D01*
X466225Y207436D01*
X466758Y206512D01*
X467513Y205758D01*
X468436Y205225D01*
X469467Y204949D01*
X470533D01*
X471564Y205225D01*
X472487Y205758D01*
X473242Y206512D01*
X473775Y207436D01*
X474051Y208467D01*
Y209533D01*
X473775Y210564D01*
X473242Y211488D01*
X472487Y212242D01*
X471874Y212596D01*
X472008Y213096D01*
X477992D01*
X478126Y212596D01*
X477513Y212242D01*
X476758Y211488D01*
X476225Y210564D01*
X475949Y209533D01*
Y208467D01*
X476225Y207436D01*
X476758Y206512D01*
X477513Y205758D01*
X478436Y205225D01*
X479467Y204949D01*
X480533D01*
X481564Y205225D01*
X482487Y205758D01*
X483242Y206512D01*
X483775Y207436D01*
X484051Y208467D01*
Y209533D01*
X483775Y210564D01*
X483242Y211488D01*
X482487Y212242D01*
X481874Y212596D01*
X482008Y213096D01*
X487992D01*
X488126Y212596D01*
X487512Y212242D01*
X486758Y211488D01*
X486225Y210564D01*
X485949Y209533D01*
Y208467D01*
X486225Y207436D01*
X486758Y206512D01*
X487512Y205758D01*
X488436Y205225D01*
X489467Y204949D01*
X490533D01*
X491564Y205225D01*
X492487Y205758D01*
X493242Y206512D01*
X493775Y207436D01*
X494051Y208467D01*
Y209533D01*
X493775Y210564D01*
X493242Y211488D01*
X492487Y212242D01*
X491874Y212596D01*
X492008Y213096D01*
X497992D01*
X498126Y212596D01*
X497512Y212242D01*
X496758Y211488D01*
X496225Y210564D01*
X495949Y209533D01*
Y208467D01*
X496225Y207436D01*
X496758Y206512D01*
X497512Y205758D01*
X498436Y205225D01*
X499467Y204949D01*
X500533D01*
X501564Y205225D01*
X502488Y205758D01*
X503242Y206512D01*
X503775Y207436D01*
X504051Y208467D01*
Y209533D01*
X503775Y210564D01*
X503242Y211488D01*
X502488Y212242D01*
X501874Y212596D01*
X502008Y213096D01*
X507992D01*
X508126Y212596D01*
X507513Y212242D01*
X506758Y211488D01*
X506225Y210564D01*
X505949Y209533D01*
Y208467D01*
X506225Y207436D01*
X506758Y206512D01*
X507513Y205758D01*
X508436Y205225D01*
X509467Y204949D01*
X510533D01*
X511564Y205225D01*
X512488Y205758D01*
X513242Y206512D01*
X513775Y207436D01*
X514051Y208467D01*
Y209533D01*
X513775Y210564D01*
X513242Y211488D01*
X512488Y212242D01*
X511874Y212596D01*
X512008Y213096D01*
X517992D01*
X518126Y212596D01*
X517513Y212242D01*
X516758Y211488D01*
X516225Y210564D01*
X515949Y209533D01*
Y208467D01*
X516225Y207436D01*
X516758Y206512D01*
X517513Y205758D01*
X518436Y205225D01*
X519467Y204949D01*
X520533D01*
X521564Y205225D01*
X522487Y205758D01*
X523242Y206512D01*
X523775Y207436D01*
X524051Y208467D01*
Y209533D01*
X523775Y210564D01*
X523242Y211488D01*
X522487Y212242D01*
X521874Y212596D01*
X522008Y213096D01*
X527992D01*
X528126Y212596D01*
X527513Y212242D01*
X526758Y211488D01*
X526225Y210564D01*
X525949Y209533D01*
Y208467D01*
X526225Y207436D01*
X526758Y206512D01*
X527513Y205758D01*
X528436Y205225D01*
X529467Y204949D01*
X530533D01*
X531564Y205225D01*
X532487Y205758D01*
X533242Y206512D01*
X533775Y207436D01*
X534051Y208467D01*
Y209533D01*
X533775Y210564D01*
X533242Y211488D01*
X532487Y212242D01*
X531874Y212596D01*
X532008Y213096D01*
X537992D01*
X538126Y212596D01*
X537512Y212242D01*
X536758Y211488D01*
X536225Y210564D01*
X535949Y209533D01*
Y208467D01*
X536225Y207436D01*
X536758Y206512D01*
X537512Y205758D01*
X538436Y205225D01*
X539467Y204949D01*
X540533D01*
X541564Y205225D01*
X542487Y205758D01*
X543242Y206512D01*
X543775Y207436D01*
X544051Y208467D01*
Y209533D01*
X543775Y210564D01*
X543242Y211488D01*
X542487Y212242D01*
X541874Y212596D01*
X542008Y213096D01*
X545974D01*
X546038Y213017D01*
X546195Y212596D01*
X546018Y212330D01*
X545926Y211868D01*
Y209500D01*
X550000D01*
X554074D01*
Y211868D01*
X553982Y212330D01*
X553805Y212596D01*
X553962Y213017D01*
X554026Y213096D01*
X579000D01*
X579000Y273788D01*
X579094Y274500D01*
X579000Y275212D01*
Y280788D01*
X579094Y281500D01*
X579000Y282212D01*
Y287788D01*
X579094Y288500D01*
X579000Y289212D01*
Y294788D01*
X579094Y295500D01*
X579000Y296212D01*
Y301788D01*
X579094Y302500D01*
X579000Y303212D01*
Y308788D01*
X579094Y309500D01*
X579000Y310212D01*
X579000Y315788D01*
X579094Y316500D01*
X579000Y317212D01*
Y322788D01*
X579094Y323500D01*
X579000Y324212D01*
Y353753D01*
X579094Y354465D01*
X579000Y355176D01*
Y361824D01*
X579094Y362535D01*
X579000Y363247D01*
X579000Y388753D01*
X579094Y389465D01*
X579000Y390176D01*
Y396824D01*
X579094Y397535D01*
X579000Y398247D01*
Y423753D01*
X579094Y424465D01*
X579000Y425176D01*
Y431824D01*
X579094Y432535D01*
X579000Y433247D01*
X579000Y473379D01*
X579416Y473657D01*
X579773Y473509D01*
X581579Y473150D01*
X583421D01*
X585227Y473509D01*
X586929Y474214D01*
X588460Y475237D01*
X589763Y476540D01*
X590134Y477096D01*
X599000Y477096D01*
X599000Y12000D01*
D02*
G37*
G36*
X232000Y491000D02*
X321963D01*
X322213Y490567D01*
X321941Y490096D01*
X321571Y488715D01*
Y487285D01*
X321941Y485904D01*
X322656Y484666D01*
X323666Y483656D01*
X324904Y482941D01*
X326285Y482571D01*
X327715D01*
X329096Y482941D01*
X330334Y483656D01*
X331344Y484666D01*
X332059Y485904D01*
X332429Y487285D01*
Y488715D01*
X332059Y490096D01*
X331787Y490567D01*
X332037Y491000D01*
X336000D01*
Y483442D01*
X324578Y472020D01*
X253000D01*
X252610Y471942D01*
X252279Y471721D01*
X246374Y465815D01*
X245985Y466134D01*
X246120Y466335D01*
X246640Y467592D01*
X246905Y468926D01*
Y470286D01*
X246640Y471621D01*
X246120Y472877D01*
X245364Y474008D01*
X244402Y474970D01*
X243271Y475726D01*
X242014Y476246D01*
X240680Y476512D01*
X239320D01*
X237986Y476246D01*
X236729Y475726D01*
X235598Y474970D01*
X234636Y474008D01*
X233880Y472877D01*
X233360Y471621D01*
X233095Y470286D01*
Y468926D01*
X233360Y467592D01*
X233880Y466335D01*
X234636Y465204D01*
X235598Y464242D01*
X236729Y463487D01*
X237986Y462966D01*
X239320Y462701D01*
X240680D01*
X242014Y462966D01*
X243271Y463487D01*
X243472Y463621D01*
X243791Y463233D01*
X231279Y450721D01*
X231058Y450390D01*
X230980Y450000D01*
Y437000D01*
X231058Y436610D01*
X231279Y436279D01*
X248279Y419279D01*
X248610Y419058D01*
X249000Y418980D01*
X336000D01*
Y295000D01*
X312000Y271000D01*
X256020Y271000D01*
Y295000D01*
X255942Y295390D01*
X255721Y295721D01*
X245721Y305721D01*
X245390Y305942D01*
X245000Y306020D01*
X205000D01*
X204610Y305942D01*
X204279Y305721D01*
X194279Y295721D01*
X194058Y295390D01*
X193980Y295000D01*
Y255980D01*
X148840Y210840D01*
X148390Y210580D01*
X147790Y209980D01*
X147530Y209530D01*
X120727Y182727D01*
X120279Y182986D01*
X120396Y183421D01*
Y184579D01*
X120096Y185697D01*
X119517Y186699D01*
X118699Y187517D01*
X117697Y188096D01*
X116579Y188396D01*
X115421D01*
X114303Y188096D01*
X113301Y187517D01*
X112483Y186699D01*
X111904Y185697D01*
X111604Y184579D01*
Y183421D01*
X111904Y182303D01*
X112483Y181301D01*
X113301Y180483D01*
X114303Y179904D01*
X115421Y179604D01*
X116579D01*
X117014Y179721D01*
X117273Y179273D01*
X107000Y169000D01*
X81000D01*
X79000Y171000D01*
X80000Y196000D01*
X119000Y235000D01*
Y482000D01*
X136000Y499000D01*
X224000D01*
X232000Y491000D01*
D02*
G37*
G36*
X380000Y487000D02*
X415000Y452000D01*
X452000Y452000D01*
X465000Y439000D01*
Y424000D01*
X456000Y415000D01*
X440953D01*
Y417240D01*
X433047D01*
Y415000D01*
X432352D01*
X418000Y400648D01*
X418000Y343000D01*
X373000Y298000D01*
X373000Y271000D01*
X367000Y265000D01*
X353000D01*
X343000Y275000D01*
Y420000D01*
X249000D01*
X232000Y437000D01*
Y450000D01*
X253000Y471000D01*
X325000D01*
X341000Y487000D01*
X380000Y487000D01*
D02*
G37*
G36*
X458000Y315000D02*
X458000Y275000D01*
X450000Y267000D01*
X439000D01*
X423000Y283000D01*
Y283961D01*
X424500D01*
Y295000D01*
Y306039D01*
X423000D01*
Y307000D01*
X426146Y310146D01*
X427783D01*
Y314000D01*
X428283D01*
Y314500D01*
X431350D01*
Y315350D01*
X432000Y316000D01*
X442824D01*
X447791Y323676D01*
X448286Y323742D01*
X458000Y315000D01*
D02*
G37*
G36*
X573413Y436587D02*
X573221Y436125D01*
X572748D01*
X571819Y436003D01*
X570953Y435644D01*
X570210Y435074D01*
X569639Y434330D01*
X569281Y433464D01*
X569158Y432535D01*
X569281Y431606D01*
X569639Y430740D01*
X570210Y429997D01*
X570953Y429427D01*
X571819Y429068D01*
X572748Y428946D01*
X575000D01*
Y428054D01*
X572748D01*
X571819Y427932D01*
X570953Y427573D01*
X570210Y427003D01*
X569639Y426260D01*
X569281Y425394D01*
X569158Y424465D01*
X569281Y423535D01*
X569639Y422670D01*
X570210Y421926D01*
X570953Y421356D01*
X571819Y420997D01*
X572748Y420875D01*
X575000D01*
Y401125D01*
X572748D01*
X571819Y401003D01*
X570953Y400644D01*
X570210Y400074D01*
X569639Y399330D01*
X569281Y398464D01*
X569158Y397535D01*
X569281Y396606D01*
X569639Y395741D01*
X570210Y394997D01*
X570953Y394427D01*
X571819Y394068D01*
X572748Y393946D01*
X575000D01*
Y393054D01*
X572748D01*
X571819Y392932D01*
X570953Y392573D01*
X570210Y392003D01*
X569639Y391260D01*
X569281Y390394D01*
X569158Y389465D01*
X569281Y388535D01*
X569639Y387670D01*
X570210Y386926D01*
X570953Y386356D01*
X571819Y385997D01*
X572748Y385875D01*
X575000D01*
Y366125D01*
X572748D01*
X571819Y366003D01*
X570953Y365644D01*
X570210Y365074D01*
X569639Y364330D01*
X569281Y363464D01*
X569158Y362535D01*
X569281Y361606D01*
X569639Y360740D01*
X570210Y359997D01*
X570953Y359427D01*
X571819Y359068D01*
X572748Y358946D01*
X575000D01*
Y358054D01*
X572748D01*
X571819Y357932D01*
X570953Y357573D01*
X570210Y357003D01*
X569639Y356259D01*
X569281Y355394D01*
X569158Y354465D01*
X569281Y353536D01*
X569639Y352670D01*
X570210Y351926D01*
X570953Y351356D01*
X571819Y350997D01*
X572748Y350875D01*
X575000D01*
Y327090D01*
X572748D01*
X571819Y326967D01*
X570953Y326609D01*
X570210Y326038D01*
X569639Y325295D01*
X569281Y324429D01*
X569158Y323500D01*
X569281Y322571D01*
X569639Y321705D01*
X570210Y320962D01*
X570953Y320391D01*
X571244Y320271D01*
Y319729D01*
X570953Y319609D01*
X570210Y319038D01*
X569639Y318295D01*
X569281Y317429D01*
X569158Y316500D01*
X569281Y315571D01*
X569639Y314705D01*
X570210Y313962D01*
X570953Y313391D01*
X571244Y313271D01*
Y312729D01*
X570953Y312609D01*
X570210Y312038D01*
X569639Y311295D01*
X569281Y310429D01*
X569158Y309500D01*
X569281Y308571D01*
X569639Y307705D01*
X570210Y306962D01*
X570953Y306391D01*
X571244Y306271D01*
Y305729D01*
X570953Y305609D01*
X570210Y305038D01*
X569639Y304295D01*
X569281Y303429D01*
X569158Y302500D01*
X569281Y301571D01*
X569639Y300705D01*
X570210Y299962D01*
X570953Y299391D01*
X571244Y299271D01*
Y298729D01*
X570953Y298609D01*
X570210Y298038D01*
X569639Y297295D01*
X569281Y296429D01*
X569158Y295500D01*
X569281Y294571D01*
X569639Y293705D01*
X570210Y292962D01*
X570953Y292391D01*
X571244Y292271D01*
Y291729D01*
X570953Y291609D01*
X570210Y291038D01*
X569639Y290295D01*
X569281Y289429D01*
X569158Y288500D01*
X569281Y287571D01*
X569639Y286705D01*
X570210Y285962D01*
X570953Y285391D01*
X571244Y285271D01*
Y284729D01*
X570953Y284609D01*
X570210Y284038D01*
X569639Y283295D01*
X569281Y282429D01*
X569158Y281500D01*
X569281Y280571D01*
X569639Y279705D01*
X570210Y278962D01*
X570953Y278391D01*
X571244Y278271D01*
Y277729D01*
X570953Y277609D01*
X570210Y277038D01*
X569639Y276295D01*
X569281Y275429D01*
X569224Y275000D01*
X574126D01*
Y274500D01*
X574626D01*
Y270910D01*
X575000D01*
Y243000D01*
X557000Y225000D01*
X437804D01*
X437351Y225261D01*
X436461Y225500D01*
X435539D01*
X434649Y225261D01*
X434196Y225000D01*
X215000D01*
X181224Y191224D01*
X181205D01*
X180385Y191005D01*
X179650Y190580D01*
X179050Y189980D01*
X178625Y189245D01*
X178405Y188425D01*
Y188406D01*
X125000Y135000D01*
X80000D01*
Y165000D01*
X115000D01*
X146883Y196883D01*
X147401Y196694D01*
X147790Y196020D01*
X148390Y195420D01*
X149126Y194995D01*
X149946Y194776D01*
X150795D01*
X151615Y194995D01*
X152350Y195420D01*
X152950Y196020D01*
X153375Y196755D01*
X153595Y197575D01*
Y198424D01*
X153375Y199245D01*
X152950Y199980D01*
X152350Y200580D01*
X151676Y200969D01*
X151487Y201487D01*
X195000Y245000D01*
Y295000D01*
X205000Y305000D01*
X245000D01*
X255000Y295000D01*
Y270000D01*
X270000Y255000D01*
X455000D01*
X470000Y270000D01*
Y345000D01*
X565000Y440000D01*
X570000D01*
X573413Y436587D01*
D02*
G37*
%LPC*%
G36*
X595500Y469489D02*
Y466500D01*
X598490D01*
X598261Y467351D01*
X597801Y468149D01*
X597149Y468801D01*
X596351Y469262D01*
X595500Y469489D01*
D02*
G37*
G36*
X594500D02*
X593649Y469262D01*
X592851Y468801D01*
X592199Y468149D01*
X591739Y467351D01*
X591510Y466500D01*
X594500D01*
Y469489D01*
D02*
G37*
G36*
X584500D02*
Y466500D01*
X587490D01*
X587261Y467351D01*
X586801Y468149D01*
X586149Y468801D01*
X585351Y469262D01*
X584500Y469489D01*
D02*
G37*
G36*
X583500D02*
X582649Y469262D01*
X581851Y468801D01*
X581199Y468149D01*
X580738Y467351D01*
X580511Y466500D01*
X583500D01*
Y469489D01*
D02*
G37*
G36*
X598490Y465500D02*
X595500D01*
Y462510D01*
X596351Y462739D01*
X597149Y463199D01*
X597801Y463851D01*
X598261Y464649D01*
X598490Y465500D01*
D02*
G37*
G36*
X594500D02*
X591510D01*
X591739Y464649D01*
X592199Y463851D01*
X592851Y463199D01*
X593649Y462739D01*
X594500Y462510D01*
Y465500D01*
D02*
G37*
G36*
X587490D02*
X584500D01*
Y462510D01*
X585351Y462739D01*
X586149Y463199D01*
X586801Y463851D01*
X587261Y464649D01*
X587490Y465500D01*
D02*
G37*
G36*
X583500D02*
X580511D01*
X580738Y464649D01*
X581199Y463851D01*
X581851Y463199D01*
X582649Y462739D01*
X583500Y462510D01*
Y465500D01*
D02*
G37*
G36*
X595500Y457489D02*
Y454500D01*
X598490D01*
X598261Y455351D01*
X597801Y456149D01*
X597149Y456801D01*
X596351Y457262D01*
X595500Y457489D01*
D02*
G37*
G36*
X594500D02*
X593649Y457262D01*
X592851Y456801D01*
X592199Y456149D01*
X591739Y455351D01*
X591510Y454500D01*
X594500D01*
Y457489D01*
D02*
G37*
G36*
X584500D02*
Y454500D01*
X587490D01*
X587261Y455351D01*
X586801Y456149D01*
X586149Y456801D01*
X585351Y457262D01*
X584500Y457489D01*
D02*
G37*
G36*
X583500D02*
X582649Y457262D01*
X581851Y456801D01*
X581199Y456149D01*
X580738Y455351D01*
X580511Y454500D01*
X583500D01*
Y457489D01*
D02*
G37*
G36*
X598490Y453500D02*
X595500D01*
Y450511D01*
X596351Y450738D01*
X597149Y451199D01*
X597801Y451851D01*
X598261Y452649D01*
X598490Y453500D01*
D02*
G37*
G36*
X594500D02*
X591510D01*
X591739Y452649D01*
X592199Y451851D01*
X592851Y451199D01*
X593649Y450738D01*
X594500Y450511D01*
Y453500D01*
D02*
G37*
G36*
X587490D02*
X584500D01*
Y450511D01*
X585351Y450738D01*
X586149Y451199D01*
X586801Y451851D01*
X587261Y452649D01*
X587490Y453500D01*
D02*
G37*
G36*
X583500D02*
X580511D01*
X580738Y452649D01*
X581199Y451851D01*
X581851Y451199D01*
X582649Y450738D01*
X583500Y450511D01*
Y453500D01*
D02*
G37*
G36*
X590461Y375500D02*
X589539D01*
X588649Y375261D01*
X587851Y374801D01*
X587199Y374149D01*
X586738Y373351D01*
X586500Y372461D01*
Y371539D01*
X586738Y370649D01*
X587199Y369851D01*
X587851Y369199D01*
X588649Y368739D01*
X589539Y368500D01*
X590461D01*
X591351Y368739D01*
X592149Y369199D01*
X592801Y369851D01*
X593261Y370649D01*
X593500Y371539D01*
Y372461D01*
X593261Y373351D01*
X592801Y374149D01*
X592149Y374801D01*
X591351Y375261D01*
X590461Y375500D01*
D02*
G37*
G36*
X594461Y340500D02*
X593539D01*
X592649Y340262D01*
X591851Y339801D01*
X591199Y339149D01*
X590738Y338351D01*
X590500Y337461D01*
Y336539D01*
X590738Y335649D01*
X591199Y334851D01*
X591851Y334199D01*
X592649Y333738D01*
X593539Y333500D01*
X594461D01*
X595351Y333738D01*
X596149Y334199D01*
X596801Y334851D01*
X597261Y335649D01*
X597500Y336539D01*
Y337461D01*
X597261Y338351D01*
X596801Y339149D01*
X596149Y339801D01*
X595351Y340262D01*
X594461Y340500D01*
D02*
G37*
G36*
X586461Y298500D02*
X585539D01*
X584649Y298261D01*
X583851Y297801D01*
X583199Y297149D01*
X582738Y296351D01*
X582500Y295461D01*
Y294539D01*
X582738Y293649D01*
X583199Y292851D01*
X583851Y292199D01*
X584649Y291739D01*
X585539Y291500D01*
X586461D01*
X587351Y291739D01*
X588149Y292199D01*
X588801Y292851D01*
X589261Y293649D01*
X589500Y294539D01*
Y295461D01*
X589261Y296351D01*
X588801Y297149D01*
X588149Y297801D01*
X587351Y298261D01*
X586461Y298500D01*
D02*
G37*
G36*
X594461Y291500D02*
X593539D01*
X592649Y291262D01*
X591851Y290801D01*
X591199Y290149D01*
X590738Y289351D01*
X590500Y288461D01*
Y287539D01*
X590738Y286649D01*
X591199Y285851D01*
X591851Y285199D01*
X592649Y284738D01*
X593539Y284500D01*
X594461D01*
X595351Y284738D01*
X596149Y285199D01*
X596801Y285851D01*
X597261Y286649D01*
X597500Y287539D01*
Y288461D01*
X597261Y289351D01*
X596801Y290149D01*
X596149Y290801D01*
X595351Y291262D01*
X594461Y291500D01*
D02*
G37*
G36*
X554074Y208500D02*
X550500D01*
Y204926D01*
X552868D01*
X553330Y205017D01*
X553721Y205279D01*
X553982Y205670D01*
X554074Y206132D01*
Y208500D01*
D02*
G37*
G36*
X549500D02*
X545926D01*
Y206132D01*
X546018Y205670D01*
X546279Y205279D01*
X546670Y205017D01*
X547132Y204926D01*
X549500D01*
Y208500D01*
D02*
G37*
G36*
X304074D02*
X300500D01*
Y204926D01*
X302868D01*
X303330Y205017D01*
X303721Y205279D01*
X303982Y205670D01*
X304074Y206132D01*
Y208500D01*
D02*
G37*
G36*
X299500D02*
X295926D01*
Y206132D01*
X296018Y205670D01*
X296279Y205279D01*
X296670Y205017D01*
X297132Y204926D01*
X299500D01*
Y208500D01*
D02*
G37*
G36*
X573461Y203500D02*
X572539D01*
X571649Y203261D01*
X570851Y202801D01*
X570199Y202149D01*
X569738Y201351D01*
X569500Y200461D01*
Y199539D01*
X569738Y198649D01*
X570199Y197851D01*
X570851Y197199D01*
X571649Y196739D01*
X572539Y196500D01*
X573461D01*
X574351Y196739D01*
X575149Y197199D01*
X575801Y197851D01*
X576262Y198649D01*
X576500Y199539D01*
Y200461D01*
X576262Y201351D01*
X575801Y202149D01*
X575149Y202801D01*
X574351Y203261D01*
X573461Y203500D01*
D02*
G37*
G36*
X550533Y203051D02*
X549467D01*
X548436Y202775D01*
X547512Y202242D01*
X546758Y201487D01*
X546225Y200564D01*
X545949Y199533D01*
Y198467D01*
X546225Y197436D01*
X546758Y196512D01*
X547512Y195758D01*
X548436Y195225D01*
X549467Y194949D01*
X550533D01*
X551564Y195225D01*
X552488Y195758D01*
X553242Y196512D01*
X553775Y197436D01*
X554051Y198467D01*
Y199533D01*
X553775Y200564D01*
X553242Y201487D01*
X552488Y202242D01*
X551564Y202775D01*
X550533Y203051D01*
D02*
G37*
G36*
X540533D02*
X539467D01*
X538436Y202775D01*
X537512Y202242D01*
X536758Y201487D01*
X536225Y200564D01*
X535949Y199533D01*
Y198467D01*
X536225Y197436D01*
X536758Y196512D01*
X537512Y195758D01*
X538436Y195225D01*
X539467Y194949D01*
X540533D01*
X541564Y195225D01*
X542487Y195758D01*
X543242Y196512D01*
X543775Y197436D01*
X544051Y198467D01*
Y199533D01*
X543775Y200564D01*
X543242Y201487D01*
X542487Y202242D01*
X541564Y202775D01*
X540533Y203051D01*
D02*
G37*
G36*
X530533D02*
X529467D01*
X528436Y202775D01*
X527513Y202242D01*
X526758Y201487D01*
X526225Y200564D01*
X525949Y199533D01*
Y198467D01*
X526225Y197436D01*
X526758Y196512D01*
X527513Y195758D01*
X528436Y195225D01*
X529467Y194949D01*
X530533D01*
X531564Y195225D01*
X532487Y195758D01*
X533242Y196512D01*
X533775Y197436D01*
X534051Y198467D01*
Y199533D01*
X533775Y200564D01*
X533242Y201487D01*
X532487Y202242D01*
X531564Y202775D01*
X530533Y203051D01*
D02*
G37*
G36*
X520533D02*
X519467D01*
X518436Y202775D01*
X517513Y202242D01*
X516758Y201487D01*
X516225Y200564D01*
X515949Y199533D01*
Y198467D01*
X516225Y197436D01*
X516758Y196512D01*
X517513Y195758D01*
X518436Y195225D01*
X519467Y194949D01*
X520533D01*
X521564Y195225D01*
X522487Y195758D01*
X523242Y196512D01*
X523775Y197436D01*
X524051Y198467D01*
Y199533D01*
X523775Y200564D01*
X523242Y201487D01*
X522487Y202242D01*
X521564Y202775D01*
X520533Y203051D01*
D02*
G37*
G36*
X510533D02*
X509467D01*
X508436Y202775D01*
X507513Y202242D01*
X506758Y201487D01*
X506225Y200564D01*
X505949Y199533D01*
Y198467D01*
X506225Y197436D01*
X506758Y196512D01*
X507513Y195758D01*
X508436Y195225D01*
X509467Y194949D01*
X510533D01*
X511564Y195225D01*
X512488Y195758D01*
X513242Y196512D01*
X513775Y197436D01*
X514051Y198467D01*
Y199533D01*
X513775Y200564D01*
X513242Y201487D01*
X512488Y202242D01*
X511564Y202775D01*
X510533Y203051D01*
D02*
G37*
G36*
X500533D02*
X499467D01*
X498436Y202775D01*
X497512Y202242D01*
X496758Y201487D01*
X496225Y200564D01*
X495949Y199533D01*
Y198467D01*
X496225Y197436D01*
X496758Y196512D01*
X497512Y195758D01*
X498436Y195225D01*
X499467Y194949D01*
X500533D01*
X501564Y195225D01*
X502488Y195758D01*
X503242Y196512D01*
X503775Y197436D01*
X504051Y198467D01*
Y199533D01*
X503775Y200564D01*
X503242Y201487D01*
X502488Y202242D01*
X501564Y202775D01*
X500533Y203051D01*
D02*
G37*
G36*
X490533D02*
X489467D01*
X488436Y202775D01*
X487512Y202242D01*
X486758Y201487D01*
X486225Y200564D01*
X485949Y199533D01*
Y198467D01*
X486225Y197436D01*
X486758Y196512D01*
X487512Y195758D01*
X488436Y195225D01*
X489467Y194949D01*
X490533D01*
X491564Y195225D01*
X492487Y195758D01*
X493242Y196512D01*
X493775Y197436D01*
X494051Y198467D01*
Y199533D01*
X493775Y200564D01*
X493242Y201487D01*
X492487Y202242D01*
X491564Y202775D01*
X490533Y203051D01*
D02*
G37*
G36*
X480533D02*
X479467D01*
X478436Y202775D01*
X477513Y202242D01*
X476758Y201487D01*
X476225Y200564D01*
X475949Y199533D01*
Y198467D01*
X476225Y197436D01*
X476758Y196512D01*
X477513Y195758D01*
X478436Y195225D01*
X479467Y194949D01*
X480533D01*
X481564Y195225D01*
X482487Y195758D01*
X483242Y196512D01*
X483775Y197436D01*
X484051Y198467D01*
Y199533D01*
X483775Y200564D01*
X483242Y201487D01*
X482487Y202242D01*
X481564Y202775D01*
X480533Y203051D01*
D02*
G37*
G36*
X470533D02*
X469467D01*
X468436Y202775D01*
X467513Y202242D01*
X466758Y201487D01*
X466225Y200564D01*
X465949Y199533D01*
Y198467D01*
X466225Y197436D01*
X466758Y196512D01*
X467513Y195758D01*
X468436Y195225D01*
X469467Y194949D01*
X470533D01*
X471564Y195225D01*
X472487Y195758D01*
X473242Y196512D01*
X473775Y197436D01*
X474051Y198467D01*
Y199533D01*
X473775Y200564D01*
X473242Y201487D01*
X472487Y202242D01*
X471564Y202775D01*
X470533Y203051D01*
D02*
G37*
G36*
X460533D02*
X459467D01*
X458436Y202775D01*
X457513Y202242D01*
X456758Y201487D01*
X456225Y200564D01*
X455949Y199533D01*
Y198467D01*
X456225Y197436D01*
X456758Y196512D01*
X457513Y195758D01*
X458436Y195225D01*
X459467Y194949D01*
X460533D01*
X461564Y195225D01*
X462488Y195758D01*
X463242Y196512D01*
X463775Y197436D01*
X464051Y198467D01*
Y199533D01*
X463775Y200564D01*
X463242Y201487D01*
X462488Y202242D01*
X461564Y202775D01*
X460533Y203051D01*
D02*
G37*
G36*
X300533D02*
X299467D01*
X298436Y202775D01*
X297513Y202242D01*
X296758Y201487D01*
X296225Y200564D01*
X295949Y199533D01*
Y198467D01*
X296225Y197436D01*
X296758Y196512D01*
X297513Y195758D01*
X298436Y195225D01*
X299467Y194949D01*
X300533D01*
X301564Y195225D01*
X302487Y195758D01*
X303242Y196512D01*
X303775Y197436D01*
X304051Y198467D01*
Y199533D01*
X303775Y200564D01*
X303242Y201487D01*
X302487Y202242D01*
X301564Y202775D01*
X300533Y203051D01*
D02*
G37*
G36*
X290533D02*
X289467D01*
X288436Y202775D01*
X287512Y202242D01*
X286758Y201487D01*
X286225Y200564D01*
X285949Y199533D01*
Y198467D01*
X286225Y197436D01*
X286758Y196512D01*
X287512Y195758D01*
X288436Y195225D01*
X289467Y194949D01*
X290533D01*
X291564Y195225D01*
X292488Y195758D01*
X293242Y196512D01*
X293775Y197436D01*
X294051Y198467D01*
Y199533D01*
X293775Y200564D01*
X293242Y201487D01*
X292488Y202242D01*
X291564Y202775D01*
X290533Y203051D01*
D02*
G37*
G36*
X280533D02*
X279467D01*
X278436Y202775D01*
X277513Y202242D01*
X276758Y201487D01*
X276225Y200564D01*
X275949Y199533D01*
Y198467D01*
X276225Y197436D01*
X276758Y196512D01*
X277513Y195758D01*
X278436Y195225D01*
X279467Y194949D01*
X280533D01*
X281564Y195225D01*
X282488Y195758D01*
X283242Y196512D01*
X283775Y197436D01*
X284051Y198467D01*
Y199533D01*
X283775Y200564D01*
X283242Y201487D01*
X282488Y202242D01*
X281564Y202775D01*
X280533Y203051D01*
D02*
G37*
G36*
X270533D02*
X269467D01*
X268436Y202775D01*
X267512Y202242D01*
X266758Y201487D01*
X266225Y200564D01*
X265949Y199533D01*
Y198467D01*
X266225Y197436D01*
X266758Y196512D01*
X267512Y195758D01*
X268436Y195225D01*
X269467Y194949D01*
X270533D01*
X271564Y195225D01*
X272487Y195758D01*
X273242Y196512D01*
X273775Y197436D01*
X274051Y198467D01*
Y199533D01*
X273775Y200564D01*
X273242Y201487D01*
X272487Y202242D01*
X271564Y202775D01*
X270533Y203051D01*
D02*
G37*
G36*
X260533D02*
X259467D01*
X258436Y202775D01*
X257512Y202242D01*
X256758Y201487D01*
X256225Y200564D01*
X255949Y199533D01*
Y198467D01*
X256225Y197436D01*
X256758Y196512D01*
X257512Y195758D01*
X258436Y195225D01*
X259467Y194949D01*
X260533D01*
X261564Y195225D01*
X262488Y195758D01*
X263242Y196512D01*
X263775Y197436D01*
X264051Y198467D01*
Y199533D01*
X263775Y200564D01*
X263242Y201487D01*
X262488Y202242D01*
X261564Y202775D01*
X260533Y203051D01*
D02*
G37*
G36*
X250533D02*
X249467D01*
X248436Y202775D01*
X247513Y202242D01*
X246758Y201487D01*
X246225Y200564D01*
X245949Y199533D01*
Y198467D01*
X246225Y197436D01*
X246758Y196512D01*
X247513Y195758D01*
X248436Y195225D01*
X249467Y194949D01*
X250533D01*
X251564Y195225D01*
X252487Y195758D01*
X253242Y196512D01*
X253775Y197436D01*
X254051Y198467D01*
Y199533D01*
X253775Y200564D01*
X253242Y201487D01*
X252487Y202242D01*
X251564Y202775D01*
X250533Y203051D01*
D02*
G37*
G36*
X240533D02*
X239467D01*
X238436Y202775D01*
X237512Y202242D01*
X236758Y201487D01*
X236225Y200564D01*
X235949Y199533D01*
Y198467D01*
X236225Y197436D01*
X236758Y196512D01*
X237512Y195758D01*
X238436Y195225D01*
X239467Y194949D01*
X240533D01*
X241564Y195225D01*
X242488Y195758D01*
X243242Y196512D01*
X243775Y197436D01*
X244051Y198467D01*
Y199533D01*
X243775Y200564D01*
X243242Y201487D01*
X242488Y202242D01*
X241564Y202775D01*
X240533Y203051D01*
D02*
G37*
G36*
X230533D02*
X229467D01*
X228436Y202775D01*
X227513Y202242D01*
X226758Y201487D01*
X226225Y200564D01*
X225949Y199533D01*
Y198467D01*
X226225Y197436D01*
X226758Y196512D01*
X227513Y195758D01*
X228436Y195225D01*
X229467Y194949D01*
X230533D01*
X231564Y195225D01*
X232488Y195758D01*
X233242Y196512D01*
X233775Y197436D01*
X234051Y198467D01*
Y199533D01*
X233775Y200564D01*
X233242Y201487D01*
X232488Y202242D01*
X231564Y202775D01*
X230533Y203051D01*
D02*
G37*
G36*
X220533D02*
X219467D01*
X218436Y202775D01*
X217512Y202242D01*
X216758Y201487D01*
X216225Y200564D01*
X215949Y199533D01*
Y198467D01*
X216225Y197436D01*
X216758Y196512D01*
X217512Y195758D01*
X218436Y195225D01*
X219467Y194949D01*
X220533D01*
X221564Y195225D01*
X222487Y195758D01*
X223242Y196512D01*
X223775Y197436D01*
X224051Y198467D01*
Y199533D01*
X223775Y200564D01*
X223242Y201487D01*
X222487Y202242D01*
X221564Y202775D01*
X220533Y203051D01*
D02*
G37*
G36*
X210533D02*
X209467D01*
X208436Y202775D01*
X207512Y202242D01*
X206758Y201487D01*
X206225Y200564D01*
X205949Y199533D01*
Y198467D01*
X206225Y197436D01*
X206758Y196512D01*
X207512Y195758D01*
X208436Y195225D01*
X209467Y194949D01*
X210533D01*
X211564Y195225D01*
X212488Y195758D01*
X213242Y196512D01*
X213775Y197436D01*
X214051Y198467D01*
Y199533D01*
X213775Y200564D01*
X213242Y201487D01*
X212488Y202242D01*
X211564Y202775D01*
X210533Y203051D01*
D02*
G37*
G36*
X436461Y186500D02*
X435539D01*
X434649Y186261D01*
X433851Y185801D01*
X433199Y185149D01*
X432738Y184351D01*
X432500Y183461D01*
Y182539D01*
X432738Y181649D01*
X433199Y180851D01*
X433851Y180199D01*
X434649Y179738D01*
X435539Y179500D01*
X436461D01*
X437351Y179738D01*
X438149Y180199D01*
X438801Y180851D01*
X439261Y181649D01*
X439500Y182539D01*
Y183461D01*
X439261Y184351D01*
X438801Y185149D01*
X438149Y185801D01*
X437351Y186261D01*
X436461Y186500D01*
D02*
G37*
G36*
X184834Y177500D02*
X182130D01*
Y174796D01*
X182875Y174995D01*
X183610Y175420D01*
X184210Y176020D01*
X184635Y176755D01*
X184834Y177500D01*
D02*
G37*
G36*
X476461Y179500D02*
X475539D01*
X474649Y179262D01*
X473851Y178801D01*
X473199Y178149D01*
X472739Y177351D01*
X472500Y176461D01*
Y175539D01*
X472739Y174649D01*
X473199Y173851D01*
X473851Y173199D01*
X474649Y172739D01*
X475539Y172500D01*
X476461D01*
X477351Y172739D01*
X478149Y173199D01*
X478801Y173851D01*
X479261Y174649D01*
X479500Y175539D01*
Y176461D01*
X479261Y177351D01*
X478801Y178149D01*
X478149Y178801D01*
X477351Y179262D01*
X476461Y179500D01*
D02*
G37*
G36*
X489425Y166854D02*
X488576D01*
X487755Y166635D01*
X487020Y166210D01*
X486420Y165610D01*
X485995Y164874D01*
X485776Y164054D01*
Y163205D01*
X485995Y162385D01*
X486420Y161650D01*
X487020Y161050D01*
X487755Y160625D01*
X488576Y160406D01*
X489425D01*
X490245Y160625D01*
X490980Y161050D01*
X491580Y161650D01*
X492005Y162385D01*
X492224Y163205D01*
Y164054D01*
X492005Y164874D01*
X491580Y165610D01*
X490980Y166210D01*
X490245Y166635D01*
X489425Y166854D01*
D02*
G37*
G36*
X479424D02*
X478576D01*
X477755Y166635D01*
X477020Y166210D01*
X476420Y165610D01*
X475995Y164874D01*
X475776Y164054D01*
Y163205D01*
X475995Y162385D01*
X476420Y161650D01*
X477020Y161050D01*
X477755Y160625D01*
X478576Y160406D01*
X479424D01*
X480245Y160625D01*
X480980Y161050D01*
X481580Y161650D01*
X482005Y162385D01*
X482224Y163205D01*
Y164054D01*
X482005Y164874D01*
X481580Y165610D01*
X480980Y166210D01*
X480245Y166635D01*
X479424Y166854D01*
D02*
G37*
G36*
X469424D02*
X468575D01*
X467755Y166635D01*
X467020Y166210D01*
X466420Y165610D01*
X465995Y164874D01*
X465776Y164054D01*
Y163205D01*
X465995Y162385D01*
X466420Y161650D01*
X467020Y161050D01*
X467755Y160625D01*
X468575Y160406D01*
X469424D01*
X470245Y160625D01*
X470980Y161050D01*
X471580Y161650D01*
X472005Y162385D01*
X472224Y163205D01*
Y164054D01*
X472005Y164874D01*
X471580Y165610D01*
X470980Y166210D01*
X470245Y166635D01*
X469424Y166854D01*
D02*
G37*
G36*
X462224D02*
X455776D01*
Y160406D01*
X462224D01*
Y166854D01*
D02*
G37*
G36*
X561461Y165500D02*
X560539D01*
X559649Y165261D01*
X558851Y164801D01*
X558199Y164149D01*
X557738Y163351D01*
X557500Y162461D01*
Y161539D01*
X557738Y160649D01*
X558199Y159851D01*
X558851Y159199D01*
X559649Y158739D01*
X560539Y158500D01*
X561461D01*
X562351Y158739D01*
X563149Y159199D01*
X563801Y159851D01*
X564261Y160649D01*
X564500Y161539D01*
Y162461D01*
X564261Y163351D01*
X563801Y164149D01*
X563149Y164801D01*
X562351Y165261D01*
X561461Y165500D01*
D02*
G37*
G36*
X532461Y162500D02*
X531539D01*
X530649Y162261D01*
X529851Y161801D01*
X529199Y161149D01*
X528738Y160351D01*
X528500Y159461D01*
Y158539D01*
X528738Y157649D01*
X529199Y156851D01*
X529851Y156199D01*
X530649Y155738D01*
X531539Y155500D01*
X532461D01*
X533351Y155738D01*
X534149Y156199D01*
X534801Y156851D01*
X535261Y157649D01*
X535500Y158539D01*
Y159461D01*
X535261Y160351D01*
X534801Y161149D01*
X534149Y161801D01*
X533351Y162261D01*
X532461Y162500D01*
D02*
G37*
G36*
X566461Y157500D02*
X565539D01*
X564649Y157262D01*
X563851Y156801D01*
X563199Y156149D01*
X562739Y155351D01*
X562500Y154461D01*
Y153539D01*
X562739Y152649D01*
X563199Y151851D01*
X563851Y151199D01*
X564649Y150739D01*
X565539Y150500D01*
X566461D01*
X567351Y150739D01*
X568149Y151199D01*
X568801Y151851D01*
X569262Y152649D01*
X569500Y153539D01*
Y154461D01*
X569262Y155351D01*
X568801Y156149D01*
X568149Y156801D01*
X567351Y157262D01*
X566461Y157500D01*
D02*
G37*
G36*
X459500Y135574D02*
Y132870D01*
X462204D01*
X462005Y133615D01*
X461580Y134350D01*
X460980Y134950D01*
X460245Y135375D01*
X459500Y135574D01*
D02*
G37*
G36*
X458500D02*
X457755Y135375D01*
X457020Y134950D01*
X456420Y134350D01*
X455995Y133615D01*
X455796Y132870D01*
X458500D01*
Y135574D01*
D02*
G37*
G36*
X462204Y131870D02*
X459500D01*
Y129166D01*
X460245Y129365D01*
X460980Y129790D01*
X461580Y130390D01*
X462005Y131125D01*
X462204Y131870D01*
D02*
G37*
G36*
X458500D02*
X455796D01*
X455995Y131125D01*
X456420Y130390D01*
X457020Y129790D01*
X457755Y129365D01*
X458500Y129166D01*
Y131870D01*
D02*
G37*
G36*
X489425Y135594D02*
X488576D01*
X487755Y135375D01*
X487020Y134950D01*
X486420Y134350D01*
X485995Y133615D01*
X485776Y132795D01*
Y131946D01*
X485995Y131125D01*
X486420Y130390D01*
X487020Y129790D01*
X487755Y129365D01*
X488576Y129146D01*
X489425D01*
X490245Y129365D01*
X490980Y129790D01*
X491580Y130390D01*
X492005Y131125D01*
X492224Y131946D01*
Y132795D01*
X492005Y133615D01*
X491580Y134350D01*
X490980Y134950D01*
X490245Y135375D01*
X489425Y135594D01*
D02*
G37*
G36*
X479424D02*
X478576D01*
X477755Y135375D01*
X477020Y134950D01*
X476420Y134350D01*
X475995Y133615D01*
X475776Y132795D01*
Y131946D01*
X475995Y131125D01*
X476420Y130390D01*
X477020Y129790D01*
X477755Y129365D01*
X478576Y129146D01*
X479424D01*
X480245Y129365D01*
X480980Y129790D01*
X481580Y130390D01*
X482005Y131125D01*
X482224Y131946D01*
Y132795D01*
X482005Y133615D01*
X481580Y134350D01*
X480980Y134950D01*
X480245Y135375D01*
X479424Y135594D01*
D02*
G37*
G36*
X469424D02*
X468575D01*
X467755Y135375D01*
X467020Y134950D01*
X466420Y134350D01*
X465995Y133615D01*
X465776Y132795D01*
Y131946D01*
X465995Y131125D01*
X466420Y130390D01*
X467020Y129790D01*
X467755Y129365D01*
X468575Y129146D01*
X469424D01*
X470245Y129365D01*
X470980Y129790D01*
X471580Y130390D01*
X472005Y131125D01*
X472224Y131946D01*
Y132795D01*
X472005Y133615D01*
X471580Y134350D01*
X470980Y134950D01*
X470245Y135375D01*
X469424Y135594D01*
D02*
G37*
G36*
X570461Y130500D02*
X569539D01*
X568649Y130262D01*
X567851Y129801D01*
X567199Y129149D01*
X566739Y128351D01*
X566500Y127461D01*
Y126539D01*
X566739Y125649D01*
X567199Y124851D01*
X567851Y124199D01*
X568649Y123739D01*
X569539Y123500D01*
X570461D01*
X571351Y123739D01*
X572149Y124199D01*
X572801Y124851D01*
X573261Y125649D01*
X573500Y126539D01*
Y127461D01*
X573261Y128351D01*
X572801Y129149D01*
X572149Y129801D01*
X571351Y130262D01*
X570461Y130500D01*
D02*
G37*
G36*
X565461Y115500D02*
X564539D01*
X563649Y115261D01*
X562851Y114801D01*
X562199Y114149D01*
X561738Y113351D01*
X561500Y112461D01*
Y111539D01*
X561738Y110649D01*
X562199Y109851D01*
X562851Y109199D01*
X563649Y108739D01*
X564539Y108500D01*
X565461D01*
X566351Y108739D01*
X567149Y109199D01*
X567801Y109851D01*
X568261Y110649D01*
X568500Y111539D01*
Y112461D01*
X568261Y113351D01*
X567801Y114149D01*
X567149Y114801D01*
X566351Y115261D01*
X565461Y115500D01*
D02*
G37*
G36*
X97579Y110396D02*
X97500D01*
Y106500D01*
X101396D01*
Y106579D01*
X101096Y107697D01*
X100517Y108699D01*
X99699Y109517D01*
X98697Y110096D01*
X97579Y110396D01*
D02*
G37*
G36*
X96500D02*
X96421D01*
X95303Y110096D01*
X94301Y109517D01*
X93483Y108699D01*
X92904Y107697D01*
X92604Y106579D01*
Y106500D01*
X96500D01*
Y110396D01*
D02*
G37*
G36*
X117579D02*
X116421D01*
X115303Y110096D01*
X114301Y109517D01*
X113483Y108699D01*
X112904Y107697D01*
X112604Y106579D01*
Y105421D01*
X112904Y104303D01*
X113483Y103301D01*
X114301Y102483D01*
X115303Y101904D01*
X116421Y101604D01*
X117579D01*
X118697Y101904D01*
X119699Y102483D01*
X120517Y103301D01*
X121096Y104303D01*
X121396Y105421D01*
Y106579D01*
X121096Y107697D01*
X120517Y108699D01*
X119699Y109517D01*
X118697Y110096D01*
X117579Y110396D01*
D02*
G37*
G36*
X107579D02*
X106421D01*
X105303Y110096D01*
X104301Y109517D01*
X103483Y108699D01*
X102904Y107697D01*
X102604Y106579D01*
Y105421D01*
X102904Y104303D01*
X103483Y103301D01*
X104301Y102483D01*
X105303Y101904D01*
X106421Y101604D01*
X107579D01*
X108697Y101904D01*
X109699Y102483D01*
X110517Y103301D01*
X111096Y104303D01*
X111396Y105421D01*
Y106579D01*
X111096Y107697D01*
X110517Y108699D01*
X109699Y109517D01*
X108697Y110096D01*
X107579Y110396D01*
D02*
G37*
G36*
X101396Y105500D02*
X97500D01*
Y101604D01*
X97579D01*
X98697Y101904D01*
X99699Y102483D01*
X100517Y103301D01*
X101096Y104303D01*
X101396Y105421D01*
Y105500D01*
D02*
G37*
G36*
X96500D02*
X92604D01*
Y105421D01*
X92904Y104303D01*
X93483Y103301D01*
X94301Y102483D01*
X95303Y101904D01*
X96421Y101604D01*
X96500D01*
Y105500D01*
D02*
G37*
G36*
X87579Y110396D02*
X86421D01*
X85303Y110096D01*
X84301Y109517D01*
X83483Y108699D01*
X82904Y107697D01*
X82604Y106579D01*
Y105421D01*
X82904Y104303D01*
X83483Y103301D01*
X84301Y102483D01*
X85303Y101904D01*
X86421Y101604D01*
X87579D01*
X88697Y101904D01*
X89699Y102483D01*
X90517Y103301D01*
X91096Y104303D01*
X91396Y105421D01*
Y106579D01*
X91096Y107697D01*
X90517Y108699D01*
X89699Y109517D01*
X88697Y110096D01*
X87579Y110396D01*
D02*
G37*
G36*
X545461Y107500D02*
X544539D01*
X543649Y107262D01*
X542851Y106801D01*
X542199Y106149D01*
X541739Y105351D01*
X541500Y104461D01*
Y103539D01*
X541739Y102649D01*
X542199Y101851D01*
X542851Y101199D01*
X543649Y100739D01*
X544539Y100500D01*
X545461D01*
X546351Y100739D01*
X547149Y101199D01*
X547801Y101851D01*
X548261Y102649D01*
X548500Y103539D01*
Y104461D01*
X548261Y105351D01*
X547801Y106149D01*
X547149Y106801D01*
X546351Y107262D01*
X545461Y107500D01*
D02*
G37*
G36*
X464461Y106500D02*
X463539D01*
X462649Y106262D01*
X461851Y105801D01*
X461199Y105149D01*
X460739Y104351D01*
X460500Y103461D01*
Y102539D01*
X460739Y101649D01*
X461199Y100851D01*
X461851Y100199D01*
X462649Y99739D01*
X463539Y99500D01*
X464461D01*
X465351Y99739D01*
X466149Y100199D01*
X466801Y100851D01*
X467262Y101649D01*
X467500Y102539D01*
Y103461D01*
X467262Y104351D01*
X466801Y105149D01*
X466149Y105801D01*
X465351Y106262D01*
X464461Y106500D01*
D02*
G37*
G36*
X504461Y105500D02*
X503539D01*
X502649Y105262D01*
X501851Y104801D01*
X501199Y104149D01*
X500738Y103351D01*
X500500Y102461D01*
Y101539D01*
X500738Y100649D01*
X501199Y99851D01*
X501851Y99199D01*
X502649Y98738D01*
X503539Y98500D01*
X504461D01*
X505351Y98738D01*
X506149Y99199D01*
X506801Y99851D01*
X507262Y100649D01*
X507500Y101539D01*
Y102461D01*
X507262Y103351D01*
X506801Y104149D01*
X506149Y104801D01*
X505351Y105262D01*
X504461Y105500D01*
D02*
G37*
G36*
X593461Y98500D02*
X592539D01*
X591649Y98261D01*
X590851Y97801D01*
X590199Y97149D01*
X589739Y96351D01*
X589500Y95461D01*
Y94539D01*
X589739Y93649D01*
X590199Y92851D01*
X590851Y92199D01*
X591649Y91738D01*
X592539Y91500D01*
X593461D01*
X594351Y91738D01*
X595149Y92199D01*
X595801Y92851D01*
X596262Y93649D01*
X596500Y94539D01*
Y95461D01*
X596262Y96351D01*
X595801Y97149D01*
X595149Y97801D01*
X594351Y98261D01*
X593461Y98500D01*
D02*
G37*
G36*
Y86500D02*
X592539D01*
X591649Y86261D01*
X590851Y85801D01*
X590199Y85149D01*
X589739Y84351D01*
X589500Y83461D01*
Y82539D01*
X589739Y81649D01*
X590199Y80851D01*
X590851Y80199D01*
X591649Y79738D01*
X592539Y79500D01*
X593461D01*
X594351Y79738D01*
X595149Y80199D01*
X595801Y80851D01*
X596262Y81649D01*
X596500Y82539D01*
Y83461D01*
X596262Y84351D01*
X595801Y85149D01*
X595149Y85801D01*
X594351Y86261D01*
X593461Y86500D01*
D02*
G37*
G36*
X550461Y82500D02*
X549539D01*
X548649Y82262D01*
X547851Y81801D01*
X547199Y81149D01*
X546738Y80351D01*
X546500Y79461D01*
Y78539D01*
X546738Y77649D01*
X547199Y76851D01*
X547851Y76199D01*
X548649Y75739D01*
X549539Y75500D01*
X550461D01*
X551351Y75739D01*
X552149Y76199D01*
X552801Y76851D01*
X553262Y77649D01*
X553500Y78539D01*
Y79461D01*
X553262Y80351D01*
X552801Y81149D01*
X552149Y81801D01*
X551351Y82262D01*
X550461Y82500D01*
D02*
G37*
G36*
X540461D02*
X539539D01*
X538649Y82262D01*
X537851Y81801D01*
X537199Y81149D01*
X536738Y80351D01*
X536500Y79461D01*
Y78539D01*
X536738Y77649D01*
X537199Y76851D01*
X537851Y76199D01*
X538649Y75739D01*
X539539Y75500D01*
X540461D01*
X541351Y75739D01*
X542149Y76199D01*
X542801Y76851D01*
X543261Y77649D01*
X543500Y78539D01*
Y79461D01*
X543261Y80351D01*
X542801Y81149D01*
X542149Y81801D01*
X541351Y82262D01*
X540461Y82500D01*
D02*
G37*
G36*
X499461D02*
X498539D01*
X497649Y82262D01*
X496851Y81801D01*
X496199Y81149D01*
X495739Y80351D01*
X495500Y79461D01*
Y78539D01*
X495739Y77649D01*
X496199Y76851D01*
X496851Y76199D01*
X497649Y75739D01*
X498539Y75500D01*
X499461D01*
X500351Y75739D01*
X501149Y76199D01*
X501801Y76851D01*
X502261Y77649D01*
X502500Y78539D01*
Y79461D01*
X502261Y80351D01*
X501801Y81149D01*
X501149Y81801D01*
X500351Y82262D01*
X499461Y82500D01*
D02*
G37*
G36*
X510461Y81500D02*
X509539D01*
X508649Y81261D01*
X507851Y80801D01*
X507199Y80149D01*
X506739Y79351D01*
X506500Y78461D01*
Y77539D01*
X506739Y76649D01*
X507199Y75851D01*
X507851Y75199D01*
X508649Y74739D01*
X509539Y74500D01*
X510461D01*
X511351Y74739D01*
X512149Y75199D01*
X512801Y75851D01*
X513262Y76649D01*
X513500Y77539D01*
Y78461D01*
X513262Y79351D01*
X512801Y80149D01*
X512149Y80801D01*
X511351Y81261D01*
X510461Y81500D01*
D02*
G37*
G36*
X469461Y80500D02*
X468539D01*
X467649Y80261D01*
X466851Y79801D01*
X466199Y79149D01*
X465738Y78351D01*
X465500Y77461D01*
Y76539D01*
X465738Y75649D01*
X466199Y74851D01*
X466851Y74199D01*
X467649Y73738D01*
X468539Y73500D01*
X469461D01*
X470351Y73738D01*
X471149Y74199D01*
X471801Y74851D01*
X472261Y75649D01*
X472500Y76539D01*
Y77461D01*
X472261Y78351D01*
X471801Y79149D01*
X471149Y79801D01*
X470351Y80261D01*
X469461Y80500D01*
D02*
G37*
G36*
X458461D02*
X457539D01*
X456649Y80261D01*
X455851Y79801D01*
X455199Y79149D01*
X454739Y78351D01*
X454500Y77461D01*
Y76539D01*
X454739Y75649D01*
X455199Y74851D01*
X455851Y74199D01*
X456649Y73738D01*
X457539Y73500D01*
X458461D01*
X459351Y73738D01*
X460149Y74199D01*
X460801Y74851D01*
X461262Y75649D01*
X461500Y76539D01*
Y77461D01*
X461262Y78351D01*
X460801Y79149D01*
X460149Y79801D01*
X459351Y80261D01*
X458461Y80500D01*
D02*
G37*
G36*
X593461Y73500D02*
X592539D01*
X591649Y73261D01*
X590851Y72801D01*
X590199Y72149D01*
X589739Y71351D01*
X589500Y70461D01*
Y69539D01*
X589739Y68649D01*
X590199Y67851D01*
X590851Y67199D01*
X591649Y66738D01*
X592539Y66500D01*
X593461D01*
X594351Y66738D01*
X595149Y67199D01*
X595801Y67851D01*
X596262Y68649D01*
X596500Y69539D01*
Y70461D01*
X596262Y71351D01*
X595801Y72149D01*
X595149Y72801D01*
X594351Y73261D01*
X593461Y73500D01*
D02*
G37*
G36*
Y62500D02*
X592539D01*
X591649Y62261D01*
X590851Y61801D01*
X590199Y61149D01*
X589739Y60351D01*
X589500Y59461D01*
Y58539D01*
X589739Y57649D01*
X590199Y56851D01*
X590851Y56199D01*
X591649Y55739D01*
X592539Y55500D01*
X593461D01*
X594351Y55739D01*
X595149Y56199D01*
X595801Y56851D01*
X596262Y57649D01*
X596500Y58539D01*
Y59461D01*
X596262Y60351D01*
X595801Y61149D01*
X595149Y61801D01*
X594351Y62261D01*
X593461Y62500D01*
D02*
G37*
G36*
Y51500D02*
X592539D01*
X591649Y51262D01*
X590851Y50801D01*
X590199Y50149D01*
X589739Y49351D01*
X589500Y48461D01*
Y47539D01*
X589739Y46649D01*
X590199Y45851D01*
X590851Y45199D01*
X591649Y44739D01*
X592539Y44500D01*
X593461D01*
X594351Y44739D01*
X595149Y45199D01*
X595801Y45851D01*
X596262Y46649D01*
X596500Y47539D01*
Y48461D01*
X596262Y49351D01*
X595801Y50149D01*
X595149Y50801D01*
X594351Y51262D01*
X593461Y51500D01*
D02*
G37*
G36*
X550533Y43051D02*
X549467D01*
X548436Y42775D01*
X547512Y42242D01*
X546758Y41488D01*
X546225Y40564D01*
X545949Y39533D01*
Y38467D01*
X546225Y37436D01*
X546758Y36513D01*
X547512Y35758D01*
X548436Y35225D01*
X549467Y34949D01*
X550533D01*
X551564Y35225D01*
X552488Y35758D01*
X553242Y36513D01*
X553775Y37436D01*
X554051Y38467D01*
Y39533D01*
X553775Y40564D01*
X553242Y41488D01*
X552488Y42242D01*
X551564Y42775D01*
X550533Y43051D01*
D02*
G37*
G36*
X540533D02*
X539467D01*
X538436Y42775D01*
X537512Y42242D01*
X536758Y41488D01*
X536225Y40564D01*
X535949Y39533D01*
Y38467D01*
X536225Y37436D01*
X536758Y36513D01*
X537512Y35758D01*
X538436Y35225D01*
X539467Y34949D01*
X540533D01*
X541564Y35225D01*
X542487Y35758D01*
X543242Y36513D01*
X543775Y37436D01*
X544051Y38467D01*
Y39533D01*
X543775Y40564D01*
X543242Y41488D01*
X542487Y42242D01*
X541564Y42775D01*
X540533Y43051D01*
D02*
G37*
G36*
X530533D02*
X529467D01*
X528436Y42775D01*
X527513Y42242D01*
X526758Y41488D01*
X526225Y40564D01*
X525949Y39533D01*
Y38467D01*
X526225Y37436D01*
X526758Y36513D01*
X527513Y35758D01*
X528436Y35225D01*
X529467Y34949D01*
X530533D01*
X531564Y35225D01*
X532487Y35758D01*
X533242Y36513D01*
X533775Y37436D01*
X534051Y38467D01*
Y39533D01*
X533775Y40564D01*
X533242Y41488D01*
X532487Y42242D01*
X531564Y42775D01*
X530533Y43051D01*
D02*
G37*
G36*
X520533D02*
X519467D01*
X518436Y42775D01*
X517513Y42242D01*
X516758Y41488D01*
X516225Y40564D01*
X515949Y39533D01*
Y38467D01*
X516225Y37436D01*
X516758Y36513D01*
X517513Y35758D01*
X518436Y35225D01*
X519467Y34949D01*
X520533D01*
X521564Y35225D01*
X522487Y35758D01*
X523242Y36513D01*
X523775Y37436D01*
X524051Y38467D01*
Y39533D01*
X523775Y40564D01*
X523242Y41488D01*
X522487Y42242D01*
X521564Y42775D01*
X520533Y43051D01*
D02*
G37*
G36*
X510533D02*
X509467D01*
X508436Y42775D01*
X507513Y42242D01*
X506758Y41488D01*
X506225Y40564D01*
X505949Y39533D01*
Y38467D01*
X506225Y37436D01*
X506758Y36513D01*
X507513Y35758D01*
X508436Y35225D01*
X509467Y34949D01*
X510533D01*
X511564Y35225D01*
X512488Y35758D01*
X513242Y36513D01*
X513775Y37436D01*
X514051Y38467D01*
Y39533D01*
X513775Y40564D01*
X513242Y41488D01*
X512488Y42242D01*
X511564Y42775D01*
X510533Y43051D01*
D02*
G37*
G36*
X500533D02*
X499467D01*
X498436Y42775D01*
X497512Y42242D01*
X496758Y41488D01*
X496225Y40564D01*
X495949Y39533D01*
Y38467D01*
X496225Y37436D01*
X496758Y36513D01*
X497512Y35758D01*
X498436Y35225D01*
X499467Y34949D01*
X500533D01*
X501564Y35225D01*
X502488Y35758D01*
X503242Y36513D01*
X503775Y37436D01*
X504051Y38467D01*
Y39533D01*
X503775Y40564D01*
X503242Y41488D01*
X502488Y42242D01*
X501564Y42775D01*
X500533Y43051D01*
D02*
G37*
G36*
X490533D02*
X489467D01*
X488436Y42775D01*
X487512Y42242D01*
X486758Y41488D01*
X486225Y40564D01*
X485949Y39533D01*
Y38467D01*
X486225Y37436D01*
X486758Y36513D01*
X487512Y35758D01*
X488436Y35225D01*
X489467Y34949D01*
X490533D01*
X491564Y35225D01*
X492487Y35758D01*
X493242Y36513D01*
X493775Y37436D01*
X494051Y38467D01*
Y39533D01*
X493775Y40564D01*
X493242Y41488D01*
X492487Y42242D01*
X491564Y42775D01*
X490533Y43051D01*
D02*
G37*
G36*
X480533D02*
X479467D01*
X478436Y42775D01*
X477513Y42242D01*
X476758Y41488D01*
X476225Y40564D01*
X475949Y39533D01*
Y38467D01*
X476225Y37436D01*
X476758Y36513D01*
X477513Y35758D01*
X478436Y35225D01*
X479467Y34949D01*
X480533D01*
X481564Y35225D01*
X482487Y35758D01*
X483242Y36513D01*
X483775Y37436D01*
X484051Y38467D01*
Y39533D01*
X483775Y40564D01*
X483242Y41488D01*
X482487Y42242D01*
X481564Y42775D01*
X480533Y43051D01*
D02*
G37*
G36*
X470533D02*
X469467D01*
X468436Y42775D01*
X467513Y42242D01*
X466758Y41488D01*
X466225Y40564D01*
X465949Y39533D01*
Y38467D01*
X466225Y37436D01*
X466758Y36513D01*
X467513Y35758D01*
X468436Y35225D01*
X469467Y34949D01*
X470533D01*
X471564Y35225D01*
X472487Y35758D01*
X473242Y36513D01*
X473775Y37436D01*
X474051Y38467D01*
Y39533D01*
X473775Y40564D01*
X473242Y41488D01*
X472487Y42242D01*
X471564Y42775D01*
X470533Y43051D01*
D02*
G37*
G36*
X460533D02*
X459467D01*
X458436Y42775D01*
X457513Y42242D01*
X456758Y41488D01*
X456225Y40564D01*
X455949Y39533D01*
Y38467D01*
X456225Y37436D01*
X456758Y36513D01*
X457513Y35758D01*
X458436Y35225D01*
X459467Y34949D01*
X460533D01*
X461564Y35225D01*
X462488Y35758D01*
X463242Y36513D01*
X463775Y37436D01*
X464051Y38467D01*
Y39533D01*
X463775Y40564D01*
X463242Y41488D01*
X462488Y42242D01*
X461564Y42775D01*
X460533Y43051D01*
D02*
G37*
G36*
X300533D02*
X299467D01*
X298436Y42775D01*
X297513Y42242D01*
X296758Y41488D01*
X296225Y40564D01*
X295949Y39533D01*
Y38467D01*
X296225Y37436D01*
X296758Y36513D01*
X297513Y35758D01*
X298436Y35225D01*
X299467Y34949D01*
X300533D01*
X301564Y35225D01*
X302487Y35758D01*
X303242Y36513D01*
X303775Y37436D01*
X304051Y38467D01*
Y39533D01*
X303775Y40564D01*
X303242Y41488D01*
X302487Y42242D01*
X301564Y42775D01*
X300533Y43051D01*
D02*
G37*
G36*
X290533D02*
X289467D01*
X288436Y42775D01*
X287512Y42242D01*
X286758Y41488D01*
X286225Y40564D01*
X285949Y39533D01*
Y38467D01*
X286225Y37436D01*
X286758Y36513D01*
X287512Y35758D01*
X288436Y35225D01*
X289467Y34949D01*
X290533D01*
X291564Y35225D01*
X292488Y35758D01*
X293242Y36513D01*
X293775Y37436D01*
X294051Y38467D01*
Y39533D01*
X293775Y40564D01*
X293242Y41488D01*
X292488Y42242D01*
X291564Y42775D01*
X290533Y43051D01*
D02*
G37*
G36*
X280533D02*
X279467D01*
X278436Y42775D01*
X277513Y42242D01*
X276758Y41488D01*
X276225Y40564D01*
X275949Y39533D01*
Y38467D01*
X276225Y37436D01*
X276758Y36513D01*
X277513Y35758D01*
X278436Y35225D01*
X279467Y34949D01*
X280533D01*
X281564Y35225D01*
X282488Y35758D01*
X283242Y36513D01*
X283775Y37436D01*
X284051Y38467D01*
Y39533D01*
X283775Y40564D01*
X283242Y41488D01*
X282488Y42242D01*
X281564Y42775D01*
X280533Y43051D01*
D02*
G37*
G36*
X270533D02*
X269467D01*
X268436Y42775D01*
X267512Y42242D01*
X266758Y41488D01*
X266225Y40564D01*
X265949Y39533D01*
Y38467D01*
X266225Y37436D01*
X266758Y36513D01*
X267512Y35758D01*
X268436Y35225D01*
X269467Y34949D01*
X270533D01*
X271564Y35225D01*
X272487Y35758D01*
X273242Y36513D01*
X273775Y37436D01*
X274051Y38467D01*
Y39533D01*
X273775Y40564D01*
X273242Y41488D01*
X272487Y42242D01*
X271564Y42775D01*
X270533Y43051D01*
D02*
G37*
G36*
X260533D02*
X259467D01*
X258436Y42775D01*
X257512Y42242D01*
X256758Y41488D01*
X256225Y40564D01*
X255949Y39533D01*
Y38467D01*
X256225Y37436D01*
X256758Y36513D01*
X257512Y35758D01*
X258436Y35225D01*
X259467Y34949D01*
X260533D01*
X261564Y35225D01*
X262488Y35758D01*
X263242Y36513D01*
X263775Y37436D01*
X264051Y38467D01*
Y39533D01*
X263775Y40564D01*
X263242Y41488D01*
X262488Y42242D01*
X261564Y42775D01*
X260533Y43051D01*
D02*
G37*
G36*
X250533D02*
X249467D01*
X248436Y42775D01*
X247513Y42242D01*
X246758Y41488D01*
X246225Y40564D01*
X245949Y39533D01*
Y38467D01*
X246225Y37436D01*
X246758Y36513D01*
X247513Y35758D01*
X248436Y35225D01*
X249467Y34949D01*
X250533D01*
X251564Y35225D01*
X252487Y35758D01*
X253242Y36513D01*
X253775Y37436D01*
X254051Y38467D01*
Y39533D01*
X253775Y40564D01*
X253242Y41488D01*
X252487Y42242D01*
X251564Y42775D01*
X250533Y43051D01*
D02*
G37*
G36*
X240533D02*
X239467D01*
X238436Y42775D01*
X237512Y42242D01*
X236758Y41488D01*
X236225Y40564D01*
X235949Y39533D01*
Y38467D01*
X236225Y37436D01*
X236758Y36513D01*
X237512Y35758D01*
X238436Y35225D01*
X239467Y34949D01*
X240533D01*
X241564Y35225D01*
X242488Y35758D01*
X243242Y36513D01*
X243775Y37436D01*
X244051Y38467D01*
Y39533D01*
X243775Y40564D01*
X243242Y41488D01*
X242488Y42242D01*
X241564Y42775D01*
X240533Y43051D01*
D02*
G37*
G36*
X230533D02*
X229467D01*
X228436Y42775D01*
X227513Y42242D01*
X226758Y41488D01*
X226225Y40564D01*
X225949Y39533D01*
Y38467D01*
X226225Y37436D01*
X226758Y36513D01*
X227513Y35758D01*
X228436Y35225D01*
X229467Y34949D01*
X230533D01*
X231564Y35225D01*
X232488Y35758D01*
X233242Y36513D01*
X233775Y37436D01*
X234051Y38467D01*
Y39533D01*
X233775Y40564D01*
X233242Y41488D01*
X232488Y42242D01*
X231564Y42775D01*
X230533Y43051D01*
D02*
G37*
G36*
X220533D02*
X219467D01*
X218436Y42775D01*
X217512Y42242D01*
X216758Y41488D01*
X216225Y40564D01*
X215949Y39533D01*
Y38467D01*
X216225Y37436D01*
X216758Y36513D01*
X217512Y35758D01*
X218436Y35225D01*
X219467Y34949D01*
X220533D01*
X221564Y35225D01*
X222487Y35758D01*
X223242Y36513D01*
X223775Y37436D01*
X224051Y38467D01*
Y39533D01*
X223775Y40564D01*
X223242Y41488D01*
X222487Y42242D01*
X221564Y42775D01*
X220533Y43051D01*
D02*
G37*
G36*
X210533D02*
X209467D01*
X208436Y42775D01*
X207512Y42242D01*
X206758Y41488D01*
X206225Y40564D01*
X205949Y39533D01*
Y38467D01*
X206225Y37436D01*
X206758Y36513D01*
X207512Y35758D01*
X208436Y35225D01*
X209467Y34949D01*
X210533D01*
X211564Y35225D01*
X212488Y35758D01*
X213242Y36513D01*
X213775Y37436D01*
X214051Y38467D01*
Y39533D01*
X213775Y40564D01*
X213242Y41488D01*
X212488Y42242D01*
X211564Y42775D01*
X210533Y43051D01*
D02*
G37*
G36*
X593461Y40500D02*
X592539D01*
X591649Y40262D01*
X590851Y39801D01*
X590199Y39149D01*
X589739Y38351D01*
X589500Y37461D01*
Y36539D01*
X589739Y35649D01*
X590199Y34851D01*
X590851Y34199D01*
X591649Y33738D01*
X592539Y33500D01*
X593461D01*
X594351Y33738D01*
X595149Y34199D01*
X595801Y34851D01*
X596262Y35649D01*
X596500Y36539D01*
Y37461D01*
X596262Y38351D01*
X595801Y39149D01*
X595149Y39801D01*
X594351Y40262D01*
X593461Y40500D01*
D02*
G37*
G36*
X395637Y33839D02*
X395500D01*
Y29500D01*
X399839D01*
Y29637D01*
X399509Y30868D01*
X398872Y31971D01*
X397971Y32872D01*
X396868Y33509D01*
X395637Y33839D01*
D02*
G37*
G36*
X394500D02*
X394363D01*
X393132Y33509D01*
X392029Y32872D01*
X391128Y31971D01*
X390491Y30868D01*
X390161Y29637D01*
Y29500D01*
X394500D01*
Y33839D01*
D02*
G37*
G36*
X550533Y33051D02*
X549467D01*
X548436Y32775D01*
X547512Y32242D01*
X546758Y31488D01*
X546225Y30564D01*
X545949Y29533D01*
Y28467D01*
X546225Y27436D01*
X546758Y26513D01*
X547512Y25758D01*
X548436Y25225D01*
X549467Y24949D01*
X550533D01*
X551564Y25225D01*
X552488Y25758D01*
X553242Y26513D01*
X553775Y27436D01*
X554051Y28467D01*
Y29533D01*
X553775Y30564D01*
X553242Y31488D01*
X552488Y32242D01*
X551564Y32775D01*
X550533Y33051D01*
D02*
G37*
G36*
X540533D02*
X539467D01*
X538436Y32775D01*
X537512Y32242D01*
X536758Y31488D01*
X536225Y30564D01*
X535949Y29533D01*
Y28467D01*
X536225Y27436D01*
X536758Y26513D01*
X537512Y25758D01*
X538436Y25225D01*
X539467Y24949D01*
X540533D01*
X541564Y25225D01*
X542487Y25758D01*
X543242Y26513D01*
X543775Y27436D01*
X544051Y28467D01*
Y29533D01*
X543775Y30564D01*
X543242Y31488D01*
X542487Y32242D01*
X541564Y32775D01*
X540533Y33051D01*
D02*
G37*
G36*
X530533D02*
X529467D01*
X528436Y32775D01*
X527513Y32242D01*
X526758Y31488D01*
X526225Y30564D01*
X525949Y29533D01*
Y28467D01*
X526225Y27436D01*
X526758Y26513D01*
X527513Y25758D01*
X528436Y25225D01*
X529467Y24949D01*
X530533D01*
X531564Y25225D01*
X532487Y25758D01*
X533242Y26513D01*
X533775Y27436D01*
X534051Y28467D01*
Y29533D01*
X533775Y30564D01*
X533242Y31488D01*
X532487Y32242D01*
X531564Y32775D01*
X530533Y33051D01*
D02*
G37*
G36*
X520533D02*
X519467D01*
X518436Y32775D01*
X517513Y32242D01*
X516758Y31488D01*
X516225Y30564D01*
X515949Y29533D01*
Y28467D01*
X516225Y27436D01*
X516758Y26513D01*
X517513Y25758D01*
X518436Y25225D01*
X519467Y24949D01*
X520533D01*
X521564Y25225D01*
X522487Y25758D01*
X523242Y26513D01*
X523775Y27436D01*
X524051Y28467D01*
Y29533D01*
X523775Y30564D01*
X523242Y31488D01*
X522487Y32242D01*
X521564Y32775D01*
X520533Y33051D01*
D02*
G37*
G36*
X510533D02*
X509467D01*
X508436Y32775D01*
X507513Y32242D01*
X506758Y31488D01*
X506225Y30564D01*
X505949Y29533D01*
Y28467D01*
X506225Y27436D01*
X506758Y26513D01*
X507513Y25758D01*
X508436Y25225D01*
X509467Y24949D01*
X510533D01*
X511564Y25225D01*
X512488Y25758D01*
X513242Y26513D01*
X513775Y27436D01*
X514051Y28467D01*
Y29533D01*
X513775Y30564D01*
X513242Y31488D01*
X512488Y32242D01*
X511564Y32775D01*
X510533Y33051D01*
D02*
G37*
G36*
X500533D02*
X499467D01*
X498436Y32775D01*
X497512Y32242D01*
X496758Y31488D01*
X496225Y30564D01*
X495949Y29533D01*
Y28467D01*
X496225Y27436D01*
X496758Y26513D01*
X497512Y25758D01*
X498436Y25225D01*
X499467Y24949D01*
X500533D01*
X501564Y25225D01*
X502488Y25758D01*
X503242Y26513D01*
X503775Y27436D01*
X504051Y28467D01*
Y29533D01*
X503775Y30564D01*
X503242Y31488D01*
X502488Y32242D01*
X501564Y32775D01*
X500533Y33051D01*
D02*
G37*
G36*
X490533D02*
X489467D01*
X488436Y32775D01*
X487512Y32242D01*
X486758Y31488D01*
X486225Y30564D01*
X485949Y29533D01*
Y28467D01*
X486225Y27436D01*
X486758Y26513D01*
X487512Y25758D01*
X488436Y25225D01*
X489467Y24949D01*
X490533D01*
X491564Y25225D01*
X492487Y25758D01*
X493242Y26513D01*
X493775Y27436D01*
X494051Y28467D01*
Y29533D01*
X493775Y30564D01*
X493242Y31488D01*
X492487Y32242D01*
X491564Y32775D01*
X490533Y33051D01*
D02*
G37*
G36*
X480533D02*
X479467D01*
X478436Y32775D01*
X477513Y32242D01*
X476758Y31488D01*
X476225Y30564D01*
X475949Y29533D01*
Y28467D01*
X476225Y27436D01*
X476758Y26513D01*
X477513Y25758D01*
X478436Y25225D01*
X479467Y24949D01*
X480533D01*
X481564Y25225D01*
X482487Y25758D01*
X483242Y26513D01*
X483775Y27436D01*
X484051Y28467D01*
Y29533D01*
X483775Y30564D01*
X483242Y31488D01*
X482487Y32242D01*
X481564Y32775D01*
X480533Y33051D01*
D02*
G37*
G36*
X470533D02*
X469467D01*
X468436Y32775D01*
X467513Y32242D01*
X466758Y31488D01*
X466225Y30564D01*
X465949Y29533D01*
Y28467D01*
X466225Y27436D01*
X466758Y26513D01*
X467513Y25758D01*
X468436Y25225D01*
X469467Y24949D01*
X470533D01*
X471564Y25225D01*
X472487Y25758D01*
X473242Y26513D01*
X473775Y27436D01*
X474051Y28467D01*
Y29533D01*
X473775Y30564D01*
X473242Y31488D01*
X472487Y32242D01*
X471564Y32775D01*
X470533Y33051D01*
D02*
G37*
G36*
X460533D02*
X459467D01*
X458436Y32775D01*
X457513Y32242D01*
X456758Y31488D01*
X456225Y30564D01*
X455949Y29533D01*
Y28467D01*
X456225Y27436D01*
X456758Y26513D01*
X457513Y25758D01*
X458436Y25225D01*
X459467Y24949D01*
X460533D01*
X461564Y25225D01*
X462488Y25758D01*
X463242Y26513D01*
X463775Y27436D01*
X464051Y28467D01*
Y29533D01*
X463775Y30564D01*
X463242Y31488D01*
X462488Y32242D01*
X461564Y32775D01*
X460533Y33051D01*
D02*
G37*
G36*
X300533D02*
X299467D01*
X298436Y32775D01*
X297513Y32242D01*
X296758Y31488D01*
X296225Y30564D01*
X295949Y29533D01*
Y28467D01*
X296225Y27436D01*
X296758Y26513D01*
X297513Y25758D01*
X298436Y25225D01*
X299467Y24949D01*
X300533D01*
X301564Y25225D01*
X302487Y25758D01*
X303242Y26513D01*
X303775Y27436D01*
X304051Y28467D01*
Y29533D01*
X303775Y30564D01*
X303242Y31488D01*
X302487Y32242D01*
X301564Y32775D01*
X300533Y33051D01*
D02*
G37*
G36*
X290533D02*
X289467D01*
X288436Y32775D01*
X287512Y32242D01*
X286758Y31488D01*
X286225Y30564D01*
X285949Y29533D01*
Y28467D01*
X286225Y27436D01*
X286758Y26513D01*
X287512Y25758D01*
X288436Y25225D01*
X289467Y24949D01*
X290533D01*
X291564Y25225D01*
X292488Y25758D01*
X293242Y26513D01*
X293775Y27436D01*
X294051Y28467D01*
Y29533D01*
X293775Y30564D01*
X293242Y31488D01*
X292488Y32242D01*
X291564Y32775D01*
X290533Y33051D01*
D02*
G37*
G36*
X280533D02*
X279467D01*
X278436Y32775D01*
X277513Y32242D01*
X276758Y31488D01*
X276225Y30564D01*
X275949Y29533D01*
Y28467D01*
X276225Y27436D01*
X276758Y26513D01*
X277513Y25758D01*
X278436Y25225D01*
X279467Y24949D01*
X280533D01*
X281564Y25225D01*
X282488Y25758D01*
X283242Y26513D01*
X283775Y27436D01*
X284051Y28467D01*
Y29533D01*
X283775Y30564D01*
X283242Y31488D01*
X282488Y32242D01*
X281564Y32775D01*
X280533Y33051D01*
D02*
G37*
G36*
X270533D02*
X269467D01*
X268436Y32775D01*
X267512Y32242D01*
X266758Y31488D01*
X266225Y30564D01*
X265949Y29533D01*
Y28467D01*
X266225Y27436D01*
X266758Y26513D01*
X267512Y25758D01*
X268436Y25225D01*
X269467Y24949D01*
X270533D01*
X271564Y25225D01*
X272487Y25758D01*
X273242Y26513D01*
X273775Y27436D01*
X274051Y28467D01*
Y29533D01*
X273775Y30564D01*
X273242Y31488D01*
X272487Y32242D01*
X271564Y32775D01*
X270533Y33051D01*
D02*
G37*
G36*
X260533D02*
X259467D01*
X258436Y32775D01*
X257512Y32242D01*
X256758Y31488D01*
X256225Y30564D01*
X255949Y29533D01*
Y28467D01*
X256225Y27436D01*
X256758Y26513D01*
X257512Y25758D01*
X258436Y25225D01*
X259467Y24949D01*
X260533D01*
X261564Y25225D01*
X262488Y25758D01*
X263242Y26513D01*
X263775Y27436D01*
X264051Y28467D01*
Y29533D01*
X263775Y30564D01*
X263242Y31488D01*
X262488Y32242D01*
X261564Y32775D01*
X260533Y33051D01*
D02*
G37*
G36*
X250533D02*
X249467D01*
X248436Y32775D01*
X247513Y32242D01*
X246758Y31488D01*
X246225Y30564D01*
X245949Y29533D01*
Y28467D01*
X246225Y27436D01*
X246758Y26513D01*
X247513Y25758D01*
X248436Y25225D01*
X249467Y24949D01*
X250533D01*
X251564Y25225D01*
X252487Y25758D01*
X253242Y26513D01*
X253775Y27436D01*
X254051Y28467D01*
Y29533D01*
X253775Y30564D01*
X253242Y31488D01*
X252487Y32242D01*
X251564Y32775D01*
X250533Y33051D01*
D02*
G37*
G36*
X240533D02*
X239467D01*
X238436Y32775D01*
X237512Y32242D01*
X236758Y31488D01*
X236225Y30564D01*
X235949Y29533D01*
Y28467D01*
X236225Y27436D01*
X236758Y26513D01*
X237512Y25758D01*
X238436Y25225D01*
X239467Y24949D01*
X240533D01*
X241564Y25225D01*
X242488Y25758D01*
X243242Y26513D01*
X243775Y27436D01*
X244051Y28467D01*
Y29533D01*
X243775Y30564D01*
X243242Y31488D01*
X242488Y32242D01*
X241564Y32775D01*
X240533Y33051D01*
D02*
G37*
G36*
X230533D02*
X229467D01*
X228436Y32775D01*
X227513Y32242D01*
X226758Y31488D01*
X226225Y30564D01*
X225949Y29533D01*
Y28467D01*
X226225Y27436D01*
X226758Y26513D01*
X227513Y25758D01*
X228436Y25225D01*
X229467Y24949D01*
X230533D01*
X231564Y25225D01*
X232488Y25758D01*
X233242Y26513D01*
X233775Y27436D01*
X234051Y28467D01*
Y29533D01*
X233775Y30564D01*
X233242Y31488D01*
X232488Y32242D01*
X231564Y32775D01*
X230533Y33051D01*
D02*
G37*
G36*
X220533D02*
X219467D01*
X218436Y32775D01*
X217512Y32242D01*
X216758Y31488D01*
X216225Y30564D01*
X215949Y29533D01*
Y28467D01*
X216225Y27436D01*
X216758Y26513D01*
X217512Y25758D01*
X218436Y25225D01*
X219467Y24949D01*
X220533D01*
X221564Y25225D01*
X222487Y25758D01*
X223242Y26513D01*
X223775Y27436D01*
X224051Y28467D01*
Y29533D01*
X223775Y30564D01*
X223242Y31488D01*
X222487Y32242D01*
X221564Y32775D01*
X220533Y33051D01*
D02*
G37*
G36*
X210533D02*
X209467D01*
X208436Y32775D01*
X207512Y32242D01*
X206758Y31488D01*
X206225Y30564D01*
X205949Y29533D01*
Y28467D01*
X206225Y27436D01*
X206758Y26513D01*
X207512Y25758D01*
X208436Y25225D01*
X209467Y24949D01*
X210533D01*
X211564Y25225D01*
X212488Y25758D01*
X213242Y26513D01*
X213775Y27436D01*
X214051Y28467D01*
Y29533D01*
X213775Y30564D01*
X213242Y31488D01*
X212488Y32242D01*
X211564Y32775D01*
X210533Y33051D01*
D02*
G37*
G36*
X399839Y28500D02*
X395500D01*
Y24161D01*
X395637D01*
X396868Y24491D01*
X397971Y25128D01*
X398872Y26029D01*
X399509Y27132D01*
X399839Y28363D01*
Y28500D01*
D02*
G37*
G36*
X394500D02*
X390161D01*
Y28363D01*
X390491Y27132D01*
X391128Y26029D01*
X392029Y25128D01*
X393132Y24491D01*
X394363Y24161D01*
X394500D01*
Y28500D01*
D02*
G37*
G36*
X375637Y33839D02*
X374363D01*
X373132Y33509D01*
X372029Y32872D01*
X371128Y31971D01*
X370491Y30868D01*
X370161Y29637D01*
Y28363D01*
X370491Y27132D01*
X371128Y26029D01*
X372029Y25128D01*
X373132Y24491D01*
X374363Y24161D01*
X375637D01*
X376868Y24491D01*
X377971Y25128D01*
X378872Y26029D01*
X379509Y27132D01*
X379839Y28363D01*
Y29637D01*
X379509Y30868D01*
X378872Y31971D01*
X377971Y32872D01*
X376868Y33509D01*
X375637Y33839D01*
D02*
G37*
G36*
X355637D02*
X354363D01*
X353132Y33509D01*
X352029Y32872D01*
X351128Y31971D01*
X350491Y30868D01*
X350161Y29637D01*
Y28363D01*
X350491Y27132D01*
X351128Y26029D01*
X352029Y25128D01*
X353132Y24491D01*
X354363Y24161D01*
X355637D01*
X356868Y24491D01*
X357971Y25128D01*
X358872Y26029D01*
X359509Y27132D01*
X359839Y28363D01*
Y29637D01*
X359509Y30868D01*
X358872Y31971D01*
X357971Y32872D01*
X356868Y33509D01*
X355637Y33839D01*
D02*
G37*
G36*
X580921Y26850D02*
X579079D01*
X577273Y26491D01*
X575571Y25786D01*
X574040Y24763D01*
X572737Y23460D01*
X571714Y21929D01*
X571009Y20227D01*
X570650Y18421D01*
Y16579D01*
X571009Y14773D01*
X571714Y13071D01*
X572737Y11540D01*
X574040Y10237D01*
X575571Y9214D01*
X577273Y8509D01*
X579079Y8150D01*
X580921D01*
X582727Y8509D01*
X584429Y9214D01*
X585960Y10237D01*
X587263Y11540D01*
X588286Y13071D01*
X588991Y14773D01*
X589350Y16579D01*
Y18421D01*
X588991Y20227D01*
X588286Y21929D01*
X587263Y23460D01*
X585960Y24763D01*
X584429Y25786D01*
X582727Y26491D01*
X580921Y26850D01*
D02*
G37*
G36*
X155500Y498490D02*
Y495500D01*
X158490D01*
X158262Y496351D01*
X157801Y497149D01*
X157149Y497801D01*
X156351Y498261D01*
X155500Y498490D01*
D02*
G37*
G36*
X154500D02*
X153649Y498261D01*
X152851Y497801D01*
X152199Y497149D01*
X151739Y496351D01*
X151511Y495500D01*
X154500D01*
Y498490D01*
D02*
G37*
G36*
X158490Y494500D02*
X155500D01*
Y491510D01*
X156351Y491739D01*
X157149Y492199D01*
X157801Y492851D01*
X158262Y493649D01*
X158490Y494500D01*
D02*
G37*
G36*
X154500D02*
X151511D01*
X151739Y493649D01*
X152199Y492851D01*
X152851Y492199D01*
X153649Y491739D01*
X154500Y491510D01*
Y494500D01*
D02*
G37*
G36*
X273500Y488347D02*
Y485500D01*
X276347D01*
X276133Y486298D01*
X275690Y487064D01*
X275064Y487690D01*
X274298Y488133D01*
X273500Y488347D01*
D02*
G37*
G36*
X272500D02*
X271702Y488133D01*
X270936Y487690D01*
X270310Y487064D01*
X269867Y486298D01*
X269653Y485500D01*
X272500D01*
Y488347D01*
D02*
G37*
G36*
X303553Y490200D02*
X302447D01*
X301379Y489914D01*
X300421Y489361D01*
X299639Y488579D01*
X299086Y487621D01*
X298800Y486553D01*
Y485447D01*
X299086Y484379D01*
X299639Y483421D01*
X300421Y482639D01*
X301379Y482086D01*
X302447Y481800D01*
X303553D01*
X304621Y482086D01*
X305579Y482639D01*
X306361Y483421D01*
X306914Y484379D01*
X307200Y485447D01*
Y486553D01*
X306914Y487621D01*
X306361Y488579D01*
X305579Y489361D01*
X304621Y489914D01*
X303553Y490200D01*
D02*
G37*
G36*
X276347Y484500D02*
X273500D01*
Y481653D01*
X274298Y481867D01*
X275064Y482310D01*
X275690Y482936D01*
X276133Y483702D01*
X276347Y484500D01*
D02*
G37*
G36*
X272500D02*
X269653D01*
X269867Y483702D01*
X270310Y482936D01*
X270936Y482310D01*
X271702Y481867D01*
X272500Y481653D01*
Y484500D01*
D02*
G37*
G36*
X293128Y488362D02*
X292242D01*
X291387Y488133D01*
X290621Y487690D01*
X289995Y487064D01*
X289552Y486298D01*
X289323Y485443D01*
Y484557D01*
X289552Y483702D01*
X289995Y482936D01*
X290621Y482310D01*
X291387Y481867D01*
X292242Y481638D01*
X293128D01*
X293983Y481867D01*
X294749Y482310D01*
X295375Y482936D01*
X295818Y483702D01*
X296047Y484557D01*
Y485443D01*
X295818Y486298D01*
X295375Y487064D01*
X294749Y487690D01*
X293983Y488133D01*
X293128Y488362D01*
D02*
G37*
G36*
X132637Y480839D02*
X131363D01*
X130132Y480509D01*
X129029Y479872D01*
X128128Y478971D01*
X127491Y477868D01*
X127161Y476637D01*
Y475363D01*
X127491Y474132D01*
X128128Y473029D01*
X129029Y472128D01*
X130132Y471491D01*
X131363Y471161D01*
X132637D01*
X133868Y471491D01*
X134971Y472128D01*
X135872Y473029D01*
X136509Y474132D01*
X136839Y475363D01*
Y476637D01*
X136509Y477868D01*
X135872Y478971D01*
X134971Y479872D01*
X133868Y480509D01*
X132637Y480839D01*
D02*
G37*
G36*
X313500Y409489D02*
Y406500D01*
X316490D01*
X316262Y407351D01*
X315801Y408149D01*
X315149Y408801D01*
X314351Y409262D01*
X313500Y409489D01*
D02*
G37*
G36*
X312500D02*
X311649Y409262D01*
X310851Y408801D01*
X310199Y408149D01*
X309738Y407351D01*
X309510Y406500D01*
X312500D01*
Y409489D01*
D02*
G37*
G36*
X263362Y410350D02*
X256638D01*
Y403626D01*
X263362D01*
Y410350D01*
D02*
G37*
G36*
X316490Y405500D02*
X313500D01*
Y402510D01*
X314351Y402739D01*
X315149Y403199D01*
X315801Y403851D01*
X316262Y404649D01*
X316490Y405500D01*
D02*
G37*
G36*
X312500D02*
X309510D01*
X309738Y404649D01*
X310199Y403851D01*
X310851Y403199D01*
X311649Y402739D01*
X312500Y402510D01*
Y405500D01*
D02*
G37*
G36*
X302461Y408500D02*
X301539D01*
X300649Y408261D01*
X299851Y407801D01*
X299199Y407149D01*
X298739Y406351D01*
X298500Y405461D01*
Y404539D01*
X298739Y403649D01*
X299199Y402851D01*
X299851Y402199D01*
X300649Y401739D01*
X301539Y401500D01*
X302461D01*
X303351Y401739D01*
X304149Y402199D01*
X304801Y402851D01*
X305261Y403649D01*
X305500Y404539D01*
Y405461D01*
X305261Y406351D01*
X304801Y407149D01*
X304149Y407801D01*
X303351Y408261D01*
X302461Y408500D01*
D02*
G37*
G36*
X283461Y403500D02*
X282539D01*
X281649Y403262D01*
X280851Y402801D01*
X280199Y402149D01*
X279738Y401351D01*
X279500Y400461D01*
Y399539D01*
X279738Y398649D01*
X280199Y397851D01*
X280851Y397199D01*
X281649Y396739D01*
X282539Y396500D01*
X283461D01*
X284351Y396739D01*
X285149Y397199D01*
X285801Y397851D01*
X286262Y398649D01*
X286500Y399539D01*
Y400461D01*
X286262Y401351D01*
X285801Y402149D01*
X285149Y402801D01*
X284351Y403262D01*
X283461Y403500D01*
D02*
G37*
G36*
X240680Y405252D02*
X239320D01*
X237986Y404987D01*
X236729Y404466D01*
X235598Y403710D01*
X234636Y402748D01*
X233880Y401617D01*
X233360Y400361D01*
X233095Y399027D01*
Y397666D01*
X233360Y396332D01*
X233880Y395075D01*
X234636Y393945D01*
X235598Y392983D01*
X236729Y392227D01*
X237986Y391706D01*
X239320Y391441D01*
X240680D01*
X242014Y391706D01*
X243271Y392227D01*
X244402Y392983D01*
X245364Y393945D01*
X246120Y395075D01*
X246640Y396332D01*
X246905Y397666D01*
Y399027D01*
X246640Y400361D01*
X246120Y401617D01*
X245364Y402748D01*
X244402Y403710D01*
X243271Y404466D01*
X242014Y404987D01*
X240680Y405252D01*
D02*
G37*
G36*
X324461Y392500D02*
X323539D01*
X322649Y392262D01*
X321851Y391801D01*
X321199Y391149D01*
X320739Y390351D01*
X320500Y389461D01*
Y388539D01*
X320739Y387649D01*
X321199Y386851D01*
X321851Y386199D01*
X322649Y385738D01*
X323539Y385500D01*
X324461D01*
X325351Y385738D01*
X326149Y386199D01*
X326801Y386851D01*
X327261Y387649D01*
X327500Y388539D01*
Y389461D01*
X327261Y390351D01*
X326801Y391149D01*
X326149Y391801D01*
X325351Y392262D01*
X324461Y392500D01*
D02*
G37*
G36*
X312128Y379362D02*
X311242D01*
X310387Y379133D01*
X309621Y378690D01*
X308995Y378064D01*
X308552Y377298D01*
X308323Y376443D01*
Y375557D01*
X308552Y374702D01*
X308995Y373936D01*
X309621Y373310D01*
X310387Y372867D01*
X311242Y372638D01*
X312128D01*
X312983Y372867D01*
X313750Y373310D01*
X314375Y373936D01*
X314818Y374702D01*
X315047Y375557D01*
Y376443D01*
X314818Y377298D01*
X314375Y378064D01*
X313750Y378690D01*
X312983Y379133D01*
X312128Y379362D01*
D02*
G37*
G36*
X292443D02*
X291557D01*
X290702Y379133D01*
X289936Y378690D01*
X289310Y378064D01*
X288867Y377298D01*
X288638Y376443D01*
Y375557D01*
X288867Y374702D01*
X289310Y373936D01*
X289936Y373310D01*
X290702Y372867D01*
X291557Y372638D01*
X292443D01*
X293298Y372867D01*
X294064Y373310D01*
X294690Y373936D01*
X295133Y374702D01*
X295362Y375557D01*
Y376443D01*
X295133Y377298D01*
X294690Y378064D01*
X294064Y378690D01*
X293298Y379133D01*
X292443Y379362D01*
D02*
G37*
G36*
X332429Y380831D02*
X321571D01*
Y369972D01*
X332429D01*
Y380831D01*
D02*
G37*
G36*
X240680Y376905D02*
X239320D01*
X237986Y376640D01*
X236729Y376120D01*
X235598Y375364D01*
X234636Y374402D01*
X233880Y373271D01*
X233360Y372014D01*
X233095Y370680D01*
Y369320D01*
X233360Y367986D01*
X233880Y366729D01*
X234636Y365598D01*
X235598Y364636D01*
X236729Y363880D01*
X237986Y363360D01*
X239320Y363094D01*
X240680D01*
X242014Y363360D01*
X243271Y363880D01*
X244402Y364636D01*
X245364Y365598D01*
X246120Y366729D01*
X246640Y367986D01*
X246905Y369320D01*
Y370680D01*
X246640Y372014D01*
X246120Y373271D01*
X245364Y374402D01*
X244402Y375364D01*
X243271Y376120D01*
X242014Y376640D01*
X240680Y376905D01*
D02*
G37*
G36*
X249668Y366075D02*
X248332D01*
X247041Y365729D01*
X245884Y365061D01*
X244939Y364116D01*
X244271Y362959D01*
X243925Y361668D01*
Y360332D01*
X244271Y359041D01*
X244939Y357884D01*
X245884Y356939D01*
X247041Y356271D01*
X247120Y356250D01*
Y355750D01*
X247041Y355729D01*
X245884Y355061D01*
X244939Y354116D01*
X244271Y352959D01*
X243925Y351668D01*
Y350332D01*
X244271Y349041D01*
X244939Y347884D01*
X245884Y346939D01*
X246515Y346575D01*
X246381Y346075D01*
X243925D01*
Y335925D01*
X254075D01*
Y346075D01*
X251619D01*
X251485Y346575D01*
X252116Y346939D01*
X253061Y347884D01*
X253729Y349041D01*
X254075Y350332D01*
Y351668D01*
X253729Y352959D01*
X253061Y354116D01*
X252116Y355061D01*
X250959Y355729D01*
X250880Y355750D01*
Y356250D01*
X250959Y356271D01*
X252116Y356939D01*
X253061Y357884D01*
X253729Y359041D01*
X254075Y360332D01*
Y361668D01*
X253729Y362959D01*
X253061Y364116D01*
X252116Y365061D01*
X250959Y365729D01*
X249668Y366075D01*
D02*
G37*
G36*
X314386Y322362D02*
X307661D01*
Y315638D01*
X314386D01*
Y322362D01*
D02*
G37*
G36*
X281443D02*
X280557D01*
X279702Y322133D01*
X278936Y321690D01*
X278310Y321064D01*
X277867Y320298D01*
X277638Y319443D01*
Y318557D01*
X277867Y317702D01*
X278310Y316936D01*
X278936Y316310D01*
X279702Y315867D01*
X280557Y315638D01*
X281443D01*
X282298Y315867D01*
X283064Y316310D01*
X283690Y316936D01*
X284133Y317702D01*
X284362Y318557D01*
Y319443D01*
X284133Y320298D01*
X283690Y321064D01*
X283064Y321690D01*
X282298Y322133D01*
X281443Y322362D01*
D02*
G37*
G36*
X240680Y326905D02*
X239320D01*
X237986Y326640D01*
X236729Y326120D01*
X235598Y325364D01*
X234636Y324402D01*
X233880Y323271D01*
X233360Y322014D01*
X233095Y320680D01*
Y319320D01*
X233360Y317986D01*
X233880Y316729D01*
X234636Y315598D01*
X235598Y314636D01*
X236729Y313880D01*
X237986Y313360D01*
X239320Y313094D01*
X240680D01*
X242014Y313360D01*
X243271Y313880D01*
X244402Y314636D01*
X245364Y315598D01*
X246120Y316729D01*
X246640Y317986D01*
X246905Y319320D01*
Y320680D01*
X246640Y322014D01*
X246120Y323271D01*
X245364Y324402D01*
X244402Y325364D01*
X243271Y326120D01*
X242014Y326640D01*
X240680Y326905D01*
D02*
G37*
G36*
X172607Y445167D02*
X171393D01*
X170201Y444930D01*
X169079Y444465D01*
X168069Y443790D01*
X167209Y442931D01*
X166535Y441921D01*
X166070Y440799D01*
X165833Y439607D01*
Y438393D01*
X166070Y437201D01*
X166535Y436079D01*
X167209Y435069D01*
X167461Y434817D01*
Y423183D01*
X167209Y422931D01*
X166535Y421921D01*
X166070Y420799D01*
X165833Y419607D01*
Y418393D01*
X166070Y417201D01*
X166535Y416079D01*
X167209Y415069D01*
X167461Y414817D01*
Y403183D01*
X167209Y402931D01*
X166535Y401921D01*
X166070Y400799D01*
X165833Y399607D01*
Y398393D01*
X166070Y397201D01*
X166535Y396079D01*
X167209Y395069D01*
X167461Y394817D01*
Y383183D01*
X167209Y382931D01*
X166535Y381921D01*
X166070Y380799D01*
X165833Y379607D01*
Y378393D01*
X166070Y377201D01*
X166535Y376079D01*
X167209Y375069D01*
X168069Y374209D01*
X169079Y373535D01*
X169451Y373380D01*
Y364620D01*
X169079Y364465D01*
X168069Y363790D01*
X167209Y362931D01*
X166535Y361921D01*
X166070Y360799D01*
X165833Y359607D01*
Y358393D01*
X166070Y357201D01*
X166535Y356079D01*
X167209Y355069D01*
X167461Y354817D01*
Y343183D01*
X167209Y342931D01*
X166535Y341921D01*
X166070Y340799D01*
X165833Y339607D01*
Y338393D01*
X166070Y337201D01*
X166535Y336079D01*
X167209Y335069D01*
X167461Y334817D01*
Y323183D01*
X167209Y322931D01*
X166535Y321921D01*
X166070Y320799D01*
X165833Y319607D01*
Y318393D01*
X166070Y317201D01*
X166535Y316079D01*
X167209Y315069D01*
X167461Y314817D01*
Y303183D01*
X167209Y302931D01*
X166535Y301921D01*
X166070Y300799D01*
X165833Y299607D01*
Y298393D01*
X166070Y297201D01*
X166535Y296079D01*
X167209Y295069D01*
X167461Y294817D01*
Y283183D01*
X167209Y282931D01*
X166535Y281921D01*
X166070Y280799D01*
X165833Y279607D01*
Y278393D01*
X166070Y277201D01*
X166535Y276079D01*
X167209Y275069D01*
X168069Y274209D01*
X169079Y273535D01*
X170201Y273070D01*
X171393Y272833D01*
X172607D01*
X173799Y273070D01*
X174921Y273535D01*
X175931Y274209D01*
X176790Y275069D01*
X177465Y276079D01*
X177930Y277201D01*
X178167Y278393D01*
Y279607D01*
X177930Y280799D01*
X177465Y281921D01*
X176790Y282931D01*
X176539Y283183D01*
Y294817D01*
X176790Y295069D01*
X177465Y296079D01*
X177930Y297201D01*
X178167Y298393D01*
Y299607D01*
X177930Y300799D01*
X177465Y301921D01*
X176790Y302931D01*
X176539Y303183D01*
Y314817D01*
X176790Y315069D01*
X177465Y316079D01*
X177930Y317201D01*
X178167Y318393D01*
Y319607D01*
X177930Y320799D01*
X177465Y321921D01*
X176790Y322931D01*
X176539Y323183D01*
Y334817D01*
X176790Y335069D01*
X177465Y336079D01*
X177930Y337201D01*
X178167Y338393D01*
Y339607D01*
X177930Y340799D01*
X177465Y341921D01*
X176790Y342931D01*
X176539Y343183D01*
Y354817D01*
X176790Y355069D01*
X177465Y356079D01*
X177930Y357201D01*
X178167Y358393D01*
Y359607D01*
X177930Y360799D01*
X177465Y361921D01*
X176790Y362931D01*
X175931Y363790D01*
X174921Y364465D01*
X174549Y364620D01*
Y373380D01*
X174921Y373535D01*
X175931Y374209D01*
X176790Y375069D01*
X177465Y376079D01*
X177930Y377201D01*
X178167Y378393D01*
Y379607D01*
X177930Y380799D01*
X177465Y381921D01*
X176790Y382931D01*
X176539Y383183D01*
Y394817D01*
X176790Y395069D01*
X177465Y396079D01*
X177930Y397201D01*
X178167Y398393D01*
Y399607D01*
X177930Y400799D01*
X177465Y401921D01*
X176790Y402931D01*
X176539Y403183D01*
Y414817D01*
X176790Y415069D01*
X177465Y416079D01*
X177930Y417201D01*
X178167Y418393D01*
Y419607D01*
X177930Y420799D01*
X177465Y421921D01*
X176790Y422931D01*
X176539Y423183D01*
Y434817D01*
X176790Y435069D01*
X177465Y436079D01*
X177930Y437201D01*
X178167Y438393D01*
Y439607D01*
X177930Y440799D01*
X177465Y441921D01*
X176790Y442931D01*
X175931Y443790D01*
X174921Y444465D01*
X173799Y444930D01*
X172607Y445167D01*
D02*
G37*
G36*
X96579Y188396D02*
X96500D01*
Y184500D01*
X100396D01*
Y184579D01*
X100096Y185697D01*
X99517Y186699D01*
X98699Y187517D01*
X97697Y188096D01*
X96579Y188396D01*
D02*
G37*
G36*
X95500D02*
X95421D01*
X94303Y188096D01*
X93301Y187517D01*
X92483Y186699D01*
X91904Y185697D01*
X91604Y184579D01*
Y184500D01*
X95500D01*
Y188396D01*
D02*
G37*
G36*
X106579D02*
X105421D01*
X104303Y188096D01*
X103301Y187517D01*
X102483Y186699D01*
X101904Y185697D01*
X101604Y184579D01*
Y183421D01*
X101904Y182303D01*
X102483Y181301D01*
X103301Y180483D01*
X104303Y179904D01*
X105421Y179604D01*
X106579D01*
X107697Y179904D01*
X108699Y180483D01*
X109517Y181301D01*
X110096Y182303D01*
X110396Y183421D01*
Y184579D01*
X110096Y185697D01*
X109517Y186699D01*
X108699Y187517D01*
X107697Y188096D01*
X106579Y188396D01*
D02*
G37*
G36*
X100396Y183500D02*
X96500D01*
Y179604D01*
X96579D01*
X97697Y179904D01*
X98699Y180483D01*
X99517Y181301D01*
X100096Y182303D01*
X100396Y183421D01*
Y183500D01*
D02*
G37*
G36*
X95500D02*
X91604D01*
Y183421D01*
X91904Y182303D01*
X92483Y181301D01*
X93301Y180483D01*
X94303Y179904D01*
X95421Y179604D01*
X95500D01*
Y183500D01*
D02*
G37*
G36*
X86579Y188396D02*
X85421D01*
X84303Y188096D01*
X83301Y187517D01*
X82483Y186699D01*
X81904Y185697D01*
X81604Y184579D01*
Y183421D01*
X81904Y182303D01*
X82483Y181301D01*
X83301Y180483D01*
X84303Y179904D01*
X85421Y179604D01*
X86579D01*
X87697Y179904D01*
X88699Y180483D01*
X89517Y181301D01*
X90096Y182303D01*
X90396Y183421D01*
Y184579D01*
X90096Y185697D01*
X89517Y186699D01*
X88699Y187517D01*
X87697Y188096D01*
X86579Y188396D01*
D02*
G37*
G36*
X362637Y481839D02*
X362500D01*
Y477500D01*
X366839D01*
Y477637D01*
X366509Y478868D01*
X365872Y479971D01*
X364971Y480872D01*
X363868Y481509D01*
X362637Y481839D01*
D02*
G37*
G36*
X361500D02*
X361363D01*
X360132Y481509D01*
X359029Y480872D01*
X358128Y479971D01*
X357491Y478868D01*
X357161Y477637D01*
Y477500D01*
X361500D01*
Y481839D01*
D02*
G37*
G36*
X382322D02*
X381048D01*
X379817Y481509D01*
X378714Y480872D01*
X377813Y479971D01*
X377176Y478868D01*
X376847Y477637D01*
Y476363D01*
X377176Y475132D01*
X377813Y474029D01*
X378714Y473128D01*
X379817Y472491D01*
X381048Y472161D01*
X382322D01*
X383553Y472491D01*
X384656Y473128D01*
X385557Y474029D01*
X386194Y475132D01*
X386524Y476363D01*
Y477637D01*
X386194Y478868D01*
X385557Y479971D01*
X384656Y480872D01*
X383553Y481509D01*
X382322Y481839D01*
D02*
G37*
G36*
X366839Y476500D02*
X362500D01*
Y472161D01*
X362637D01*
X363868Y472491D01*
X364971Y473128D01*
X365872Y474029D01*
X366509Y475132D01*
X366839Y476363D01*
Y476500D01*
D02*
G37*
G36*
X361500D02*
X357161D01*
Y476363D01*
X357491Y475132D01*
X358128Y474029D01*
X359029Y473128D01*
X360132Y472491D01*
X361363Y472161D01*
X361500D01*
Y476500D01*
D02*
G37*
G36*
X283443Y469362D02*
X282557D01*
X281702Y469133D01*
X280936Y468690D01*
X280310Y468064D01*
X279867Y467298D01*
X279638Y466443D01*
Y465557D01*
X279867Y464702D01*
X280310Y463936D01*
X280936Y463310D01*
X281702Y462867D01*
X282557Y462638D01*
X283443D01*
X284298Y462867D01*
X285064Y463310D01*
X285690Y463936D01*
X286133Y464702D01*
X286362Y465557D01*
Y466443D01*
X286133Y467298D01*
X285690Y468064D01*
X285064Y468690D01*
X284298Y469133D01*
X283443Y469362D01*
D02*
G37*
G36*
X336386Y468657D02*
X335299D01*
X334248Y468376D01*
X333307Y467832D01*
X332538Y467063D01*
X331994Y466122D01*
X331713Y465071D01*
Y463984D01*
X331994Y462933D01*
X332538Y461992D01*
X333307Y461223D01*
X334248Y460679D01*
X335299Y460398D01*
X336386D01*
X337437Y460679D01*
X338378Y461223D01*
X339147Y461992D01*
X339691Y462933D01*
X339972Y463984D01*
Y465071D01*
X339691Y466122D01*
X339147Y467063D01*
X338378Y467832D01*
X337437Y468376D01*
X336386Y468657D01*
D02*
G37*
G36*
X283500Y449662D02*
Y446815D01*
X286347D01*
X286133Y447613D01*
X285690Y448379D01*
X285064Y449005D01*
X284298Y449448D01*
X283500Y449662D01*
D02*
G37*
G36*
X282500D02*
X281702Y449448D01*
X280936Y449005D01*
X280310Y448379D01*
X279867Y447613D01*
X279653Y446815D01*
X282500D01*
Y449662D01*
D02*
G37*
G36*
X249668Y461075D02*
X248332D01*
X247041Y460729D01*
X245884Y460061D01*
X244939Y459116D01*
X244271Y457959D01*
X243925Y456668D01*
Y455332D01*
X244271Y454041D01*
X244939Y452884D01*
X245884Y451939D01*
X247041Y451271D01*
X247120Y451250D01*
Y450750D01*
X247041Y450729D01*
X245884Y450061D01*
X244939Y449116D01*
X244271Y447959D01*
X243925Y446668D01*
Y446500D01*
X249000D01*
X254075D01*
Y446668D01*
X253729Y447959D01*
X253061Y449116D01*
X252116Y450061D01*
X250959Y450729D01*
X250880Y450750D01*
Y451250D01*
X250959Y451271D01*
X252116Y451939D01*
X253061Y452884D01*
X253729Y454041D01*
X254075Y455332D01*
Y456668D01*
X253729Y457959D01*
X253061Y459116D01*
X252116Y460061D01*
X250959Y460729D01*
X249668Y461075D01*
D02*
G37*
G36*
X286347Y445815D02*
X283500D01*
Y442968D01*
X284298Y443182D01*
X285064Y443624D01*
X285690Y444250D01*
X286133Y445017D01*
X286347Y445815D01*
D02*
G37*
G36*
X282500D02*
X279653D01*
X279867Y445017D01*
X280310Y444250D01*
X280936Y443624D01*
X281702Y443182D01*
X282500Y442968D01*
Y445815D01*
D02*
G37*
G36*
X355500Y440489D02*
Y437500D01*
X358489D01*
X358261Y438351D01*
X357801Y439149D01*
X357149Y439801D01*
X356351Y440262D01*
X355500Y440489D01*
D02*
G37*
G36*
X354500D02*
X353649Y440262D01*
X352851Y439801D01*
X352199Y439149D01*
X351739Y438351D01*
X351511Y437500D01*
X354500D01*
Y440489D01*
D02*
G37*
G36*
X326544Y439130D02*
X326500D01*
Y435500D01*
X330130D01*
Y435544D01*
X329849Y436594D01*
X329305Y437536D01*
X328536Y438305D01*
X327594Y438848D01*
X326544Y439130D01*
D02*
G37*
G36*
X325500D02*
X325456D01*
X324406Y438848D01*
X323464Y438305D01*
X322695Y437536D01*
X322151Y436594D01*
X321870Y435544D01*
Y435500D01*
X325500D01*
Y439130D01*
D02*
G37*
G36*
X381461Y441500D02*
X380539D01*
X379649Y441261D01*
X378851Y440801D01*
X378199Y440149D01*
X377738Y439351D01*
X377500Y438461D01*
Y437539D01*
X377738Y436649D01*
X378199Y435851D01*
X378851Y435199D01*
X379649Y434738D01*
X380539Y434500D01*
X381461D01*
X382351Y434738D01*
X383149Y435199D01*
X383801Y435851D01*
X384261Y436649D01*
X384500Y437539D01*
Y438461D01*
X384261Y439351D01*
X383801Y440149D01*
X383149Y440801D01*
X382351Y441261D01*
X381461Y441500D01*
D02*
G37*
G36*
X260443Y440374D02*
X259557D01*
X258702Y440145D01*
X257936Y439702D01*
X257310Y439076D01*
X256867Y438310D01*
X256638Y437454D01*
Y436569D01*
X256867Y435714D01*
X257310Y434947D01*
X257936Y434321D01*
X258702Y433879D01*
X259557Y433650D01*
X260443D01*
X261298Y433879D01*
X262064Y434321D01*
X262690Y434947D01*
X263133Y435714D01*
X263362Y436569D01*
Y437454D01*
X263133Y438310D01*
X262690Y439076D01*
X262064Y439702D01*
X261298Y440145D01*
X260443Y440374D01*
D02*
G37*
G36*
X358489Y436500D02*
X355500D01*
Y433510D01*
X356351Y433739D01*
X357149Y434199D01*
X357801Y434851D01*
X358261Y435649D01*
X358489Y436500D01*
D02*
G37*
G36*
X354500D02*
X351511D01*
X351739Y435649D01*
X352199Y434851D01*
X352851Y434199D01*
X353649Y433739D01*
X354500Y433510D01*
Y436500D01*
D02*
G37*
G36*
X450554Y437653D02*
X450374D01*
Y431248D01*
X456779D01*
Y431428D01*
X456514Y432762D01*
X455994Y434019D01*
X455238Y435150D01*
X454276Y436112D01*
X453145Y436868D01*
X451888Y437388D01*
X450554Y437653D01*
D02*
G37*
G36*
X449374D02*
X449194D01*
X447860Y437388D01*
X446603Y436868D01*
X445472Y436112D01*
X444510Y435150D01*
X443754Y434019D01*
X443234Y432762D01*
X442969Y431428D01*
Y431248D01*
X449374D01*
Y437653D01*
D02*
G37*
G36*
X254075Y445500D02*
X249000D01*
X243925D01*
Y445332D01*
X244271Y444041D01*
X244939Y442884D01*
X245884Y441939D01*
X246515Y441575D01*
X246381Y441075D01*
X243925D01*
Y430925D01*
X254075D01*
Y441075D01*
X251619D01*
X251485Y441575D01*
X252116Y441939D01*
X253061Y442884D01*
X253729Y444041D01*
X254075Y445332D01*
Y445500D01*
D02*
G37*
G36*
X330130Y434500D02*
X326500D01*
Y430870D01*
X326544D01*
X327594Y431151D01*
X328536Y431695D01*
X329305Y432464D01*
X329849Y433406D01*
X330130Y434456D01*
Y434500D01*
D02*
G37*
G36*
X325500D02*
X321870D01*
Y434456D01*
X322151Y433406D01*
X322695Y432464D01*
X323464Y431695D01*
X324406Y431151D01*
X325456Y430870D01*
X325500D01*
Y434500D01*
D02*
G37*
G36*
X307200Y433000D02*
X303500D01*
Y429300D01*
X307200D01*
Y433000D01*
D02*
G37*
G36*
X302500D02*
X298800D01*
Y429300D01*
X302500D01*
Y433000D01*
D02*
G37*
G36*
X307200Y428300D02*
X303500D01*
Y424600D01*
X307200D01*
Y428300D01*
D02*
G37*
G36*
X302500D02*
X298800D01*
Y424600D01*
X302500D01*
Y428300D01*
D02*
G37*
G36*
X456779Y430248D02*
X450374D01*
Y423842D01*
X450554D01*
X451888Y424108D01*
X453145Y424628D01*
X454276Y425384D01*
X455238Y426346D01*
X455994Y427477D01*
X456514Y428734D01*
X456779Y430068D01*
Y430248D01*
D02*
G37*
G36*
X449374D02*
X442969D01*
Y430068D01*
X443234Y428734D01*
X443754Y427477D01*
X444510Y426346D01*
X445472Y425384D01*
X446603Y424628D01*
X447860Y424108D01*
X449194Y423842D01*
X449374D01*
Y430248D01*
D02*
G37*
G36*
X440953Y421496D02*
X437500D01*
Y418240D01*
X440953D01*
Y421496D01*
D02*
G37*
G36*
X436500D02*
X433047D01*
Y418240D01*
X436500D01*
Y421496D01*
D02*
G37*
G36*
X365510Y401510D02*
X362500D01*
Y398500D01*
X365510D01*
Y401510D01*
D02*
G37*
G36*
X361500D02*
X358490D01*
Y398500D01*
X361500D01*
Y401510D01*
D02*
G37*
G36*
X382147D02*
X381223D01*
X380330Y401271D01*
X379530Y400809D01*
X378876Y400155D01*
X378414Y399355D01*
X378175Y398462D01*
Y397538D01*
X378414Y396645D01*
X378876Y395845D01*
X379530Y395191D01*
X380330Y394729D01*
X381223Y394490D01*
X382147D01*
X383040Y394729D01*
X383840Y395191D01*
X384494Y395845D01*
X384956Y396645D01*
X385195Y397538D01*
Y398462D01*
X384956Y399355D01*
X384494Y400155D01*
X383840Y400809D01*
X383040Y401271D01*
X382147Y401510D01*
D02*
G37*
G36*
X365510Y397500D02*
X362500D01*
Y394490D01*
X365510D01*
Y397500D01*
D02*
G37*
G36*
X361500D02*
X358490D01*
Y394490D01*
X361500D01*
Y397500D01*
D02*
G37*
G36*
X365510Y348510D02*
X362500D01*
Y345500D01*
X365510D01*
Y348510D01*
D02*
G37*
G36*
X361500D02*
X358490D01*
Y345500D01*
X361500D01*
Y348510D01*
D02*
G37*
G36*
X382147D02*
X381223D01*
X380330Y348271D01*
X379530Y347809D01*
X378876Y347155D01*
X378414Y346355D01*
X378175Y345462D01*
Y344538D01*
X378414Y343645D01*
X378876Y342845D01*
X379530Y342191D01*
X380330Y341729D01*
X381223Y341490D01*
X382147D01*
X383040Y341729D01*
X383840Y342191D01*
X384494Y342845D01*
X384956Y343645D01*
X385195Y344538D01*
Y345462D01*
X384956Y346355D01*
X384494Y347155D01*
X383840Y347809D01*
X383040Y348271D01*
X382147Y348510D01*
D02*
G37*
G36*
X365510Y344500D02*
X362500D01*
Y341490D01*
X365510D01*
Y344500D01*
D02*
G37*
G36*
X361500D02*
X358490D01*
Y341490D01*
X361500D01*
Y344500D01*
D02*
G37*
G36*
X365510Y297510D02*
X362500D01*
Y294500D01*
X365510D01*
Y297510D01*
D02*
G37*
G36*
X361500D02*
X358490D01*
Y294500D01*
X361500D01*
Y297510D01*
D02*
G37*
G36*
X365510Y293500D02*
X362500D01*
Y290490D01*
X365510D01*
Y293500D01*
D02*
G37*
G36*
X361500D02*
X358490D01*
Y290490D01*
X361500D01*
Y293500D01*
D02*
G37*
G36*
X450554Y317653D02*
X450374D01*
Y311248D01*
X456779D01*
Y311428D01*
X456514Y312762D01*
X455994Y314019D01*
X455238Y315150D01*
X454276Y316112D01*
X453145Y316868D01*
X451888Y317388D01*
X450554Y317653D01*
D02*
G37*
G36*
X449374D02*
X449194D01*
X447860Y317388D01*
X446603Y316868D01*
X445472Y316112D01*
X444510Y315150D01*
X443754Y314019D01*
X443234Y312762D01*
X442969Y311428D01*
Y311248D01*
X449374D01*
Y317653D01*
D02*
G37*
G36*
X431350Y313500D02*
X428783D01*
Y310146D01*
X431350D01*
Y313500D01*
D02*
G37*
G36*
X456779Y310248D02*
X450374D01*
Y303842D01*
X450554D01*
X451888Y304108D01*
X453145Y304628D01*
X454276Y305384D01*
X455238Y306346D01*
X455994Y307477D01*
X456514Y308734D01*
X456779Y310068D01*
Y310248D01*
D02*
G37*
G36*
X449374D02*
X442969D01*
Y310068D01*
X443234Y308734D01*
X443754Y307477D01*
X444510Y306346D01*
X445472Y305384D01*
X446603Y304628D01*
X447860Y304108D01*
X449194Y303842D01*
X449374D01*
Y310248D01*
D02*
G37*
G36*
X432890Y306039D02*
X425500D01*
Y295500D01*
X432890D01*
Y306039D01*
D02*
G37*
G36*
X450554Y301905D02*
X450374D01*
Y295500D01*
X456779D01*
Y295680D01*
X456514Y297014D01*
X455994Y298271D01*
X455238Y299402D01*
X454276Y300364D01*
X453145Y301120D01*
X451888Y301640D01*
X450554Y301905D01*
D02*
G37*
G36*
X449374D02*
X449194D01*
X447860Y301640D01*
X446603Y301120D01*
X445472Y300364D01*
X444510Y299402D01*
X443754Y298271D01*
X443234Y297014D01*
X442969Y295680D01*
Y295500D01*
X449374D01*
Y301905D01*
D02*
G37*
G36*
X456779Y294500D02*
X450374D01*
Y288094D01*
X450554D01*
X451888Y288360D01*
X453145Y288880D01*
X454276Y289636D01*
X455238Y290598D01*
X455994Y291729D01*
X456514Y292986D01*
X456779Y294320D01*
Y294500D01*
D02*
G37*
G36*
X449374D02*
X442969D01*
Y294320D01*
X443234Y292986D01*
X443754Y291729D01*
X444510Y290598D01*
X445472Y289636D01*
X446603Y288880D01*
X447860Y288360D01*
X449194Y288094D01*
X449374D01*
Y294500D01*
D02*
G37*
G36*
X432890Y294500D02*
X425500D01*
Y283961D01*
X432890D01*
Y294500D01*
D02*
G37*
G36*
X450554Y286157D02*
X450374D01*
Y279752D01*
X456779D01*
Y279932D01*
X456514Y281266D01*
X455994Y282523D01*
X455238Y283654D01*
X454276Y284616D01*
X453145Y285371D01*
X451888Y285892D01*
X450554Y286157D01*
D02*
G37*
G36*
X449374D02*
X449194D01*
X447860Y285892D01*
X446603Y285371D01*
X445472Y284616D01*
X444510Y283654D01*
X443754Y282523D01*
X443234Y281266D01*
X442969Y279932D01*
Y279752D01*
X449374D01*
Y286157D01*
D02*
G37*
G36*
X456779Y278752D02*
X450374D01*
Y272346D01*
X450554D01*
X451888Y272612D01*
X453145Y273132D01*
X454276Y273888D01*
X455238Y274850D01*
X455994Y275981D01*
X456514Y277238D01*
X456779Y278572D01*
Y278752D01*
D02*
G37*
G36*
X449374D02*
X442969D01*
Y278572D01*
X443234Y277238D01*
X443754Y275981D01*
X444510Y274850D01*
X445472Y273888D01*
X446603Y273132D01*
X447860Y272612D01*
X449194Y272346D01*
X449374D01*
Y278752D01*
D02*
G37*
G36*
X559362Y418090D02*
X558484D01*
Y415000D01*
X562886D01*
X562830Y415429D01*
X562471Y416295D01*
X561901Y417038D01*
X561157Y417609D01*
X560291Y417967D01*
X559362Y418090D01*
D02*
G37*
G36*
X557484D02*
X556606D01*
X555677Y417967D01*
X554811Y417609D01*
X554068Y417038D01*
X553498Y416295D01*
X553139Y415429D01*
X553082Y415000D01*
X557484D01*
Y418090D01*
D02*
G37*
G36*
X562886Y414000D02*
X557984D01*
X553082D01*
X553139Y413571D01*
X553498Y412705D01*
X554068Y411962D01*
X554811Y411391D01*
X555102Y411271D01*
Y410729D01*
X554811Y410609D01*
X554068Y410038D01*
X553498Y409295D01*
X553139Y408429D01*
X553017Y407500D01*
X553139Y406571D01*
X553498Y405705D01*
X554068Y404962D01*
X554811Y404391D01*
X555677Y404033D01*
X556606Y403910D01*
X559362D01*
X560291Y404033D01*
X561157Y404391D01*
X561901Y404962D01*
X562471Y405705D01*
X562830Y406571D01*
X562952Y407500D01*
X562830Y408429D01*
X562471Y409295D01*
X561901Y410038D01*
X561157Y410609D01*
X560866Y410729D01*
Y411271D01*
X561157Y411391D01*
X561901Y411962D01*
X562471Y412705D01*
X562830Y413571D01*
X562886Y414000D01*
D02*
G37*
G36*
X559362Y383090D02*
X558484D01*
Y380000D01*
X562886D01*
X562830Y380429D01*
X562471Y381295D01*
X561901Y382038D01*
X561157Y382609D01*
X560291Y382967D01*
X559362Y383090D01*
D02*
G37*
G36*
X557484D02*
X556606D01*
X555677Y382967D01*
X554811Y382609D01*
X554068Y382038D01*
X553498Y381295D01*
X553139Y380429D01*
X553082Y380000D01*
X557484D01*
Y383090D01*
D02*
G37*
G36*
X562886Y379000D02*
X557984D01*
X553082D01*
X553139Y378571D01*
X553498Y377705D01*
X554068Y376962D01*
X554811Y376391D01*
X555102Y376271D01*
Y375729D01*
X554811Y375609D01*
X554068Y375038D01*
X553498Y374295D01*
X553139Y373429D01*
X553017Y372500D01*
X553139Y371571D01*
X553498Y370705D01*
X554068Y369962D01*
X554811Y369391D01*
X555677Y369033D01*
X556606Y368910D01*
X559362D01*
X560291Y369033D01*
X561157Y369391D01*
X561901Y369962D01*
X562471Y370705D01*
X562830Y371571D01*
X562952Y372500D01*
X562830Y373429D01*
X562471Y374295D01*
X561901Y375038D01*
X561157Y375609D01*
X560866Y375729D01*
Y376271D01*
X561157Y376391D01*
X561901Y376962D01*
X562471Y377705D01*
X562830Y378571D01*
X562886Y379000D01*
D02*
G37*
G36*
X559362Y348090D02*
X558484D01*
Y345000D01*
X562886D01*
X562830Y345429D01*
X562471Y346295D01*
X561901Y347038D01*
X561157Y347609D01*
X560291Y347967D01*
X559362Y348090D01*
D02*
G37*
G36*
X557484D02*
X556606D01*
X555677Y347967D01*
X554811Y347609D01*
X554068Y347038D01*
X553498Y346295D01*
X553139Y345429D01*
X553082Y345000D01*
X557484D01*
Y348090D01*
D02*
G37*
G36*
X562886Y344000D02*
X557984D01*
X553082D01*
X553139Y343571D01*
X553498Y342705D01*
X554068Y341962D01*
X554811Y341391D01*
X555102Y341271D01*
Y340729D01*
X554811Y340609D01*
X554068Y340038D01*
X553498Y339295D01*
X553139Y338429D01*
X553017Y337500D01*
X553139Y336571D01*
X553498Y335705D01*
X554068Y334962D01*
X554811Y334391D01*
X555677Y334033D01*
X556606Y333910D01*
X559362D01*
X560291Y334033D01*
X561157Y334391D01*
X561901Y334962D01*
X562471Y335705D01*
X562830Y336571D01*
X562952Y337500D01*
X562830Y338429D01*
X562471Y339295D01*
X561901Y340038D01*
X561157Y340609D01*
X560866Y340729D01*
Y341271D01*
X561157Y341391D01*
X561901Y341962D01*
X562471Y342705D01*
X562830Y343571D01*
X562886Y344000D01*
D02*
G37*
G36*
X216500Y298489D02*
Y295500D01*
X219490D01*
X219262Y296351D01*
X218801Y297149D01*
X218149Y297801D01*
X217351Y298261D01*
X216500Y298489D01*
D02*
G37*
G36*
X215500D02*
X214649Y298261D01*
X213851Y297801D01*
X213199Y297149D01*
X212738Y296351D01*
X212510Y295500D01*
X215500D01*
Y298489D01*
D02*
G37*
G36*
X219490Y294500D02*
X216500D01*
Y291511D01*
X217351Y291739D01*
X218149Y292199D01*
X218801Y292851D01*
X219262Y293649D01*
X219490Y294500D01*
D02*
G37*
G36*
X215500D02*
X212510D01*
X212738Y293649D01*
X213199Y292851D01*
X213851Y292199D01*
X214649Y291739D01*
X215500Y291511D01*
Y294500D01*
D02*
G37*
G36*
X573626Y274000D02*
X569224D01*
X569281Y273571D01*
X569639Y272705D01*
X570210Y271962D01*
X570953Y271391D01*
X571819Y271033D01*
X572748Y270910D01*
X573626D01*
Y274000D01*
D02*
G37*
G36*
X213461Y248500D02*
X212539D01*
X211649Y248261D01*
X210851Y247801D01*
X210199Y247149D01*
X209738Y246351D01*
X209500Y245461D01*
Y244539D01*
X209738Y243649D01*
X210199Y242851D01*
X210851Y242199D01*
X211649Y241739D01*
X212539Y241500D01*
X213461D01*
X214351Y241739D01*
X215149Y242199D01*
X215801Y242851D01*
X216262Y243649D01*
X216500Y244539D01*
Y245461D01*
X216262Y246351D01*
X215801Y247149D01*
X215149Y247801D01*
X214351Y248261D01*
X213461Y248500D01*
D02*
G37*
G36*
X385461Y238500D02*
X384539D01*
X383649Y238262D01*
X382851Y237801D01*
X382199Y237149D01*
X381738Y236351D01*
X381500Y235461D01*
Y234539D01*
X381738Y233649D01*
X382199Y232851D01*
X382851Y232199D01*
X383649Y231738D01*
X384539Y231500D01*
X385461D01*
X386351Y231738D01*
X387149Y232199D01*
X387801Y232851D01*
X388262Y233649D01*
X388500Y234539D01*
Y235461D01*
X388262Y236351D01*
X387801Y237149D01*
X387149Y237801D01*
X386351Y238262D01*
X385461Y238500D01*
D02*
G37*
G36*
X182054Y211224D02*
X181205D01*
X180385Y211005D01*
X179650Y210580D01*
X179050Y209980D01*
X178625Y209245D01*
X178405Y208424D01*
Y207575D01*
X178625Y206755D01*
X179050Y206020D01*
X179650Y205420D01*
X180385Y204995D01*
X181205Y204776D01*
X182054D01*
X182875Y204995D01*
X183610Y205420D01*
X184210Y206020D01*
X184635Y206755D01*
X184854Y207575D01*
Y208424D01*
X184635Y209245D01*
X184210Y209980D01*
X183610Y210580D01*
X182875Y211005D01*
X182054Y211224D01*
D02*
G37*
G36*
Y201224D02*
X181205D01*
X180385Y201005D01*
X179650Y200580D01*
X179050Y199980D01*
X178625Y199245D01*
X178405Y198424D01*
Y197575D01*
X178625Y196755D01*
X179050Y196020D01*
X179650Y195420D01*
X180385Y194995D01*
X181205Y194776D01*
X182054D01*
X182875Y194995D01*
X183610Y195420D01*
X184210Y196020D01*
X184635Y196755D01*
X184854Y197575D01*
Y198424D01*
X184635Y199245D01*
X184210Y199980D01*
X183610Y200580D01*
X182875Y201005D01*
X182054Y201224D01*
D02*
G37*
G36*
X150795Y191224D02*
X149946D01*
X149126Y191005D01*
X148390Y190580D01*
X147790Y189980D01*
X147365Y189245D01*
X147146Y188425D01*
Y187575D01*
X147365Y186755D01*
X147790Y186020D01*
X148390Y185420D01*
X149126Y184995D01*
X149946Y184776D01*
X150795D01*
X151615Y184995D01*
X152350Y185420D01*
X152950Y186020D01*
X153375Y186755D01*
X153595Y187575D01*
Y188425D01*
X153375Y189245D01*
X152950Y189980D01*
X152350Y190580D01*
X151615Y191005D01*
X150795Y191224D01*
D02*
G37*
G36*
X153595Y181224D02*
X147146D01*
Y174776D01*
X153595D01*
Y181224D01*
D02*
G37*
G36*
X96579Y148396D02*
X96500D01*
Y144500D01*
X100396D01*
Y144579D01*
X100096Y145697D01*
X99517Y146699D01*
X98699Y147517D01*
X97697Y148096D01*
X96579Y148396D01*
D02*
G37*
G36*
X95500D02*
X95421D01*
X94303Y148096D01*
X93301Y147517D01*
X92483Y146699D01*
X91904Y145697D01*
X91604Y144579D01*
Y144500D01*
X95500D01*
Y148396D01*
D02*
G37*
G36*
X116579D02*
X115421D01*
X114303Y148096D01*
X113301Y147517D01*
X112483Y146699D01*
X111904Y145697D01*
X111604Y144579D01*
Y143421D01*
X111904Y142303D01*
X112483Y141301D01*
X113301Y140483D01*
X114303Y139904D01*
X115421Y139604D01*
X116579D01*
X117697Y139904D01*
X118699Y140483D01*
X119517Y141301D01*
X120096Y142303D01*
X120396Y143421D01*
Y144579D01*
X120096Y145697D01*
X119517Y146699D01*
X118699Y147517D01*
X117697Y148096D01*
X116579Y148396D01*
D02*
G37*
G36*
X106579D02*
X105421D01*
X104303Y148096D01*
X103301Y147517D01*
X102483Y146699D01*
X101904Y145697D01*
X101604Y144579D01*
Y143421D01*
X101904Y142303D01*
X102483Y141301D01*
X103301Y140483D01*
X104303Y139904D01*
X105421Y139604D01*
X106579D01*
X107697Y139904D01*
X108699Y140483D01*
X109517Y141301D01*
X110096Y142303D01*
X110396Y143421D01*
Y144579D01*
X110096Y145697D01*
X109517Y146699D01*
X108699Y147517D01*
X107697Y148096D01*
X106579Y148396D01*
D02*
G37*
G36*
X100396Y143500D02*
X96500D01*
Y139604D01*
X96579D01*
X97697Y139904D01*
X98699Y140483D01*
X99517Y141301D01*
X100096Y142303D01*
X100396Y143421D01*
Y143500D01*
D02*
G37*
G36*
X95500D02*
X91604D01*
Y143421D01*
X91904Y142303D01*
X92483Y141301D01*
X93301Y140483D01*
X94303Y139904D01*
X95421Y139604D01*
X95500D01*
Y143500D01*
D02*
G37*
G36*
X86579Y148396D02*
X85421D01*
X84303Y148096D01*
X83301Y147517D01*
X82483Y146699D01*
X81904Y145697D01*
X81604Y144579D01*
Y143421D01*
X81904Y142303D01*
X82483Y141301D01*
X83301Y140483D01*
X84303Y139904D01*
X85421Y139604D01*
X86579D01*
X87697Y139904D01*
X88699Y140483D01*
X89517Y141301D01*
X90096Y142303D01*
X90396Y143421D01*
Y144579D01*
X90096Y145697D01*
X89517Y146699D01*
X88699Y147517D01*
X87697Y148096D01*
X86579Y148396D01*
D02*
G37*
%LPD*%
D14*
X437000Y402000D02*
Y410260D01*
X138810Y54957D02*
X141767Y52000D01*
X135567Y55063D02*
X135673Y54957D01*
X145894Y59894D02*
X146000Y60000D01*
X141767Y52000D02*
X146000D01*
X135673Y54957D02*
X138810D01*
X110000Y71209D02*
Y72000D01*
X135567Y64512D02*
X143124D01*
X135567Y59787D02*
X135673Y59894D01*
X145894D01*
X143124Y64512D02*
X146000Y67388D01*
Y68000D01*
X112433Y66087D02*
Y68776D01*
X110000Y71209D02*
X112433Y68776D01*
X418000Y325000D02*
X421000Y322000D01*
Y314000D02*
Y322000D01*
X413496Y320496D02*
X418000Y325000D01*
X413496Y314000D02*
Y320496D01*
X18000Y86000D02*
X19000Y85000D01*
X73000Y317000D02*
Y329000D01*
X66831Y316500D02*
X72500D01*
X73000Y317000D01*
X66331Y316000D02*
X66831Y316500D01*
X72902Y329000D02*
X73000D01*
X62250Y262250D02*
Y270073D01*
X62500Y270323D01*
X62000Y262000D02*
X62250Y262250D01*
X541000Y456000D02*
X541250Y456250D01*
Y463073D02*
X541500Y463323D01*
X541250Y456250D02*
Y463073D01*
X19000Y119248D02*
Y126000D01*
X420250Y470750D02*
X428073D01*
X428323Y470500D01*
X420000Y471000D02*
X420250Y470750D01*
X407000Y296819D02*
X408819Y295000D01*
X407000Y296819D02*
Y314000D01*
X407819Y294000D02*
X408819Y295000D01*
X431720Y459000D02*
X432500D01*
X428000Y462720D02*
Y465177D01*
Y462720D02*
X431720Y459000D01*
X428000Y465177D02*
X428323Y465500D01*
X67500Y254500D02*
Y270323D01*
X67000Y254000D02*
X67500Y254500D01*
X50000Y264504D02*
X59716Y254787D01*
X50000Y264504D02*
Y270000D01*
X59716Y254000D02*
Y254787D01*
X67250Y270073D02*
X67500Y270323D01*
X72500D02*
X72823Y270000D01*
X80000D01*
X50000D02*
X57177D01*
X57500Y270323D01*
X56000Y184000D02*
X56310Y184310D01*
X546500Y482955D02*
X547280Y482175D01*
X546500Y482955D02*
Y484677D01*
X542000Y448000D02*
Y448787D01*
X546500Y453287D01*
Y463323D01*
X449677Y465500D02*
X451400D01*
X449677Y470500D02*
X451400D01*
X56500Y106500D02*
X57000Y106000D01*
X56000Y144000D02*
X56500Y143500D01*
X428323Y480500D02*
X429000Y481177D01*
Y487000D01*
X531177Y463000D02*
X531500Y463323D01*
X526000Y463000D02*
X531177D01*
X546500Y463323D02*
X546823Y463000D01*
X552000D01*
X536283Y449567D02*
Y455479D01*
X536500Y455696D01*
X534717Y448000D02*
X536283Y449567D01*
X536500Y455696D02*
Y463323D01*
X535720Y486724D02*
X536500Y485945D01*
Y484677D02*
Y485945D01*
X531500Y482955D02*
Y484677D01*
X510000Y457000D02*
X511179Y458179D01*
X470000Y457000D02*
Y460177D01*
X412000Y471000D02*
X412414D01*
X413981Y468019D02*
X416500Y465500D01*
X412414Y471000D02*
X413981Y469433D01*
Y468019D02*
Y469433D01*
X416500Y465500D02*
X428323D01*
X413567Y476717D02*
X419479D01*
X420696Y475500D02*
X428323D01*
X412000Y478284D02*
X413567Y476717D01*
X419479D02*
X420696Y475500D01*
X51555Y63000D02*
X52000Y62555D01*
X44000Y63000D02*
X51555D01*
X75555Y62000D02*
X76000Y61555D01*
X68000Y62000D02*
X75555D01*
X97555Y63000D02*
X98000Y62555D01*
X89000Y63000D02*
X97555D01*
X19000Y63953D02*
X19689D01*
X61658Y53488D02*
X112433D01*
X52591Y62555D02*
X61658Y53488D01*
X52000Y62555D02*
X52591D01*
X76591Y61555D02*
X79933Y58213D01*
X76000Y61555D02*
X76591D01*
X79933Y58213D02*
X112433D01*
X98382Y62937D02*
X112433D01*
X98000Y62555D02*
X98382Y62937D01*
X76000Y68445D02*
X77000Y69445D01*
X75000D02*
X76000Y68445D01*
X62250Y291927D02*
X62500Y291677D01*
X62000Y316000D02*
X62250Y315750D01*
X7999Y97998D02*
X4000D01*
Y94999D01*
X5999Y95999D01*
X6999D01*
X7999Y94999D01*
Y93000D01*
X6999Y92000D01*
X5000D01*
X4000Y93000D01*
X9998Y97998D02*
Y93999D01*
X11997Y92000D01*
X13997Y93999D01*
Y97998D01*
D16*
X112433Y51913D02*
D03*
Y53488D02*
D03*
Y55063D02*
D03*
Y56638D02*
D03*
Y58213D02*
D03*
Y59787D02*
D03*
Y61362D02*
D03*
Y62937D02*
D03*
Y64512D02*
D03*
Y66087D02*
D03*
X135567D02*
D03*
Y64512D02*
D03*
Y62937D02*
D03*
Y61362D02*
D03*
Y59787D02*
D03*
Y58213D02*
D03*
Y56638D02*
D03*
Y55063D02*
D03*
Y53488D02*
D03*
Y51913D02*
D03*
D17*
X67000Y254000D02*
D03*
X59716D02*
D03*
X421000Y314000D02*
D03*
X428284D02*
D03*
X534717Y448000D02*
D03*
X542000D02*
D03*
D18*
X407000Y314000D02*
D03*
X413496D02*
D03*
D19*
X412000Y471000D02*
D03*
Y478284D02*
D03*
D20*
X546500Y463323D02*
D03*
X541500D02*
D03*
X536500D02*
D03*
X531500D02*
D03*
Y484677D02*
D03*
X536500D02*
D03*
X541500D02*
D03*
X546500D02*
D03*
X57500Y291677D02*
D03*
X62500D02*
D03*
X67500D02*
D03*
X72500D02*
D03*
Y270323D02*
D03*
X67500D02*
D03*
X62500D02*
D03*
X57500D02*
D03*
D21*
X428323Y465500D02*
D03*
Y470500D02*
D03*
Y475500D02*
D03*
Y480500D02*
D03*
X449677D02*
D03*
Y475500D02*
D03*
Y470500D02*
D03*
Y465500D02*
D03*
D22*
X408819Y295000D02*
D03*
X425000D02*
D03*
D23*
X437000Y410260D02*
D03*
Y417740D02*
D03*
D24*
X52000Y69445D02*
D03*
Y62555D02*
D03*
X76000Y61555D02*
D03*
Y68445D02*
D03*
X98000Y62555D02*
D03*
Y69445D02*
D03*
D25*
X66331Y316000D02*
D03*
X62000D02*
D03*
D26*
X55677Y329000D02*
D03*
X73000D02*
D03*
D27*
X19000Y58047D02*
D03*
Y63953D02*
D03*
D28*
Y112752D02*
D03*
Y119248D02*
D03*
D43*
X260000Y437012D02*
D03*
X281000Y319000D02*
D03*
X292000Y376000D02*
D03*
X311685D02*
D03*
X273000Y485000D02*
D03*
X292685D02*
D03*
X283000Y446315D02*
D03*
Y466000D02*
D03*
D44*
X260000Y406988D02*
D03*
D45*
X311024Y319000D02*
D03*
D51*
X240000Y469606D02*
D03*
Y320000D02*
D03*
Y370000D02*
D03*
Y398346D02*
D03*
X449874Y430748D02*
D03*
Y400748D02*
D03*
Y370748D02*
D03*
Y340748D02*
D03*
Y310748D02*
D03*
Y295000D02*
D03*
Y279252D02*
D03*
D52*
X557984Y414500D02*
D03*
Y407500D02*
D03*
Y379500D02*
D03*
Y372500D02*
D03*
Y344500D02*
D03*
Y337500D02*
D03*
X574126Y432535D02*
D03*
Y424465D02*
D03*
Y397535D02*
D03*
Y389465D02*
D03*
Y362535D02*
D03*
Y354465D02*
D03*
Y316500D02*
D03*
Y309500D02*
D03*
Y302500D02*
D03*
Y295500D02*
D03*
Y288500D02*
D03*
Y281500D02*
D03*
Y274500D02*
D03*
Y323500D02*
D03*
D69*
X560000Y472644D02*
Y484000D01*
X549278Y494722D02*
X560000Y484000D01*
X541500Y491500D02*
X544722Y494722D01*
X549278D01*
X449874Y400748D02*
Y401874D01*
X531500Y486724D02*
X535720D01*
X456726Y473451D02*
X470000Y460177D01*
X449677Y480500D02*
X456726Y473451D01*
X550469Y482175D02*
X560000Y472644D01*
X56310Y184310D02*
Y188310D01*
X560000Y450874D02*
Y472644D01*
X449874Y340748D02*
X560000Y450874D01*
X479000Y399874D02*
X490000Y410874D01*
Y457000D01*
X449874Y370748D02*
X479000Y399874D01*
Y475724D02*
X490000Y486724D01*
X479000Y399874D02*
Y475724D01*
X510000Y486724D02*
X531500D01*
X458776Y475500D02*
X470000Y486724D01*
X449677Y475500D02*
X458776D01*
X67500Y291677D02*
X72500D01*
D70*
X60000Y291000D02*
Y315000D01*
X55677Y319323D02*
X60000Y315000D01*
X55677Y319323D02*
Y329000D01*
X86000Y344000D02*
X105000Y325000D01*
Y237000D02*
Y325000D01*
X81323Y291677D02*
X94000Y279000D01*
X83000Y237000D02*
X94000Y248000D01*
Y279000D01*
X80655Y212655D02*
X105000Y237000D01*
X56310Y188310D02*
X80655Y212655D01*
X511179Y462634D02*
X531500Y482955D01*
X50000Y237000D02*
X83000D01*
X40000Y247000D02*
X50000Y237000D01*
X56500Y106500D02*
Y143500D01*
X56000Y144000D02*
Y184000D01*
X55677Y344000D02*
Y352677D01*
Y329000D02*
Y344000D01*
X86000D01*
X511179Y458179D02*
Y462634D01*
X32000Y255000D02*
X40000Y247000D01*
X32000Y255000D02*
Y279000D01*
X172000Y339000D02*
Y359000D01*
Y419000D02*
Y439000D01*
Y399000D02*
Y419000D01*
Y379000D02*
Y399000D01*
Y319000D02*
Y339000D01*
Y299000D02*
Y319000D01*
Y279000D02*
Y299000D01*
X72500Y291677D02*
X81323D01*
X32000Y419000D02*
Y439000D01*
Y399000D02*
Y419000D01*
Y379000D02*
Y399000D01*
Y359000D02*
Y379000D01*
Y339000D02*
Y359000D01*
Y319000D02*
Y339000D01*
Y299000D02*
Y319000D01*
Y279000D02*
Y299000D01*
X55677Y352677D02*
X64000Y361000D01*
Y376024D01*
X75000Y387024D01*
D71*
X470000Y420874D02*
Y438000D01*
X449874Y400748D02*
X470000Y420874D01*
X460000Y448000D02*
X470000Y438000D01*
X460000Y448000D02*
Y461900D01*
X172000Y359000D02*
Y379000D01*
X98000Y237000D02*
X105000D01*
X381685Y294000D02*
X407819D01*
X541500Y484677D02*
Y491500D01*
X547280Y482175D02*
X550469D01*
X451400Y465500D02*
X455000Y461900D01*
X460000D01*
D72*
X10000Y223000D02*
X20345Y212655D01*
X80655D01*
X451400Y470500D02*
X460000Y461900D01*
D73*
X9000Y86000D02*
X18000D01*
X19000Y85000D02*
Y112752D01*
Y63953D02*
Y85000D01*
X52000Y36000D02*
X107000D01*
X24047Y63953D02*
X52000Y36000D01*
X19689Y63953D02*
X24047D01*
X107000Y36000D02*
X126000Y17000D01*
X19000Y44000D02*
X46000Y17000D01*
X19000Y44000D02*
Y58047D01*
X77000Y69445D02*
X98000D01*
X52000D02*
X75000D01*
X19689Y63953D02*
X25181Y69445D01*
X52000D01*
D74*
X75000Y476000D02*
X112315D01*
D75*
X582500Y482500D02*
D03*
X17500Y17500D02*
D03*
X580000D02*
D03*
X17500Y482500D02*
D03*
D76*
X112315Y476000D02*
D03*
X132000D02*
D03*
X381685Y477000D02*
D03*
X362000D02*
D03*
X46000Y17000D02*
D03*
X66000D02*
D03*
X86000D02*
D03*
X106000D02*
D03*
X126000D02*
D03*
X355000Y29000D02*
D03*
X375000D02*
D03*
X395000D02*
D03*
D77*
X150370Y178000D02*
D03*
D78*
Y188000D02*
D03*
Y198000D02*
D03*
Y208000D02*
D03*
X181630D02*
D03*
Y198000D02*
D03*
Y188000D02*
D03*
Y178000D02*
D03*
X459000Y132370D02*
D03*
X469000D02*
D03*
X479000D02*
D03*
X489000D02*
D03*
Y163630D02*
D03*
X479000D02*
D03*
X469000D02*
D03*
D79*
X303000Y428800D02*
D03*
D80*
Y486000D02*
D03*
D81*
X32000Y439000D02*
D03*
Y419000D02*
D03*
Y399000D02*
D03*
Y379000D02*
D03*
Y359000D02*
D03*
Y339000D02*
D03*
Y319000D02*
D03*
Y299000D02*
D03*
Y279000D02*
D03*
X172000D02*
D03*
Y299000D02*
D03*
Y319000D02*
D03*
Y339000D02*
D03*
Y359000D02*
D03*
Y379000D02*
D03*
Y399000D02*
D03*
Y419000D02*
D03*
Y439000D02*
D03*
D82*
X300000Y199000D02*
D03*
X270000D02*
D03*
X260000D02*
D03*
X290000D02*
D03*
X280000D02*
D03*
X290000Y209000D02*
D03*
X270000D02*
D03*
X260000D02*
D03*
X280000D02*
D03*
X250000Y199000D02*
D03*
X240000D02*
D03*
X230000D02*
D03*
X220000D02*
D03*
X210000D02*
D03*
X230000Y209000D02*
D03*
X220000D02*
D03*
X250000D02*
D03*
X240000D02*
D03*
X210000D02*
D03*
X300000Y29000D02*
D03*
Y39000D02*
D03*
X290000Y29000D02*
D03*
X270000D02*
D03*
X280000D02*
D03*
X260000D02*
D03*
X240000D02*
D03*
X250000D02*
D03*
X220000D02*
D03*
X210000D02*
D03*
X280000Y39000D02*
D03*
X290000D02*
D03*
X270000D02*
D03*
X250000D02*
D03*
X260000D02*
D03*
X240000D02*
D03*
X230000Y29000D02*
D03*
X220000Y39000D02*
D03*
X230000D02*
D03*
X210000D02*
D03*
X460000Y199000D02*
D03*
X470000D02*
D03*
X480000D02*
D03*
X490000D02*
D03*
X500000D02*
D03*
X510000D02*
D03*
X520000D02*
D03*
X530000D02*
D03*
X540000D02*
D03*
X550000D02*
D03*
X460000Y209000D02*
D03*
X470000D02*
D03*
X480000D02*
D03*
X490000D02*
D03*
X500000D02*
D03*
X510000D02*
D03*
X520000D02*
D03*
X530000D02*
D03*
X540000D02*
D03*
X460000Y29000D02*
D03*
X470000D02*
D03*
X480000D02*
D03*
X490000D02*
D03*
X500000D02*
D03*
X510000D02*
D03*
X520000D02*
D03*
X530000D02*
D03*
X540000D02*
D03*
X550000D02*
D03*
X460000Y39000D02*
D03*
X470000D02*
D03*
X480000D02*
D03*
X490000D02*
D03*
X500000D02*
D03*
X510000D02*
D03*
X520000D02*
D03*
X530000D02*
D03*
X540000D02*
D03*
X550000D02*
D03*
D83*
X300000Y209000D02*
D03*
X550000D02*
D03*
D84*
X327000Y488000D02*
D03*
X75000Y387024D02*
D03*
Y476000D02*
D03*
D85*
X327000Y375402D02*
D03*
D86*
X362000Y398000D02*
D03*
Y294000D02*
D03*
Y345000D02*
D03*
X64000Y361000D02*
D03*
D87*
X381685Y398000D02*
D03*
Y294000D02*
D03*
Y345000D02*
D03*
X77780Y361000D02*
D03*
D88*
X459000Y163630D02*
D03*
D89*
X470000Y457000D02*
D03*
Y486724D02*
D03*
X490000Y457000D02*
D03*
Y486724D02*
D03*
X510000Y457000D02*
D03*
Y486724D02*
D03*
D90*
X335842Y464528D02*
D03*
X326000Y435000D02*
D03*
D91*
X249000Y456000D02*
D03*
Y446000D02*
D03*
Y361000D02*
D03*
Y351000D02*
D03*
D92*
Y436000D02*
D03*
Y341000D02*
D03*
D93*
X46000Y184000D02*
D03*
X56000D02*
D03*
X66000D02*
D03*
X86000D02*
D03*
X96000D02*
D03*
X106000D02*
D03*
X116000D02*
D03*
X46000Y144000D02*
D03*
X56000D02*
D03*
X66000D02*
D03*
X86000D02*
D03*
X96000D02*
D03*
X106000D02*
D03*
X116000D02*
D03*
X47000Y106000D02*
D03*
X57000D02*
D03*
X67000D02*
D03*
X87000D02*
D03*
X97000D02*
D03*
X107000D02*
D03*
X117000D02*
D03*
D94*
X561320Y491893D02*
D03*
X381000Y438000D02*
D03*
X355000Y437000D02*
D03*
X437000Y402000D02*
D03*
X110000Y72000D02*
D03*
X146000Y52000D02*
D03*
Y60000D02*
D03*
Y68000D02*
D03*
X545000Y104000D02*
D03*
X464000Y103000D02*
D03*
X323000Y11000D02*
D03*
X532000Y159000D02*
D03*
X593000Y95000D02*
D03*
Y83000D02*
D03*
X561000Y162000D02*
D03*
X593000Y70000D02*
D03*
Y59000D02*
D03*
Y48000D02*
D03*
Y37000D02*
D03*
X566000Y154000D02*
D03*
X570000Y127000D02*
D03*
X565000Y112000D02*
D03*
X422000Y6000D02*
D03*
X429000Y487000D02*
D03*
X526000Y463000D02*
D03*
X436000Y183000D02*
D03*
X302000Y405000D02*
D03*
X436000Y222000D02*
D03*
X80000Y270000D02*
D03*
X73000Y317000D02*
D03*
X504000Y102000D02*
D03*
X10000Y223000D02*
D03*
X11000Y192000D02*
D03*
X216000Y295000D02*
D03*
X155000Y495000D02*
D03*
X9000Y86000D02*
D03*
X98000Y237000D02*
D03*
X19000Y126000D02*
D03*
X213000Y245000D02*
D03*
X313000Y406000D02*
D03*
X418000Y325000D02*
D03*
X584000Y454000D02*
D03*
Y466000D02*
D03*
X595000Y454000D02*
D03*
Y466000D02*
D03*
X385000Y235000D02*
D03*
X432500Y459000D02*
D03*
X418000Y215000D02*
D03*
X62000Y262000D02*
D03*
X573000Y200000D02*
D03*
X594000Y337000D02*
D03*
Y288000D02*
D03*
X586000Y295000D02*
D03*
X476000Y176000D02*
D03*
X50000Y270000D02*
D03*
X540000Y79000D02*
D03*
X590000Y372000D02*
D03*
X550000Y79000D02*
D03*
X510000Y78000D02*
D03*
X499000Y79000D02*
D03*
X469000Y77000D02*
D03*
X458000D02*
D03*
X552000Y463000D02*
D03*
X541000Y456000D02*
D03*
X420000Y471000D02*
D03*
X324000Y389000D02*
D03*
X283000Y400000D02*
D03*
X89000Y63000D02*
D03*
X68000Y62000D02*
D03*
X44000Y63000D02*
D03*
M02*
