G04*
G04 #@! TF.GenerationSoftware,Altium Limited,Altium Designer,21.2.2 (38)*
G04*
G04 Layer_Color=32896*
%FSLAX25Y25*%
%MOIN*%
G70*
G04*
G04 #@! TF.SameCoordinates,9089D698-1931-4360-AEFD-B440DD5BBD6E*
G04*
G04*
G04 #@! TF.FilePolarity,Positive*
G04*
G01*
G75*
%ADD11C,0.00787*%
%ADD12C,0.00394*%
%ADD13C,0.00600*%
%ADD14C,0.01000*%
%ADD15C,0.00700*%
%ADD124C,0.01181*%
%ADD125C,0.01575*%
%ADD126R,0.06102X0.03347*%
D11*
X138205Y17000D02*
G03*
X137811Y17000I-197J0D01*
G01*
D02*
G03*
X138205Y17000I197J0D01*
G01*
D02*
G03*
X137811Y17000I-197J0D01*
G01*
X35331Y183606D02*
G03*
X35724Y183606I197J0D01*
G01*
D02*
G03*
X35331Y183606I-197J0D01*
G01*
Y143606D02*
G03*
X35724Y143606I197J0D01*
G01*
D02*
G03*
X35331Y143606I-197J0D01*
G01*
X86638Y361000D02*
G03*
X86638Y361000I-15748J0D01*
G01*
X260000Y430976D02*
Y432551D01*
Y411449D02*
Y413024D01*
X256634Y416094D02*
X263366D01*
X256240Y413024D02*
X263760D01*
X256240D02*
Y430976D01*
X263760D01*
Y413024D02*
Y430976D01*
X554949Y273248D02*
Y279941D01*
X561051Y273248D02*
Y279941D01*
X554949Y273248D02*
X561051D01*
X262461Y395248D02*
Y396035D01*
X257539Y395248D02*
Y396035D01*
X254461Y395248D02*
Y396035D01*
X249539Y395248D02*
Y396035D01*
X282539Y339248D02*
Y340035D01*
X287461Y339248D02*
Y340035D01*
X299539Y338248D02*
Y339035D01*
X304461Y338248D02*
Y339035D01*
X285461Y319000D02*
X287035D01*
X304988D02*
X306563D01*
X301917Y315634D02*
Y322366D01*
X304988Y315240D02*
Y322760D01*
X287035Y315240D02*
X304988D01*
X287035D02*
Y322760D01*
X304988D01*
X100228Y455331D02*
X141842D01*
Y494110D01*
X100228D02*
X141842D01*
X100228Y455331D02*
Y494110D01*
X535949Y396346D02*
X542051D01*
X535949Y389653D02*
Y396346D01*
X542051Y389653D02*
Y396346D01*
X536949Y360941D02*
X543051D01*
X536949Y354248D02*
Y360941D01*
X543051Y354248D02*
Y360941D01*
X485012Y368291D02*
X487669D01*
X481173Y364453D02*
X485012Y368291D01*
X498988D02*
X502827Y364453D01*
X496331Y368291D02*
X498988D01*
X481173Y346638D02*
Y364453D01*
Y346638D02*
X487669D01*
X496331D02*
X502827D01*
Y364453D01*
X486012Y403827D02*
X488669D01*
X482173Y399988D02*
X486012Y403827D01*
X499988D02*
X503827Y399988D01*
X497331Y403827D02*
X499988D01*
X482173Y382173D02*
Y399988D01*
Y382173D02*
X488669D01*
X497331D02*
X503827D01*
Y399988D01*
X487012Y439827D02*
X489669D01*
X483173Y435988D02*
X487012Y439827D01*
X500988D02*
X504827Y435988D01*
X498331Y439827D02*
X500988D01*
X483173Y418173D02*
Y435988D01*
Y418173D02*
X489669D01*
X498331D02*
X504827D01*
Y435988D01*
X536949Y431347D02*
X543051D01*
X536949Y424653D02*
Y431347D01*
X543051Y424653D02*
Y431347D01*
X534622Y478232D02*
X543284D01*
X534622Y469768D02*
X543284D01*
X442232Y468622D02*
Y477283D01*
X433768Y468622D02*
Y477283D01*
X306000Y194250D02*
Y213750D01*
X204000Y194250D02*
X306000D01*
X204000Y213750D02*
X306000D01*
X204000Y194250D02*
Y213750D01*
X306000Y24250D02*
Y43750D01*
X204000Y24250D02*
X306000D01*
X204000Y43750D02*
X306000D01*
X204000Y24250D02*
Y43750D01*
X454000Y194250D02*
Y213750D01*
Y194250D02*
X556000D01*
Y213750D01*
X454000D02*
X556000D01*
X454000Y43750D02*
X556000D01*
Y24250D02*
Y43750D01*
X454000Y24250D02*
X556000D01*
X454000D02*
Y43750D01*
X327000Y448138D02*
Y482193D01*
Y381209D02*
Y415264D01*
X336941Y425205D01*
X317059Y415264D02*
X336941D01*
X317059D02*
Y448138D01*
X336941D01*
Y415264D02*
Y448138D01*
X176232Y201622D02*
Y210283D01*
X167768Y201622D02*
Y210283D01*
X496315Y253736D02*
X501433D01*
X507732Y260035D01*
X474268D02*
X480567Y253736D01*
X485685D01*
X507732Y260035D02*
Y287201D01*
X496315D02*
X507732D01*
X474268D02*
X485685D01*
X474268Y260035D02*
Y287201D01*
X494000Y135008D02*
Y160992D01*
X454000Y135008D02*
Y165854D01*
X288319Y381842D02*
X294323D01*
X295701Y382354D02*
Y401646D01*
X308299D01*
Y382354D02*
Y401646D01*
X295701Y382354D02*
X308299D01*
X136000Y-8197D02*
Y44559D01*
X36000D02*
X136000D01*
X36000Y-8197D02*
Y44559D01*
Y-8197D02*
X136000D01*
D12*
X98535Y476000D02*
G03*
X98142Y476000I-197J0D01*
G01*
D02*
G03*
X98535Y476000I197J0D01*
G01*
X35189Y103638D02*
G03*
X35189Y104032I0J197D01*
G01*
D02*
G03*
X35189Y103638I0J-197D01*
G01*
X294756Y371472D02*
Y374031D01*
Y371472D02*
X308929D01*
Y374031D01*
X294756Y377969D02*
Y380528D01*
X308929D01*
Y377969D02*
Y380528D01*
X275756Y480472D02*
Y483032D01*
Y480472D02*
X289929D01*
Y483032D01*
X275756Y486969D02*
Y489528D01*
X289929D01*
Y486969D02*
Y489528D01*
X82874Y383480D02*
X93504D01*
Y479543D01*
X82874D02*
X93504D01*
X56496Y383480D02*
X67126D01*
X56496D02*
Y479543D01*
X67126D01*
X38087Y171402D02*
X123913D01*
Y207622D01*
X38087D02*
X123913D01*
X38087Y171402D02*
Y207622D01*
Y131402D02*
X123913D01*
Y167622D01*
X38087D02*
X123913D01*
X38087Y131402D02*
Y167622D01*
X39087Y93402D02*
X124913D01*
Y129622D01*
X39087D02*
X124913D01*
X39087Y93402D02*
Y129622D01*
X405000Y10890D02*
Y49472D01*
X345000Y10890D02*
X405000D01*
X345000D02*
Y49472D01*
X405000D01*
D13*
X489000Y172846D02*
X490666D01*
X491499Y173679D01*
X490666Y174512D01*
X489000D01*
X490250D01*
Y172846D01*
X491499Y175345D02*
X489000D01*
Y176595D01*
X489417Y177011D01*
X489833D01*
X490250Y176595D01*
Y175345D01*
Y176595D01*
X490666Y177011D01*
X491083D01*
X491499Y176595D01*
Y175345D01*
X489000Y179510D02*
Y177844D01*
X490666Y179510D01*
X491083D01*
X491499Y179094D01*
Y178261D01*
X491083Y177844D01*
X489000Y180343D02*
X490666Y182009D01*
X491083Y184509D02*
X491499Y184092D01*
Y183259D01*
X491083Y182843D01*
X489417D01*
X489000Y183259D01*
Y184092D01*
X489417Y184509D01*
X490250D01*
Y183676D01*
X489000Y185342D02*
Y186175D01*
Y185758D01*
X491499D01*
X491083Y185342D01*
X491499Y187424D02*
Y188258D01*
Y187841D01*
X489000D01*
Y187424D01*
Y188258D01*
X478500Y172429D02*
X480166D01*
X480999Y173262D01*
X480166Y174095D01*
X478500D01*
X479750D01*
Y172429D01*
X480583Y176595D02*
X480999Y176178D01*
Y175345D01*
X480583Y174928D01*
X478917D01*
X478500Y175345D01*
Y176178D01*
X478917Y176595D01*
X480583Y177428D02*
X480999Y177844D01*
Y178677D01*
X480583Y179094D01*
X478917D01*
X478500Y178677D01*
Y177844D01*
X478917Y177428D01*
X480583D01*
X478500Y179927D02*
X480166Y181593D01*
X480583Y184092D02*
X480999Y183676D01*
Y182843D01*
X480583Y182426D01*
X478917D01*
X478500Y182843D01*
Y183676D01*
X478917Y184092D01*
X479750D01*
Y183259D01*
X480583Y184925D02*
X480999Y185342D01*
Y186175D01*
X480583Y186591D01*
X480166D01*
X479750Y186175D01*
Y185758D01*
Y186175D01*
X479333Y186591D01*
X478917D01*
X478500Y186175D01*
Y185342D01*
X478917Y184925D01*
X480999Y187424D02*
Y188258D01*
Y187841D01*
X478500D01*
Y187424D01*
Y188258D01*
X469000Y172429D02*
X470666D01*
X471499Y173262D01*
X470666Y174095D01*
X469000D01*
X470250D01*
Y172429D01*
X469000Y174928D02*
X470666D01*
X471499Y175761D01*
X470666Y176595D01*
X469000D01*
X470250D01*
Y174928D01*
X469417Y177428D02*
X469000Y177844D01*
Y178677D01*
X469417Y179094D01*
X471083D01*
X471499Y178677D01*
Y177844D01*
X471083Y177428D01*
X470666D01*
X470250Y177844D01*
Y179094D01*
X469000Y179927D02*
X470666Y181593D01*
X471083Y184092D02*
X471499Y183676D01*
Y182843D01*
X471083Y182426D01*
X469417D01*
X469000Y182843D01*
Y183676D01*
X469417Y184092D01*
X470250D01*
Y183259D01*
X471499Y186591D02*
Y184925D01*
X470250D01*
X470666Y185758D01*
Y186175D01*
X470250Y186591D01*
X469417D01*
X469000Y186175D01*
Y185342D01*
X469417Y184925D01*
X471499Y187424D02*
Y188258D01*
Y187841D01*
X469000D01*
Y187424D01*
Y188258D01*
X228500Y216933D02*
X230166D01*
X230999Y217766D01*
X230166Y218599D01*
X228500D01*
X229750D01*
Y216933D01*
X228500Y219432D02*
X230166D01*
X230999Y220266D01*
X230166Y221098D01*
X228500D01*
X229750D01*
Y219432D01*
X230583Y221932D02*
X230999Y222348D01*
Y223181D01*
X230583Y223598D01*
X230166D01*
X229750Y223181D01*
X229333Y223598D01*
X228917D01*
X228500Y223181D01*
Y222348D01*
X228917Y221932D01*
X229333D01*
X229750Y222348D01*
X230166Y221932D01*
X230583D01*
X229750Y222348D02*
Y223181D01*
X228500Y224431D02*
X230166Y226097D01*
X230583Y228596D02*
X230999Y228180D01*
Y227346D01*
X230583Y226930D01*
X228917D01*
X228500Y227346D01*
Y228180D01*
X228917Y228596D01*
X229750D01*
Y227763D01*
X230999Y231095D02*
X230583Y230262D01*
X229750Y229429D01*
X228917D01*
X228500Y229846D01*
Y230679D01*
X228917Y231095D01*
X229333D01*
X229750Y230679D01*
Y229429D01*
X230999Y233178D02*
Y232345D01*
X230583Y231928D01*
X228917D01*
X228500Y232345D01*
Y233178D01*
X228917Y233594D01*
X230583D01*
X230999Y233178D01*
X248500Y216933D02*
X250166D01*
X250999Y217766D01*
X250166Y218599D01*
X248500D01*
X249750D01*
Y216933D01*
X248500Y219432D02*
X250166D01*
X250999Y220266D01*
X250166Y221098D01*
X248500D01*
X249750D01*
Y219432D01*
X248500Y223181D02*
X250999D01*
X249750Y221932D01*
Y223598D01*
X248500Y224431D02*
X250166Y226097D01*
X250583Y228596D02*
X250999Y228180D01*
Y227346D01*
X250583Y226930D01*
X248917D01*
X248500Y227346D01*
Y228180D01*
X248917Y228596D01*
X249750D01*
Y227763D01*
X248500Y231095D02*
Y229429D01*
X250166Y231095D01*
X250583D01*
X250999Y230679D01*
Y229846D01*
X250583Y229429D01*
X250999Y233178D02*
Y232345D01*
X250583Y231928D01*
X248917D01*
X248500Y232345D01*
Y233178D01*
X248917Y233594D01*
X250583D01*
X250999Y233178D01*
X259000Y216933D02*
X260666D01*
X261499Y217766D01*
X260666Y218599D01*
X259000D01*
X260250D01*
Y216933D01*
X261499Y219432D02*
X259000D01*
Y220682D01*
X259417Y221098D01*
X259833D01*
X260250Y220682D01*
Y219432D01*
Y220682D01*
X260666Y221098D01*
X261083D01*
X261499Y220682D01*
Y219432D01*
X259000Y223181D02*
X261499D01*
X260250Y221932D01*
Y223598D01*
X259000Y224431D02*
X260666Y226097D01*
X261083Y228596D02*
X261499Y228180D01*
Y227346D01*
X261083Y226930D01*
X259417D01*
X259000Y227346D01*
Y228180D01*
X259417Y228596D01*
X260250D01*
Y227763D01*
X259000Y230679D02*
X261499D01*
X260250Y229429D01*
Y231095D01*
X261499Y233178D02*
Y232345D01*
X261083Y231928D01*
X259417D01*
X259000Y232345D01*
Y233178D01*
X259417Y233594D01*
X261083D01*
X261499Y233178D01*
D14*
X521000Y439999D02*
X524999D01*
X522999Y441999D02*
Y438000D01*
X303000Y495999D02*
X306999D01*
X304999Y497999D02*
Y494000D01*
X294000Y427999D02*
X297999D01*
X295999Y429999D02*
Y426000D01*
X287000Y445999D02*
X290999D01*
X288999Y447999D02*
Y444000D01*
X309000Y310999D02*
X312999D01*
X310999Y312999D02*
Y309000D01*
X473000Y160999D02*
X476999D01*
X474999Y162999D02*
Y159000D01*
X543000Y81999D02*
X546999D01*
X544999Y83999D02*
Y80000D01*
X461000Y79999D02*
X464999D01*
X462999Y81999D02*
Y78000D01*
X502000Y81999D02*
X505999D01*
X503999Y83999D02*
Y80000D01*
X422000Y227999D02*
X425999D01*
X423999Y229999D02*
Y226000D01*
X556000Y263999D02*
X559999D01*
X557999Y265999D02*
Y262000D01*
X480000Y247999D02*
X483999D01*
X481999Y249999D02*
Y246000D01*
X518000Y268999D02*
X521999D01*
X519999Y270999D02*
Y267000D01*
X543000Y367999D02*
X546999D01*
X544999Y369999D02*
Y366000D01*
X511000Y361999D02*
X514999D01*
X512999Y363999D02*
Y360000D01*
X476000Y368999D02*
X479999D01*
X477999Y370999D02*
Y367000D01*
X543000Y402999D02*
X546999D01*
X544999Y404999D02*
Y401000D01*
X519000Y404999D02*
X522999D01*
X520999Y406999D02*
Y403000D01*
X478000Y403999D02*
X481999D01*
X479999Y405999D02*
Y402000D01*
X532000Y434999D02*
X535999D01*
X533999Y436999D02*
Y433000D01*
X476000Y435999D02*
X479999D01*
X477999Y437999D02*
Y434000D01*
X391000Y451999D02*
X394999D01*
X392999Y453999D02*
Y450000D01*
X583001Y97998D02*
X584001Y98998D01*
X586000D01*
X587000Y97998D01*
Y94000D01*
X586000Y93000D01*
X584001D01*
X583001Y94000D01*
X575004Y98998D02*
Y93000D01*
X572005D01*
X571005Y94000D01*
Y94999D01*
X572005Y95999D01*
X575004D01*
X572005D01*
X571005Y96999D01*
Y97998D01*
X572005Y98998D01*
X575004D01*
X583001Y85998D02*
X584001Y86998D01*
X586000D01*
X587000Y85998D01*
Y82000D01*
X586000Y81000D01*
X584001D01*
X583001Y82000D01*
X575004Y86998D02*
X571005D01*
X573004D01*
Y81000D01*
X587000Y74998D02*
Y69000D01*
X584001D01*
X583001Y70000D01*
Y70999D01*
X584001Y71999D01*
X587000D01*
X584001D01*
X583001Y72999D01*
Y73998D01*
X584001Y74998D01*
X587000D01*
X575004D02*
Y69000D01*
X572005D01*
X571005Y70000D01*
Y70999D01*
X572005Y71999D01*
X575004D01*
X572005D01*
X571005Y72999D01*
Y73998D01*
X572005Y74998D01*
X575004D01*
X586000Y61998D02*
Y56000D01*
X583001D01*
X582001Y57000D01*
Y57999D01*
X583001Y58999D01*
X586000D01*
X583001D01*
X582001Y59999D01*
Y60998D01*
X583001Y61998D01*
X586000D01*
X574004D02*
X570005D01*
X572005D01*
Y56000D01*
X585000Y46000D02*
Y49999D01*
X583001Y51998D01*
X581001Y49999D01*
Y46000D01*
Y48999D01*
X585000D01*
X573004Y51998D02*
Y46000D01*
X570005D01*
X569005Y47000D01*
Y47999D01*
X570005Y48999D01*
X573004D01*
X570005D01*
X569005Y49999D01*
Y50998D01*
X570005Y51998D01*
X573004D01*
X585000Y34000D02*
Y37999D01*
X583001Y39998D01*
X581001Y37999D01*
Y34000D01*
Y36999D01*
X585000D01*
X573004Y39998D02*
X569005D01*
X571004D01*
Y34000D01*
X319200Y411898D02*
Y405900D01*
X316201D01*
X315201Y406900D01*
Y407899D01*
X316201Y408899D01*
X319200D01*
X316201D01*
X315201Y409899D01*
Y410898D01*
X316201Y411898D01*
X319200D01*
X309203Y410898D02*
X310203Y411898D01*
X312202D01*
X313202Y410898D01*
Y409899D01*
X312202Y408899D01*
X310203D01*
X309203Y407899D01*
Y406900D01*
X310203Y405900D01*
X312202D01*
X313202Y406900D01*
X307204Y408899D02*
X303205D01*
X301206Y411898D02*
X299206D01*
X300206D01*
Y405900D01*
X301206D01*
X299206D01*
X292209Y410898D02*
X293208Y411898D01*
X295208D01*
X296207Y410898D01*
Y406900D01*
X295208Y405900D01*
X293208D01*
X292209Y406900D01*
X290209Y405900D02*
X288210D01*
X289210D01*
Y411898D01*
X290209Y410898D01*
X344999Y409409D02*
X339001D01*
Y412408D01*
X340001Y413407D01*
X341000D01*
X342000Y412408D01*
Y409409D01*
Y412408D01*
X343000Y413407D01*
X343999D01*
X344999Y412408D01*
Y409409D01*
X343999Y419406D02*
X344999Y418406D01*
Y416406D01*
X343999Y415407D01*
X343000D01*
X342000Y416406D01*
Y418406D01*
X341000Y419406D01*
X340001D01*
X339001Y418406D01*
Y416406D01*
X340001Y415407D01*
X342000Y421405D02*
Y425403D01*
X344999Y427403D02*
X339001D01*
Y430402D01*
X340001Y431402D01*
X343999D01*
X344999Y430402D01*
Y427403D01*
Y433401D02*
X339001D01*
Y436400D01*
X340001Y437400D01*
X341000D01*
X342000D01*
X343000Y436400D01*
Y433401D01*
X339001Y440399D02*
Y442398D01*
X340001Y443398D01*
X342000D01*
X343000Y442398D01*
Y440399D01*
X342000Y439399D01*
X340001D01*
X339001Y440399D01*
Y446397D02*
Y448396D01*
X340001Y449396D01*
X342000D01*
X343000Y448396D01*
Y446397D01*
X342000Y445397D01*
X340001D01*
X339001Y446397D01*
X343999Y452395D02*
X343000D01*
Y451395D01*
Y453394D01*
Y452395D01*
X340001D01*
X339001Y453394D01*
X267001Y439995D02*
X272999D01*
Y436996D01*
X271999Y435997D01*
X271000D01*
X270000Y436996D01*
Y439995D01*
Y436996D01*
X269000Y435997D01*
X268001D01*
X267001Y436996D01*
Y439995D01*
X268001Y429999D02*
X267001Y430998D01*
Y432998D01*
X268001Y433997D01*
X269000D01*
X270000Y432998D01*
Y430998D01*
X271000Y429999D01*
X271999D01*
X272999Y430998D01*
Y432998D01*
X271999Y433997D01*
X270000Y427999D02*
Y424001D01*
X267001Y422001D02*
X272999D01*
Y419002D01*
X271999Y418003D01*
X268001D01*
X267001Y419002D01*
Y422001D01*
X272999Y412005D02*
Y416003D01*
X269000Y412005D01*
X268001D01*
X267001Y413004D01*
Y415003D01*
X268001Y416003D01*
X304996Y310999D02*
Y305001D01*
X301997D01*
X300997Y306001D01*
Y307000D01*
X301997Y308000D01*
X304996D01*
X301997D01*
X300997Y309000D01*
Y309999D01*
X301997Y310999D01*
X304996D01*
X294999Y309999D02*
X295999Y310999D01*
X297998D01*
X298998Y309999D01*
Y309000D01*
X297998Y308000D01*
X295999D01*
X294999Y307000D01*
Y306001D01*
X295999Y305001D01*
X297998D01*
X298998Y306001D01*
X293000Y308000D02*
X289001D01*
X287002Y310999D02*
Y305001D01*
X284003D01*
X283003Y306001D01*
Y309999D01*
X284003Y310999D01*
X287002D01*
X281003Y305001D02*
X279004D01*
X280004D01*
Y310999D01*
X281003Y309999D01*
X319993Y368999D02*
Y363001D01*
X316994D01*
X315994Y364001D01*
Y365000D01*
X316994Y366000D01*
X319993D01*
X316994D01*
X315994Y367000D01*
Y367999D01*
X316994Y368999D01*
X319993D01*
X309996Y367999D02*
X310996Y368999D01*
X312995D01*
X313995Y367999D01*
Y367000D01*
X312995Y366000D01*
X310996D01*
X309996Y365000D01*
Y364001D01*
X310996Y363001D01*
X312995D01*
X313995Y364001D01*
X307997Y366000D02*
X303998D01*
X298000Y367999D02*
X299000Y368999D01*
X300999D01*
X301999Y367999D01*
Y364001D01*
X300999Y363001D01*
X299000D01*
X298000Y364001D01*
X296001Y368999D02*
Y363001D01*
X293002D01*
X292002Y364001D01*
Y365000D01*
Y366000D01*
X293002Y367000D01*
X296001D01*
X289003Y363001D02*
X287003D01*
X286004Y364001D01*
Y366000D01*
X287003Y367000D01*
X289003D01*
X290003Y366000D01*
Y364001D01*
X289003Y363001D01*
X283005D02*
X281006D01*
X280006Y364001D01*
Y366000D01*
X281006Y367000D01*
X283005D01*
X284004Y366000D01*
Y364001D01*
X283005Y363001D01*
X277007Y367999D02*
Y367000D01*
X278007D01*
X276007D01*
X277007D01*
Y364001D01*
X276007Y363001D01*
X267996Y488999D02*
Y483001D01*
X264997D01*
X263997Y484001D01*
Y485000D01*
X264997Y486000D01*
X267996D01*
X264997D01*
X263997Y487000D01*
Y487999D01*
X264997Y488999D01*
X267996D01*
X257999Y487999D02*
X258999Y488999D01*
X260998D01*
X261998Y487999D01*
Y487000D01*
X260998Y486000D01*
X258999D01*
X257999Y485000D01*
Y484001D01*
X258999Y483001D01*
X260998D01*
X261998Y484001D01*
X256000Y486000D02*
X252001D01*
X246003Y487999D02*
X247003Y488999D01*
X249002D01*
X250002Y487999D01*
Y484001D01*
X249002Y483001D01*
X247003D01*
X246003Y484001D01*
X244004Y483001D02*
X242004D01*
X243004D01*
Y488999D01*
X244004Y487999D01*
X170999Y228003D02*
X171999Y227004D01*
Y225004D01*
X170999Y224005D01*
X170000D01*
X169000Y225004D01*
Y227004D01*
X168000Y228003D01*
X167001D01*
X166001Y227004D01*
Y225004D01*
X167001Y224005D01*
X171999Y230003D02*
X168000D01*
X166001Y232002D01*
X168000Y234001D01*
X171999D01*
X169000Y236001D02*
Y239999D01*
X166001Y241999D02*
X171999D01*
Y244998D01*
X170999Y245997D01*
X169000D01*
X168000Y244998D01*
Y241999D01*
Y243998D02*
X166001Y245997D01*
Y250996D02*
X171999D01*
X169000Y247997D01*
Y251995D01*
X186999Y227003D02*
X187999Y226004D01*
Y224004D01*
X186999Y223005D01*
X186000D01*
X185000Y224004D01*
Y226004D01*
X184000Y227003D01*
X183001D01*
X182001Y226004D01*
Y224004D01*
X183001Y223005D01*
X187999Y229003D02*
X184000D01*
X182001Y231002D01*
X184000Y233001D01*
X187999D01*
X185000Y235001D02*
Y238999D01*
X182001Y240999D02*
X187999D01*
Y243998D01*
X186999Y244997D01*
X185000D01*
X184000Y243998D01*
Y240999D01*
Y242998D02*
X182001Y244997D01*
X186999Y246997D02*
X187999Y247996D01*
Y249996D01*
X186999Y250995D01*
X186000D01*
X185000Y249996D01*
Y248996D01*
Y249996D01*
X184000Y250995D01*
X183001D01*
X182001Y249996D01*
Y247996D01*
X183001Y246997D01*
X143999Y169003D02*
X144999Y168004D01*
Y166004D01*
X143999Y165005D01*
X143000D01*
X142000Y166004D01*
Y168004D01*
X141000Y169003D01*
X140001D01*
X139001Y168004D01*
Y166004D01*
X140001Y165005D01*
X144999Y171003D02*
X141000D01*
X139001Y173002D01*
X141000Y175001D01*
X144999D01*
X142000Y177001D02*
Y180999D01*
X139001Y182999D02*
X144999D01*
Y185998D01*
X143999Y186997D01*
X142000D01*
X141000Y185998D01*
Y182999D01*
Y184998D02*
X139001Y186997D01*
Y192996D02*
Y188997D01*
X143000Y192996D01*
X143999D01*
X144999Y191996D01*
Y189997D01*
X143999Y188997D01*
X136999Y217003D02*
X137999Y216003D01*
Y214004D01*
X136999Y213004D01*
X136000D01*
X135000Y214004D01*
Y216003D01*
X134000Y217003D01*
X133001D01*
X132001Y216003D01*
Y214004D01*
X133001Y213004D01*
X137999Y219002D02*
X134000D01*
X132001Y221002D01*
X134000Y223001D01*
X137999D01*
X135000Y225000D02*
Y228999D01*
X132001Y230998D02*
X137999D01*
Y233997D01*
X136999Y234997D01*
X135000D01*
X134000Y233997D01*
Y230998D01*
Y232998D02*
X132001Y234997D01*
Y236997D02*
Y238996D01*
Y237996D01*
X137999D01*
X136999Y236997D01*
X82201Y293998D02*
X83201Y294998D01*
X85200D01*
X86200Y293998D01*
Y292999D01*
X85200Y291999D01*
X83201D01*
X82201Y290999D01*
Y290000D01*
X83201Y289000D01*
X85200D01*
X86200Y290000D01*
X80202Y294998D02*
Y290999D01*
X78203Y289000D01*
X76203Y290999D01*
Y294998D01*
X74204Y291999D02*
X70205D01*
X64207Y293998D02*
X65207Y294998D01*
X67206D01*
X68206Y293998D01*
Y290000D01*
X67206Y289000D01*
X65207D01*
X64207Y290000D01*
X62208Y293998D02*
X61208Y294998D01*
X59209D01*
X58209Y293998D01*
Y292999D01*
X59209Y291999D01*
X60208D01*
X59209D01*
X58209Y290999D01*
Y290000D01*
X59209Y289000D01*
X61208D01*
X62208Y290000D01*
X172999Y171003D02*
X173999Y170004D01*
Y168004D01*
X172999Y167005D01*
X172000D01*
X171000Y168004D01*
Y170004D01*
X170000Y171003D01*
X169001D01*
X168001Y170004D01*
Y168004D01*
X169001Y167005D01*
X173999Y173003D02*
X170000D01*
X168001Y175002D01*
X170000Y177001D01*
X173999D01*
X171000Y179001D02*
Y182999D01*
X172999Y188997D02*
X173999Y187998D01*
Y185998D01*
X172999Y184999D01*
X169001D01*
X168001Y185998D01*
Y187998D01*
X169001Y188997D01*
X168001Y194995D02*
Y190997D01*
X172000Y194995D01*
X172999D01*
X173999Y193996D01*
Y191997D01*
X172999Y190997D01*
X157999Y219003D02*
X158999Y218003D01*
Y216004D01*
X157999Y215004D01*
X157000D01*
X156000Y216004D01*
Y218003D01*
X155000Y219003D01*
X154001D01*
X153001Y218003D01*
Y216004D01*
X154001Y215004D01*
X158999Y221002D02*
X155000D01*
X153001Y223002D01*
X155000Y225001D01*
X158999D01*
X156000Y227000D02*
Y230999D01*
X157999Y236997D02*
X158999Y235997D01*
Y233998D01*
X157999Y232998D01*
X154001D01*
X153001Y233998D01*
Y235997D01*
X154001Y236997D01*
X153001Y238997D02*
Y240996D01*
Y239996D01*
X158999D01*
X157999Y238997D01*
X29999Y169994D02*
X24001D01*
Y166996D01*
X25001Y165996D01*
X27000D01*
X28000Y166996D01*
Y169994D01*
X25001Y159998D02*
X24001Y160997D01*
Y162997D01*
X25001Y163996D01*
X26000D01*
X27000Y162997D01*
Y160997D01*
X28000Y159998D01*
X28999D01*
X29999Y160997D01*
Y162997D01*
X28999Y163996D01*
X27000Y157998D02*
Y154000D01*
X29999Y152000D02*
X24001D01*
Y149001D01*
X25001Y148002D01*
X27000D01*
X28000Y149001D01*
Y152000D01*
X25001Y142004D02*
X24001Y143003D01*
Y145003D01*
X25001Y146002D01*
X26000D01*
X27000Y145003D01*
Y143003D01*
X28000Y142004D01*
X28999D01*
X29999Y143003D01*
Y145003D01*
X28999Y146002D01*
X25001Y140004D02*
X24001Y139005D01*
Y137005D01*
X25001Y136005D01*
X26000D01*
X27000Y137005D01*
Y138005D01*
Y137005D01*
X28000Y136005D01*
X28999D01*
X29999Y137005D01*
Y139005D01*
X28999Y140004D01*
X31999Y124995D02*
X26001D01*
Y121996D01*
X27001Y120996D01*
X29000D01*
X30000Y121996D01*
Y124995D01*
X27001Y114998D02*
X26001Y115998D01*
Y117997D01*
X27001Y118997D01*
X28000D01*
X29000Y117997D01*
Y115998D01*
X30000Y114998D01*
X30999D01*
X31999Y115998D01*
Y117997D01*
X30999Y118997D01*
X29000Y112999D02*
Y109000D01*
X31999Y107001D02*
X26001D01*
Y104002D01*
X27001Y103002D01*
X29000D01*
X30000Y104002D01*
Y107001D01*
X27001Y97004D02*
X26001Y98004D01*
Y100003D01*
X27001Y101003D01*
X28000D01*
X29000Y100003D01*
Y98004D01*
X30000Y97004D01*
X30999D01*
X31999Y98004D01*
Y100003D01*
X30999Y101003D01*
X31999Y95004D02*
Y93005D01*
Y94005D01*
X26001D01*
X27001Y95004D01*
X499001Y160496D02*
X498001Y161496D01*
Y163495D01*
X499001Y164495D01*
X500000D01*
X501000Y163495D01*
Y161496D01*
X502000Y160496D01*
X502999D01*
X503999Y161496D01*
Y163495D01*
X502999Y164495D01*
X498001Y158497D02*
X503999D01*
X501000D01*
Y154498D01*
X498001D01*
X503999D01*
X501000Y152498D02*
Y148500D01*
X498001Y146501D02*
Y144501D01*
Y145501D01*
X503999D01*
Y146501D01*
Y144501D01*
X499001Y137503D02*
X498001Y138503D01*
Y140502D01*
X499001Y141502D01*
X502999D01*
X503999Y140502D01*
Y138503D01*
X502999Y137503D01*
X499001Y135504D02*
X498001Y134504D01*
Y132505D01*
X499001Y131505D01*
X500000D01*
X501000Y132505D01*
Y133505D01*
Y132505D01*
X502000Y131505D01*
X502999D01*
X503999Y132505D01*
Y134504D01*
X502999Y135504D01*
X401001Y485997D02*
X400001Y486996D01*
Y488996D01*
X401001Y489995D01*
X402000D01*
X403000Y488996D01*
Y486996D01*
X404000Y485997D01*
X404999D01*
X405999Y486996D01*
Y488996D01*
X404999Y489995D01*
X400001Y483997D02*
X405999D01*
X403000D01*
Y479999D01*
X400001D01*
X405999D01*
X403000Y477999D02*
Y474001D01*
X401001Y468003D02*
X400001Y469002D01*
Y471002D01*
X401001Y472001D01*
X404999D01*
X405999Y471002D01*
Y469002D01*
X404999Y468003D01*
X405999Y463004D02*
X400001D01*
X403000Y466003D01*
Y462005D01*
X571997Y450999D02*
X572996Y451999D01*
X574996D01*
X575995Y450999D01*
Y450000D01*
X574996Y449000D01*
X572996D01*
X571997Y448000D01*
Y447001D01*
X572996Y446001D01*
X574996D01*
X575995Y447001D01*
X569997Y451999D02*
Y446001D01*
Y449000D01*
X565999D01*
Y451999D01*
Y446001D01*
X563999Y449000D02*
X560001D01*
X554003Y450999D02*
X555002Y451999D01*
X557002D01*
X558001Y450999D01*
Y447001D01*
X557002Y446001D01*
X555002D01*
X554003Y447001D01*
X552003Y450999D02*
X551004Y451999D01*
X549004D01*
X548004Y450999D01*
Y450000D01*
X549004Y449000D01*
X550004D01*
X549004D01*
X548004Y448000D01*
Y447001D01*
X549004Y446001D01*
X551004D01*
X552003Y447001D01*
X449997Y496999D02*
X450996Y497999D01*
X452996D01*
X453996Y496999D01*
Y496000D01*
X452996Y495000D01*
X450996D01*
X449997Y494000D01*
Y493001D01*
X450996Y492001D01*
X452996D01*
X453996Y493001D01*
X447997Y497999D02*
Y492001D01*
Y495000D01*
X443999D01*
Y497999D01*
Y492001D01*
X441999Y495000D02*
X438001D01*
X432003Y496999D02*
X433002Y497999D01*
X435002D01*
X436001Y496999D01*
Y493001D01*
X435002Y492001D01*
X433002D01*
X432003Y493001D01*
X426005Y492001D02*
X430003D01*
X426005Y496000D01*
Y496999D01*
X427004Y497999D01*
X429003D01*
X430003Y496999D01*
X521997Y476999D02*
X522997Y477999D01*
X524996D01*
X525996Y476999D01*
Y476000D01*
X524996Y475000D01*
X522997D01*
X521997Y474000D01*
Y473001D01*
X522997Y472001D01*
X524996D01*
X525996Y473001D01*
X519998Y477999D02*
Y472001D01*
Y475000D01*
X515999D01*
Y477999D01*
Y472001D01*
X514000Y475000D02*
X510001D01*
X504003Y476999D02*
X505003Y477999D01*
X507002D01*
X508002Y476999D01*
Y473001D01*
X507002Y472001D01*
X505003D01*
X504003Y473001D01*
X502003Y472001D02*
X500004D01*
X501004D01*
Y477999D01*
X502003Y476999D01*
X29999Y211995D02*
X24001D01*
Y208996D01*
X25001Y207996D01*
X27000D01*
X28000Y208996D01*
Y211995D01*
X25001Y201998D02*
X24001Y202997D01*
Y204997D01*
X25001Y205996D01*
X26000D01*
X27000Y204997D01*
Y202997D01*
X28000Y201998D01*
X28999D01*
X29999Y202997D01*
Y204997D01*
X28999Y205996D01*
X27000Y199998D02*
Y196000D01*
X29999Y194000D02*
X24001D01*
Y191001D01*
X25001Y190002D01*
X27000D01*
X28000Y191001D01*
Y194000D01*
X25001Y184003D02*
X24001Y185003D01*
Y187003D01*
X25001Y188002D01*
X26000D01*
X27000Y187003D01*
Y185003D01*
X28000Y184003D01*
X28999D01*
X29999Y185003D01*
Y187003D01*
X28999Y188002D01*
X29999Y178006D02*
Y182004D01*
X26000Y178006D01*
X25001D01*
X24001Y179005D01*
Y181005D01*
X25001Y182004D01*
X96600Y487600D02*
Y493598D01*
X93601D01*
X92601Y492598D01*
Y490599D01*
X93601Y489599D01*
X96600D01*
X86603Y492598D02*
X87603Y493598D01*
X89602D01*
X90602Y492598D01*
Y491599D01*
X89602Y490599D01*
X87603D01*
X86603Y489599D01*
Y488600D01*
X87603Y487600D01*
X89602D01*
X90602Y488600D01*
X84604Y490599D02*
X80605D01*
X74607Y493598D02*
X78606D01*
Y490599D01*
X76607D01*
X78606D01*
Y487600D01*
X72608Y493598D02*
Y487600D01*
Y490599D01*
X68609D01*
Y493598D01*
Y487600D01*
X66610D02*
X64610D01*
X65610D01*
Y493598D01*
X66610Y492598D01*
X90001Y348004D02*
X95999D01*
Y351003D01*
X94999Y352003D01*
X93000D01*
X92000Y351003D01*
Y348004D01*
X94999Y358001D02*
X95999Y357001D01*
Y355002D01*
X94999Y354002D01*
X94000D01*
X93000Y355002D01*
Y357001D01*
X92000Y358001D01*
X91001D01*
X90001Y357001D01*
Y355002D01*
X91001Y354002D01*
X93000Y360000D02*
Y363999D01*
X94999Y369997D02*
X95999Y368997D01*
Y366998D01*
X94999Y365998D01*
X91001D01*
X90001Y366998D01*
Y368997D01*
X91001Y369997D01*
X90001Y371996D02*
Y373996D01*
Y372996D01*
X95999D01*
X94999Y371996D01*
X127000Y10999D02*
X125001D01*
X126001D01*
Y6001D01*
X125001Y5001D01*
X124001D01*
X123002Y6001D01*
X131999Y5001D02*
Y10999D01*
X129000Y8000D01*
X132998D01*
X134000Y489999D02*
X135999D01*
X134999D01*
Y485001D01*
X135999Y484001D01*
X136999D01*
X137998Y485001D01*
X132000Y488999D02*
X131001Y489999D01*
X129001D01*
X128002Y488999D01*
Y485001D01*
X129001Y484001D01*
X131001D01*
X132000Y485001D01*
Y488999D01*
X480999Y58004D02*
X475001D01*
Y61004D01*
X476001Y62003D01*
X479999D01*
X480999Y61004D01*
Y58004D01*
X475001Y64003D02*
X480999D01*
X479000Y66002D01*
X480999Y68001D01*
X475001D01*
X478000Y70001D02*
Y73999D01*
X475001Y75999D02*
X480999D01*
Y78998D01*
X479999Y79997D01*
X478000D01*
X477000Y78998D01*
Y75999D01*
Y77998D02*
X475001Y79997D01*
X479999Y81997D02*
X480999Y82996D01*
Y84996D01*
X479999Y85996D01*
X479000D01*
X478000Y84996D01*
X477000Y85996D01*
X476001D01*
X475001Y84996D01*
Y82996D01*
X476001Y81997D01*
X477000D01*
X478000Y82996D01*
X479000Y81997D01*
X479999D01*
X478000Y82996D02*
Y84996D01*
X523999Y59004D02*
X518001D01*
Y62004D01*
X519001Y63003D01*
X522999D01*
X523999Y62004D01*
Y59004D01*
X518001Y65003D02*
X523999D01*
X522000Y67002D01*
X523999Y69001D01*
X518001D01*
X521000Y71001D02*
Y74999D01*
X518001Y76999D02*
X523999D01*
Y79998D01*
X522999Y80997D01*
X521000D01*
X520000Y79998D01*
Y76999D01*
Y78998D02*
X518001Y80997D01*
X523999Y82997D02*
Y86996D01*
X522999D01*
X519001Y82997D01*
X518001D01*
X562999Y61005D02*
X557001D01*
Y64004D01*
X558001Y65003D01*
X561999D01*
X562999Y64004D01*
Y61005D01*
X557001Y67003D02*
X562999D01*
X561000Y69002D01*
X562999Y71001D01*
X557001D01*
X560000Y73001D02*
Y76999D01*
X557001Y78999D02*
X562999D01*
Y81998D01*
X561999Y82997D01*
X560000D01*
X559000Y81998D01*
Y78999D01*
Y80998D02*
X557001Y82997D01*
X562999Y88995D02*
X561999Y86996D01*
X560000Y84997D01*
X558001D01*
X557001Y85997D01*
Y87996D01*
X558001Y88995D01*
X559000D01*
X560000Y87996D01*
Y84997D01*
X416999Y176005D02*
X411001D01*
Y179004D01*
X412001Y180003D01*
X415999D01*
X416999Y179004D01*
Y176005D01*
X411001Y182003D02*
X416999D01*
X415000Y184002D01*
X416999Y186001D01*
X411001D01*
X414000Y188001D02*
Y191999D01*
X411001Y193999D02*
X416999D01*
Y196998D01*
X415999Y197997D01*
X414000D01*
X413000Y196998D01*
Y193999D01*
Y195998D02*
X411001Y197997D01*
X416999Y203995D02*
Y199997D01*
X414000D01*
X415000Y201996D01*
Y202996D01*
X414000Y203995D01*
X412001D01*
X411001Y202996D01*
Y200996D01*
X412001Y199997D01*
X417999Y227005D02*
X412001D01*
Y230003D01*
X413001Y231003D01*
X416999D01*
X417999Y230003D01*
Y227005D01*
X412001Y233003D02*
X417999D01*
X416000Y235002D01*
X417999Y237001D01*
X412001D01*
X415000Y239001D02*
Y242999D01*
X412001Y244999D02*
X417999D01*
Y247998D01*
X416999Y248997D01*
X415000D01*
X414000Y247998D01*
Y244999D01*
Y246998D02*
X412001Y248997D01*
Y253996D02*
X417999D01*
X415000Y250997D01*
Y254995D01*
X451999Y56005D02*
X446001D01*
Y59004D01*
X447001Y60003D01*
X450999D01*
X451999Y59004D01*
Y56005D01*
X446001Y62003D02*
X451999D01*
X450000Y64002D01*
X451999Y66001D01*
X446001D01*
X449000Y68001D02*
Y71999D01*
X446001Y73999D02*
X451999D01*
Y76998D01*
X450999Y77997D01*
X449000D01*
X448000Y76998D01*
Y73999D01*
Y75998D02*
X446001Y77997D01*
X450999Y79997D02*
X451999Y80996D01*
Y82996D01*
X450999Y83995D01*
X450000D01*
X449000Y82996D01*
Y81996D01*
Y82996D01*
X448000Y83995D01*
X447001D01*
X446001Y82996D01*
Y80996D01*
X447001Y79997D01*
X491999Y59004D02*
X486001D01*
Y62003D01*
X487001Y63003D01*
X490999D01*
X491999Y62003D01*
Y59004D01*
X486001Y65003D02*
X491999D01*
X490000Y67002D01*
X491999Y69001D01*
X486001D01*
X489000Y71001D02*
Y74999D01*
X486001Y76999D02*
X491999D01*
Y79998D01*
X490999Y80997D01*
X489000D01*
X488000Y79998D01*
Y76999D01*
Y78998D02*
X486001Y80997D01*
Y86996D02*
Y82997D01*
X490000Y86996D01*
X490999D01*
X491999Y85996D01*
Y83996D01*
X490999Y82997D01*
X533999Y61004D02*
X528001D01*
Y64003D01*
X529001Y65003D01*
X532999D01*
X533999Y64003D01*
Y61004D01*
X528001Y67002D02*
X533999D01*
X532000Y69002D01*
X533999Y71001D01*
X528001D01*
X531000Y73000D02*
Y76999D01*
X528001Y78998D02*
X533999D01*
Y81997D01*
X532999Y82997D01*
X531000D01*
X530000Y81997D01*
Y78998D01*
Y80998D02*
X528001Y82997D01*
Y84996D02*
Y86996D01*
Y85996D01*
X533999D01*
X532999Y84996D01*
X561996Y294999D02*
Y289001D01*
X558996D01*
X557997Y290001D01*
Y293999D01*
X558996Y294999D01*
X561996D01*
X555997Y289001D02*
Y294999D01*
X553998Y293000D01*
X551999Y294999D01*
Y289001D01*
X549999Y292000D02*
X546001D01*
X544001Y294999D02*
Y289001D01*
X541002D01*
X540003Y290001D01*
Y293999D01*
X541002Y294999D01*
X544001D01*
X535004Y289001D02*
Y294999D01*
X538003Y292000D01*
X534004D01*
X551999Y414005D02*
X546001D01*
Y417004D01*
X547001Y418003D01*
X550999D01*
X551999Y417004D01*
Y414005D01*
X546001Y420003D02*
X551999D01*
X550000Y422002D01*
X551999Y424001D01*
X546001D01*
X549000Y426001D02*
Y429999D01*
X551999Y431999D02*
X546001D01*
Y434998D01*
X547001Y435997D01*
X550999D01*
X551999Y434998D01*
Y431999D01*
X550999Y437997D02*
X551999Y438997D01*
Y440996D01*
X550999Y441995D01*
X550000D01*
X549000Y440996D01*
Y439996D01*
Y440996D01*
X548000Y441995D01*
X547001D01*
X546001Y440996D01*
Y438997D01*
X547001Y437997D01*
X527001Y401996D02*
X532999D01*
Y398996D01*
X531999Y397997D01*
X528001D01*
X527001Y398996D01*
Y401996D01*
X532999Y395997D02*
X527001D01*
X529000Y393998D01*
X527001Y391999D01*
X532999D01*
X530000Y389999D02*
Y386001D01*
X527001Y384001D02*
X532999D01*
Y381002D01*
X531999Y380003D01*
X528001D01*
X527001Y381002D01*
Y384001D01*
X532999Y374005D02*
Y378003D01*
X529000Y374005D01*
X528001D01*
X527001Y375004D01*
Y377004D01*
X528001Y378003D01*
X537001Y343996D02*
X542999D01*
Y340997D01*
X541999Y339997D01*
X538001D01*
X537001Y340997D01*
Y343996D01*
X542999Y337998D02*
X537001D01*
X539000Y335998D01*
X537001Y333999D01*
X542999D01*
X540000Y332000D02*
Y328001D01*
X537001Y326002D02*
X542999D01*
Y323003D01*
X541999Y322003D01*
X538001D01*
X537001Y323003D01*
Y326002D01*
X542999Y320004D02*
Y318004D01*
Y319004D01*
X537001D01*
X538001Y320004D01*
X476495Y360999D02*
Y355001D01*
X473496D01*
X472496Y356001D01*
Y359999D01*
X473496Y360999D01*
X476495D01*
X470497Y355001D02*
Y360999D01*
X468497Y359000D01*
X466498Y360999D01*
Y355001D01*
X464499Y358000D02*
X460500D01*
X454502Y359999D02*
X455502Y360999D01*
X457501D01*
X458500Y359999D01*
Y356001D01*
X457501Y355001D01*
X455502D01*
X454502Y356001D01*
X452502Y355001D02*
X450503D01*
X451503D01*
Y360999D01*
X452502Y359999D01*
X447504Y360999D02*
X443505D01*
Y359999D01*
X447504Y356001D01*
Y355001D01*
X517001Y347495D02*
X522999D01*
Y344496D01*
X521999Y343496D01*
X518001D01*
X517001Y344496D01*
Y347495D01*
X522999Y341497D02*
X517001D01*
X519000Y339497D01*
X517001Y337498D01*
X522999D01*
X520000Y335498D02*
Y331500D01*
X518001Y325502D02*
X517001Y326501D01*
Y328501D01*
X518001Y329501D01*
X521999D01*
X522999Y328501D01*
Y326501D01*
X521999Y325502D01*
X522999Y323502D02*
Y321503D01*
Y322503D01*
X517001D01*
X518001Y323502D01*
X517001Y314505D02*
X518001Y316505D01*
X520000Y318504D01*
X521999D01*
X522999Y317504D01*
Y315505D01*
X521999Y314505D01*
X521000D01*
X520000Y315505D01*
Y318504D01*
X479495Y391999D02*
Y386001D01*
X476496D01*
X475496Y387001D01*
Y390999D01*
X476496Y391999D01*
X479495D01*
X473497Y386001D02*
Y391999D01*
X471497Y390000D01*
X469498Y391999D01*
Y386001D01*
X467498Y389000D02*
X463500D01*
X457502Y390999D02*
X458501Y391999D01*
X460501D01*
X461501Y390999D01*
Y387001D01*
X460501Y386001D01*
X458501D01*
X457502Y387001D01*
X455502Y386001D02*
X453503D01*
X454503D01*
Y391999D01*
X455502Y390999D01*
X446505Y391999D02*
X450504D01*
Y389000D01*
X448505Y390000D01*
X447505D01*
X446505Y389000D01*
Y387001D01*
X447505Y386001D01*
X449504D01*
X450504Y387001D01*
X509001Y406495D02*
X514999D01*
Y403496D01*
X513999Y402496D01*
X510001D01*
X509001Y403496D01*
Y406495D01*
X514999Y400497D02*
X509001D01*
X511000Y398497D01*
X509001Y396498D01*
X514999D01*
X512000Y394498D02*
Y390500D01*
X510001Y384502D02*
X509001Y385502D01*
Y387501D01*
X510001Y388500D01*
X513999D01*
X514999Y387501D01*
Y385502D01*
X513999Y384502D01*
X514999Y382502D02*
Y380503D01*
Y381503D01*
X509001D01*
X510001Y382502D01*
X514999Y374505D02*
X509001D01*
X512000Y377504D01*
Y373505D01*
X480495Y446999D02*
Y441001D01*
X477496D01*
X476496Y442001D01*
Y445999D01*
X477496Y446999D01*
X480495D01*
X474497Y441001D02*
Y446999D01*
X472497Y445000D01*
X470498Y446999D01*
Y441001D01*
X468499Y444000D02*
X464500D01*
X458502Y445999D02*
X459502Y446999D01*
X461501D01*
X462500Y445999D01*
Y442001D01*
X461501Y441001D01*
X459502D01*
X458502Y442001D01*
X456502Y441001D02*
X454503D01*
X455503D01*
Y446999D01*
X456502Y445999D01*
X451504D02*
X450504Y446999D01*
X448505D01*
X447505Y445999D01*
Y445000D01*
X448505Y444000D01*
X449505D01*
X448505D01*
X447505Y443000D01*
Y442001D01*
X448505Y441001D01*
X450504D01*
X451504Y442001D01*
X509001Y446495D02*
X514999D01*
Y443496D01*
X513999Y442496D01*
X510001D01*
X509001Y443496D01*
Y446495D01*
X514999Y440497D02*
X509001D01*
X511000Y438497D01*
X509001Y436498D01*
X514999D01*
X512000Y434499D02*
Y430500D01*
X510001Y424502D02*
X509001Y425501D01*
Y427501D01*
X510001Y428501D01*
X513999D01*
X514999Y427501D01*
Y425501D01*
X513999Y424502D01*
X514999Y422502D02*
Y420503D01*
Y421503D01*
X509001D01*
X510001Y422502D01*
X514999Y413505D02*
Y417504D01*
X511000Y413505D01*
X510001D01*
X509001Y414505D01*
Y416504D01*
X510001Y417504D01*
X508800Y304398D02*
Y298400D01*
X505801D01*
X504801Y299400D01*
Y303398D01*
X505801Y304398D01*
X508800D01*
X502802Y298400D02*
Y304398D01*
X500803Y302399D01*
X498803Y304398D01*
Y298400D01*
X496804Y301399D02*
X492805D01*
X486807Y303398D02*
X487807Y304398D01*
X489806D01*
X490806Y303398D01*
Y299400D01*
X489806Y298400D01*
X487807D01*
X486807Y299400D01*
X484808Y298400D02*
X482808D01*
X483808D01*
Y304398D01*
X484808Y303398D01*
X479809Y298400D02*
X477810D01*
X478810D01*
Y304398D01*
X479809Y303398D01*
X531200Y295098D02*
Y289100D01*
X528201D01*
X527201Y290100D01*
Y294098D01*
X528201Y295098D01*
X531200D01*
X525202Y289100D02*
Y295098D01*
X523203Y293099D01*
X521203Y295098D01*
Y289100D01*
X519204Y292099D02*
X515205D01*
X509207Y294098D02*
X510207Y295098D01*
X512206D01*
X513206Y294098D01*
Y290100D01*
X512206Y289100D01*
X510207D01*
X509207Y290100D01*
X507208Y289100D02*
X505208D01*
X506208D01*
Y295098D01*
X507208Y294098D01*
X502209D02*
X501210Y295098D01*
X499210D01*
X498211Y294098D01*
Y290100D01*
X499210Y289100D01*
X501210D01*
X502209Y290100D01*
Y294098D01*
X471999Y99005D02*
X466001D01*
Y102004D01*
X467001Y103003D01*
X470999D01*
X471999Y102004D01*
Y99005D01*
X466001Y105003D02*
X471999D01*
X470000Y107002D01*
X471999Y109001D01*
X466001D01*
X469000Y111001D02*
Y114999D01*
X470999Y120997D02*
X471999Y119998D01*
Y117998D01*
X470999Y116999D01*
X467001D01*
X466001Y117998D01*
Y119998D01*
X467001Y120997D01*
Y122997D02*
X466001Y123996D01*
Y125996D01*
X467001Y126996D01*
X470999D01*
X471999Y125996D01*
Y123996D01*
X470999Y122997D01*
X470000D01*
X469000Y123996D01*
Y126996D01*
X512999Y100004D02*
X507001D01*
Y103004D01*
X508001Y104003D01*
X511999D01*
X512999Y103004D01*
Y100004D01*
X507001Y106003D02*
X512999D01*
X511000Y108002D01*
X512999Y110001D01*
X507001D01*
X510000Y112001D02*
Y115999D01*
X511999Y121997D02*
X512999Y120998D01*
Y118998D01*
X511999Y117999D01*
X508001D01*
X507001Y118998D01*
Y120998D01*
X508001Y121997D01*
X511999Y123997D02*
X512999Y124996D01*
Y126996D01*
X511999Y127996D01*
X511000D01*
X510000Y126996D01*
X509000Y127996D01*
X508001D01*
X507001Y126996D01*
Y124996D01*
X508001Y123997D01*
X509000D01*
X510000Y124996D01*
X511000Y123997D01*
X511999D01*
X510000Y124996D02*
Y126996D01*
X552999Y101363D02*
X547001D01*
Y104362D01*
X548001Y105361D01*
X551999D01*
X552999Y104362D01*
Y101363D01*
X547001Y107361D02*
X552999D01*
X551000Y109360D01*
X552999Y111360D01*
X547001D01*
X550000Y113359D02*
Y117358D01*
X551999Y123356D02*
X552999Y122356D01*
Y120357D01*
X551999Y119357D01*
X548001D01*
X547001Y120357D01*
Y122356D01*
X548001Y123356D01*
X552999Y125355D02*
Y129354D01*
X551999D01*
X548001Y125355D01*
X547001D01*
X495005Y171001D02*
Y176999D01*
X498004D01*
X499003Y175999D01*
Y172001D01*
X498004Y171001D01*
X495005D01*
X501003Y176999D02*
Y171001D01*
X503002Y173000D01*
X505001Y171001D01*
Y176999D01*
X507001Y174000D02*
X510999D01*
X516997Y172001D02*
X515998Y171001D01*
X513998D01*
X512999Y172001D01*
Y175999D01*
X513998Y176999D01*
X515998D01*
X516997Y175999D01*
X522996Y171001D02*
X520996Y172001D01*
X518997Y174000D01*
Y175999D01*
X519997Y176999D01*
X521996D01*
X522996Y175999D01*
Y175000D01*
X521996Y174000D01*
X518997D01*
X445999Y228005D02*
X440001D01*
Y231003D01*
X441001Y232003D01*
X444999D01*
X445999Y231003D01*
Y228005D01*
X440001Y234003D02*
X445999D01*
X444000Y236002D01*
X445999Y238001D01*
X440001D01*
X443000Y240001D02*
Y243999D01*
X444999Y249997D02*
X445999Y248998D01*
Y246998D01*
X444999Y245999D01*
X441001D01*
X440001Y246998D01*
Y248998D01*
X441001Y249997D01*
X445999Y255995D02*
Y251997D01*
X443000D01*
X444000Y253996D01*
Y254996D01*
X443000Y255995D01*
X441001D01*
X440001Y254996D01*
Y252996D01*
X441001Y251997D01*
X442999Y148004D02*
X437001D01*
Y151004D01*
X438001Y152003D01*
X441999D01*
X442999Y151004D01*
Y148004D01*
X437001Y154003D02*
X442999D01*
X441000Y156002D01*
X442999Y158001D01*
X437001D01*
X440000Y160001D02*
Y163999D01*
X441999Y169997D02*
X442999Y168998D01*
Y166998D01*
X441999Y165999D01*
X438001D01*
X437001Y166998D01*
Y168998D01*
X438001Y169997D01*
X437001Y174996D02*
X442999D01*
X440000Y171997D01*
Y175996D01*
X460999Y99288D02*
X455001D01*
Y102287D01*
X456001Y103287D01*
X459999D01*
X460999Y102287D01*
Y99288D01*
X455001Y105286D02*
X460999D01*
X459000Y107285D01*
X460999Y109285D01*
X455001D01*
X458000Y111284D02*
Y115283D01*
X459999Y121281D02*
X460999Y120281D01*
Y118282D01*
X459999Y117282D01*
X456001D01*
X455001Y118282D01*
Y120281D01*
X456001Y121281D01*
X459999Y123280D02*
X460999Y124280D01*
Y126279D01*
X459999Y127279D01*
X459000D01*
X458000Y126279D01*
Y125280D01*
Y126279D01*
X457000Y127279D01*
X456001D01*
X455001Y126279D01*
Y124280D01*
X456001Y123280D01*
X502999Y100004D02*
X497001D01*
Y103004D01*
X498001Y104003D01*
X501999D01*
X502999Y103004D01*
Y100004D01*
X497001Y106003D02*
X502999D01*
X501000Y108002D01*
X502999Y110001D01*
X497001D01*
X500000Y112001D02*
Y115999D01*
X501999Y121997D02*
X502999Y120998D01*
Y118998D01*
X501999Y117999D01*
X498001D01*
X497001Y118998D01*
Y120998D01*
X498001Y121997D01*
X497001Y127996D02*
Y123997D01*
X501000Y127996D01*
X501999D01*
X502999Y126996D01*
Y124996D01*
X501999Y123997D01*
X542999Y101004D02*
X537001D01*
Y104003D01*
X538001Y105003D01*
X541999D01*
X542999Y104003D01*
Y101004D01*
X537001Y107002D02*
X542999D01*
X541000Y109002D01*
X542999Y111001D01*
X537001D01*
X540000Y113000D02*
Y116999D01*
X541999Y122997D02*
X542999Y121997D01*
Y119998D01*
X541999Y118998D01*
X538001D01*
X537001Y119998D01*
Y121997D01*
X538001Y122997D01*
X537001Y124996D02*
Y126996D01*
Y125996D01*
X542999D01*
X541999Y124996D01*
X283993Y497999D02*
Y492001D01*
X280994D01*
X279994Y493001D01*
Y494000D01*
X280994Y495000D01*
X283993D01*
X280994D01*
X279994Y496000D01*
Y496999D01*
X280994Y497999D01*
X283993D01*
X273996Y496999D02*
X274996Y497999D01*
X276995D01*
X277995Y496999D01*
Y496000D01*
X276995Y495000D01*
X274996D01*
X273996Y494000D01*
Y493001D01*
X274996Y492001D01*
X276995D01*
X277995Y493001D01*
X271997Y495000D02*
X267998D01*
X265999Y492001D02*
Y497999D01*
X263000D01*
X262000Y496999D01*
Y495000D01*
X263000Y494000D01*
X265999D01*
X263999D02*
X262000Y492001D01*
X260001Y497999D02*
Y492001D01*
X257002D01*
X256002Y493001D01*
Y494000D01*
Y495000D01*
X257002Y496000D01*
X260001D01*
X253003Y492001D02*
X251004D01*
X250004Y493001D01*
Y495000D01*
X251004Y496000D01*
X253003D01*
X254003Y495000D01*
Y493001D01*
X253003Y492001D01*
X247005D02*
X245005D01*
X244006Y493001D01*
Y495000D01*
X245005Y496000D01*
X247005D01*
X248005Y495000D01*
Y493001D01*
X247005Y492001D01*
X241007Y496999D02*
Y496000D01*
X242006D01*
X240007D01*
X241007D01*
Y493001D01*
X240007Y492001D01*
X241200Y367398D02*
Y361400D01*
X238201D01*
X237201Y362400D01*
Y363399D01*
X238201Y364399D01*
X241200D01*
X238201D01*
X237201Y365399D01*
Y366398D01*
X238201Y367398D01*
X241200D01*
X231203Y366398D02*
X232203Y367398D01*
X234202D01*
X235202Y366398D01*
Y365399D01*
X234202Y364399D01*
X232203D01*
X231203Y363399D01*
Y362400D01*
X232203Y361400D01*
X234202D01*
X235202Y362400D01*
X229204Y364399D02*
X225205D01*
X223206Y361400D02*
Y367398D01*
X220207D01*
X219207Y366398D01*
Y364399D01*
X220207Y363399D01*
X223206D01*
X221206D02*
X219207Y361400D01*
X217208Y366398D02*
X216208Y367398D01*
X214209D01*
X213209Y366398D01*
Y365399D01*
X214209Y364399D01*
X213209Y363399D01*
Y362400D01*
X214209Y361400D01*
X216208D01*
X217208Y362400D01*
Y363399D01*
X216208Y364399D01*
X217208Y365399D01*
Y366398D01*
X216208Y364399D02*
X214209D01*
X223001Y453996D02*
X228999D01*
Y450996D01*
X227999Y449997D01*
X227000D01*
X226000Y450996D01*
Y453996D01*
Y450996D01*
X225000Y449997D01*
X224001D01*
X223001Y450996D01*
Y453996D01*
X224001Y443999D02*
X223001Y444998D01*
Y446998D01*
X224001Y447997D01*
X225000D01*
X226000Y446998D01*
Y444998D01*
X227000Y443999D01*
X227999D01*
X228999Y444998D01*
Y446998D01*
X227999Y447997D01*
X226000Y441999D02*
Y438001D01*
X228999Y436001D02*
X223001D01*
Y433002D01*
X224001Y432003D01*
X226000D01*
X227000Y433002D01*
Y436001D01*
Y434002D02*
X228999Y432003D01*
X223001Y430003D02*
Y426005D01*
X224001D01*
X227999Y430003D01*
X228999D01*
X267001Y405996D02*
X272999D01*
Y402996D01*
X271999Y401997D01*
X271000D01*
X270000Y402996D01*
Y405996D01*
Y402996D01*
X269000Y401997D01*
X268001D01*
X267001Y402996D01*
Y405996D01*
X268001Y395999D02*
X267001Y396998D01*
Y398998D01*
X268001Y399997D01*
X269000D01*
X270000Y398998D01*
Y396998D01*
X271000Y395999D01*
X271999D01*
X272999Y396998D01*
Y398998D01*
X271999Y399997D01*
X270000Y393999D02*
Y390001D01*
X272999Y388001D02*
X267001D01*
Y385002D01*
X268001Y384003D01*
X270000D01*
X271000Y385002D01*
Y388001D01*
Y386002D02*
X272999Y384003D01*
Y379004D02*
X267001D01*
X270000Y382003D01*
Y378005D01*
X243995Y389999D02*
Y384001D01*
X240996D01*
X239997Y385001D01*
Y386000D01*
X240996Y387000D01*
X243995D01*
X240996D01*
X239997Y388000D01*
Y388999D01*
X240996Y389999D01*
X243995D01*
X233999Y388999D02*
X234998Y389999D01*
X236998D01*
X237997Y388999D01*
Y388000D01*
X236998Y387000D01*
X234998D01*
X233999Y386000D01*
Y385001D01*
X234998Y384001D01*
X236998D01*
X237997Y385001D01*
X231999Y387000D02*
X228001D01*
X226001Y384001D02*
Y389999D01*
X223002D01*
X222003Y388999D01*
Y387000D01*
X223002Y386000D01*
X226001D01*
X224002D02*
X222003Y384001D01*
X220003Y388999D02*
X219004Y389999D01*
X217004D01*
X216004Y388999D01*
Y388000D01*
X217004Y387000D01*
X218004D01*
X217004D01*
X216004Y386000D01*
Y385001D01*
X217004Y384001D01*
X219004D01*
X220003Y385001D01*
X335996Y340999D02*
Y335001D01*
X332996D01*
X331997Y336001D01*
Y337000D01*
X332996Y338000D01*
X335996D01*
X332996D01*
X331997Y339000D01*
Y339999D01*
X332996Y340999D01*
X335996D01*
X325999Y339999D02*
X326998Y340999D01*
X328998D01*
X329997Y339999D01*
Y339000D01*
X328998Y338000D01*
X326998D01*
X325999Y337000D01*
Y336001D01*
X326998Y335001D01*
X328998D01*
X329997Y336001D01*
X323999Y338000D02*
X320001D01*
X318001Y335001D02*
Y340999D01*
X315002D01*
X314003Y339999D01*
Y338000D01*
X315002Y337000D01*
X318001D01*
X316002D02*
X314003Y335001D01*
X308004D02*
X312003D01*
X308004Y339000D01*
Y339999D01*
X309004Y340999D01*
X311003D01*
X312003Y339999D01*
X305996Y355999D02*
Y350001D01*
X302997D01*
X301997Y351001D01*
Y352000D01*
X302997Y353000D01*
X305996D01*
X302997D01*
X301997Y354000D01*
Y354999D01*
X302997Y355999D01*
X305996D01*
X295999Y354999D02*
X296999Y355999D01*
X298998D01*
X299998Y354999D01*
Y354000D01*
X298998Y353000D01*
X296999D01*
X295999Y352000D01*
Y351001D01*
X296999Y350001D01*
X298998D01*
X299998Y351001D01*
X294000Y353000D02*
X290001D01*
X288002Y350001D02*
Y355999D01*
X285003D01*
X284003Y354999D01*
Y353000D01*
X285003Y352000D01*
X288002D01*
X286002D02*
X284003Y350001D01*
X282003D02*
X280004D01*
X281004D01*
Y355999D01*
X282003Y354999D01*
X378001Y435995D02*
X383999D01*
Y432996D01*
X382999Y431997D01*
X382000D01*
X381000Y432996D01*
Y435995D01*
Y432996D01*
X380000Y431997D01*
X379001D01*
X378001Y432996D01*
Y435995D01*
X379001Y425999D02*
X378001Y426998D01*
Y428998D01*
X379001Y429997D01*
X380000D01*
X381000Y428998D01*
Y426998D01*
X382000Y425999D01*
X382999D01*
X383999Y426998D01*
Y428998D01*
X382999Y429997D01*
X381000Y423999D02*
Y420001D01*
X379001Y414003D02*
X378001Y415002D01*
Y417002D01*
X379001Y418001D01*
X382999D01*
X383999Y417002D01*
Y415002D01*
X382999Y414003D01*
X379001Y412003D02*
X378001Y411003D01*
Y409004D01*
X379001Y408005D01*
X380000D01*
X381000Y409004D01*
X382000Y408005D01*
X382999D01*
X383999Y409004D01*
Y411003D01*
X382999Y412003D01*
X382000D01*
X381000Y411003D01*
X380000Y412003D01*
X379001D01*
X381000Y411003D02*
Y409004D01*
X380995Y454999D02*
Y449001D01*
X377996D01*
X376997Y450001D01*
Y451000D01*
X377996Y452000D01*
X380995D01*
X377996D01*
X376997Y453000D01*
Y453999D01*
X377996Y454999D01*
X380995D01*
X370999Y453999D02*
X371998Y454999D01*
X373998D01*
X374997Y453999D01*
Y453000D01*
X373998Y452000D01*
X371998D01*
X370999Y451000D01*
Y450001D01*
X371998Y449001D01*
X373998D01*
X374997Y450001D01*
X368999Y452000D02*
X365001D01*
X359003Y453999D02*
X360002Y454999D01*
X362002D01*
X363001Y453999D01*
Y450001D01*
X362002Y449001D01*
X360002D01*
X359003Y450001D01*
X357003Y454999D02*
X353005D01*
Y453999D01*
X357003Y450001D01*
Y449001D01*
X408401Y62598D02*
X410401D01*
X409401D01*
Y57600D01*
X410401Y56600D01*
X411400D01*
X412400Y57600D01*
X406402Y56600D02*
X404403D01*
X405402D01*
Y62598D01*
X406402Y61598D01*
D15*
X453000Y170000D02*
X454999D01*
X455999Y171000D01*
X454999Y171999D01*
X453000D01*
X454499D01*
Y170000D01*
X453000Y172999D02*
X454999D01*
X455999Y173999D01*
X454999Y174998D01*
X453000D01*
X454499D01*
Y172999D01*
X453000Y175998D02*
Y176998D01*
Y176498D01*
X455999D01*
X455499Y175998D01*
X453000Y178497D02*
X454999Y180497D01*
X455999Y181496D02*
X453000D01*
Y182996D01*
X453500Y183496D01*
X455499D01*
X455999Y182996D01*
Y181496D01*
X453000Y184495D02*
X454999D01*
X455999Y185495D01*
X454999Y186495D01*
X453000D01*
X454499D01*
Y184495D01*
X455499Y189494D02*
X455999Y188994D01*
Y187994D01*
X455499Y187494D01*
X453500D01*
X453000Y187994D01*
Y188994D01*
X453500Y189494D01*
X455999Y190493D02*
X453000D01*
Y191993D01*
X453500Y192493D01*
X454000D01*
X454499Y191993D01*
Y190493D01*
Y191993D01*
X454999Y192493D01*
X455499D01*
X455999Y191993D01*
Y190493D01*
X478500Y219497D02*
X480499D01*
X481499Y220497D01*
X480499Y221496D01*
X478500D01*
X479999D01*
Y219497D01*
X480999Y224496D02*
X481499Y223996D01*
Y222996D01*
X480999Y222496D01*
X479000D01*
X478500Y222996D01*
Y223996D01*
X479000Y224496D01*
X478500Y226995D02*
X481499D01*
X479999Y225495D01*
Y227495D01*
X498500Y219497D02*
X500499D01*
X501499Y220497D01*
X500499Y221496D01*
X498500D01*
X500000D01*
Y219497D01*
X501499Y222496D02*
X498500D01*
Y223996D01*
X499000Y224496D01*
X499500D01*
X500000Y223996D01*
Y222496D01*
Y223996D01*
X500499Y224496D01*
X500999D01*
X501499Y223996D01*
Y222496D01*
X500999Y225495D02*
X501499Y225995D01*
Y226995D01*
X500999Y227495D01*
X500499D01*
X500000Y226995D01*
Y226495D01*
Y226995D01*
X499500Y227495D01*
X499000D01*
X498500Y226995D01*
Y225995D01*
X499000Y225495D01*
X508500Y222496D02*
X511499D01*
X508500Y224496D01*
X511499D01*
X510999Y227495D02*
X511499Y226995D01*
Y225995D01*
X510999Y225495D01*
X509000D01*
X508500Y225995D01*
Y226995D01*
X509000Y227495D01*
X528000Y180160D02*
X529999D01*
X530999Y181160D01*
X529999Y182159D01*
X528000D01*
X529499D01*
Y180160D01*
X528000Y183159D02*
X529999D01*
X530999Y184159D01*
X529999Y185158D01*
X528000D01*
X529499D01*
Y183159D01*
X530999Y188157D02*
Y186158D01*
X529499D01*
X529999Y187158D01*
Y187658D01*
X529499Y188157D01*
X528500D01*
X528000Y187658D01*
Y186658D01*
X528500Y186158D01*
X518000Y180160D02*
X519999D01*
X520999Y181160D01*
X519999Y182159D01*
X518000D01*
X519499D01*
Y180160D01*
X520999Y183159D02*
X518000D01*
Y184659D01*
X518500Y185158D01*
X519000D01*
X519499Y184659D01*
Y183159D01*
Y184659D01*
X519999Y185158D01*
X520499D01*
X520999Y184659D01*
Y183159D01*
X520499Y186158D02*
X520999Y186658D01*
Y187658D01*
X520499Y188157D01*
X518500D01*
X518000Y187658D01*
Y186658D01*
X518500Y186158D01*
X520499D01*
X508000Y180160D02*
X509999D01*
X510999Y181160D01*
X509999Y182159D01*
X508000D01*
X509500D01*
Y180160D01*
X510499Y185158D02*
X510999Y184659D01*
Y183659D01*
X510499Y183159D01*
X508500D01*
X508000Y183659D01*
Y184659D01*
X508500Y185158D01*
X508000Y188157D02*
Y186158D01*
X509999Y188157D01*
X510499D01*
X510999Y187658D01*
Y186658D01*
X510499Y186158D01*
X498000Y181160D02*
X499999D01*
X500999Y182159D01*
X499999Y183159D01*
X498000D01*
X499500D01*
Y181160D01*
X500999Y184159D02*
X498000D01*
Y185658D01*
X498500Y186158D01*
X499000D01*
X499500Y185658D01*
Y184159D01*
Y185658D01*
X499999Y186158D01*
X500499D01*
X500999Y185658D01*
Y184159D01*
X498000Y187158D02*
Y188157D01*
Y187658D01*
X500999D01*
X500499Y187158D01*
X538000Y216500D02*
X540999D01*
Y218000D01*
X540499Y218499D01*
X539500D01*
X539000Y218000D01*
Y216500D01*
X540499Y221498D02*
X540999Y220999D01*
Y219999D01*
X540499Y219499D01*
X538500D01*
X538000Y219999D01*
Y220999D01*
X538500Y221498D01*
X539500D01*
Y220499D01*
X538000Y222498D02*
X539999D01*
X540999Y223498D01*
X539999Y224497D01*
X538000D01*
X539500D01*
Y222498D01*
X540499Y227496D02*
X540999Y226997D01*
Y225997D01*
X540499Y225497D01*
X538500D01*
X538000Y225997D01*
Y226997D01*
X538500Y227496D01*
X539500D01*
Y226497D01*
X538000Y228496D02*
X540999D01*
X538000Y230496D01*
X540999D01*
Y231495D02*
X538000D01*
Y232995D01*
X538500Y233494D01*
X540499D01*
X540999Y232995D01*
Y231495D01*
X528500Y219997D02*
X531499D01*
Y221497D01*
X530999Y221996D01*
X529999D01*
X529500Y221497D01*
Y219997D01*
X528500Y222996D02*
Y223996D01*
Y223496D01*
X531499D01*
X530999Y222996D01*
Y225495D02*
X531499Y225995D01*
Y226995D01*
X530999Y227495D01*
X530499D01*
X529999Y226995D01*
Y226495D01*
Y226995D01*
X529500Y227495D01*
X529000D01*
X528500Y226995D01*
Y225995D01*
X529000Y225495D01*
X518500Y219497D02*
X521499D01*
Y220997D01*
X520999Y221496D01*
X520000D01*
X519500Y220997D01*
Y219497D01*
X518500Y223996D02*
X521499D01*
X520000Y222496D01*
Y224496D01*
X520999Y225495D02*
X521499Y225995D01*
Y226995D01*
X520999Y227495D01*
X519000D01*
X518500Y226995D01*
Y225995D01*
X519000Y225495D01*
X520999D01*
X488500Y219497D02*
X491499D01*
Y220997D01*
X490999Y221496D01*
X489999D01*
X489500Y220997D01*
Y219497D01*
X491499Y224496D02*
Y222496D01*
X489999D01*
X490499Y223496D01*
Y223996D01*
X489999Y224496D01*
X489000D01*
X488500Y223996D01*
Y222996D01*
X489000Y222496D01*
X491499Y227495D02*
X490999Y226495D01*
X489999Y225495D01*
X489000D01*
X488500Y225995D01*
Y226995D01*
X489000Y227495D01*
X489500D01*
X489999Y226995D01*
Y225495D01*
X468500Y219497D02*
X471499D01*
Y220997D01*
X470999Y221496D01*
X470000D01*
X469500Y220997D01*
Y219497D01*
X470999Y222496D02*
X471499Y222996D01*
Y223996D01*
X470999Y224496D01*
X470499D01*
X470000Y223996D01*
Y223496D01*
Y223996D01*
X469500Y224496D01*
X469000D01*
X468500Y223996D01*
Y222996D01*
X469000Y222496D01*
X471499Y225495D02*
Y227495D01*
X470999D01*
X469000Y225495D01*
X468500D01*
X458500Y219497D02*
X461499D01*
Y220997D01*
X460999Y221496D01*
X460000D01*
X459500Y220997D01*
Y219497D01*
X460999Y222496D02*
X461499Y222996D01*
Y223996D01*
X460999Y224496D01*
X460499D01*
X460000Y223996D01*
Y223496D01*
Y223996D01*
X459500Y224496D01*
X459000D01*
X458500Y223996D01*
Y222996D01*
X459000Y222496D01*
X461499Y227495D02*
Y225495D01*
X460000D01*
X460499Y226495D01*
Y226995D01*
X460000Y227495D01*
X459000D01*
X458500Y226995D01*
Y225995D01*
X459000Y225495D01*
X208500Y222496D02*
X211499D01*
X208500Y224496D01*
X211499D01*
X210999Y227495D02*
X211499Y226995D01*
Y225995D01*
X210999Y225495D01*
X209000D01*
X208500Y225995D01*
Y226995D01*
X209000Y227495D01*
X218500Y222496D02*
X221499D01*
X218500Y224496D01*
X221499D01*
X220999Y227495D02*
X221499Y226995D01*
Y225995D01*
X220999Y225495D01*
X219000D01*
X218500Y225995D01*
Y226995D01*
X219000Y227495D01*
X238500Y219497D02*
X241499D01*
Y220997D01*
X240999Y221496D01*
X240000D01*
X239500Y220997D01*
Y219497D01*
X238500Y224496D02*
Y222496D01*
X240499Y224496D01*
X240999D01*
X241499Y223996D01*
Y222996D01*
X240999Y222496D01*
X238500Y227495D02*
Y225495D01*
X240499Y227495D01*
X240999D01*
X241499Y226995D01*
Y225995D01*
X240999Y225495D01*
X268500Y219497D02*
X271499D01*
Y220997D01*
X270999Y221496D01*
X270000D01*
X269500Y220997D01*
Y219497D01*
X268500Y224496D02*
Y222496D01*
X270499Y224496D01*
X270999D01*
X271499Y223996D01*
Y222996D01*
X270999Y222496D01*
X269000Y225495D02*
X268500Y225995D01*
Y226995D01*
X269000Y227495D01*
X270999D01*
X271499Y226995D01*
Y225995D01*
X270999Y225495D01*
X270499D01*
X270000Y225995D01*
Y227495D01*
X278500Y219497D02*
X281499D01*
Y220997D01*
X280999Y221496D01*
X279999D01*
X279500Y220997D01*
Y219497D01*
X278500Y224496D02*
Y222496D01*
X280499Y224496D01*
X280999D01*
X281499Y223996D01*
Y222996D01*
X280999Y222496D01*
Y225495D02*
X281499Y225995D01*
Y226995D01*
X280999Y227495D01*
X280499D01*
X279999Y226995D01*
X279500Y227495D01*
X279000D01*
X278500Y226995D01*
Y225995D01*
X279000Y225495D01*
X279500D01*
X279999Y225995D01*
X280499Y225495D01*
X280999D01*
X279999Y225995D02*
Y226995D01*
X288000Y216500D02*
X290999D01*
Y218000D01*
X290499Y218499D01*
X289499D01*
X289000Y218000D01*
Y216500D01*
X290499Y221498D02*
X290999Y220999D01*
Y219999D01*
X290499Y219499D01*
X288500D01*
X288000Y219999D01*
Y220999D01*
X288500Y221498D01*
X289499D01*
Y220499D01*
X288000Y222498D02*
X289999D01*
X290999Y223498D01*
X289999Y224497D01*
X288000D01*
X289499D01*
Y222498D01*
X290499Y227496D02*
X290999Y226997D01*
Y225997D01*
X290499Y225497D01*
X288500D01*
X288000Y225997D01*
Y226997D01*
X288500Y227496D01*
X289499D01*
Y226497D01*
X288000Y228496D02*
X290999D01*
X288000Y230496D01*
X290999D01*
Y231495D02*
X288000D01*
Y232995D01*
X288500Y233494D01*
X290499D01*
X290999Y232995D01*
Y231495D01*
X203000Y165165D02*
X204999D01*
X205999Y166165D01*
X204999Y167164D01*
X203000D01*
X204500D01*
Y165165D01*
X203000Y168164D02*
X204999D01*
X205999Y169164D01*
X204999Y170163D01*
X203000D01*
X204500D01*
Y168164D01*
X205499Y171163D02*
X205999Y171663D01*
Y172662D01*
X205499Y173162D01*
X203500D01*
X203000Y172662D01*
Y171663D01*
X203500Y171163D01*
X205499D01*
X203000Y174162D02*
X204999Y176161D01*
X205999Y177161D02*
X203000D01*
Y178661D01*
X203500Y179160D01*
X205499D01*
X205999Y178661D01*
Y177161D01*
X203000Y180160D02*
X204999D01*
X205999Y181160D01*
X204999Y182159D01*
X203000D01*
X204500D01*
Y180160D01*
X205499Y185158D02*
X205999Y184659D01*
Y183659D01*
X205499Y183159D01*
X203500D01*
X203000Y183659D01*
Y184659D01*
X203500Y185158D01*
X203000Y186158D02*
X204999D01*
X205999Y187158D01*
X204999Y188157D01*
X203000D01*
X204500D01*
Y186158D01*
X248000Y181160D02*
X249999D01*
X250999Y182159D01*
X249999Y183159D01*
X248000D01*
X249500D01*
Y181160D01*
X250499Y186158D02*
X250999Y185658D01*
Y184659D01*
X250499Y184159D01*
X248500D01*
X248000Y184659D01*
Y185658D01*
X248500Y186158D01*
X248000Y187158D02*
Y188157D01*
Y187658D01*
X250999D01*
X250499Y187158D01*
X278000Y180160D02*
X279999D01*
X280999Y181160D01*
X279999Y182159D01*
X278000D01*
X279500D01*
Y180160D01*
X278000Y183159D02*
X279999D01*
X280999Y184159D01*
X279999Y185158D01*
X278000D01*
X279500D01*
Y183159D01*
X280999Y188157D02*
X280499Y187158D01*
X279500Y186158D01*
X278500D01*
X278000Y186658D01*
Y187658D01*
X278500Y188157D01*
X279000D01*
X279500Y187658D01*
Y186158D01*
X288000Y9688D02*
X290999D01*
Y11187D01*
X290499Y11687D01*
X289499D01*
X289000Y11187D01*
Y9688D01*
X288000Y14686D02*
Y12687D01*
X289999Y14686D01*
X290499D01*
X290999Y14187D01*
Y13187D01*
X290499Y12687D01*
X290999Y15686D02*
Y17685D01*
X290499D01*
X288500Y15686D01*
X288000D01*
X278000Y12687D02*
X280999D01*
X278000Y14686D01*
X280999D01*
X280499Y17685D02*
X280999Y17186D01*
Y16186D01*
X280499Y15686D01*
X278500D01*
X278000Y16186D01*
Y17186D01*
X278500Y17685D01*
X268000Y12687D02*
X270999D01*
X268000Y14686D01*
X270999D01*
X270499Y17685D02*
X270999Y17186D01*
Y16186D01*
X270499Y15686D01*
X268500D01*
X268000Y16186D01*
Y17186D01*
X268500Y17685D01*
X260999Y9688D02*
X258000Y11687D01*
X260999D02*
X258000Y9688D01*
Y12687D02*
X260999D01*
Y14187D01*
X260499Y14686D01*
X259500D01*
X259000Y14187D01*
Y12687D01*
Y13687D02*
X258000Y14686D01*
X260499Y17685D02*
X260999Y17186D01*
Y16186D01*
X260499Y15686D01*
X259999D01*
X259500Y16186D01*
Y17186D01*
X259000Y17685D01*
X258500D01*
X258000Y17186D01*
Y16186D01*
X258500Y15686D01*
X258000Y18685D02*
X259999D01*
Y20185D01*
X259500Y20684D01*
X258000D01*
X248000Y9688D02*
X250999D01*
Y11187D01*
X250499Y11687D01*
X249500D01*
X249000Y11187D01*
Y9688D01*
X248000Y14686D02*
Y12687D01*
X249999Y14686D01*
X250499D01*
X250999Y14187D01*
Y13187D01*
X250499Y12687D01*
X248000Y17186D02*
X250999D01*
X249500Y15686D01*
Y17685D01*
X238000Y9688D02*
X240999D01*
Y11187D01*
X240499Y11687D01*
X239499D01*
X239000Y11187D01*
Y9688D01*
X240499Y12687D02*
X240999Y13187D01*
Y14187D01*
X240499Y14686D01*
X239999D01*
X239499Y14187D01*
Y13687D01*
Y14187D01*
X239000Y14686D01*
X238500D01*
X238000Y14187D01*
Y13187D01*
X238500Y12687D01*
X238000Y15686D02*
Y16686D01*
Y16186D01*
X240999D01*
X240499Y15686D01*
X228000Y9688D02*
X230999D01*
Y11187D01*
X230499Y11687D01*
X229500D01*
X229000Y11187D01*
Y9688D01*
X230499Y12687D02*
X230999Y13187D01*
Y14187D01*
X230499Y14686D01*
X229999D01*
X229500Y14187D01*
Y13687D01*
Y14187D01*
X229000Y14686D01*
X228500D01*
X228000Y14187D01*
Y13187D01*
X228500Y12687D01*
X230499Y15686D02*
X230999Y16186D01*
Y17186D01*
X230499Y17685D01*
X229999D01*
X229500Y17186D01*
Y16686D01*
Y17186D01*
X229000Y17685D01*
X228500D01*
X228000Y17186D01*
Y16186D01*
X228500Y15686D01*
X218000Y9688D02*
X220999D01*
Y11187D01*
X220499Y11687D01*
X219499D01*
X219000Y11187D01*
Y9688D01*
X220499Y12687D02*
X220999Y13187D01*
Y14187D01*
X220499Y14686D01*
X219999D01*
X219499Y14187D01*
Y13687D01*
Y14187D01*
X219000Y14686D01*
X218500D01*
X218000Y14187D01*
Y13187D01*
X218500Y12687D01*
X218000Y17186D02*
X220999D01*
X219499Y15686D01*
Y17685D01*
X208000Y9688D02*
X210999D01*
Y11187D01*
X210499Y11687D01*
X209500D01*
X209000Y11187D01*
Y9688D01*
X208000Y12687D02*
Y13687D01*
Y13187D01*
X210999D01*
X210499Y12687D01*
X208000Y17186D02*
Y15186D01*
X209999Y17186D01*
X210499D01*
X210999Y16686D01*
Y15686D01*
X210499Y15186D01*
X298866Y48017D02*
X301865D01*
Y49517D01*
X301365Y50017D01*
X300365D01*
X299865Y49517D01*
Y48017D01*
X301365Y51016D02*
X301865Y51516D01*
Y52516D01*
X301365Y53016D01*
X299365D01*
X298866Y52516D01*
Y51516D01*
X299365Y51016D01*
X301365D01*
Y54015D02*
X301865Y54515D01*
Y55515D01*
X301365Y56015D01*
X299365D01*
X298866Y55515D01*
Y54515D01*
X299365Y54015D01*
X301365D01*
X288366Y49017D02*
X291365D01*
Y50517D01*
X290865Y51016D01*
X289865D01*
X289365Y50517D01*
Y49017D01*
X290865Y52016D02*
X291365Y52516D01*
Y53516D01*
X290865Y54015D01*
X288865D01*
X288366Y53516D01*
Y52516D01*
X288865Y52016D01*
X290865D01*
X288366Y55015D02*
Y56015D01*
Y55515D01*
X291365D01*
X290865Y55015D01*
X278366Y48017D02*
X281365D01*
Y49517D01*
X280865Y50017D01*
X279865D01*
X279365Y49517D01*
Y48017D01*
X280865Y51016D02*
X281365Y51516D01*
Y52516D01*
X280865Y53016D01*
X278865D01*
X278366Y52516D01*
Y51516D01*
X278865Y51016D01*
X280865D01*
X281365Y56015D02*
X280865Y55015D01*
X279865Y54015D01*
X278865D01*
X278366Y54515D01*
Y55515D01*
X278865Y56015D01*
X279365D01*
X279865Y55515D01*
Y54015D01*
X267866Y48017D02*
X270865D01*
Y49517D01*
X270365Y50017D01*
X269365D01*
X268865Y49517D01*
Y48017D01*
X270365Y51016D02*
X270865Y51516D01*
Y52516D01*
X270365Y53016D01*
X268365D01*
X267866Y52516D01*
Y51516D01*
X268365Y51016D01*
X270365D01*
X270865Y54015D02*
Y56015D01*
X270365D01*
X268365Y54015D01*
X267866D01*
X258366Y48017D02*
X261365D01*
Y49517D01*
X260865Y50017D01*
X259865D01*
X259365Y49517D01*
Y48017D01*
X260865Y51016D02*
X261365Y51516D01*
Y52516D01*
X260865Y53016D01*
X258865D01*
X258366Y52516D01*
Y51516D01*
X258865Y51016D01*
X260865D01*
X258366Y56015D02*
Y54015D01*
X260365Y56015D01*
X260865D01*
X261365Y55515D01*
Y54515D01*
X260865Y54015D01*
X248366Y48017D02*
X251365D01*
Y49517D01*
X250865Y50017D01*
X249865D01*
X249365Y49517D01*
Y48017D01*
X250865Y51016D02*
X251365Y51516D01*
Y52516D01*
X250865Y53016D01*
X248865D01*
X248366Y52516D01*
Y51516D01*
X248865Y51016D01*
X250865D01*
Y54015D02*
X251365Y54515D01*
Y55515D01*
X250865Y56015D01*
X250365D01*
X249865Y55515D01*
Y55015D01*
Y55515D01*
X249365Y56015D01*
X248865D01*
X248366Y55515D01*
Y54515D01*
X248865Y54015D01*
X238366Y48017D02*
X241365D01*
Y49517D01*
X240865Y50017D01*
X239865D01*
X239365Y49517D01*
Y48017D01*
X238366Y53016D02*
Y51016D01*
X240365Y53016D01*
X240865D01*
X241365Y52516D01*
Y51516D01*
X240865Y51016D01*
X241365Y56015D02*
X240865Y55015D01*
X239865Y54015D01*
X238865D01*
X238366Y54515D01*
Y55515D01*
X238865Y56015D01*
X239365D01*
X239865Y55515D01*
Y54015D01*
X228366Y48517D02*
X231365D01*
Y50017D01*
X230865Y50517D01*
X229865D01*
X229365Y50017D01*
Y48517D01*
X228366Y51516D02*
Y52516D01*
Y52016D01*
X231365D01*
X230865Y51516D01*
X231365Y56015D02*
Y54015D01*
X229865D01*
X230365Y55015D01*
Y55515D01*
X229865Y56015D01*
X228865D01*
X228366Y55515D01*
Y54515D01*
X228865Y54015D01*
X218366Y48517D02*
X221365D01*
Y50017D01*
X220865Y50517D01*
X219865D01*
X219365Y50017D01*
Y48517D01*
X218366Y51516D02*
Y52516D01*
Y52016D01*
X221365D01*
X220865Y51516D01*
X218366Y55515D02*
X221365D01*
X219865Y54015D01*
Y56015D01*
X458000Y48017D02*
X460999D01*
Y49517D01*
X460499Y50017D01*
X459500D01*
X459000Y49517D01*
Y48017D01*
X458000Y53016D02*
Y51016D01*
X459999Y53016D01*
X460499D01*
X460999Y52516D01*
Y51516D01*
X460499Y51016D01*
X460999Y56015D02*
Y54015D01*
X459500D01*
X459999Y55015D01*
Y55515D01*
X459500Y56015D01*
X458500D01*
X458000Y55515D01*
Y54515D01*
X458500Y54015D01*
X468000Y48517D02*
X470999D01*
Y50017D01*
X470499Y50517D01*
X469499D01*
X469000Y50017D01*
Y48517D01*
X468000Y51516D02*
Y52516D01*
Y52016D01*
X470999D01*
X470499Y51516D01*
Y54015D02*
X470999Y54515D01*
Y55515D01*
X470499Y56015D01*
X469999D01*
X469499Y55515D01*
X469000Y56015D01*
X468500D01*
X468000Y55515D01*
Y54515D01*
X468500Y54015D01*
X469000D01*
X469499Y54515D01*
X469999Y54015D01*
X470499D01*
X469499Y54515D02*
Y55515D01*
X478000Y48017D02*
X480999D01*
Y49517D01*
X480499Y50017D01*
X479499D01*
X479000Y49517D01*
Y48017D01*
X480499Y51016D02*
X480999Y51516D01*
Y52516D01*
X480499Y53016D01*
X479999D01*
X479499Y52516D01*
Y52016D01*
Y52516D01*
X479000Y53016D01*
X478500D01*
X478000Y52516D01*
Y51516D01*
X478500Y51016D01*
X480499Y54015D02*
X480999Y54515D01*
Y55515D01*
X480499Y56015D01*
X478500D01*
X478000Y55515D01*
Y54515D01*
X478500Y54015D01*
X480499D01*
X488000Y48017D02*
X490999D01*
Y49517D01*
X490499Y50017D01*
X489500D01*
X489000Y49517D01*
Y48017D01*
X490999Y53016D02*
Y51016D01*
X489500D01*
X489999Y52016D01*
Y52516D01*
X489500Y53016D01*
X488500D01*
X488000Y52516D01*
Y51516D01*
X488500Y51016D01*
X490499Y54015D02*
X490999Y54515D01*
Y55515D01*
X490499Y56015D01*
X489999D01*
X489500Y55515D01*
X489000Y56015D01*
X488500D01*
X488000Y55515D01*
Y54515D01*
X488500Y54015D01*
X489000D01*
X489500Y54515D01*
X489999Y54015D01*
X490499D01*
X489500Y54515D02*
Y55515D01*
X498000Y48017D02*
X500999D01*
Y49517D01*
X500499Y50017D01*
X499500D01*
X499000Y49517D01*
Y48017D01*
X500499Y51016D02*
X500999Y51516D01*
Y52516D01*
X500499Y53016D01*
X498500D01*
X498000Y52516D01*
Y51516D01*
X498500Y51016D01*
X500499D01*
X500999Y56015D02*
Y54015D01*
X499500D01*
X499999Y55015D01*
Y55515D01*
X499500Y56015D01*
X498500D01*
X498000Y55515D01*
Y54515D01*
X498500Y54015D01*
X508000Y48017D02*
X510999D01*
Y49517D01*
X510499Y50017D01*
X509500D01*
X509000Y49517D01*
Y48017D01*
X510499Y51016D02*
X510999Y51516D01*
Y52516D01*
X510499Y53016D01*
X508500D01*
X508000Y52516D01*
Y51516D01*
X508500Y51016D01*
X510499D01*
X508000Y55515D02*
X510999D01*
X509500Y54015D01*
Y56015D01*
X518000Y48017D02*
X520999D01*
Y49517D01*
X520499Y50017D01*
X519499D01*
X519000Y49517D01*
Y48017D01*
X520499Y51016D02*
X520999Y51516D01*
Y52516D01*
X520499Y53016D01*
X518500D01*
X518000Y52516D01*
Y51516D01*
X518500Y51016D01*
X520499D01*
X518500Y54015D02*
X518000Y54515D01*
Y55515D01*
X518500Y56015D01*
X520499D01*
X520999Y55515D01*
Y54515D01*
X520499Y54015D01*
X519999D01*
X519499Y54515D01*
Y56015D01*
X528500Y48017D02*
X531499D01*
Y49517D01*
X530999Y50017D01*
X529999D01*
X529500Y49517D01*
Y48017D01*
X530999Y51016D02*
X531499Y51516D01*
Y52516D01*
X530999Y53016D01*
X529000D01*
X528500Y52516D01*
Y51516D01*
X529000Y51016D01*
X530999D01*
Y54015D02*
X531499Y54515D01*
Y55515D01*
X530999Y56015D01*
X530499D01*
X529999Y55515D01*
X529500Y56015D01*
X529000D01*
X528500Y55515D01*
Y54515D01*
X529000Y54015D01*
X529500D01*
X529999Y54515D01*
X530499Y54015D01*
X530999D01*
X529999Y54515D02*
Y55515D01*
X538500Y49517D02*
X541499D01*
Y51016D01*
X540999Y51516D01*
X539999D01*
X539500Y51016D01*
Y49517D01*
X538500Y52516D02*
Y53516D01*
Y53016D01*
X541499D01*
X540999Y52516D01*
X538500Y55015D02*
Y56015D01*
Y55515D01*
X541499D01*
X540999Y55015D01*
X548000Y48517D02*
X550999D01*
Y50017D01*
X550499Y50517D01*
X549500D01*
X549000Y50017D01*
Y48517D01*
X548000Y51516D02*
Y52516D01*
Y52016D01*
X550999D01*
X550499Y51516D01*
Y54015D02*
X550999Y54515D01*
Y55515D01*
X550499Y56015D01*
X548500D01*
X548000Y55515D01*
Y54515D01*
X548500Y54015D01*
X550499D01*
X458000Y9688D02*
X460999D01*
Y11187D01*
X460499Y11687D01*
X459500D01*
X459000Y11187D01*
Y9688D01*
X460999Y14686D02*
Y12687D01*
X459500D01*
X459999Y13687D01*
Y14187D01*
X459500Y14686D01*
X458500D01*
X458000Y14187D01*
Y13187D01*
X458500Y12687D01*
Y15686D02*
X458000Y16186D01*
Y17186D01*
X458500Y17685D01*
X460499D01*
X460999Y17186D01*
Y16186D01*
X460499Y15686D01*
X459999D01*
X459500Y16186D01*
Y17685D01*
X468000Y9688D02*
X470999D01*
Y11187D01*
X470499Y11687D01*
X469499D01*
X469000Y11187D01*
Y9688D01*
X468000Y14686D02*
Y12687D01*
X469999Y14686D01*
X470499D01*
X470999Y14187D01*
Y13187D01*
X470499Y12687D01*
Y15686D02*
X470999Y16186D01*
Y17186D01*
X470499Y17685D01*
X469999D01*
X469499Y17186D01*
Y16686D01*
Y17186D01*
X469000Y17685D01*
X468500D01*
X468000Y17186D01*
Y16186D01*
X468500Y15686D01*
X478000Y9688D02*
X480999D01*
Y11187D01*
X480499Y11687D01*
X479499D01*
X479000Y11187D01*
Y9688D01*
X480499Y12687D02*
X480999Y13187D01*
Y14187D01*
X480499Y14686D01*
X479999D01*
X479499Y14187D01*
Y13687D01*
Y14187D01*
X479000Y14686D01*
X478500D01*
X478000Y14187D01*
Y13187D01*
X478500Y12687D01*
Y15686D02*
X478000Y16186D01*
Y17186D01*
X478500Y17685D01*
X480499D01*
X480999Y17186D01*
Y16186D01*
X480499Y15686D01*
X479999D01*
X479499Y16186D01*
Y17685D01*
X488000Y9688D02*
X490999D01*
Y11187D01*
X490499Y11687D01*
X489500D01*
X489000Y11187D01*
Y9688D01*
X488000Y12687D02*
Y13687D01*
Y13187D01*
X490999D01*
X490499Y12687D01*
X490999Y15186D02*
Y17186D01*
X490499D01*
X488500Y15186D01*
X488000D01*
X498000Y9688D02*
X500999D01*
Y11187D01*
X500499Y11687D01*
X499500D01*
X499000Y11187D01*
Y9688D01*
X498000Y12687D02*
Y13687D01*
Y13187D01*
X500999D01*
X500499Y12687D01*
X500999Y17186D02*
X500499Y16186D01*
X499500Y15186D01*
X498500D01*
X498000Y15686D01*
Y16686D01*
X498500Y17186D01*
X499000D01*
X499500Y16686D01*
Y15186D01*
X510999Y9688D02*
X508000Y11687D01*
X510999D02*
X508000Y9688D01*
Y12687D02*
X510999D01*
Y14187D01*
X510499Y14686D01*
X509500D01*
X509000Y14187D01*
Y12687D01*
Y13687D02*
X508000Y14686D01*
X510499Y17685D02*
X510999Y17186D01*
Y16186D01*
X510499Y15686D01*
X509999D01*
X509500Y16186D01*
Y17186D01*
X509000Y17685D01*
X508500D01*
X508000Y17186D01*
Y16186D01*
X508500Y15686D01*
X508000Y18685D02*
X509999D01*
Y20185D01*
X509500Y20684D01*
X508000D01*
X518000Y12687D02*
X520999D01*
X518000Y14686D01*
X520999D01*
X520499Y17685D02*
X520999Y17186D01*
Y16186D01*
X520499Y15686D01*
X518500D01*
X518000Y16186D01*
Y17186D01*
X518500Y17685D01*
X528500Y12687D02*
X531499D01*
X528500Y14686D01*
X531499D01*
X530999Y17685D02*
X531499Y17186D01*
Y16186D01*
X530999Y15686D01*
X529000D01*
X528500Y16186D01*
Y17186D01*
X529000Y17685D01*
X538000Y9688D02*
X540999D01*
Y11187D01*
X540499Y11687D01*
X539500D01*
X539000Y11187D01*
Y9688D01*
X540999Y14686D02*
Y12687D01*
X539500D01*
X539999Y13687D01*
Y14187D01*
X539500Y14686D01*
X538500D01*
X538000Y14187D01*
Y13187D01*
X538500Y12687D01*
X540999Y15686D02*
Y17685D01*
X540499D01*
X538500Y15686D01*
X538000D01*
X312999Y27999D02*
X312499Y27000D01*
X311500Y26000D01*
X310500D01*
X310000Y26500D01*
Y27499D01*
X310500Y27999D01*
X311000D01*
X311500Y27499D01*
Y26000D01*
X312499Y28999D02*
X312999Y29499D01*
Y30499D01*
X312499Y30998D01*
X310500D01*
X310000Y30499D01*
Y29499D01*
X310500Y28999D01*
X312499D01*
Y37000D02*
X312999Y37500D01*
Y38500D01*
X312499Y38999D01*
X311999D01*
X311500Y38500D01*
X311000Y38999D01*
X310500D01*
X310000Y38500D01*
Y37500D01*
X310500Y37000D01*
X311000D01*
X311500Y37500D01*
X311999Y37000D01*
X312499D01*
X311500Y37500D02*
Y38500D01*
X312499Y39999D02*
X312999Y40499D01*
Y41499D01*
X312499Y41998D01*
X310500D01*
X310000Y41499D01*
Y40499D01*
X310500Y39999D01*
X312499D01*
X211999Y52016D02*
Y54015D01*
X211499D01*
X209500Y52016D01*
X209000D01*
Y55015D02*
Y56015D01*
Y55515D01*
X211999D01*
X211499Y55015D01*
X310000Y207500D02*
X312999D01*
X311500Y206000D01*
Y207999D01*
X310000Y208999D02*
Y209999D01*
Y209499D01*
X312999D01*
X312499Y208999D01*
X312999Y198999D02*
X312499Y198000D01*
X311500Y197000D01*
X310500D01*
X310000Y197500D01*
Y198500D01*
X310500Y198999D01*
X311000D01*
X311500Y198500D01*
Y197000D01*
X310000Y199999D02*
Y200999D01*
Y200499D01*
X312999D01*
X312499Y199999D01*
X201999Y208999D02*
Y207000D01*
X200500D01*
X200999Y208000D01*
Y208500D01*
X200500Y208999D01*
X199500D01*
X199000Y208500D01*
Y207500D01*
X199500Y207000D01*
X201499Y209999D02*
X201999Y210499D01*
Y211498D01*
X201499Y211998D01*
X199500D01*
X199000Y211498D01*
Y210499D01*
X199500Y209999D01*
X201499D01*
X201999Y197000D02*
Y198999D01*
X201499D01*
X199500Y197000D01*
X199000D01*
X201499Y199999D02*
X201999Y200499D01*
Y201499D01*
X201499Y201998D01*
X199500D01*
X199000Y201499D01*
Y200499D01*
X199500Y199999D01*
X201499D01*
X451499Y37000D02*
X451999Y37500D01*
Y38500D01*
X451499Y38999D01*
X450999D01*
X450499Y38500D01*
Y38000D01*
Y38500D01*
X450000Y38999D01*
X449500D01*
X449000Y38500D01*
Y37500D01*
X449500Y37000D01*
X449000Y39999D02*
Y40999D01*
Y40499D01*
X451999D01*
X451499Y39999D01*
X449000Y27000D02*
Y28000D01*
Y27500D01*
X451999D01*
X451499Y27000D01*
X449000Y29499D02*
Y30499D01*
Y29999D01*
X451999D01*
X451499Y29499D01*
X560305Y37499D02*
X563304D01*
X561805Y36000D01*
Y37999D01*
X562804Y38999D02*
X563304Y39499D01*
Y40499D01*
X562804Y40998D01*
X560805D01*
X560305Y40499D01*
Y39499D01*
X560805Y38999D01*
X562804D01*
X560305Y28499D02*
Y26500D01*
X562305Y28499D01*
X562804D01*
X563304Y27999D01*
Y27000D01*
X562804Y26500D01*
Y29499D02*
X563304Y29999D01*
Y30999D01*
X562804Y31498D01*
X560805D01*
X560305Y30999D01*
Y29999D01*
X560805Y29499D01*
X562804D01*
X450999Y196000D02*
X451499Y196500D01*
Y197500D01*
X450999Y197999D01*
X450499D01*
X450000Y197500D01*
Y197000D01*
Y197500D01*
X449500Y197999D01*
X449000D01*
X448500Y197500D01*
Y196500D01*
X449000Y196000D01*
X450999Y198999D02*
X451499Y199499D01*
Y200499D01*
X450999Y200998D01*
X449000D01*
X448500Y200499D01*
Y199499D01*
X449000Y198999D01*
X450999D01*
X448500Y207000D02*
Y208000D01*
Y207500D01*
X451499D01*
X450999Y207000D01*
Y209499D02*
X451499Y209999D01*
Y210999D01*
X450999Y211498D01*
X449000D01*
X448500Y210999D01*
Y209999D01*
X449000Y209499D01*
X450999D01*
X559500Y199499D02*
Y197500D01*
X561499Y199499D01*
X561999D01*
X562499Y199000D01*
Y198000D01*
X561999Y197500D01*
X559500Y200499D02*
Y201499D01*
Y200999D01*
X562499D01*
X561999Y200499D01*
X559500Y208500D02*
Y209500D01*
Y209000D01*
X562499D01*
X561999Y208500D01*
X290999Y182159D02*
X291499Y181660D01*
Y180660D01*
X290999Y180160D01*
X289000D01*
X288500Y180660D01*
Y181660D01*
X289000Y182159D01*
X290000D01*
Y181160D01*
X288500Y183159D02*
X291499D01*
X288500Y185158D01*
X291499D01*
Y186158D02*
X288500D01*
Y187658D01*
X289000Y188157D01*
X290999D01*
X291499Y187658D01*
Y186158D01*
X301304Y185158D02*
Y183159D01*
X299805D01*
X300305Y184159D01*
Y184659D01*
X299805Y185158D01*
X298805D01*
X298305Y184659D01*
Y183659D01*
X298805Y183159D01*
X301304Y186158D02*
X299305D01*
X298305Y187158D01*
X299305Y188157D01*
X301304D01*
X301499Y219497D02*
X301999Y219997D01*
Y220997D01*
X301499Y221496D01*
X300999D01*
X300500Y220997D01*
Y220497D01*
Y220997D01*
X300000Y221496D01*
X299500D01*
X299000Y220997D01*
Y219997D01*
X299500Y219497D01*
X301999Y222496D02*
X300000D01*
X299000Y223496D01*
X300000Y224496D01*
X301999D01*
X301499Y225495D02*
X301999Y225995D01*
Y226995D01*
X301499Y227495D01*
X300999D01*
X300500Y226995D01*
Y226495D01*
Y226995D01*
X300000Y227495D01*
X299500D01*
X299000Y226995D01*
Y225995D01*
X299500Y225495D01*
X540999Y182159D02*
X541499Y181660D01*
Y180660D01*
X540999Y180160D01*
X539000D01*
X538500Y180660D01*
Y181660D01*
X539000Y182159D01*
X539999D01*
Y181160D01*
X538500Y183159D02*
X541499D01*
X538500Y185158D01*
X541499D01*
Y186158D02*
X538500D01*
Y187658D01*
X539000Y188157D01*
X540999D01*
X541499Y187658D01*
Y186158D01*
X551304Y185158D02*
Y183159D01*
X549805D01*
X550305Y184159D01*
Y184659D01*
X549805Y185158D01*
X548805D01*
X548305Y184659D01*
Y183659D01*
X548805Y183159D01*
X551304Y186158D02*
X549305D01*
X548305Y187158D01*
X549305Y188157D01*
X551304D01*
X551499Y219497D02*
X551999Y219997D01*
Y220997D01*
X551499Y221496D01*
X550999D01*
X550499Y220997D01*
Y220497D01*
Y220997D01*
X550000Y221496D01*
X549500D01*
X549000Y220997D01*
Y219997D01*
X549500Y219497D01*
X551999Y222496D02*
X550000D01*
X549000Y223496D01*
X550000Y224496D01*
X551999D01*
X551499Y225495D02*
X551999Y225995D01*
Y226995D01*
X551499Y227495D01*
X550999D01*
X550499Y226995D01*
Y226495D01*
Y226995D01*
X550000Y227495D01*
X549500D01*
X549000Y226995D01*
Y225995D01*
X549500Y225495D01*
X551304Y11687D02*
X551804Y11187D01*
Y10188D01*
X551304Y9688D01*
X549305D01*
X548805Y10188D01*
Y11187D01*
X549305Y11687D01*
X550305D01*
Y10688D01*
X548805Y12687D02*
X551804D01*
X548805Y14686D01*
X551804D01*
Y15686D02*
X548805D01*
Y17186D01*
X549305Y17685D01*
X551304D01*
X551804Y17186D01*
Y15686D01*
X300804Y11687D02*
X301304Y11187D01*
Y10188D01*
X300804Y9688D01*
X298805D01*
X298305Y10188D01*
Y11187D01*
X298805Y11687D01*
X299805D01*
Y10688D01*
X298305Y12687D02*
X301304D01*
X298305Y14686D01*
X301304D01*
Y15686D02*
X298305D01*
Y17186D01*
X298805Y17685D01*
X300804D01*
X301304Y17186D01*
Y15686D01*
X200345Y37239D02*
Y39238D01*
X199845D01*
X197845Y37239D01*
X197346D01*
Y40238D02*
Y41238D01*
Y40738D01*
X200345D01*
X199845Y40238D01*
X197500Y22188D02*
X200499D01*
Y23687D01*
X199999Y24187D01*
X199000D01*
X198500Y23687D01*
Y22188D01*
X197500Y25187D02*
Y26187D01*
Y25687D01*
X200499D01*
X199999Y25187D01*
X197500Y29686D02*
Y27686D01*
X199499Y29686D01*
X199999D01*
X200499Y29186D01*
Y28186D01*
X199999Y27686D01*
D124*
X408465Y29000D02*
G03*
X409252Y29000I394J0D01*
G01*
D02*
G03*
X408465Y29000I-394J0D01*
G01*
D125*
X481174Y373410D02*
X502827D01*
X482174Y408945D02*
X503827D01*
X483174Y444945D02*
X504827D01*
D126*
X557984Y274921D02*
D03*
X539004Y394674D02*
D03*
X540013Y359268D02*
D03*
X540002Y429673D02*
D03*
M02*
