M48
;Layer_Color=9474304
;FILE_FORMAT=2:5
INCH,LZ
;TYPE=PLATED
T1F00S00C0.02756
T2F00S00C0.02800
T3F00S00C0.02874
T4F00S00C0.02953
T5F00S00C0.03346
T7F00S00C0.04016
T8F00S00C0.04173
T9F00S00C0.04400
T10F00S00C0.04528
T11F00S00C0.05118
T12F00S00C0.05433
T13F00S00C0.05512
T14F00S00C0.05906
T15F00S00C0.06890
T16F00S00C0.07087
T17F00S00C0.07874
;TYPE=NON_PLATED
T18F00S00C0.16700
%
T01
X0281Y0319
X0311024
X026Y0406988
Y0437012
T02
X0146Y0052
X0323Y0011
X0422Y0006
X0593Y0037
Y0048
Y0059
Y007
Y0083
Y0095
X0565Y0112
X057Y0127
X0566Y0154
X0561Y0162
X0532Y0159
X0545Y0104
X054Y0079
X055
X0573Y02
X0476Y0176
X0436Y0183
X0464Y0103
X0469Y0077
X0458
X0499Y0079
X051Y0078
X0504Y0102
X0146Y0068
Y006
X011Y0072
X0089Y0063
X0068Y0062
X0044Y0063
X0009Y0086
X0019Y0126
X0011Y0192
X001Y0223
X005Y027
X0062Y0262
X008Y027
X0098Y0237
X0073Y0317
X0216Y0295
X0213Y0245
X0385Y0235
X0418Y0215
X0436Y0222
X0418Y0325
X0594Y0337
Y0288
X0586Y0295
X059Y0372
X0595Y0454
X0584
Y0466
X0595
X0552Y0463
X0541Y0456
X0526Y0463
X056132Y0491893
X0429Y0487
X042Y0471
X04325Y0459
X0437Y0402
X0381Y0438
X0355Y0437
X0313Y0406
X0302Y0405
X0283Y04
X0324Y0389
X0155Y0495
T03
X0459Y013237
X0469
X0479
X0489
Y016363
X0479
X0469
X0459
X018163Y0178
Y0188
Y0198
Y0208
X015037
Y0198
Y0188
Y0178
T04
X0292Y0376
X0311685
X0283Y0446315
Y0466
X0292685Y0485
X0273
T05
X0064Y0361
X007778
X0362Y0345
Y0294
X0381685
Y0345
Y0398
X0362
T07
X021Y0029
Y0039
X022
Y0029
X023
X024
X025
X026
X027
X028
X029
X03
Y0039
X029
X028
X027
X026
X025
X024
X023
X046
Y0029
X047
X048
X049
X05
X051
X052
Y0039
X051
X05
X049
X048
X047
X053
Y0029
X054
X055
Y0039
X054
Y0199
X053
Y0209
X054
X055
Y0199
X052
X051
X05
X049
X048
X047
X046
Y0209
X047
X048
X049
X05
X051
X052
X03
Y0199
X029
X028
X027
X026
Y0209
X027
X028
X029
X025
Y0199
X024
X023
X022
Y0209
X023
X024
X021
Y0199
T08
X0326Y0435
X0335842Y0464528
T09
X0303Y04288
Y0486
T10
X0057Y0106
X0067
X0087
X0097
X0107
X0117
X0116Y0144
X0106
X0096
X0086
X0066
Y0184
X0086
X0096
X0106
X0116
X0056
X0046
Y0144
X0056
X0047Y0106
T11
X0046Y0017
X0066
X0086
X0106
X0126
X0355Y0029
X0375
X0395
X0381685Y0477
X0362
X0132Y0476
X0112315
T12
X0249Y0341
Y0351
Y0361
Y0436
Y0446
Y0456
T13
X047Y0457
X049
X051
Y0486724
X049
X047
T14
X0327Y0375402
Y0488
X0075Y0476
Y0387024
T15
X0032Y0279
Y0299
Y0319
Y0339
Y0359
X0172
Y0339
Y0319
Y0299
Y0279
Y0379
Y0399
Y0419
Y0439
X0032
Y0419
Y0399
Y0379
T16
X0449874Y0279252
Y0295
Y0310748
Y0340748
Y0370748
Y0400748
Y0430748
T17
X024Y032
Y037
Y0398346
Y0469606
T18
X00175Y00175
X058
X05825Y04825
X00175
M30
