G04*
G04 #@! TF.GenerationSoftware,Altium Limited,Altium Designer,21.2.2 (38)*
G04*
G04 Layer_Physical_Order=3*
G04 Layer_Color=16440176*
%FSLAX25Y25*%
%MOIN*%
G70*
G04*
G04 #@! TF.SameCoordinates,9089D698-1931-4360-AEFD-B440DD5BBD6E*
G04*
G04*
G04 #@! TF.FilePolarity,Positive*
G04*
G01*
G75*
%ADD43C,0.04724*%
%ADD51C,0.11811*%
%ADD52O,0.07874X0.05118*%
%ADD76C,0.07677*%
%ADD78C,0.04449*%
%ADD80C,0.06400*%
%ADD82C,0.06102*%
%ADD87C,0.05020*%
%ADD90C,0.06260*%
%ADD91C,0.08150*%
%ADD93C,0.06791*%
%ADD94C,0.05000*%
G36*
X600000Y500000D02*
X600000Y0D01*
X0D01*
Y500000D01*
X600000Y500000D01*
D02*
G37*
%LPC*%
G36*
X155461Y498500D02*
X154539D01*
X153649Y498261D01*
X152851Y497801D01*
X152199Y497149D01*
X151739Y496351D01*
X151500Y495461D01*
Y494539D01*
X151739Y493649D01*
X152199Y492851D01*
X152851Y492199D01*
X153649Y491739D01*
X154539Y491500D01*
X155461D01*
X156351Y491739D01*
X157149Y492199D01*
X157801Y492851D01*
X158262Y493649D01*
X158500Y494539D01*
Y495461D01*
X158262Y496351D01*
X157801Y497149D01*
X157149Y497801D01*
X156351Y498261D01*
X155461Y498500D01*
D02*
G37*
G36*
X561781Y495393D02*
X560860D01*
X559969Y495155D01*
X559171Y494694D01*
X558520Y494042D01*
X558059Y493244D01*
X557820Y492354D01*
Y491432D01*
X558059Y490542D01*
X558520Y489744D01*
X559171Y489092D01*
X559969Y488632D01*
X560860Y488393D01*
X561781D01*
X562671Y488632D01*
X563469Y489092D01*
X564121Y489744D01*
X564582Y490542D01*
X564820Y491432D01*
Y492354D01*
X564582Y493244D01*
X564121Y494042D01*
X563469Y494694D01*
X562671Y495155D01*
X561781Y495393D01*
D02*
G37*
G36*
X429500Y490489D02*
Y487500D01*
X432489D01*
X432262Y488351D01*
X431801Y489149D01*
X431149Y489801D01*
X430351Y490262D01*
X429500Y490489D01*
D02*
G37*
G36*
X428500D02*
X427649Y490262D01*
X426851Y489801D01*
X426199Y489149D01*
X425738Y488351D01*
X425511Y487500D01*
X428500D01*
Y490489D01*
D02*
G37*
G36*
X303553Y490200D02*
X303500D01*
Y486500D01*
X307200D01*
Y486553D01*
X306914Y487621D01*
X306361Y488579D01*
X305579Y489361D01*
X304621Y489914D01*
X303553Y490200D01*
D02*
G37*
G36*
X302500D02*
X302447D01*
X301379Y489914D01*
X300421Y489361D01*
X299639Y488579D01*
X299086Y487621D01*
X298800Y486553D01*
Y486500D01*
X302500D01*
Y490200D01*
D02*
G37*
G36*
X293185Y488347D02*
Y485500D01*
X296032D01*
X295818Y486298D01*
X295375Y487064D01*
X294749Y487690D01*
X293983Y488133D01*
X293185Y488347D01*
D02*
G37*
G36*
X292185D02*
X291387Y488133D01*
X290621Y487690D01*
X289995Y487064D01*
X289552Y486298D01*
X289338Y485500D01*
X292185D01*
Y488347D01*
D02*
G37*
G36*
X432489Y486500D02*
X429500D01*
Y483510D01*
X430351Y483739D01*
X431149Y484199D01*
X431801Y484851D01*
X432262Y485649D01*
X432489Y486500D01*
D02*
G37*
G36*
X428500D02*
X425511D01*
X425738Y485649D01*
X426199Y484851D01*
X426851Y484199D01*
X427649Y483739D01*
X428500Y483510D01*
Y486500D01*
D02*
G37*
G36*
X327715Y493429D02*
X326285D01*
X324904Y493059D01*
X323666Y492344D01*
X322656Y491334D01*
X321941Y490096D01*
X321571Y488715D01*
Y487285D01*
X321941Y485904D01*
X322656Y484666D01*
X323666Y483656D01*
X324904Y482941D01*
X326285Y482571D01*
X327715D01*
X329096Y482941D01*
X330334Y483656D01*
X331344Y484666D01*
X332059Y485904D01*
X332429Y487285D01*
Y488715D01*
X332059Y490096D01*
X331344Y491334D01*
X330334Y492344D01*
X329096Y493059D01*
X327715Y493429D01*
D02*
G37*
G36*
X307200Y485500D02*
X303500D01*
Y481800D01*
X303553D01*
X304621Y482086D01*
X305579Y482639D01*
X306361Y483421D01*
X306914Y484379D01*
X307200Y485447D01*
Y485500D01*
D02*
G37*
G36*
X302500D02*
X298800D01*
Y485447D01*
X299086Y484379D01*
X299639Y483421D01*
X300421Y482639D01*
X301379Y482086D01*
X302447Y481800D01*
X302500D01*
Y485500D01*
D02*
G37*
G36*
X296032Y484500D02*
X293185D01*
Y481653D01*
X293983Y481867D01*
X294749Y482310D01*
X295375Y482936D01*
X295818Y483702D01*
X296032Y484500D01*
D02*
G37*
G36*
X292185D02*
X289338D01*
X289552Y483702D01*
X289995Y482936D01*
X290621Y482310D01*
X291387Y481867D01*
X292185Y481653D01*
Y484500D01*
D02*
G37*
G36*
X273443Y488362D02*
X272557D01*
X271702Y488133D01*
X270936Y487690D01*
X270310Y487064D01*
X269867Y486298D01*
X269638Y485443D01*
Y484557D01*
X269867Y483702D01*
X270310Y482936D01*
X270936Y482310D01*
X271702Y481867D01*
X272557Y481638D01*
X273443D01*
X274298Y481867D01*
X275064Y482310D01*
X275690Y482936D01*
X276133Y483702D01*
X276362Y484557D01*
Y485443D01*
X276133Y486298D01*
X275690Y487064D01*
X275064Y487690D01*
X274298Y488133D01*
X273443Y488362D01*
D02*
G37*
G36*
X510676Y491858D02*
X509324D01*
X508018Y491508D01*
X506848Y490833D01*
X505892Y489877D01*
X505216Y488706D01*
X504866Y487400D01*
Y486049D01*
X505216Y484743D01*
X505892Y483572D01*
X506848Y482616D01*
X508018Y481940D01*
X509324Y481591D01*
X510676D01*
X511982Y481940D01*
X513152Y482616D01*
X514108Y483572D01*
X514784Y484743D01*
X515134Y486049D01*
Y487400D01*
X514784Y488706D01*
X514108Y489877D01*
X513152Y490833D01*
X511982Y491508D01*
X510676Y491858D01*
D02*
G37*
G36*
X490676D02*
X489324D01*
X488018Y491508D01*
X486848Y490833D01*
X485892Y489877D01*
X485216Y488706D01*
X484866Y487400D01*
Y486049D01*
X485216Y484743D01*
X485892Y483572D01*
X486848Y482616D01*
X488018Y481940D01*
X489324Y481591D01*
X490676D01*
X491982Y481940D01*
X493152Y482616D01*
X494108Y483572D01*
X494784Y484743D01*
X495134Y486049D01*
Y487400D01*
X494784Y488706D01*
X494108Y489877D01*
X493152Y490833D01*
X491982Y491508D01*
X490676Y491858D01*
D02*
G37*
G36*
X470676D02*
X469324D01*
X468018Y491508D01*
X466848Y490833D01*
X465892Y489877D01*
X465216Y488706D01*
X464866Y487400D01*
Y486049D01*
X465216Y484743D01*
X465892Y483572D01*
X466848Y482616D01*
X468018Y481940D01*
X469324Y481591D01*
X470676D01*
X471982Y481940D01*
X473152Y482616D01*
X474108Y483572D01*
X474784Y484743D01*
X475134Y486049D01*
Y487400D01*
X474784Y488706D01*
X474108Y489877D01*
X473152Y490833D01*
X471982Y491508D01*
X470676Y491858D01*
D02*
G37*
G36*
X382322Y481839D02*
X382185D01*
Y477500D01*
X386524D01*
Y477637D01*
X386194Y478868D01*
X385557Y479971D01*
X384656Y480872D01*
X383553Y481509D01*
X382322Y481839D01*
D02*
G37*
G36*
X381185D02*
X381048D01*
X379817Y481509D01*
X378714Y480872D01*
X377813Y479971D01*
X377176Y478868D01*
X376847Y477637D01*
Y477500D01*
X381185D01*
Y481839D01*
D02*
G37*
G36*
X132637Y480839D02*
X132500D01*
Y476500D01*
X136839D01*
Y476637D01*
X136509Y477868D01*
X135872Y478971D01*
X134971Y479872D01*
X133868Y480509D01*
X132637Y480839D01*
D02*
G37*
G36*
X131500D02*
X131363D01*
X130132Y480509D01*
X129029Y479872D01*
X128128Y478971D01*
X127491Y477868D01*
X127161Y476637D01*
Y476500D01*
X131500D01*
Y480839D01*
D02*
G37*
G36*
X583421Y491850D02*
X581579D01*
X579773Y491491D01*
X578071Y490786D01*
X576540Y489763D01*
X575237Y488460D01*
X574214Y486929D01*
X573509Y485227D01*
X573150Y483421D01*
Y481579D01*
X573509Y479773D01*
X574214Y478071D01*
X575237Y476540D01*
X576540Y475237D01*
X578071Y474214D01*
X579773Y473509D01*
X581579Y473150D01*
X583421D01*
X585227Y473509D01*
X586929Y474214D01*
X588460Y475237D01*
X589763Y476540D01*
X590786Y478071D01*
X591491Y479773D01*
X591850Y481579D01*
Y483421D01*
X591491Y485227D01*
X590786Y486929D01*
X589763Y488460D01*
X588460Y489763D01*
X586929Y490786D01*
X585227Y491491D01*
X583421Y491850D01*
D02*
G37*
G36*
X18421D02*
X16579D01*
X14773Y491491D01*
X13071Y490786D01*
X11540Y489763D01*
X10237Y488460D01*
X9214Y486929D01*
X8509Y485227D01*
X8150Y483421D01*
Y481579D01*
X8509Y479773D01*
X9214Y478071D01*
X10237Y476540D01*
X11540Y475237D01*
X13071Y474214D01*
X14773Y473509D01*
X16579Y473150D01*
X18421D01*
X20227Y473509D01*
X21929Y474214D01*
X23460Y475237D01*
X24763Y476540D01*
X25786Y478071D01*
X26491Y479773D01*
X26850Y481579D01*
Y483421D01*
X26491Y485227D01*
X25786Y486929D01*
X24763Y488460D01*
X23460Y489763D01*
X21929Y490786D01*
X20227Y491491D01*
X18421Y491850D01*
D02*
G37*
G36*
X386524Y476500D02*
X382185D01*
Y472161D01*
X382322D01*
X383553Y472491D01*
X384656Y473128D01*
X385557Y474029D01*
X386194Y475132D01*
X386524Y476363D01*
Y476500D01*
D02*
G37*
G36*
X381185D02*
X376847D01*
Y476363D01*
X377176Y475132D01*
X377813Y474029D01*
X378714Y473128D01*
X379817Y472491D01*
X381048Y472161D01*
X381185D01*
Y476500D01*
D02*
G37*
G36*
X362637Y481839D02*
X361363D01*
X360132Y481509D01*
X359029Y480872D01*
X358128Y479971D01*
X357491Y478868D01*
X357161Y477637D01*
Y476363D01*
X357491Y475132D01*
X358128Y474029D01*
X359029Y473128D01*
X360132Y472491D01*
X361363Y472161D01*
X362637D01*
X363868Y472491D01*
X364971Y473128D01*
X365872Y474029D01*
X366509Y475132D01*
X366839Y476363D01*
Y477637D01*
X366509Y478868D01*
X365872Y479971D01*
X364971Y480872D01*
X363868Y481509D01*
X362637Y481839D01*
D02*
G37*
G36*
X136839Y475500D02*
X132500D01*
Y471161D01*
X132637D01*
X133868Y471491D01*
X134971Y472128D01*
X135872Y473029D01*
X136509Y474132D01*
X136839Y475363D01*
Y475500D01*
D02*
G37*
G36*
X131500D02*
X127161D01*
Y475363D01*
X127491Y474132D01*
X128128Y473029D01*
X129029Y472128D01*
X130132Y471491D01*
X131363Y471161D01*
X131500D01*
Y475500D01*
D02*
G37*
G36*
X112952Y480839D02*
X111678D01*
X110447Y480509D01*
X109344Y479872D01*
X108443Y478971D01*
X107806Y477868D01*
X107476Y476637D01*
Y475363D01*
X107806Y474132D01*
X108443Y473029D01*
X109344Y472128D01*
X110447Y471491D01*
X111678Y471161D01*
X112952D01*
X114183Y471491D01*
X115286Y472128D01*
X116187Y473029D01*
X116824Y474132D01*
X117154Y475363D01*
Y476637D01*
X116824Y477868D01*
X116187Y478971D01*
X115286Y479872D01*
X114183Y480509D01*
X112952Y480839D01*
D02*
G37*
G36*
X75715Y481429D02*
X74285D01*
X72904Y481059D01*
X71666Y480344D01*
X70656Y479334D01*
X69941Y478096D01*
X69571Y476715D01*
Y475285D01*
X69941Y473904D01*
X70656Y472666D01*
X71666Y471656D01*
X72904Y470941D01*
X74285Y470571D01*
X75715D01*
X77096Y470941D01*
X78334Y471656D01*
X79344Y472666D01*
X80059Y473904D01*
X80429Y475285D01*
Y476715D01*
X80059Y478096D01*
X79344Y479334D01*
X78334Y480344D01*
X77096Y481059D01*
X75715Y481429D01*
D02*
G37*
G36*
X240680Y476512D02*
X240500D01*
Y470106D01*
X246905D01*
Y470286D01*
X246640Y471621D01*
X246120Y472877D01*
X245364Y474008D01*
X244402Y474970D01*
X243271Y475726D01*
X242014Y476246D01*
X240680Y476512D01*
D02*
G37*
G36*
X239500D02*
X239320D01*
X237986Y476246D01*
X236729Y475726D01*
X235598Y474970D01*
X234636Y474008D01*
X233880Y472877D01*
X233360Y471621D01*
X233095Y470286D01*
Y470106D01*
X239500D01*
Y476512D01*
D02*
G37*
G36*
X420461Y474500D02*
X419539D01*
X418649Y474262D01*
X417851Y473801D01*
X417199Y473149D01*
X416739Y472351D01*
X416500Y471461D01*
Y470539D01*
X416739Y469649D01*
X417199Y468851D01*
X417851Y468199D01*
X418649Y467738D01*
X419539Y467500D01*
X420461D01*
X421351Y467738D01*
X422149Y468199D01*
X422801Y468851D01*
X423261Y469649D01*
X423500Y470539D01*
Y471461D01*
X423261Y472351D01*
X422801Y473149D01*
X422149Y473801D01*
X421351Y474262D01*
X420461Y474500D01*
D02*
G37*
G36*
X283500Y469347D02*
Y466500D01*
X286347D01*
X286133Y467298D01*
X285690Y468064D01*
X285064Y468690D01*
X284298Y469133D01*
X283500Y469347D01*
D02*
G37*
G36*
X282500D02*
X281702Y469133D01*
X280936Y468690D01*
X280310Y468064D01*
X279867Y467298D01*
X279653Y466500D01*
X282500D01*
Y469347D01*
D02*
G37*
G36*
X336386Y468657D02*
X336343D01*
Y465028D01*
X339972D01*
Y465071D01*
X339691Y466122D01*
X339147Y467063D01*
X338378Y467832D01*
X337437Y468376D01*
X336386Y468657D01*
D02*
G37*
G36*
X335343D02*
X335299D01*
X334248Y468376D01*
X333307Y467832D01*
X332538Y467063D01*
X331994Y466122D01*
X331713Y465071D01*
Y465028D01*
X335343D01*
Y468657D01*
D02*
G37*
G36*
X526500Y466490D02*
Y463500D01*
X529490D01*
X529261Y464351D01*
X528801Y465149D01*
X528149Y465801D01*
X527351Y466261D01*
X526500Y466490D01*
D02*
G37*
G36*
X525500D02*
X524649Y466261D01*
X523851Y465801D01*
X523199Y465149D01*
X522739Y464351D01*
X522510Y463500D01*
X525500D01*
Y466490D01*
D02*
G37*
G36*
X246905Y469106D02*
X240500D01*
Y462701D01*
X240680D01*
X242014Y462966D01*
X243271Y463487D01*
X244402Y464242D01*
X245364Y465204D01*
X246120Y466335D01*
X246640Y467592D01*
X246905Y468926D01*
Y469106D01*
D02*
G37*
G36*
X239500D02*
X233095D01*
Y468926D01*
X233360Y467592D01*
X233880Y466335D01*
X234636Y465204D01*
X235598Y464242D01*
X236729Y463487D01*
X237986Y462966D01*
X239320Y462701D01*
X239500D01*
Y469106D01*
D02*
G37*
G36*
X286347Y465500D02*
X283500D01*
Y462653D01*
X284298Y462867D01*
X285064Y463310D01*
X285690Y463936D01*
X286133Y464702D01*
X286347Y465500D01*
D02*
G37*
G36*
X282500D02*
X279653D01*
X279867Y464702D01*
X280310Y463936D01*
X280936Y463310D01*
X281702Y462867D01*
X282500Y462653D01*
Y465500D01*
D02*
G37*
G36*
X595461Y469500D02*
X594539D01*
X593649Y469262D01*
X592851Y468801D01*
X592199Y468149D01*
X591739Y467351D01*
X591500Y466461D01*
Y465539D01*
X591739Y464649D01*
X592199Y463851D01*
X592851Y463199D01*
X593649Y462739D01*
X594539Y462500D01*
X595461D01*
X596351Y462739D01*
X597149Y463199D01*
X597801Y463851D01*
X598261Y464649D01*
X598500Y465539D01*
Y466461D01*
X598261Y467351D01*
X597801Y468149D01*
X597149Y468801D01*
X596351Y469262D01*
X595461Y469500D01*
D02*
G37*
G36*
X584461D02*
X583539D01*
X582649Y469262D01*
X581851Y468801D01*
X581199Y468149D01*
X580738Y467351D01*
X580500Y466461D01*
Y465539D01*
X580738Y464649D01*
X581199Y463851D01*
X581851Y463199D01*
X582649Y462739D01*
X583539Y462500D01*
X584461D01*
X585351Y462739D01*
X586149Y463199D01*
X586801Y463851D01*
X587261Y464649D01*
X587500Y465539D01*
Y466461D01*
X587261Y467351D01*
X586801Y468149D01*
X586149Y468801D01*
X585351Y469262D01*
X584461Y469500D01*
D02*
G37*
G36*
X339972Y464028D02*
X336343D01*
Y460398D01*
X336386D01*
X337437Y460679D01*
X338378Y461223D01*
X339147Y461992D01*
X339691Y462933D01*
X339972Y463984D01*
Y464028D01*
D02*
G37*
G36*
X335343D02*
X331713D01*
Y463984D01*
X331994Y462933D01*
X332538Y461992D01*
X333307Y461223D01*
X334248Y460679D01*
X335299Y460398D01*
X335343D01*
Y464028D01*
D02*
G37*
G36*
X529490Y462500D02*
X526500D01*
Y459511D01*
X527351Y459738D01*
X528149Y460199D01*
X528801Y460851D01*
X529261Y461649D01*
X529490Y462500D01*
D02*
G37*
G36*
X525500D02*
X522510D01*
X522739Y461649D01*
X523199Y460851D01*
X523851Y460199D01*
X524649Y459738D01*
X525500Y459511D01*
Y462500D01*
D02*
G37*
G36*
X552461Y466500D02*
X551539D01*
X550649Y466261D01*
X549851Y465801D01*
X549199Y465149D01*
X548738Y464351D01*
X548500Y463461D01*
Y462539D01*
X548738Y461649D01*
X549199Y460851D01*
X549851Y460199D01*
X550649Y459738D01*
X551539Y459500D01*
X552461D01*
X553351Y459738D01*
X554149Y460199D01*
X554801Y460851D01*
X555262Y461649D01*
X555500Y462539D01*
Y463461D01*
X555262Y464351D01*
X554801Y465149D01*
X554149Y465801D01*
X553351Y466261D01*
X552461Y466500D01*
D02*
G37*
G36*
X432961Y462500D02*
X432039D01*
X431149Y462261D01*
X430351Y461801D01*
X429699Y461149D01*
X429239Y460351D01*
X429000Y459461D01*
Y458539D01*
X429239Y457649D01*
X429699Y456851D01*
X430351Y456199D01*
X431149Y455738D01*
X432039Y455500D01*
X432961D01*
X433851Y455738D01*
X434649Y456199D01*
X435301Y456851D01*
X435761Y457649D01*
X436000Y458539D01*
Y459461D01*
X435761Y460351D01*
X435301Y461149D01*
X434649Y461801D01*
X433851Y462261D01*
X432961Y462500D01*
D02*
G37*
G36*
X541461Y459500D02*
X540539D01*
X539649Y459262D01*
X538851Y458801D01*
X538199Y458149D01*
X537739Y457351D01*
X537500Y456461D01*
Y455539D01*
X537739Y454649D01*
X538199Y453851D01*
X538851Y453199D01*
X539649Y452739D01*
X540539Y452500D01*
X541461D01*
X542351Y452739D01*
X543149Y453199D01*
X543801Y453851D01*
X544262Y454649D01*
X544500Y455539D01*
Y456461D01*
X544262Y457351D01*
X543801Y458149D01*
X543149Y458801D01*
X542351Y459262D01*
X541461Y459500D01*
D02*
G37*
G36*
X510676Y462134D02*
X509324D01*
X508018Y461784D01*
X506848Y461108D01*
X505892Y460152D01*
X505216Y458982D01*
X504866Y457676D01*
Y456324D01*
X505216Y455018D01*
X505892Y453848D01*
X506848Y452892D01*
X508018Y452216D01*
X509324Y451866D01*
X510676D01*
X511982Y452216D01*
X513152Y452892D01*
X514108Y453848D01*
X514784Y455018D01*
X515134Y456324D01*
Y457676D01*
X514784Y458982D01*
X514108Y460152D01*
X513152Y461108D01*
X511982Y461784D01*
X510676Y462134D01*
D02*
G37*
G36*
X490676D02*
X489324D01*
X488018Y461784D01*
X486848Y461108D01*
X485892Y460152D01*
X485216Y458982D01*
X484866Y457676D01*
Y456324D01*
X485216Y455018D01*
X485892Y453848D01*
X486848Y452892D01*
X488018Y452216D01*
X489324Y451866D01*
X490676D01*
X491982Y452216D01*
X493152Y452892D01*
X494108Y453848D01*
X494784Y455018D01*
X495134Y456324D01*
Y457676D01*
X494784Y458982D01*
X494108Y460152D01*
X493152Y461108D01*
X491982Y461784D01*
X490676Y462134D01*
D02*
G37*
G36*
X470676D02*
X469324D01*
X468018Y461784D01*
X466848Y461108D01*
X465892Y460152D01*
X465216Y458982D01*
X464866Y457676D01*
Y456324D01*
X465216Y455018D01*
X465892Y453848D01*
X466848Y452892D01*
X468018Y452216D01*
X469324Y451866D01*
X470676D01*
X471982Y452216D01*
X473152Y452892D01*
X474108Y453848D01*
X474784Y455018D01*
X475134Y456324D01*
Y457676D01*
X474784Y458982D01*
X474108Y460152D01*
X473152Y461108D01*
X471982Y461784D01*
X470676Y462134D01*
D02*
G37*
G36*
X595461Y457500D02*
X594539D01*
X593649Y457262D01*
X592851Y456801D01*
X592199Y456149D01*
X591739Y455351D01*
X591500Y454461D01*
Y453539D01*
X591739Y452649D01*
X592199Y451851D01*
X592851Y451199D01*
X593649Y450738D01*
X594539Y450500D01*
X595461D01*
X596351Y450738D01*
X597149Y451199D01*
X597801Y451851D01*
X598261Y452649D01*
X598500Y453539D01*
Y454461D01*
X598261Y455351D01*
X597801Y456149D01*
X597149Y456801D01*
X596351Y457262D01*
X595461Y457500D01*
D02*
G37*
G36*
X584461D02*
X583539D01*
X582649Y457262D01*
X581851Y456801D01*
X581199Y456149D01*
X580738Y455351D01*
X580500Y454461D01*
Y453539D01*
X580738Y452649D01*
X581199Y451851D01*
X581851Y451199D01*
X582649Y450738D01*
X583539Y450500D01*
X584461D01*
X585351Y450738D01*
X586149Y451199D01*
X586801Y451851D01*
X587261Y452649D01*
X587500Y453539D01*
Y454461D01*
X587261Y455351D01*
X586801Y456149D01*
X586149Y456801D01*
X585351Y457262D01*
X584461Y457500D01*
D02*
G37*
G36*
X283443Y449677D02*
X282557D01*
X281702Y449448D01*
X280936Y449005D01*
X280310Y448379D01*
X279867Y447613D01*
X279638Y446758D01*
Y445872D01*
X279867Y445017D01*
X280310Y444250D01*
X280936Y443624D01*
X281702Y443182D01*
X282557Y442953D01*
X283443D01*
X284298Y443182D01*
X285064Y443624D01*
X285690Y444250D01*
X286133Y445017D01*
X286362Y445872D01*
Y446758D01*
X286133Y447613D01*
X285690Y448379D01*
X285064Y449005D01*
X284298Y449448D01*
X283443Y449677D01*
D02*
G37*
G36*
X381500Y441490D02*
Y438500D01*
X384489D01*
X384261Y439351D01*
X383801Y440149D01*
X383149Y440801D01*
X382351Y441261D01*
X381500Y441490D01*
D02*
G37*
G36*
X380500D02*
X379649Y441261D01*
X378851Y440801D01*
X378199Y440149D01*
X377738Y439351D01*
X377510Y438500D01*
X380500D01*
Y441490D01*
D02*
G37*
G36*
X384489Y437500D02*
X381500D01*
Y434511D01*
X382351Y434738D01*
X383149Y435199D01*
X383801Y435851D01*
X384261Y436649D01*
X384489Y437500D01*
D02*
G37*
G36*
X380500D02*
X377510D01*
X377738Y436649D01*
X378199Y435851D01*
X378851Y435199D01*
X379649Y434738D01*
X380500Y434511D01*
Y437500D01*
D02*
G37*
G36*
X260443Y440374D02*
X259557D01*
X258702Y440145D01*
X257936Y439702D01*
X257310Y439076D01*
X256867Y438310D01*
X256638Y437454D01*
Y436569D01*
X256867Y435714D01*
X257310Y434947D01*
X257936Y434321D01*
X258702Y433879D01*
X259557Y433650D01*
X260443D01*
X261298Y433879D01*
X262064Y434321D01*
X262690Y434947D01*
X263133Y435714D01*
X263362Y436569D01*
Y437454D01*
X263133Y438310D01*
X262690Y439076D01*
X262064Y439702D01*
X261298Y440145D01*
X260443Y440374D01*
D02*
G37*
G36*
X355461Y440500D02*
X354539D01*
X353649Y440262D01*
X352851Y439801D01*
X352199Y439149D01*
X351739Y438351D01*
X351500Y437461D01*
Y436539D01*
X351739Y435649D01*
X352199Y434851D01*
X352851Y434199D01*
X353649Y433739D01*
X354539Y433500D01*
X355461D01*
X356351Y433739D01*
X357149Y434199D01*
X357801Y434851D01*
X358261Y435649D01*
X358500Y436539D01*
Y437461D01*
X358261Y438351D01*
X357801Y439149D01*
X357149Y439801D01*
X356351Y440262D01*
X355461Y440500D01*
D02*
G37*
G36*
X172607Y445167D02*
X171393D01*
X170201Y444930D01*
X169079Y444465D01*
X168069Y443790D01*
X167209Y442931D01*
X166535Y441921D01*
X166070Y440799D01*
X165833Y439607D01*
Y438393D01*
X166070Y437201D01*
X166535Y436079D01*
X167209Y435069D01*
X168069Y434209D01*
X169079Y433535D01*
X170201Y433070D01*
X171393Y432833D01*
X172607D01*
X173799Y433070D01*
X174921Y433535D01*
X175931Y434209D01*
X176790Y435069D01*
X177465Y436079D01*
X177930Y437201D01*
X178167Y438393D01*
Y439607D01*
X177930Y440799D01*
X177465Y441921D01*
X176790Y442931D01*
X175931Y443790D01*
X174921Y444465D01*
X173799Y444930D01*
X172607Y445167D01*
D02*
G37*
G36*
X32607D02*
X31393D01*
X30201Y444930D01*
X29079Y444465D01*
X28069Y443790D01*
X27209Y442931D01*
X26535Y441921D01*
X26070Y440799D01*
X25833Y439607D01*
Y438393D01*
X26070Y437201D01*
X26535Y436079D01*
X27209Y435069D01*
X28069Y434209D01*
X29079Y433535D01*
X30201Y433070D01*
X31393Y432833D01*
X32607D01*
X33799Y433070D01*
X34921Y433535D01*
X35931Y434209D01*
X36790Y435069D01*
X37465Y436079D01*
X37930Y437201D01*
X38167Y438393D01*
Y439607D01*
X37930Y440799D01*
X37465Y441921D01*
X36790Y442931D01*
X35931Y443790D01*
X34921Y444465D01*
X33799Y444930D01*
X32607Y445167D01*
D02*
G37*
G36*
X249668Y461075D02*
X248332D01*
X247041Y460729D01*
X245884Y460061D01*
X244939Y459116D01*
X244271Y457959D01*
X243925Y456668D01*
Y455332D01*
X244271Y454041D01*
X244939Y452884D01*
X245884Y451939D01*
X247041Y451271D01*
X247120Y451250D01*
Y450750D01*
X247041Y450729D01*
X245884Y450061D01*
X244939Y449116D01*
X244271Y447959D01*
X243925Y446668D01*
Y445332D01*
X244271Y444041D01*
X244939Y442884D01*
X245884Y441939D01*
X246515Y441575D01*
X246381Y441075D01*
X243925D01*
Y430925D01*
X254075D01*
Y441075D01*
X251619D01*
X251485Y441575D01*
X252116Y441939D01*
X253061Y442884D01*
X253729Y444041D01*
X254075Y445332D01*
Y446668D01*
X253729Y447959D01*
X253061Y449116D01*
X252116Y450061D01*
X250959Y450729D01*
X250880Y450750D01*
Y451250D01*
X250959Y451271D01*
X252116Y451939D01*
X253061Y452884D01*
X253729Y454041D01*
X254075Y455332D01*
Y456668D01*
X253729Y457959D01*
X253061Y459116D01*
X252116Y460061D01*
X250959Y460729D01*
X249668Y461075D01*
D02*
G37*
G36*
X326544Y439130D02*
X325456D01*
X324406Y438848D01*
X323464Y438305D01*
X322695Y437536D01*
X322151Y436594D01*
X321870Y435544D01*
Y434456D01*
X322151Y433406D01*
X322695Y432464D01*
X323464Y431695D01*
X324406Y431151D01*
X325456Y430870D01*
X326544D01*
X327594Y431151D01*
X328536Y431695D01*
X329305Y432464D01*
X329849Y433406D01*
X330130Y434456D01*
Y435544D01*
X329849Y436594D01*
X329305Y437536D01*
X328536Y438305D01*
X327594Y438848D01*
X326544Y439130D01*
D02*
G37*
G36*
X575504Y436125D02*
X572748D01*
X571819Y436003D01*
X570953Y435644D01*
X570210Y435074D01*
X569639Y434330D01*
X569281Y433464D01*
X569158Y432535D01*
X569281Y431606D01*
X569639Y430740D01*
X570210Y429997D01*
X570953Y429427D01*
X571819Y429068D01*
X572748Y428946D01*
X575504D01*
X576433Y429068D01*
X577299Y429427D01*
X578042Y429997D01*
X578613Y430740D01*
X578971Y431606D01*
X579094Y432535D01*
X578971Y433464D01*
X578613Y434330D01*
X578042Y435074D01*
X577299Y435644D01*
X576433Y436003D01*
X575504Y436125D01*
D02*
G37*
G36*
X307200Y433000D02*
X298800D01*
Y424600D01*
X307200D01*
Y433000D01*
D02*
G37*
G36*
X450554Y437653D02*
X449194D01*
X447860Y437388D01*
X446603Y436868D01*
X445472Y436112D01*
X444510Y435150D01*
X443754Y434019D01*
X443234Y432762D01*
X442969Y431428D01*
Y430068D01*
X443234Y428734D01*
X443754Y427477D01*
X444510Y426346D01*
X445472Y425384D01*
X446603Y424628D01*
X447860Y424108D01*
X449194Y423842D01*
X450554D01*
X451888Y424108D01*
X453145Y424628D01*
X454276Y425384D01*
X455238Y426346D01*
X455994Y427477D01*
X456514Y428734D01*
X456779Y430068D01*
Y431428D01*
X456514Y432762D01*
X455994Y434019D01*
X455238Y435150D01*
X454276Y436112D01*
X453145Y436868D01*
X451888Y437388D01*
X450554Y437653D01*
D02*
G37*
G36*
X575504Y428054D02*
X572748D01*
X571819Y427932D01*
X570953Y427573D01*
X570210Y427003D01*
X569639Y426260D01*
X569281Y425394D01*
X569158Y424465D01*
X569281Y423535D01*
X569639Y422670D01*
X570210Y421926D01*
X570953Y421356D01*
X571819Y420997D01*
X572748Y420875D01*
X575504D01*
X576433Y420997D01*
X577299Y421356D01*
X578042Y421926D01*
X578613Y422670D01*
X578971Y423535D01*
X579094Y424465D01*
X578971Y425394D01*
X578613Y426260D01*
X578042Y427003D01*
X577299Y427573D01*
X576433Y427932D01*
X575504Y428054D01*
D02*
G37*
G36*
X172607Y425167D02*
X171393D01*
X170201Y424930D01*
X169079Y424465D01*
X168069Y423791D01*
X167209Y422931D01*
X166535Y421921D01*
X166070Y420799D01*
X165833Y419607D01*
Y418393D01*
X166070Y417201D01*
X166535Y416079D01*
X167209Y415069D01*
X168069Y414210D01*
X169079Y413535D01*
X170201Y413070D01*
X171393Y412833D01*
X172607D01*
X173799Y413070D01*
X174921Y413535D01*
X175931Y414210D01*
X176790Y415069D01*
X177465Y416079D01*
X177930Y417201D01*
X178167Y418393D01*
Y419607D01*
X177930Y420799D01*
X177465Y421921D01*
X176790Y422931D01*
X175931Y423791D01*
X174921Y424465D01*
X173799Y424930D01*
X172607Y425167D01*
D02*
G37*
G36*
X32607D02*
X31393D01*
X30201Y424930D01*
X29079Y424465D01*
X28069Y423791D01*
X27209Y422931D01*
X26535Y421921D01*
X26070Y420799D01*
X25833Y419607D01*
Y418393D01*
X26070Y417201D01*
X26535Y416079D01*
X27209Y415069D01*
X28069Y414210D01*
X29079Y413535D01*
X30201Y413070D01*
X31393Y412833D01*
X32607D01*
X33799Y413070D01*
X34921Y413535D01*
X35931Y414210D01*
X36790Y415069D01*
X37465Y416079D01*
X37930Y417201D01*
X38167Y418393D01*
Y419607D01*
X37930Y420799D01*
X37465Y421921D01*
X36790Y422931D01*
X35931Y423791D01*
X34921Y424465D01*
X33799Y424930D01*
X32607Y425167D01*
D02*
G37*
G36*
X302500Y408490D02*
Y405500D01*
X305489D01*
X305261Y406351D01*
X304801Y407149D01*
X304149Y407801D01*
X303351Y408261D01*
X302500Y408490D01*
D02*
G37*
G36*
X301500D02*
X300649Y408261D01*
X299851Y407801D01*
X299199Y407149D01*
X298739Y406351D01*
X298511Y405500D01*
X301500D01*
Y408490D01*
D02*
G37*
G36*
X559362Y418090D02*
X556606D01*
X555677Y417967D01*
X554811Y417609D01*
X554068Y417038D01*
X553498Y416295D01*
X553139Y415429D01*
X553017Y414500D01*
X553139Y413571D01*
X553498Y412705D01*
X554068Y411962D01*
X554811Y411391D01*
X555102Y411271D01*
Y410729D01*
X554811Y410609D01*
X554068Y410038D01*
X553498Y409295D01*
X553139Y408429D01*
X553017Y407500D01*
X553139Y406571D01*
X553498Y405705D01*
X554068Y404962D01*
X554811Y404391D01*
X555677Y404033D01*
X556606Y403910D01*
X559362D01*
X560291Y404033D01*
X561157Y404391D01*
X561901Y404962D01*
X562471Y405705D01*
X562830Y406571D01*
X562952Y407500D01*
X562830Y408429D01*
X562471Y409295D01*
X561901Y410038D01*
X561157Y410609D01*
X560866Y410729D01*
Y411271D01*
X561157Y411391D01*
X561901Y411962D01*
X562471Y412705D01*
X562830Y413571D01*
X562952Y414500D01*
X562830Y415429D01*
X562471Y416295D01*
X561901Y417038D01*
X561157Y417609D01*
X560291Y417967D01*
X559362Y418090D01*
D02*
G37*
G36*
X263362Y410350D02*
X256638D01*
Y403626D01*
X263362D01*
Y410350D01*
D02*
G37*
G36*
X437500Y405489D02*
Y402500D01*
X440489D01*
X440262Y403351D01*
X439801Y404149D01*
X439149Y404801D01*
X438351Y405262D01*
X437500Y405489D01*
D02*
G37*
G36*
X436500D02*
X435649Y405262D01*
X434851Y404801D01*
X434199Y404149D01*
X433739Y403351D01*
X433510Y402500D01*
X436500D01*
Y405489D01*
D02*
G37*
G36*
X313461Y409500D02*
X312539D01*
X311649Y409262D01*
X310851Y408801D01*
X310199Y408149D01*
X309738Y407351D01*
X309500Y406461D01*
Y405539D01*
X309738Y404649D01*
X310199Y403851D01*
X310851Y403199D01*
X311649Y402739D01*
X312539Y402500D01*
X313461D01*
X314351Y402739D01*
X315149Y403199D01*
X315801Y403851D01*
X316262Y404649D01*
X316500Y405539D01*
Y406461D01*
X316262Y407351D01*
X315801Y408149D01*
X315149Y408801D01*
X314351Y409262D01*
X313461Y409500D01*
D02*
G37*
G36*
X305489Y404500D02*
X302500D01*
Y401510D01*
X303351Y401739D01*
X304149Y402199D01*
X304801Y402851D01*
X305261Y403649D01*
X305489Y404500D01*
D02*
G37*
G36*
X301500D02*
X298511D01*
X298739Y403649D01*
X299199Y402851D01*
X299851Y402199D01*
X300649Y401739D01*
X301500Y401510D01*
Y404500D01*
D02*
G37*
G36*
X240680Y405252D02*
X240500D01*
Y398847D01*
X246905D01*
Y399027D01*
X246640Y400361D01*
X246120Y401617D01*
X245364Y402748D01*
X244402Y403710D01*
X243271Y404466D01*
X242014Y404987D01*
X240680Y405252D01*
D02*
G37*
G36*
X239500D02*
X239320D01*
X237986Y404987D01*
X236729Y404466D01*
X235598Y403710D01*
X234636Y402748D01*
X233880Y401617D01*
X233360Y400361D01*
X233095Y399027D01*
Y398847D01*
X239500D01*
Y405252D01*
D02*
G37*
G36*
X440489Y401500D02*
X437500D01*
Y398511D01*
X438351Y398739D01*
X439149Y399199D01*
X439801Y399851D01*
X440262Y400649D01*
X440489Y401500D01*
D02*
G37*
G36*
X436500D02*
X433510D01*
X433739Y400649D01*
X434199Y399851D01*
X434851Y399199D01*
X435649Y398739D01*
X436500Y398511D01*
Y401500D01*
D02*
G37*
G36*
X382185Y401500D02*
Y398500D01*
X385185D01*
X384956Y399355D01*
X384494Y400155D01*
X383840Y400809D01*
X383040Y401271D01*
X382185Y401500D01*
D02*
G37*
G36*
X381185D02*
X380330Y401271D01*
X379530Y400809D01*
X378876Y400155D01*
X378414Y399355D01*
X378185Y398500D01*
X381185D01*
Y401500D01*
D02*
G37*
G36*
X283461Y403500D02*
X282539D01*
X281649Y403262D01*
X280851Y402801D01*
X280199Y402149D01*
X279738Y401351D01*
X279500Y400461D01*
Y399539D01*
X279738Y398649D01*
X280199Y397851D01*
X280851Y397199D01*
X281649Y396739D01*
X282539Y396500D01*
X283461D01*
X284351Y396739D01*
X285149Y397199D01*
X285801Y397851D01*
X286262Y398649D01*
X286500Y399539D01*
Y400461D01*
X286262Y401351D01*
X285801Y402149D01*
X285149Y402801D01*
X284351Y403262D01*
X283461Y403500D01*
D02*
G37*
G36*
X385185Y397500D02*
X382185D01*
Y394500D01*
X383040Y394729D01*
X383840Y395191D01*
X384494Y395845D01*
X384956Y396645D01*
X385185Y397500D01*
D02*
G37*
G36*
X381185D02*
X378185D01*
X378414Y396645D01*
X378876Y395845D01*
X379530Y395191D01*
X380330Y394729D01*
X381185Y394500D01*
Y397500D01*
D02*
G37*
G36*
X365510Y401510D02*
X358490D01*
Y394490D01*
X365510D01*
Y401510D01*
D02*
G37*
G36*
X575504Y401125D02*
X572748D01*
X571819Y401003D01*
X570953Y400644D01*
X570210Y400074D01*
X569639Y399330D01*
X569281Y398464D01*
X569158Y397535D01*
X569281Y396606D01*
X569639Y395741D01*
X570210Y394997D01*
X570953Y394427D01*
X571819Y394068D01*
X572748Y393946D01*
X575504D01*
X576433Y394068D01*
X577299Y394427D01*
X578042Y394997D01*
X578613Y395741D01*
X578971Y396606D01*
X579094Y397535D01*
X578971Y398464D01*
X578613Y399330D01*
X578042Y400074D01*
X577299Y400644D01*
X576433Y401003D01*
X575504Y401125D01*
D02*
G37*
G36*
X450554Y407654D02*
X449194D01*
X447860Y407388D01*
X446603Y406868D01*
X445472Y406112D01*
X444510Y405150D01*
X443754Y404019D01*
X443234Y402762D01*
X442969Y401428D01*
Y400068D01*
X443234Y398734D01*
X443754Y397477D01*
X444510Y396346D01*
X445472Y395384D01*
X446603Y394629D01*
X447860Y394108D01*
X449194Y393843D01*
X450554D01*
X451888Y394108D01*
X453145Y394629D01*
X454276Y395384D01*
X455238Y396346D01*
X455994Y397477D01*
X456514Y398734D01*
X456779Y400068D01*
Y401428D01*
X456514Y402762D01*
X455994Y404019D01*
X455238Y405150D01*
X454276Y406112D01*
X453145Y406868D01*
X451888Y407388D01*
X450554Y407654D01*
D02*
G37*
G36*
X172607Y405167D02*
X171393D01*
X170201Y404930D01*
X169079Y404465D01*
X168069Y403791D01*
X167209Y402931D01*
X166535Y401921D01*
X166070Y400799D01*
X165833Y399607D01*
Y398393D01*
X166070Y397201D01*
X166535Y396079D01*
X167209Y395069D01*
X168069Y394210D01*
X169079Y393535D01*
X170201Y393070D01*
X171393Y392833D01*
X172607D01*
X173799Y393070D01*
X174921Y393535D01*
X175931Y394210D01*
X176790Y395069D01*
X177465Y396079D01*
X177930Y397201D01*
X178167Y398393D01*
Y399607D01*
X177930Y400799D01*
X177465Y401921D01*
X176790Y402931D01*
X175931Y403791D01*
X174921Y404465D01*
X173799Y404930D01*
X172607Y405167D01*
D02*
G37*
G36*
X32607D02*
X31393D01*
X30201Y404930D01*
X29079Y404465D01*
X28069Y403791D01*
X27209Y402931D01*
X26535Y401921D01*
X26070Y400799D01*
X25833Y399607D01*
Y398393D01*
X26070Y397201D01*
X26535Y396079D01*
X27209Y395069D01*
X28069Y394210D01*
X29079Y393535D01*
X30201Y393070D01*
X31393Y392833D01*
X32607D01*
X33799Y393070D01*
X34921Y393535D01*
X35931Y394210D01*
X36790Y395069D01*
X37465Y396079D01*
X37930Y397201D01*
X38167Y398393D01*
Y399607D01*
X37930Y400799D01*
X37465Y401921D01*
X36790Y402931D01*
X35931Y403791D01*
X34921Y404465D01*
X33799Y404930D01*
X32607Y405167D01*
D02*
G37*
G36*
X246905Y397847D02*
X240500D01*
Y391441D01*
X240680D01*
X242014Y391706D01*
X243271Y392227D01*
X244402Y392983D01*
X245364Y393945D01*
X246120Y395075D01*
X246640Y396332D01*
X246905Y397666D01*
Y397847D01*
D02*
G37*
G36*
X239500D02*
X233095D01*
Y397666D01*
X233360Y396332D01*
X233880Y395075D01*
X234636Y393945D01*
X235598Y392983D01*
X236729Y392227D01*
X237986Y391706D01*
X239320Y391441D01*
X239500D01*
Y397847D01*
D02*
G37*
G36*
X575504Y393054D02*
X572748D01*
X571819Y392932D01*
X570953Y392573D01*
X570210Y392003D01*
X569639Y391260D01*
X569281Y390394D01*
X569158Y389465D01*
X569281Y388535D01*
X569639Y387670D01*
X570210Y386926D01*
X570953Y386356D01*
X571819Y385997D01*
X572748Y385875D01*
X575504D01*
X576433Y385997D01*
X577299Y386356D01*
X578042Y386926D01*
X578613Y387670D01*
X578971Y388535D01*
X579094Y389465D01*
X578971Y390394D01*
X578613Y391260D01*
X578042Y392003D01*
X577299Y392573D01*
X576433Y392932D01*
X575504Y393054D01*
D02*
G37*
G36*
X324461Y392500D02*
X323539D01*
X322649Y392262D01*
X321851Y391801D01*
X321199Y391149D01*
X320739Y390351D01*
X320500Y389461D01*
Y388539D01*
X320739Y387649D01*
X321199Y386851D01*
X321851Y386199D01*
X322649Y385738D01*
X323539Y385500D01*
X324461D01*
X325351Y385738D01*
X326149Y386199D01*
X326801Y386851D01*
X327261Y387649D01*
X327500Y388539D01*
Y389461D01*
X327261Y390351D01*
X326801Y391149D01*
X326149Y391801D01*
X325351Y392262D01*
X324461Y392500D01*
D02*
G37*
G36*
X75715Y392453D02*
X74285D01*
X72904Y392083D01*
X71666Y391368D01*
X70656Y390357D01*
X69941Y389119D01*
X69571Y387738D01*
Y386309D01*
X69941Y384928D01*
X70656Y383690D01*
X71666Y382679D01*
X72904Y381964D01*
X74285Y381594D01*
X75715D01*
X77096Y381964D01*
X78334Y382679D01*
X79344Y383690D01*
X80059Y384928D01*
X80429Y386309D01*
Y387738D01*
X80059Y389119D01*
X79344Y390357D01*
X78334Y391368D01*
X77096Y392083D01*
X75715Y392453D01*
D02*
G37*
G36*
X172607Y385167D02*
X171393D01*
X170201Y384930D01*
X169079Y384465D01*
X168069Y383790D01*
X167209Y382931D01*
X166535Y381921D01*
X166070Y380799D01*
X165833Y379607D01*
Y378393D01*
X166070Y377201D01*
X166535Y376079D01*
X167209Y375069D01*
X168069Y374209D01*
X169079Y373535D01*
X170201Y373070D01*
X171393Y372833D01*
X172607D01*
X173799Y373070D01*
X174921Y373535D01*
X175931Y374209D01*
X176790Y375069D01*
X177465Y376079D01*
X177930Y377201D01*
X178167Y378393D01*
Y379607D01*
X177930Y380799D01*
X177465Y381921D01*
X176790Y382931D01*
X175931Y383790D01*
X174921Y384465D01*
X173799Y384930D01*
X172607Y385167D01*
D02*
G37*
G36*
X32607D02*
X31393D01*
X30201Y384930D01*
X29079Y384465D01*
X28069Y383790D01*
X27209Y382931D01*
X26535Y381921D01*
X26070Y380799D01*
X25833Y379607D01*
Y378393D01*
X26070Y377201D01*
X26535Y376079D01*
X27209Y375069D01*
X28069Y374209D01*
X29079Y373535D01*
X30201Y373070D01*
X31393Y372833D01*
X32607D01*
X33799Y373070D01*
X34921Y373535D01*
X35931Y374209D01*
X36790Y375069D01*
X37465Y376079D01*
X37930Y377201D01*
X38167Y378393D01*
Y379607D01*
X37930Y380799D01*
X37465Y381921D01*
X36790Y382931D01*
X35931Y383790D01*
X34921Y384465D01*
X33799Y384930D01*
X32607Y385167D01*
D02*
G37*
G36*
X312128Y379362D02*
X311242D01*
X310387Y379133D01*
X309621Y378690D01*
X308995Y378064D01*
X308552Y377298D01*
X308323Y376443D01*
Y375557D01*
X308552Y374702D01*
X308995Y373936D01*
X309621Y373310D01*
X310387Y372867D01*
X311242Y372638D01*
X312128D01*
X312983Y372867D01*
X313750Y373310D01*
X314375Y373936D01*
X314818Y374702D01*
X315047Y375557D01*
Y376443D01*
X314818Y377298D01*
X314375Y378064D01*
X313750Y378690D01*
X312983Y379133D01*
X312128Y379362D01*
D02*
G37*
G36*
X292443D02*
X291557D01*
X290702Y379133D01*
X289936Y378690D01*
X289310Y378064D01*
X288867Y377298D01*
X288638Y376443D01*
Y375557D01*
X288867Y374702D01*
X289310Y373936D01*
X289936Y373310D01*
X290702Y372867D01*
X291557Y372638D01*
X292443D01*
X293298Y372867D01*
X294064Y373310D01*
X294690Y373936D01*
X295133Y374702D01*
X295362Y375557D01*
Y376443D01*
X295133Y377298D01*
X294690Y378064D01*
X294064Y378690D01*
X293298Y379133D01*
X292443Y379362D01*
D02*
G37*
G36*
X240680Y376905D02*
X240500D01*
Y370500D01*
X246905D01*
Y370680D01*
X246640Y372014D01*
X246120Y373271D01*
X245364Y374402D01*
X244402Y375364D01*
X243271Y376120D01*
X242014Y376640D01*
X240680Y376905D01*
D02*
G37*
G36*
X239500D02*
X239320D01*
X237986Y376640D01*
X236729Y376120D01*
X235598Y375364D01*
X234636Y374402D01*
X233880Y373271D01*
X233360Y372014D01*
X233095Y370680D01*
Y370500D01*
X239500D01*
Y376905D01*
D02*
G37*
G36*
X332429Y380831D02*
X321571D01*
Y369972D01*
X332429D01*
Y380831D01*
D02*
G37*
G36*
X559362Y383090D02*
X556606D01*
X555677Y382967D01*
X554811Y382609D01*
X554068Y382038D01*
X553498Y381295D01*
X553139Y380429D01*
X553017Y379500D01*
X553139Y378571D01*
X553498Y377705D01*
X554068Y376962D01*
X554811Y376391D01*
X555102Y376271D01*
Y375729D01*
X554811Y375609D01*
X554068Y375038D01*
X553498Y374295D01*
X553139Y373429D01*
X553017Y372500D01*
X553139Y371571D01*
X553498Y370705D01*
X554068Y369962D01*
X554811Y369391D01*
X555677Y369033D01*
X556606Y368910D01*
X559362D01*
X560291Y369033D01*
X561157Y369391D01*
X561901Y369962D01*
X562471Y370705D01*
X562830Y371571D01*
X562952Y372500D01*
X562830Y373429D01*
X562471Y374295D01*
X561901Y375038D01*
X561157Y375609D01*
X560866Y375729D01*
Y376271D01*
X561157Y376391D01*
X561901Y376962D01*
X562471Y377705D01*
X562830Y378571D01*
X562952Y379500D01*
X562830Y380429D01*
X562471Y381295D01*
X561901Y382038D01*
X561157Y382609D01*
X560291Y382967D01*
X559362Y383090D01*
D02*
G37*
G36*
X590461Y375500D02*
X589539D01*
X588649Y375261D01*
X587851Y374801D01*
X587199Y374149D01*
X586738Y373351D01*
X586500Y372461D01*
Y371539D01*
X586738Y370649D01*
X587199Y369851D01*
X587851Y369199D01*
X588649Y368739D01*
X589539Y368500D01*
X590461D01*
X591351Y368739D01*
X592149Y369199D01*
X592801Y369851D01*
X593261Y370649D01*
X593500Y371539D01*
Y372461D01*
X593261Y373351D01*
X592801Y374149D01*
X592149Y374801D01*
X591351Y375261D01*
X590461Y375500D01*
D02*
G37*
G36*
X450554Y377654D02*
X449194D01*
X447860Y377388D01*
X446603Y376868D01*
X445472Y376112D01*
X444510Y375150D01*
X443754Y374019D01*
X443234Y372762D01*
X442969Y371428D01*
Y370068D01*
X443234Y368734D01*
X443754Y367477D01*
X444510Y366346D01*
X445472Y365384D01*
X446603Y364629D01*
X447860Y364108D01*
X449194Y363843D01*
X450554D01*
X451888Y364108D01*
X453145Y364629D01*
X454276Y365384D01*
X455238Y366346D01*
X455994Y367477D01*
X456514Y368734D01*
X456779Y370068D01*
Y371428D01*
X456514Y372762D01*
X455994Y374019D01*
X455238Y375150D01*
X454276Y376112D01*
X453145Y376868D01*
X451888Y377388D01*
X450554Y377654D01*
D02*
G37*
G36*
X246905Y369500D02*
X240500D01*
Y363094D01*
X240680D01*
X242014Y363360D01*
X243271Y363880D01*
X244402Y364636D01*
X245364Y365598D01*
X246120Y366729D01*
X246640Y367986D01*
X246905Y369320D01*
Y369500D01*
D02*
G37*
G36*
X239500D02*
X233095D01*
Y369320D01*
X233360Y367986D01*
X233880Y366729D01*
X234636Y365598D01*
X235598Y364636D01*
X236729Y363880D01*
X237986Y363360D01*
X239320Y363094D01*
X239500D01*
Y369500D01*
D02*
G37*
G36*
X249668Y366075D02*
X249500D01*
Y361500D01*
X254075D01*
Y361668D01*
X253729Y362959D01*
X253061Y364116D01*
X252116Y365061D01*
X250959Y365729D01*
X249668Y366075D01*
D02*
G37*
G36*
X78280Y364500D02*
Y361500D01*
X81279D01*
X81050Y362355D01*
X80588Y363155D01*
X79935Y363809D01*
X79134Y364271D01*
X78280Y364500D01*
D02*
G37*
G36*
X77280D02*
X76425Y364271D01*
X75624Y363809D01*
X74971Y363155D01*
X74509Y362355D01*
X74280Y361500D01*
X77280D01*
Y364500D01*
D02*
G37*
G36*
X248500Y366075D02*
X248332D01*
X247041Y365729D01*
X245884Y365061D01*
X244939Y364116D01*
X244271Y362959D01*
X243925Y361668D01*
Y361500D01*
X248500D01*
Y366075D01*
D02*
G37*
G36*
X575504Y366125D02*
X572748D01*
X571819Y366003D01*
X570953Y365644D01*
X570210Y365074D01*
X569639Y364330D01*
X569281Y363464D01*
X569158Y362535D01*
X569281Y361606D01*
X569639Y360740D01*
X570210Y359997D01*
X570953Y359427D01*
X571819Y359068D01*
X572748Y358946D01*
X575504D01*
X576433Y359068D01*
X577299Y359427D01*
X578042Y359997D01*
X578613Y360740D01*
X578971Y361606D01*
X579094Y362535D01*
X578971Y363464D01*
X578613Y364330D01*
X578042Y365074D01*
X577299Y365644D01*
X576433Y366003D01*
X575504Y366125D01*
D02*
G37*
G36*
X81279Y360500D02*
X78280D01*
Y357500D01*
X79134Y357729D01*
X79935Y358191D01*
X80588Y358845D01*
X81050Y359645D01*
X81279Y360500D01*
D02*
G37*
G36*
X77280D02*
X74280D01*
X74509Y359645D01*
X74971Y358845D01*
X75624Y358191D01*
X76425Y357729D01*
X77280Y357500D01*
Y360500D01*
D02*
G37*
G36*
X67510Y364510D02*
X60490D01*
Y357490D01*
X67510D01*
Y364510D01*
D02*
G37*
G36*
X172607Y365167D02*
X171393D01*
X170201Y364930D01*
X169079Y364465D01*
X168069Y363790D01*
X167209Y362931D01*
X166535Y361921D01*
X166070Y360799D01*
X165833Y359607D01*
Y358393D01*
X166070Y357201D01*
X166535Y356079D01*
X167209Y355069D01*
X168069Y354209D01*
X169079Y353535D01*
X170201Y353070D01*
X171393Y352833D01*
X172607D01*
X173799Y353070D01*
X174921Y353535D01*
X175931Y354209D01*
X176790Y355069D01*
X177465Y356079D01*
X177930Y357201D01*
X178167Y358393D01*
Y359607D01*
X177930Y360799D01*
X177465Y361921D01*
X176790Y362931D01*
X175931Y363790D01*
X174921Y364465D01*
X173799Y364930D01*
X172607Y365167D01*
D02*
G37*
G36*
X32607D02*
X31393D01*
X30201Y364930D01*
X29079Y364465D01*
X28069Y363790D01*
X27209Y362931D01*
X26535Y361921D01*
X26070Y360799D01*
X25833Y359607D01*
Y358393D01*
X26070Y357201D01*
X26535Y356079D01*
X27209Y355069D01*
X28069Y354209D01*
X29079Y353535D01*
X30201Y353070D01*
X31393Y352833D01*
X32607D01*
X33799Y353070D01*
X34921Y353535D01*
X35931Y354209D01*
X36790Y355069D01*
X37465Y356079D01*
X37930Y357201D01*
X38167Y358393D01*
Y359607D01*
X37930Y360799D01*
X37465Y361921D01*
X36790Y362931D01*
X35931Y363790D01*
X34921Y364465D01*
X33799Y364930D01*
X32607Y365167D01*
D02*
G37*
G36*
X575504Y358054D02*
X572748D01*
X571819Y357932D01*
X570953Y357573D01*
X570210Y357003D01*
X569639Y356259D01*
X569281Y355394D01*
X569158Y354465D01*
X569281Y353536D01*
X569639Y352670D01*
X570210Y351926D01*
X570953Y351356D01*
X571819Y350997D01*
X572748Y350875D01*
X575504D01*
X576433Y350997D01*
X577299Y351356D01*
X578042Y351926D01*
X578613Y352670D01*
X578971Y353536D01*
X579094Y354465D01*
X578971Y355394D01*
X578613Y356259D01*
X578042Y357003D01*
X577299Y357573D01*
X576433Y357932D01*
X575504Y358054D01*
D02*
G37*
G36*
X382185Y348500D02*
Y345500D01*
X385185D01*
X384956Y346355D01*
X384494Y347155D01*
X383840Y347809D01*
X383040Y348271D01*
X382185Y348500D01*
D02*
G37*
G36*
X381185D02*
X380330Y348271D01*
X379530Y347809D01*
X378876Y347155D01*
X378414Y346355D01*
X378185Y345500D01*
X381185D01*
Y348500D01*
D02*
G37*
G36*
X385185Y344500D02*
X382185D01*
Y341500D01*
X383040Y341729D01*
X383840Y342191D01*
X384494Y342845D01*
X384956Y343645D01*
X385185Y344500D01*
D02*
G37*
G36*
X381185D02*
X378185D01*
X378414Y343645D01*
X378876Y342845D01*
X379530Y342191D01*
X380330Y341729D01*
X381185Y341500D01*
Y344500D01*
D02*
G37*
G36*
X365510Y348510D02*
X358490D01*
Y341490D01*
X365510D01*
Y348510D01*
D02*
G37*
G36*
X249000Y361000D02*
D01*
Y360500D01*
X243925D01*
Y360332D01*
X244271Y359041D01*
X244939Y357884D01*
X245884Y356939D01*
X247041Y356271D01*
X247120Y356250D01*
Y355750D01*
X247041Y355729D01*
X245884Y355061D01*
X244939Y354116D01*
X244271Y352959D01*
X243925Y351668D01*
Y350332D01*
X244271Y349041D01*
X244939Y347884D01*
X245884Y346939D01*
X246515Y346575D01*
X246381Y346075D01*
X243925D01*
Y335925D01*
X254075D01*
Y346075D01*
X251619D01*
X251485Y346575D01*
X252116Y346939D01*
X253061Y347884D01*
X253729Y349041D01*
X254075Y350332D01*
Y351668D01*
X253729Y352959D01*
X253061Y354116D01*
X252116Y355061D01*
X250959Y355729D01*
X250880Y355750D01*
Y356250D01*
X250959Y356271D01*
X252116Y356939D01*
X253061Y357884D01*
X253729Y359041D01*
X254075Y360332D01*
Y360500D01*
X249000D01*
Y361000D01*
D02*
G37*
G36*
X559362Y348090D02*
X556606D01*
X555677Y347967D01*
X554811Y347609D01*
X554068Y347038D01*
X553498Y346295D01*
X553139Y345429D01*
X553017Y344500D01*
X553139Y343571D01*
X553498Y342705D01*
X554068Y341962D01*
X554811Y341391D01*
X555102Y341271D01*
Y340729D01*
X554811Y340609D01*
X554068Y340038D01*
X553498Y339295D01*
X553139Y338429D01*
X553017Y337500D01*
X553139Y336571D01*
X553498Y335705D01*
X554068Y334962D01*
X554811Y334391D01*
X555677Y334033D01*
X556606Y333910D01*
X559362D01*
X560291Y334033D01*
X561157Y334391D01*
X561901Y334962D01*
X562471Y335705D01*
X562830Y336571D01*
X562952Y337500D01*
X562830Y338429D01*
X562471Y339295D01*
X561901Y340038D01*
X561157Y340609D01*
X560866Y340729D01*
Y341271D01*
X561157Y341391D01*
X561901Y341962D01*
X562471Y342705D01*
X562830Y343571D01*
X562952Y344500D01*
X562830Y345429D01*
X562471Y346295D01*
X561901Y347038D01*
X561157Y347609D01*
X560291Y347967D01*
X559362Y348090D01*
D02*
G37*
G36*
X450554Y347654D02*
X449194D01*
X447860Y347388D01*
X446603Y346868D01*
X445472Y346112D01*
X444510Y345150D01*
X443754Y344019D01*
X443234Y342762D01*
X442969Y341428D01*
Y340068D01*
X443234Y338734D01*
X443754Y337477D01*
X444510Y336346D01*
X445472Y335384D01*
X446603Y334629D01*
X447860Y334108D01*
X449194Y333842D01*
X450554D01*
X451888Y334108D01*
X453145Y334629D01*
X454276Y335384D01*
X455238Y336346D01*
X455994Y337477D01*
X456514Y338734D01*
X456779Y340068D01*
Y341428D01*
X456514Y342762D01*
X455994Y344019D01*
X455238Y345150D01*
X454276Y346112D01*
X453145Y346868D01*
X451888Y347388D01*
X450554Y347654D01*
D02*
G37*
G36*
X594461Y340500D02*
X593539D01*
X592649Y340262D01*
X591851Y339801D01*
X591199Y339149D01*
X590738Y338351D01*
X590500Y337461D01*
Y336539D01*
X590738Y335649D01*
X591199Y334851D01*
X591851Y334199D01*
X592649Y333738D01*
X593539Y333500D01*
X594461D01*
X595351Y333738D01*
X596149Y334199D01*
X596801Y334851D01*
X597261Y335649D01*
X597500Y336539D01*
Y337461D01*
X597261Y338351D01*
X596801Y339149D01*
X596149Y339801D01*
X595351Y340262D01*
X594461Y340500D01*
D02*
G37*
G36*
X172607Y345167D02*
X171393D01*
X170201Y344930D01*
X169079Y344465D01*
X168069Y343791D01*
X167209Y342931D01*
X166535Y341921D01*
X166070Y340799D01*
X165833Y339607D01*
Y338393D01*
X166070Y337201D01*
X166535Y336079D01*
X167209Y335069D01*
X168069Y334209D01*
X169079Y333535D01*
X170201Y333070D01*
X171393Y332833D01*
X172607D01*
X173799Y333070D01*
X174921Y333535D01*
X175931Y334209D01*
X176790Y335069D01*
X177465Y336079D01*
X177930Y337201D01*
X178167Y338393D01*
Y339607D01*
X177930Y340799D01*
X177465Y341921D01*
X176790Y342931D01*
X175931Y343791D01*
X174921Y344465D01*
X173799Y344930D01*
X172607Y345167D01*
D02*
G37*
G36*
X32607D02*
X31393D01*
X30201Y344930D01*
X29079Y344465D01*
X28069Y343791D01*
X27209Y342931D01*
X26535Y341921D01*
X26070Y340799D01*
X25833Y339607D01*
Y338393D01*
X26070Y337201D01*
X26535Y336079D01*
X27209Y335069D01*
X28069Y334209D01*
X29079Y333535D01*
X30201Y333070D01*
X31393Y332833D01*
X32607D01*
X33799Y333070D01*
X34921Y333535D01*
X35931Y334209D01*
X36790Y335069D01*
X37465Y336079D01*
X37930Y337201D01*
X38167Y338393D01*
Y339607D01*
X37930Y340799D01*
X37465Y341921D01*
X36790Y342931D01*
X35931Y343791D01*
X34921Y344465D01*
X33799Y344930D01*
X32607Y345167D01*
D02*
G37*
G36*
X418461Y328500D02*
X417539D01*
X416649Y328261D01*
X415851Y327801D01*
X415199Y327149D01*
X414739Y326351D01*
X414500Y325461D01*
Y324539D01*
X414739Y323649D01*
X415199Y322851D01*
X415851Y322199D01*
X416649Y321739D01*
X417539Y321500D01*
X418461D01*
X419351Y321739D01*
X420149Y322199D01*
X420801Y322851D01*
X421262Y323649D01*
X421500Y324539D01*
Y325461D01*
X421262Y326351D01*
X420801Y327149D01*
X420149Y327801D01*
X419351Y328261D01*
X418461Y328500D01*
D02*
G37*
G36*
X240680Y326905D02*
X240500D01*
Y320500D01*
X246905D01*
Y320680D01*
X246640Y322014D01*
X246120Y323271D01*
X245364Y324402D01*
X244402Y325364D01*
X243271Y326120D01*
X242014Y326640D01*
X240680Y326905D01*
D02*
G37*
G36*
X239500D02*
X239320D01*
X237986Y326640D01*
X236729Y326120D01*
X235598Y325364D01*
X234636Y324402D01*
X233880Y323271D01*
X233360Y322014D01*
X233095Y320680D01*
Y320500D01*
X239500D01*
Y326905D01*
D02*
G37*
G36*
X73500Y320490D02*
Y317500D01*
X76490D01*
X76262Y318351D01*
X75801Y319149D01*
X75149Y319801D01*
X74351Y320262D01*
X73500Y320490D01*
D02*
G37*
G36*
X72500D02*
X71649Y320262D01*
X70851Y319801D01*
X70199Y319149D01*
X69739Y318351D01*
X69511Y317500D01*
X72500D01*
Y320490D01*
D02*
G37*
G36*
X314386Y322362D02*
X307661D01*
Y315638D01*
X314386D01*
Y322362D01*
D02*
G37*
G36*
X281443D02*
X280557D01*
X279702Y322133D01*
X278936Y321690D01*
X278310Y321064D01*
X277867Y320298D01*
X277638Y319443D01*
Y318557D01*
X277867Y317702D01*
X278310Y316936D01*
X278936Y316310D01*
X279702Y315867D01*
X280557Y315638D01*
X281443D01*
X282298Y315867D01*
X283064Y316310D01*
X283690Y316936D01*
X284133Y317702D01*
X284362Y318557D01*
Y319443D01*
X284133Y320298D01*
X283690Y321064D01*
X283064Y321690D01*
X282298Y322133D01*
X281443Y322362D01*
D02*
G37*
G36*
X76490Y316500D02*
X73500D01*
Y313510D01*
X74351Y313738D01*
X75149Y314199D01*
X75801Y314851D01*
X76262Y315649D01*
X76490Y316500D01*
D02*
G37*
G36*
X72500D02*
X69511D01*
X69739Y315649D01*
X70199Y314851D01*
X70851Y314199D01*
X71649Y313738D01*
X72500Y313510D01*
Y316500D01*
D02*
G37*
G36*
X246905Y319500D02*
X240500D01*
Y313094D01*
X240680D01*
X242014Y313360D01*
X243271Y313880D01*
X244402Y314636D01*
X245364Y315598D01*
X246120Y316729D01*
X246640Y317986D01*
X246905Y319320D01*
Y319500D01*
D02*
G37*
G36*
X239500D02*
X233095D01*
Y319320D01*
X233360Y317986D01*
X233880Y316729D01*
X234636Y315598D01*
X235598Y314636D01*
X236729Y313880D01*
X237986Y313360D01*
X239320Y313094D01*
X239500D01*
Y319500D01*
D02*
G37*
G36*
X172607Y325167D02*
X171393D01*
X170201Y324930D01*
X169079Y324465D01*
X168069Y323791D01*
X167209Y322931D01*
X166535Y321921D01*
X166070Y320799D01*
X165833Y319607D01*
Y318393D01*
X166070Y317201D01*
X166535Y316079D01*
X167209Y315069D01*
X168069Y314210D01*
X169079Y313535D01*
X170201Y313070D01*
X171393Y312833D01*
X172607D01*
X173799Y313070D01*
X174921Y313535D01*
X175931Y314210D01*
X176790Y315069D01*
X177465Y316079D01*
X177930Y317201D01*
X178167Y318393D01*
Y319607D01*
X177930Y320799D01*
X177465Y321921D01*
X176790Y322931D01*
X175931Y323791D01*
X174921Y324465D01*
X173799Y324930D01*
X172607Y325167D01*
D02*
G37*
G36*
X32607D02*
X31393D01*
X30201Y324930D01*
X29079Y324465D01*
X28069Y323791D01*
X27209Y322931D01*
X26535Y321921D01*
X26070Y320799D01*
X25833Y319607D01*
Y318393D01*
X26070Y317201D01*
X26535Y316079D01*
X27209Y315069D01*
X28069Y314210D01*
X29079Y313535D01*
X30201Y313070D01*
X31393Y312833D01*
X32607D01*
X33799Y313070D01*
X34921Y313535D01*
X35931Y314210D01*
X36790Y315069D01*
X37465Y316079D01*
X37930Y317201D01*
X38167Y318393D01*
Y319607D01*
X37930Y320799D01*
X37465Y321921D01*
X36790Y322931D01*
X35931Y323791D01*
X34921Y324465D01*
X33799Y324930D01*
X32607Y325167D01*
D02*
G37*
G36*
X450554Y317653D02*
X449194D01*
X447860Y317388D01*
X446603Y316868D01*
X445472Y316112D01*
X444510Y315150D01*
X443754Y314019D01*
X443234Y312762D01*
X442969Y311428D01*
Y310068D01*
X443234Y308734D01*
X443754Y307477D01*
X444510Y306346D01*
X445472Y305384D01*
X446603Y304628D01*
X447860Y304108D01*
X449194Y303842D01*
X450554D01*
X451888Y304108D01*
X453145Y304628D01*
X454276Y305384D01*
X455238Y306346D01*
X455994Y307477D01*
X456514Y308734D01*
X456779Y310068D01*
Y311428D01*
X456514Y312762D01*
X455994Y314019D01*
X455238Y315150D01*
X454276Y316112D01*
X453145Y316868D01*
X451888Y317388D01*
X450554Y317653D01*
D02*
G37*
G36*
X382185Y297500D02*
Y294500D01*
X385185D01*
X384956Y295355D01*
X384494Y296155D01*
X383840Y296809D01*
X383040Y297271D01*
X382185Y297500D01*
D02*
G37*
G36*
X381185D02*
X380330Y297271D01*
X379530Y296809D01*
X378876Y296155D01*
X378414Y295355D01*
X378185Y294500D01*
X381185D01*
Y297500D01*
D02*
G37*
G36*
X172607Y305167D02*
X171393D01*
X170201Y304930D01*
X169079Y304465D01*
X168069Y303790D01*
X167209Y302931D01*
X166535Y301921D01*
X166070Y300799D01*
X165833Y299607D01*
Y298393D01*
X166070Y297201D01*
X166535Y296079D01*
X167209Y295069D01*
X168069Y294210D01*
X169079Y293535D01*
X170201Y293070D01*
X171393Y292833D01*
X172607D01*
X173799Y293070D01*
X174921Y293535D01*
X175931Y294210D01*
X176790Y295069D01*
X177465Y296079D01*
X177930Y297201D01*
X178167Y298393D01*
Y299607D01*
X177930Y300799D01*
X177465Y301921D01*
X176790Y302931D01*
X175931Y303790D01*
X174921Y304465D01*
X173799Y304930D01*
X172607Y305167D01*
D02*
G37*
G36*
X32607D02*
X31393D01*
X30201Y304930D01*
X29079Y304465D01*
X28069Y303790D01*
X27209Y302931D01*
X26535Y301921D01*
X26070Y300799D01*
X25833Y299607D01*
Y298393D01*
X26070Y297201D01*
X26535Y296079D01*
X27209Y295069D01*
X28069Y294210D01*
X29079Y293535D01*
X30201Y293070D01*
X31393Y292833D01*
X32607D01*
X33799Y293070D01*
X34921Y293535D01*
X35931Y294210D01*
X36790Y295069D01*
X37465Y296079D01*
X37930Y297201D01*
X38167Y298393D01*
Y299607D01*
X37930Y300799D01*
X37465Y301921D01*
X36790Y302931D01*
X35931Y303790D01*
X34921Y304465D01*
X33799Y304930D01*
X32607Y305167D01*
D02*
G37*
G36*
X586461Y298500D02*
X585539D01*
X584649Y298261D01*
X583851Y297801D01*
X583199Y297149D01*
X582738Y296351D01*
X582500Y295461D01*
Y294539D01*
X582738Y293649D01*
X583199Y292851D01*
X583851Y292199D01*
X584649Y291739D01*
X585539Y291500D01*
X586461D01*
X587351Y291739D01*
X588149Y292199D01*
X588801Y292851D01*
X589261Y293649D01*
X589500Y294539D01*
Y295461D01*
X589261Y296351D01*
X588801Y297149D01*
X588149Y297801D01*
X587351Y298261D01*
X586461Y298500D01*
D02*
G37*
G36*
X216461D02*
X215539D01*
X214649Y298261D01*
X213851Y297801D01*
X213199Y297149D01*
X212738Y296351D01*
X212500Y295461D01*
Y294539D01*
X212738Y293649D01*
X213199Y292851D01*
X213851Y292199D01*
X214649Y291739D01*
X215539Y291500D01*
X216461D01*
X217351Y291739D01*
X218149Y292199D01*
X218801Y292851D01*
X219262Y293649D01*
X219500Y294539D01*
Y295461D01*
X219262Y296351D01*
X218801Y297149D01*
X218149Y297801D01*
X217351Y298261D01*
X216461Y298500D01*
D02*
G37*
G36*
X385185Y293500D02*
X382185D01*
Y290500D01*
X383040Y290729D01*
X383840Y291191D01*
X384494Y291845D01*
X384956Y292645D01*
X385185Y293500D01*
D02*
G37*
G36*
X381185D02*
X378185D01*
X378414Y292645D01*
X378876Y291845D01*
X379530Y291191D01*
X380330Y290729D01*
X381185Y290500D01*
Y293500D01*
D02*
G37*
G36*
X365510Y297510D02*
X358490D01*
Y290490D01*
X365510D01*
Y297510D01*
D02*
G37*
G36*
X450554Y301905D02*
X449194D01*
X447860Y301640D01*
X446603Y301120D01*
X445472Y300364D01*
X444510Y299402D01*
X443754Y298271D01*
X443234Y297014D01*
X442969Y295680D01*
Y294320D01*
X443234Y292986D01*
X443754Y291729D01*
X444510Y290598D01*
X445472Y289636D01*
X446603Y288880D01*
X447860Y288360D01*
X449194Y288094D01*
X450554D01*
X451888Y288360D01*
X453145Y288880D01*
X454276Y289636D01*
X455238Y290598D01*
X455994Y291729D01*
X456514Y292986D01*
X456779Y294320D01*
Y295680D01*
X456514Y297014D01*
X455994Y298271D01*
X455238Y299402D01*
X454276Y300364D01*
X453145Y301120D01*
X451888Y301640D01*
X450554Y301905D01*
D02*
G37*
G36*
X594461Y291500D02*
X593539D01*
X592649Y291262D01*
X591851Y290801D01*
X591199Y290149D01*
X590738Y289351D01*
X590500Y288461D01*
Y287539D01*
X590738Y286649D01*
X591199Y285851D01*
X591851Y285199D01*
X592649Y284738D01*
X593539Y284500D01*
X594461D01*
X595351Y284738D01*
X596149Y285199D01*
X596801Y285851D01*
X597261Y286649D01*
X597500Y287539D01*
Y288461D01*
X597261Y289351D01*
X596801Y290149D01*
X596149Y290801D01*
X595351Y291262D01*
X594461Y291500D01*
D02*
G37*
G36*
X575504Y327090D02*
X572748D01*
X571819Y326967D01*
X570953Y326609D01*
X570210Y326038D01*
X569639Y325295D01*
X569281Y324429D01*
X569158Y323500D01*
X569281Y322571D01*
X569639Y321705D01*
X570210Y320962D01*
X570953Y320391D01*
X571244Y320271D01*
Y319729D01*
X570953Y319609D01*
X570210Y319038D01*
X569639Y318295D01*
X569281Y317429D01*
X569158Y316500D01*
X569281Y315571D01*
X569639Y314705D01*
X570210Y313962D01*
X570953Y313391D01*
X571244Y313271D01*
Y312729D01*
X570953Y312609D01*
X570210Y312038D01*
X569639Y311295D01*
X569281Y310429D01*
X569158Y309500D01*
X569281Y308571D01*
X569639Y307705D01*
X570210Y306962D01*
X570953Y306391D01*
X571244Y306271D01*
Y305729D01*
X570953Y305609D01*
X570210Y305038D01*
X569639Y304295D01*
X569281Y303429D01*
X569158Y302500D01*
X569281Y301571D01*
X569639Y300705D01*
X570210Y299962D01*
X570953Y299391D01*
X571244Y299271D01*
Y298729D01*
X570953Y298609D01*
X570210Y298038D01*
X569639Y297295D01*
X569281Y296429D01*
X569158Y295500D01*
X569281Y294571D01*
X569639Y293705D01*
X570210Y292962D01*
X570953Y292391D01*
X571244Y292271D01*
Y291729D01*
X570953Y291609D01*
X570210Y291038D01*
X569639Y290295D01*
X569281Y289429D01*
X569158Y288500D01*
X569281Y287571D01*
X569639Y286705D01*
X570210Y285962D01*
X570953Y285391D01*
X571244Y285271D01*
Y284729D01*
X570953Y284609D01*
X570210Y284038D01*
X569639Y283295D01*
X569281Y282429D01*
X569224Y282000D01*
X574126D01*
X579028D01*
X578971Y282429D01*
X578613Y283295D01*
X578042Y284038D01*
X577299Y284609D01*
X577008Y284729D01*
Y285271D01*
X577299Y285391D01*
X578042Y285962D01*
X578613Y286705D01*
X578971Y287571D01*
X579094Y288500D01*
X578971Y289429D01*
X578613Y290295D01*
X578042Y291038D01*
X577299Y291609D01*
X577008Y291729D01*
Y292271D01*
X577299Y292391D01*
X578042Y292962D01*
X578613Y293705D01*
X578971Y294571D01*
X579094Y295500D01*
X578971Y296429D01*
X578613Y297295D01*
X578042Y298038D01*
X577299Y298609D01*
X577008Y298729D01*
Y299271D01*
X577299Y299391D01*
X578042Y299962D01*
X578613Y300705D01*
X578971Y301571D01*
X579094Y302500D01*
X578971Y303429D01*
X578613Y304295D01*
X578042Y305038D01*
X577299Y305609D01*
X577008Y305729D01*
Y306271D01*
X577299Y306391D01*
X578042Y306962D01*
X578613Y307705D01*
X578971Y308571D01*
X579094Y309500D01*
X578971Y310429D01*
X578613Y311295D01*
X578042Y312038D01*
X577299Y312609D01*
X577008Y312729D01*
Y313271D01*
X577299Y313391D01*
X578042Y313962D01*
X578613Y314705D01*
X578971Y315571D01*
X579094Y316500D01*
X578971Y317429D01*
X578613Y318295D01*
X578042Y319038D01*
X577299Y319609D01*
X577008Y319729D01*
Y320271D01*
X577299Y320391D01*
X578042Y320962D01*
X578613Y321705D01*
X578971Y322571D01*
X579094Y323500D01*
X578971Y324429D01*
X578613Y325295D01*
X578042Y326038D01*
X577299Y326609D01*
X576433Y326967D01*
X575504Y327090D01*
D02*
G37*
G36*
X172607Y285167D02*
X171393D01*
X170201Y284930D01*
X169079Y284465D01*
X168069Y283790D01*
X167209Y282931D01*
X166535Y281921D01*
X166070Y280799D01*
X165833Y279607D01*
Y278393D01*
X166070Y277201D01*
X166535Y276079D01*
X167209Y275069D01*
X168069Y274209D01*
X169079Y273535D01*
X170201Y273070D01*
X171393Y272833D01*
X172607D01*
X173799Y273070D01*
X174921Y273535D01*
X175931Y274209D01*
X176790Y275069D01*
X177465Y276079D01*
X177930Y277201D01*
X178167Y278393D01*
Y279607D01*
X177930Y280799D01*
X177465Y281921D01*
X176790Y282931D01*
X175931Y283790D01*
X174921Y284465D01*
X173799Y284930D01*
X172607Y285167D01*
D02*
G37*
G36*
X32607D02*
X31393D01*
X30201Y284930D01*
X29079Y284465D01*
X28069Y283790D01*
X27209Y282931D01*
X26535Y281921D01*
X26070Y280799D01*
X25833Y279607D01*
Y278393D01*
X26070Y277201D01*
X26535Y276079D01*
X27209Y275069D01*
X28069Y274209D01*
X29079Y273535D01*
X30201Y273070D01*
X31393Y272833D01*
X32607D01*
X33799Y273070D01*
X34921Y273535D01*
X35931Y274209D01*
X36790Y275069D01*
X37465Y276079D01*
X37930Y277201D01*
X38167Y278393D01*
Y279607D01*
X37930Y280799D01*
X37465Y281921D01*
X36790Y282931D01*
X35931Y283790D01*
X34921Y284465D01*
X33799Y284930D01*
X32607Y285167D01*
D02*
G37*
G36*
X450554Y286157D02*
X449194D01*
X447860Y285892D01*
X446603Y285371D01*
X445472Y284616D01*
X444510Y283654D01*
X443754Y282523D01*
X443234Y281266D01*
X442969Y279932D01*
Y278572D01*
X443234Y277238D01*
X443754Y275981D01*
X444510Y274850D01*
X445472Y273888D01*
X446603Y273132D01*
X447860Y272612D01*
X449194Y272346D01*
X450554D01*
X451888Y272612D01*
X453145Y273132D01*
X454276Y273888D01*
X455238Y274850D01*
X455994Y275981D01*
X456514Y277238D01*
X456779Y278572D01*
Y279932D01*
X456514Y281266D01*
X455994Y282523D01*
X455238Y283654D01*
X454276Y284616D01*
X453145Y285371D01*
X451888Y285892D01*
X450554Y286157D01*
D02*
G37*
G36*
X579028Y281000D02*
X574126D01*
X569224D01*
X569281Y280571D01*
X569639Y279705D01*
X570210Y278962D01*
X570953Y278391D01*
X571244Y278271D01*
Y277729D01*
X570953Y277609D01*
X570210Y277038D01*
X569639Y276295D01*
X569281Y275429D01*
X569158Y274500D01*
X569281Y273571D01*
X569639Y272705D01*
X570210Y271962D01*
X570953Y271391D01*
X571819Y271033D01*
X572748Y270910D01*
X575504D01*
X576433Y271033D01*
X577299Y271391D01*
X578042Y271962D01*
X578613Y272705D01*
X578971Y273571D01*
X579094Y274500D01*
X578971Y275429D01*
X578613Y276295D01*
X578042Y277038D01*
X577299Y277609D01*
X577008Y277729D01*
Y278271D01*
X577299Y278391D01*
X578042Y278962D01*
X578613Y279705D01*
X578971Y280571D01*
X579028Y281000D01*
D02*
G37*
G36*
X80500Y273489D02*
Y270500D01*
X83490D01*
X83262Y271351D01*
X82801Y272149D01*
X82149Y272801D01*
X81351Y273261D01*
X80500Y273489D01*
D02*
G37*
G36*
X79500D02*
X78649Y273261D01*
X77851Y272801D01*
X77199Y272149D01*
X76739Y271351D01*
X76511Y270500D01*
X79500D01*
Y273489D01*
D02*
G37*
G36*
X83490Y269500D02*
X80500D01*
Y266511D01*
X81351Y266739D01*
X82149Y267199D01*
X82801Y267851D01*
X83262Y268649D01*
X83490Y269500D01*
D02*
G37*
G36*
X79500D02*
X76511D01*
X76739Y268649D01*
X77199Y267851D01*
X77851Y267199D01*
X78649Y266739D01*
X79500Y266511D01*
Y269500D01*
D02*
G37*
G36*
X50461Y273500D02*
X49539D01*
X48649Y273261D01*
X47851Y272801D01*
X47199Y272149D01*
X46738Y271351D01*
X46500Y270461D01*
Y269539D01*
X46738Y268649D01*
X47199Y267851D01*
X47851Y267199D01*
X48649Y266739D01*
X49539Y266500D01*
X50461D01*
X51351Y266739D01*
X52149Y267199D01*
X52801Y267851D01*
X53262Y268649D01*
X53500Y269539D01*
Y270461D01*
X53262Y271351D01*
X52801Y272149D01*
X52149Y272801D01*
X51351Y273261D01*
X50461Y273500D01*
D02*
G37*
G36*
X62461Y265500D02*
X61539D01*
X60649Y265262D01*
X59851Y264801D01*
X59199Y264149D01*
X58738Y263351D01*
X58500Y262461D01*
Y261539D01*
X58738Y260649D01*
X59199Y259851D01*
X59851Y259199D01*
X60649Y258738D01*
X61539Y258500D01*
X62461D01*
X63351Y258738D01*
X64149Y259199D01*
X64801Y259851D01*
X65262Y260649D01*
X65500Y261539D01*
Y262461D01*
X65262Y263351D01*
X64801Y264149D01*
X64149Y264801D01*
X63351Y265262D01*
X62461Y265500D01*
D02*
G37*
G36*
X213461Y248500D02*
X212539D01*
X211649Y248261D01*
X210851Y247801D01*
X210199Y247149D01*
X209738Y246351D01*
X209500Y245461D01*
Y244539D01*
X209738Y243649D01*
X210199Y242851D01*
X210851Y242199D01*
X211649Y241739D01*
X212539Y241500D01*
X213461D01*
X214351Y241739D01*
X215149Y242199D01*
X215801Y242851D01*
X216262Y243649D01*
X216500Y244539D01*
Y245461D01*
X216262Y246351D01*
X215801Y247149D01*
X215149Y247801D01*
X214351Y248261D01*
X213461Y248500D01*
D02*
G37*
G36*
X98461Y240500D02*
X97539D01*
X96649Y240262D01*
X95851Y239801D01*
X95199Y239149D01*
X94739Y238351D01*
X94500Y237461D01*
Y236539D01*
X94739Y235649D01*
X95199Y234851D01*
X95851Y234199D01*
X96649Y233738D01*
X97539Y233500D01*
X98461D01*
X99351Y233738D01*
X100149Y234199D01*
X100801Y234851D01*
X101261Y235649D01*
X101500Y236539D01*
Y237461D01*
X101261Y238351D01*
X100801Y239149D01*
X100149Y239801D01*
X99351Y240262D01*
X98461Y240500D01*
D02*
G37*
G36*
X385461Y238500D02*
X384539D01*
X383649Y238262D01*
X382851Y237801D01*
X382199Y237149D01*
X381738Y236351D01*
X381500Y235461D01*
Y234539D01*
X381738Y233649D01*
X382199Y232851D01*
X382851Y232199D01*
X383649Y231738D01*
X384539Y231500D01*
X385461D01*
X386351Y231738D01*
X387149Y232199D01*
X387801Y232851D01*
X388262Y233649D01*
X388500Y234539D01*
Y235461D01*
X388262Y236351D01*
X387801Y237149D01*
X387149Y237801D01*
X386351Y238262D01*
X385461Y238500D01*
D02*
G37*
G36*
X436500Y225489D02*
Y222500D01*
X439490D01*
X439261Y223351D01*
X438801Y224149D01*
X438149Y224801D01*
X437351Y225261D01*
X436500Y225489D01*
D02*
G37*
G36*
X435500D02*
X434649Y225261D01*
X433851Y224801D01*
X433199Y224149D01*
X432738Y223351D01*
X432511Y222500D01*
X435500D01*
Y225489D01*
D02*
G37*
G36*
X10461Y226500D02*
X9539D01*
X8649Y226261D01*
X7851Y225801D01*
X7199Y225149D01*
X6739Y224351D01*
X6500Y223461D01*
Y222539D01*
X6739Y221649D01*
X7199Y220851D01*
X7851Y220199D01*
X8649Y219739D01*
X9539Y219500D01*
X10461D01*
X11351Y219739D01*
X12149Y220199D01*
X12801Y220851D01*
X13262Y221649D01*
X13500Y222539D01*
Y223461D01*
X13262Y224351D01*
X12801Y225149D01*
X12149Y225801D01*
X11351Y226261D01*
X10461Y226500D01*
D02*
G37*
G36*
X439490Y221500D02*
X436500D01*
Y218511D01*
X437351Y218739D01*
X438149Y219199D01*
X438801Y219851D01*
X439261Y220649D01*
X439490Y221500D01*
D02*
G37*
G36*
X435500D02*
X432511D01*
X432738Y220649D01*
X433199Y219851D01*
X433851Y219199D01*
X434649Y218739D01*
X435500Y218511D01*
Y221500D01*
D02*
G37*
G36*
X418461Y218500D02*
X417539D01*
X416649Y218262D01*
X415851Y217801D01*
X415199Y217149D01*
X414739Y216351D01*
X414500Y215461D01*
Y214539D01*
X414739Y213649D01*
X415199Y212851D01*
X415851Y212199D01*
X416649Y211738D01*
X417539Y211500D01*
X418461D01*
X419351Y211738D01*
X420149Y212199D01*
X420801Y212851D01*
X421262Y213649D01*
X421500Y214539D01*
Y215461D01*
X421262Y216351D01*
X420801Y217149D01*
X420149Y217801D01*
X419351Y218262D01*
X418461Y218500D01*
D02*
G37*
G36*
X150870Y211204D02*
Y208500D01*
X153574D01*
X153375Y209245D01*
X152950Y209980D01*
X152350Y210580D01*
X151615Y211005D01*
X150870Y211204D01*
D02*
G37*
G36*
X149870D02*
X149126Y211005D01*
X148390Y210580D01*
X147790Y209980D01*
X147365Y209245D01*
X147166Y208500D01*
X149870D01*
Y211204D01*
D02*
G37*
G36*
X540533Y213051D02*
X539467D01*
X538436Y212775D01*
X537512Y212242D01*
X536758Y211488D01*
X536225Y210564D01*
X535949Y209533D01*
Y208467D01*
X536225Y207436D01*
X536758Y206512D01*
X537512Y205758D01*
X538436Y205225D01*
X539467Y204949D01*
X540533D01*
X541564Y205225D01*
X542487Y205758D01*
X543242Y206512D01*
X543775Y207436D01*
X544051Y208467D01*
Y209533D01*
X543775Y210564D01*
X543242Y211488D01*
X542487Y212242D01*
X541564Y212775D01*
X540533Y213051D01*
D02*
G37*
G36*
X530533D02*
X529467D01*
X528436Y212775D01*
X527513Y212242D01*
X526758Y211488D01*
X526225Y210564D01*
X525949Y209533D01*
Y208467D01*
X526225Y207436D01*
X526758Y206512D01*
X527513Y205758D01*
X528436Y205225D01*
X529467Y204949D01*
X530533D01*
X531564Y205225D01*
X532487Y205758D01*
X533242Y206512D01*
X533775Y207436D01*
X534051Y208467D01*
Y209533D01*
X533775Y210564D01*
X533242Y211488D01*
X532487Y212242D01*
X531564Y212775D01*
X530533Y213051D01*
D02*
G37*
G36*
X520533D02*
X519467D01*
X518436Y212775D01*
X517513Y212242D01*
X516758Y211488D01*
X516225Y210564D01*
X515949Y209533D01*
Y208467D01*
X516225Y207436D01*
X516758Y206512D01*
X517513Y205758D01*
X518436Y205225D01*
X519467Y204949D01*
X520533D01*
X521564Y205225D01*
X522487Y205758D01*
X523242Y206512D01*
X523775Y207436D01*
X524051Y208467D01*
Y209533D01*
X523775Y210564D01*
X523242Y211488D01*
X522487Y212242D01*
X521564Y212775D01*
X520533Y213051D01*
D02*
G37*
G36*
X510533D02*
X509467D01*
X508436Y212775D01*
X507513Y212242D01*
X506758Y211488D01*
X506225Y210564D01*
X505949Y209533D01*
Y208467D01*
X506225Y207436D01*
X506758Y206512D01*
X507513Y205758D01*
X508436Y205225D01*
X509467Y204949D01*
X510533D01*
X511564Y205225D01*
X512488Y205758D01*
X513242Y206512D01*
X513775Y207436D01*
X514051Y208467D01*
Y209533D01*
X513775Y210564D01*
X513242Y211488D01*
X512488Y212242D01*
X511564Y212775D01*
X510533Y213051D01*
D02*
G37*
G36*
X500533D02*
X499467D01*
X498436Y212775D01*
X497512Y212242D01*
X496758Y211488D01*
X496225Y210564D01*
X495949Y209533D01*
Y208467D01*
X496225Y207436D01*
X496758Y206512D01*
X497512Y205758D01*
X498436Y205225D01*
X499467Y204949D01*
X500533D01*
X501564Y205225D01*
X502488Y205758D01*
X503242Y206512D01*
X503775Y207436D01*
X504051Y208467D01*
Y209533D01*
X503775Y210564D01*
X503242Y211488D01*
X502488Y212242D01*
X501564Y212775D01*
X500533Y213051D01*
D02*
G37*
G36*
X490533D02*
X489467D01*
X488436Y212775D01*
X487512Y212242D01*
X486758Y211488D01*
X486225Y210564D01*
X485949Y209533D01*
Y208467D01*
X486225Y207436D01*
X486758Y206512D01*
X487512Y205758D01*
X488436Y205225D01*
X489467Y204949D01*
X490533D01*
X491564Y205225D01*
X492487Y205758D01*
X493242Y206512D01*
X493775Y207436D01*
X494051Y208467D01*
Y209533D01*
X493775Y210564D01*
X493242Y211488D01*
X492487Y212242D01*
X491564Y212775D01*
X490533Y213051D01*
D02*
G37*
G36*
X480533D02*
X479467D01*
X478436Y212775D01*
X477513Y212242D01*
X476758Y211488D01*
X476225Y210564D01*
X475949Y209533D01*
Y208467D01*
X476225Y207436D01*
X476758Y206512D01*
X477513Y205758D01*
X478436Y205225D01*
X479467Y204949D01*
X480533D01*
X481564Y205225D01*
X482487Y205758D01*
X483242Y206512D01*
X483775Y207436D01*
X484051Y208467D01*
Y209533D01*
X483775Y210564D01*
X483242Y211488D01*
X482487Y212242D01*
X481564Y212775D01*
X480533Y213051D01*
D02*
G37*
G36*
X470533D02*
X469467D01*
X468436Y212775D01*
X467513Y212242D01*
X466758Y211488D01*
X466225Y210564D01*
X465949Y209533D01*
Y208467D01*
X466225Y207436D01*
X466758Y206512D01*
X467513Y205758D01*
X468436Y205225D01*
X469467Y204949D01*
X470533D01*
X471564Y205225D01*
X472487Y205758D01*
X473242Y206512D01*
X473775Y207436D01*
X474051Y208467D01*
Y209533D01*
X473775Y210564D01*
X473242Y211488D01*
X472487Y212242D01*
X471564Y212775D01*
X470533Y213051D01*
D02*
G37*
G36*
X460533D02*
X459467D01*
X458436Y212775D01*
X457513Y212242D01*
X456758Y211488D01*
X456225Y210564D01*
X455949Y209533D01*
Y208467D01*
X456225Y207436D01*
X456758Y206512D01*
X457513Y205758D01*
X458436Y205225D01*
X459467Y204949D01*
X460533D01*
X461564Y205225D01*
X462488Y205758D01*
X463242Y206512D01*
X463775Y207436D01*
X464051Y208467D01*
Y209533D01*
X463775Y210564D01*
X463242Y211488D01*
X462488Y212242D01*
X461564Y212775D01*
X460533Y213051D01*
D02*
G37*
G36*
X290533D02*
X289467D01*
X288436Y212775D01*
X287512Y212242D01*
X286758Y211488D01*
X286225Y210564D01*
X285949Y209533D01*
Y208467D01*
X286225Y207436D01*
X286758Y206512D01*
X287512Y205758D01*
X288436Y205225D01*
X289467Y204949D01*
X290533D01*
X291564Y205225D01*
X292488Y205758D01*
X293242Y206512D01*
X293775Y207436D01*
X294051Y208467D01*
Y209533D01*
X293775Y210564D01*
X293242Y211488D01*
X292488Y212242D01*
X291564Y212775D01*
X290533Y213051D01*
D02*
G37*
G36*
X280533D02*
X279467D01*
X278436Y212775D01*
X277513Y212242D01*
X276758Y211488D01*
X276225Y210564D01*
X275949Y209533D01*
Y208467D01*
X276225Y207436D01*
X276758Y206512D01*
X277513Y205758D01*
X278436Y205225D01*
X279467Y204949D01*
X280533D01*
X281564Y205225D01*
X282488Y205758D01*
X283242Y206512D01*
X283775Y207436D01*
X284051Y208467D01*
Y209533D01*
X283775Y210564D01*
X283242Y211488D01*
X282488Y212242D01*
X281564Y212775D01*
X280533Y213051D01*
D02*
G37*
G36*
X270533D02*
X269467D01*
X268436Y212775D01*
X267512Y212242D01*
X266758Y211488D01*
X266225Y210564D01*
X265949Y209533D01*
Y208467D01*
X266225Y207436D01*
X266758Y206512D01*
X267512Y205758D01*
X268436Y205225D01*
X269467Y204949D01*
X270533D01*
X271564Y205225D01*
X272487Y205758D01*
X273242Y206512D01*
X273775Y207436D01*
X274051Y208467D01*
Y209533D01*
X273775Y210564D01*
X273242Y211488D01*
X272487Y212242D01*
X271564Y212775D01*
X270533Y213051D01*
D02*
G37*
G36*
X260533D02*
X259467D01*
X258436Y212775D01*
X257512Y212242D01*
X256758Y211488D01*
X256225Y210564D01*
X255949Y209533D01*
Y208467D01*
X256225Y207436D01*
X256758Y206512D01*
X257512Y205758D01*
X258436Y205225D01*
X259467Y204949D01*
X260533D01*
X261564Y205225D01*
X262488Y205758D01*
X263242Y206512D01*
X263775Y207436D01*
X264051Y208467D01*
Y209533D01*
X263775Y210564D01*
X263242Y211488D01*
X262488Y212242D01*
X261564Y212775D01*
X260533Y213051D01*
D02*
G37*
G36*
X250533D02*
X249467D01*
X248436Y212775D01*
X247513Y212242D01*
X246758Y211488D01*
X246225Y210564D01*
X245949Y209533D01*
Y208467D01*
X246225Y207436D01*
X246758Y206512D01*
X247513Y205758D01*
X248436Y205225D01*
X249467Y204949D01*
X250533D01*
X251564Y205225D01*
X252487Y205758D01*
X253242Y206512D01*
X253775Y207436D01*
X254051Y208467D01*
Y209533D01*
X253775Y210564D01*
X253242Y211488D01*
X252487Y212242D01*
X251564Y212775D01*
X250533Y213051D01*
D02*
G37*
G36*
X240533D02*
X239467D01*
X238436Y212775D01*
X237512Y212242D01*
X236758Y211488D01*
X236225Y210564D01*
X235949Y209533D01*
Y208467D01*
X236225Y207436D01*
X236758Y206512D01*
X237512Y205758D01*
X238436Y205225D01*
X239467Y204949D01*
X240533D01*
X241564Y205225D01*
X242488Y205758D01*
X243242Y206512D01*
X243775Y207436D01*
X244051Y208467D01*
Y209533D01*
X243775Y210564D01*
X243242Y211488D01*
X242488Y212242D01*
X241564Y212775D01*
X240533Y213051D01*
D02*
G37*
G36*
X230533D02*
X229467D01*
X228436Y212775D01*
X227513Y212242D01*
X226758Y211488D01*
X226225Y210564D01*
X225949Y209533D01*
Y208467D01*
X226225Y207436D01*
X226758Y206512D01*
X227513Y205758D01*
X228436Y205225D01*
X229467Y204949D01*
X230533D01*
X231564Y205225D01*
X232488Y205758D01*
X233242Y206512D01*
X233775Y207436D01*
X234051Y208467D01*
Y209533D01*
X233775Y210564D01*
X233242Y211488D01*
X232488Y212242D01*
X231564Y212775D01*
X230533Y213051D01*
D02*
G37*
G36*
X220533D02*
X219467D01*
X218436Y212775D01*
X217512Y212242D01*
X216758Y211488D01*
X216225Y210564D01*
X215949Y209533D01*
Y208467D01*
X216225Y207436D01*
X216758Y206512D01*
X217512Y205758D01*
X218436Y205225D01*
X219467Y204949D01*
X220533D01*
X221564Y205225D01*
X222487Y205758D01*
X223242Y206512D01*
X223775Y207436D01*
X224051Y208467D01*
Y209533D01*
X223775Y210564D01*
X223242Y211488D01*
X222487Y212242D01*
X221564Y212775D01*
X220533Y213051D01*
D02*
G37*
G36*
X210533D02*
X209467D01*
X208436Y212775D01*
X207512Y212242D01*
X206758Y211488D01*
X206225Y210564D01*
X205949Y209533D01*
Y208467D01*
X206225Y207436D01*
X206758Y206512D01*
X207512Y205758D01*
X208436Y205225D01*
X209467Y204949D01*
X210533D01*
X211564Y205225D01*
X212488Y205758D01*
X213242Y206512D01*
X213775Y207436D01*
X214051Y208467D01*
Y209533D01*
X213775Y210564D01*
X213242Y211488D01*
X212488Y212242D01*
X211564Y212775D01*
X210533Y213051D01*
D02*
G37*
G36*
X552868Y213074D02*
X547132D01*
X546670Y212983D01*
X546279Y212721D01*
X546018Y212330D01*
X545926Y211868D01*
Y206132D01*
X546018Y205670D01*
X546279Y205279D01*
X546670Y205017D01*
X547132Y204926D01*
X552868D01*
X553330Y205017D01*
X553721Y205279D01*
X553982Y205670D01*
X554074Y206132D01*
Y211868D01*
X553982Y212330D01*
X553721Y212721D01*
X553330Y212983D01*
X552868Y213074D01*
D02*
G37*
G36*
X302868D02*
X297132D01*
X296670Y212983D01*
X296279Y212721D01*
X296018Y212330D01*
X295926Y211868D01*
Y206132D01*
X296018Y205670D01*
X296279Y205279D01*
X296670Y205017D01*
X297132Y204926D01*
X302868D01*
X303330Y205017D01*
X303721Y205279D01*
X303982Y205670D01*
X304074Y206132D01*
Y211868D01*
X303982Y212330D01*
X303721Y212721D01*
X303330Y212983D01*
X302868Y213074D01*
D02*
G37*
G36*
X153574Y207500D02*
X150870D01*
Y204796D01*
X151615Y204995D01*
X152350Y205420D01*
X152950Y206020D01*
X153375Y206755D01*
X153574Y207500D01*
D02*
G37*
G36*
X149870D02*
X147166D01*
X147365Y206755D01*
X147790Y206020D01*
X148390Y205420D01*
X149126Y204995D01*
X149870Y204796D01*
Y207500D01*
D02*
G37*
G36*
X182054Y211224D02*
X181205D01*
X180385Y211005D01*
X179650Y210580D01*
X179050Y209980D01*
X178625Y209245D01*
X178405Y208424D01*
Y207575D01*
X178625Y206755D01*
X179050Y206020D01*
X179650Y205420D01*
X180385Y204995D01*
X181205Y204776D01*
X182054D01*
X182875Y204995D01*
X183610Y205420D01*
X184210Y206020D01*
X184635Y206755D01*
X184854Y207575D01*
Y208424D01*
X184635Y209245D01*
X184210Y209980D01*
X183610Y210580D01*
X182875Y211005D01*
X182054Y211224D01*
D02*
G37*
G36*
X290533Y203051D02*
X290500D01*
Y199500D01*
X294051D01*
Y199533D01*
X293775Y200564D01*
X293242Y201487D01*
X292488Y202242D01*
X291564Y202775D01*
X290533Y203051D01*
D02*
G37*
G36*
X540533D02*
X540500D01*
Y199500D01*
X544051D01*
Y199533D01*
X543775Y200564D01*
X543242Y201487D01*
X542487Y202242D01*
X541564Y202775D01*
X540533Y203051D01*
D02*
G37*
G36*
X289500D02*
X289467D01*
X288436Y202775D01*
X287512Y202242D01*
X286758Y201487D01*
X286225Y200564D01*
X285949Y199533D01*
Y199500D01*
X289500D01*
Y203051D01*
D02*
G37*
G36*
X539500D02*
X539467D01*
X538436Y202775D01*
X537512Y202242D01*
X536758Y201487D01*
X536225Y200564D01*
X535949Y199533D01*
Y199500D01*
X539500D01*
Y203051D01*
D02*
G37*
G36*
X573461Y203500D02*
X572539D01*
X571649Y203261D01*
X570851Y202801D01*
X570199Y202149D01*
X569738Y201351D01*
X569500Y200461D01*
Y199539D01*
X569738Y198649D01*
X570199Y197851D01*
X570851Y197199D01*
X571649Y196739D01*
X572539Y196500D01*
X573461D01*
X574351Y196739D01*
X575149Y197199D01*
X575801Y197851D01*
X576262Y198649D01*
X576500Y199539D01*
Y200461D01*
X576262Y201351D01*
X575801Y202149D01*
X575149Y202801D01*
X574351Y203261D01*
X573461Y203500D01*
D02*
G37*
G36*
X550533Y203051D02*
X549467D01*
X548436Y202775D01*
X547512Y202242D01*
X546758Y201487D01*
X546225Y200564D01*
X545949Y199533D01*
Y198467D01*
X546225Y197436D01*
X546758Y196512D01*
X547512Y195758D01*
X548436Y195225D01*
X549467Y194949D01*
X550533D01*
X551564Y195225D01*
X552488Y195758D01*
X553242Y196512D01*
X553775Y197436D01*
X554051Y198467D01*
Y199533D01*
X553775Y200564D01*
X553242Y201487D01*
X552488Y202242D01*
X551564Y202775D01*
X550533Y203051D01*
D02*
G37*
G36*
X544051Y198500D02*
X540500D01*
Y194949D01*
X540533D01*
X541564Y195225D01*
X542487Y195758D01*
X543242Y196512D01*
X543775Y197436D01*
X544051Y198467D01*
Y198500D01*
D02*
G37*
G36*
X539500D02*
X535949D01*
Y198467D01*
X536225Y197436D01*
X536758Y196512D01*
X537512Y195758D01*
X538436Y195225D01*
X539467Y194949D01*
X539500D01*
Y198500D01*
D02*
G37*
G36*
X530533Y203051D02*
X529467D01*
X528436Y202775D01*
X527513Y202242D01*
X526758Y201487D01*
X526225Y200564D01*
X525949Y199533D01*
Y198467D01*
X526225Y197436D01*
X526758Y196512D01*
X527513Y195758D01*
X528436Y195225D01*
X529467Y194949D01*
X530533D01*
X531564Y195225D01*
X532487Y195758D01*
X533242Y196512D01*
X533775Y197436D01*
X534051Y198467D01*
Y199533D01*
X533775Y200564D01*
X533242Y201487D01*
X532487Y202242D01*
X531564Y202775D01*
X530533Y203051D01*
D02*
G37*
G36*
X520533D02*
X519467D01*
X518436Y202775D01*
X517513Y202242D01*
X516758Y201487D01*
X516225Y200564D01*
X515949Y199533D01*
Y198467D01*
X516225Y197436D01*
X516758Y196512D01*
X517513Y195758D01*
X518436Y195225D01*
X519467Y194949D01*
X520533D01*
X521564Y195225D01*
X522487Y195758D01*
X523242Y196512D01*
X523775Y197436D01*
X524051Y198467D01*
Y199533D01*
X523775Y200564D01*
X523242Y201487D01*
X522487Y202242D01*
X521564Y202775D01*
X520533Y203051D01*
D02*
G37*
G36*
X510533D02*
X509467D01*
X508436Y202775D01*
X507513Y202242D01*
X506758Y201487D01*
X506225Y200564D01*
X505949Y199533D01*
Y198467D01*
X506225Y197436D01*
X506758Y196512D01*
X507513Y195758D01*
X508436Y195225D01*
X509467Y194949D01*
X510533D01*
X511564Y195225D01*
X512488Y195758D01*
X513242Y196512D01*
X513775Y197436D01*
X514051Y198467D01*
Y199533D01*
X513775Y200564D01*
X513242Y201487D01*
X512488Y202242D01*
X511564Y202775D01*
X510533Y203051D01*
D02*
G37*
G36*
X500533D02*
X499467D01*
X498436Y202775D01*
X497512Y202242D01*
X496758Y201487D01*
X496225Y200564D01*
X495949Y199533D01*
Y198467D01*
X496225Y197436D01*
X496758Y196512D01*
X497512Y195758D01*
X498436Y195225D01*
X499467Y194949D01*
X500533D01*
X501564Y195225D01*
X502488Y195758D01*
X503242Y196512D01*
X503775Y197436D01*
X504051Y198467D01*
Y199533D01*
X503775Y200564D01*
X503242Y201487D01*
X502488Y202242D01*
X501564Y202775D01*
X500533Y203051D01*
D02*
G37*
G36*
X490533D02*
X489467D01*
X488436Y202775D01*
X487512Y202242D01*
X486758Y201487D01*
X486225Y200564D01*
X485949Y199533D01*
Y198467D01*
X486225Y197436D01*
X486758Y196512D01*
X487512Y195758D01*
X488436Y195225D01*
X489467Y194949D01*
X490533D01*
X491564Y195225D01*
X492487Y195758D01*
X493242Y196512D01*
X493775Y197436D01*
X494051Y198467D01*
Y199533D01*
X493775Y200564D01*
X493242Y201487D01*
X492487Y202242D01*
X491564Y202775D01*
X490533Y203051D01*
D02*
G37*
G36*
X480533D02*
X479467D01*
X478436Y202775D01*
X477513Y202242D01*
X476758Y201487D01*
X476225Y200564D01*
X475949Y199533D01*
Y198467D01*
X476225Y197436D01*
X476758Y196512D01*
X477513Y195758D01*
X478436Y195225D01*
X479467Y194949D01*
X480533D01*
X481564Y195225D01*
X482487Y195758D01*
X483242Y196512D01*
X483775Y197436D01*
X484051Y198467D01*
Y199533D01*
X483775Y200564D01*
X483242Y201487D01*
X482487Y202242D01*
X481564Y202775D01*
X480533Y203051D01*
D02*
G37*
G36*
X470533D02*
X469467D01*
X468436Y202775D01*
X467513Y202242D01*
X466758Y201487D01*
X466225Y200564D01*
X465949Y199533D01*
Y198467D01*
X466225Y197436D01*
X466758Y196512D01*
X467513Y195758D01*
X468436Y195225D01*
X469467Y194949D01*
X470533D01*
X471564Y195225D01*
X472487Y195758D01*
X473242Y196512D01*
X473775Y197436D01*
X474051Y198467D01*
Y199533D01*
X473775Y200564D01*
X473242Y201487D01*
X472487Y202242D01*
X471564Y202775D01*
X470533Y203051D01*
D02*
G37*
G36*
X460533D02*
X459467D01*
X458436Y202775D01*
X457513Y202242D01*
X456758Y201487D01*
X456225Y200564D01*
X455949Y199533D01*
Y198467D01*
X456225Y197436D01*
X456758Y196512D01*
X457513Y195758D01*
X458436Y195225D01*
X459467Y194949D01*
X460533D01*
X461564Y195225D01*
X462488Y195758D01*
X463242Y196512D01*
X463775Y197436D01*
X464051Y198467D01*
Y199533D01*
X463775Y200564D01*
X463242Y201487D01*
X462488Y202242D01*
X461564Y202775D01*
X460533Y203051D01*
D02*
G37*
G36*
X300533D02*
X299467D01*
X298436Y202775D01*
X297513Y202242D01*
X296758Y201487D01*
X296225Y200564D01*
X295949Y199533D01*
Y198467D01*
X296225Y197436D01*
X296758Y196512D01*
X297513Y195758D01*
X298436Y195225D01*
X299467Y194949D01*
X300533D01*
X301564Y195225D01*
X302487Y195758D01*
X303242Y196512D01*
X303775Y197436D01*
X304051Y198467D01*
Y199533D01*
X303775Y200564D01*
X303242Y201487D01*
X302487Y202242D01*
X301564Y202775D01*
X300533Y203051D01*
D02*
G37*
G36*
X294051Y198500D02*
X290500D01*
Y194949D01*
X290533D01*
X291564Y195225D01*
X292488Y195758D01*
X293242Y196512D01*
X293775Y197436D01*
X294051Y198467D01*
Y198500D01*
D02*
G37*
G36*
X289500D02*
X285949D01*
Y198467D01*
X286225Y197436D01*
X286758Y196512D01*
X287512Y195758D01*
X288436Y195225D01*
X289467Y194949D01*
X289500D01*
Y198500D01*
D02*
G37*
G36*
X280533Y203051D02*
X279467D01*
X278436Y202775D01*
X277513Y202242D01*
X276758Y201487D01*
X276225Y200564D01*
X275949Y199533D01*
Y198467D01*
X276225Y197436D01*
X276758Y196512D01*
X277513Y195758D01*
X278436Y195225D01*
X279467Y194949D01*
X280533D01*
X281564Y195225D01*
X282488Y195758D01*
X283242Y196512D01*
X283775Y197436D01*
X284051Y198467D01*
Y199533D01*
X283775Y200564D01*
X283242Y201487D01*
X282488Y202242D01*
X281564Y202775D01*
X280533Y203051D01*
D02*
G37*
G36*
X270533D02*
X269467D01*
X268436Y202775D01*
X267512Y202242D01*
X266758Y201487D01*
X266225Y200564D01*
X265949Y199533D01*
Y198467D01*
X266225Y197436D01*
X266758Y196512D01*
X267512Y195758D01*
X268436Y195225D01*
X269467Y194949D01*
X270533D01*
X271564Y195225D01*
X272487Y195758D01*
X273242Y196512D01*
X273775Y197436D01*
X274051Y198467D01*
Y199533D01*
X273775Y200564D01*
X273242Y201487D01*
X272487Y202242D01*
X271564Y202775D01*
X270533Y203051D01*
D02*
G37*
G36*
X260533D02*
X259467D01*
X258436Y202775D01*
X257512Y202242D01*
X256758Y201487D01*
X256225Y200564D01*
X255949Y199533D01*
Y198467D01*
X256225Y197436D01*
X256758Y196512D01*
X257512Y195758D01*
X258436Y195225D01*
X259467Y194949D01*
X260533D01*
X261564Y195225D01*
X262488Y195758D01*
X263242Y196512D01*
X263775Y197436D01*
X264051Y198467D01*
Y199533D01*
X263775Y200564D01*
X263242Y201487D01*
X262488Y202242D01*
X261564Y202775D01*
X260533Y203051D01*
D02*
G37*
G36*
X250533D02*
X249467D01*
X248436Y202775D01*
X247513Y202242D01*
X246758Y201487D01*
X246225Y200564D01*
X245949Y199533D01*
Y198467D01*
X246225Y197436D01*
X246758Y196512D01*
X247513Y195758D01*
X248436Y195225D01*
X249467Y194949D01*
X250533D01*
X251564Y195225D01*
X252487Y195758D01*
X253242Y196512D01*
X253775Y197436D01*
X254051Y198467D01*
Y199533D01*
X253775Y200564D01*
X253242Y201487D01*
X252487Y202242D01*
X251564Y202775D01*
X250533Y203051D01*
D02*
G37*
G36*
X240533D02*
X239467D01*
X238436Y202775D01*
X237512Y202242D01*
X236758Y201487D01*
X236225Y200564D01*
X235949Y199533D01*
Y198467D01*
X236225Y197436D01*
X236758Y196512D01*
X237512Y195758D01*
X238436Y195225D01*
X239467Y194949D01*
X240533D01*
X241564Y195225D01*
X242488Y195758D01*
X243242Y196512D01*
X243775Y197436D01*
X244051Y198467D01*
Y199533D01*
X243775Y200564D01*
X243242Y201487D01*
X242488Y202242D01*
X241564Y202775D01*
X240533Y203051D01*
D02*
G37*
G36*
X230533D02*
X229467D01*
X228436Y202775D01*
X227513Y202242D01*
X226758Y201487D01*
X226225Y200564D01*
X225949Y199533D01*
Y198467D01*
X226225Y197436D01*
X226758Y196512D01*
X227513Y195758D01*
X228436Y195225D01*
X229467Y194949D01*
X230533D01*
X231564Y195225D01*
X232488Y195758D01*
X233242Y196512D01*
X233775Y197436D01*
X234051Y198467D01*
Y199533D01*
X233775Y200564D01*
X233242Y201487D01*
X232488Y202242D01*
X231564Y202775D01*
X230533Y203051D01*
D02*
G37*
G36*
X220533D02*
X219467D01*
X218436Y202775D01*
X217512Y202242D01*
X216758Y201487D01*
X216225Y200564D01*
X215949Y199533D01*
Y198467D01*
X216225Y197436D01*
X216758Y196512D01*
X217512Y195758D01*
X218436Y195225D01*
X219467Y194949D01*
X220533D01*
X221564Y195225D01*
X222487Y195758D01*
X223242Y196512D01*
X223775Y197436D01*
X224051Y198467D01*
Y199533D01*
X223775Y200564D01*
X223242Y201487D01*
X222487Y202242D01*
X221564Y202775D01*
X220533Y203051D01*
D02*
G37*
G36*
X210533D02*
X209467D01*
X208436Y202775D01*
X207512Y202242D01*
X206758Y201487D01*
X206225Y200564D01*
X205949Y199533D01*
Y198467D01*
X206225Y197436D01*
X206758Y196512D01*
X207512Y195758D01*
X208436Y195225D01*
X209467Y194949D01*
X210533D01*
X211564Y195225D01*
X212488Y195758D01*
X213242Y196512D01*
X213775Y197436D01*
X214051Y198467D01*
Y199533D01*
X213775Y200564D01*
X213242Y201487D01*
X212488Y202242D01*
X211564Y202775D01*
X210533Y203051D01*
D02*
G37*
G36*
X182054Y201224D02*
X181205D01*
X180385Y201005D01*
X179650Y200580D01*
X179050Y199980D01*
X178625Y199245D01*
X178405Y198424D01*
Y197575D01*
X178625Y196755D01*
X179050Y196020D01*
X179650Y195420D01*
X180385Y194995D01*
X181205Y194776D01*
X182054D01*
X182875Y194995D01*
X183610Y195420D01*
X184210Y196020D01*
X184635Y196755D01*
X184854Y197575D01*
Y198424D01*
X184635Y199245D01*
X184210Y199980D01*
X183610Y200580D01*
X182875Y201005D01*
X182054Y201224D01*
D02*
G37*
G36*
X150795D02*
X149946D01*
X149126Y201005D01*
X148390Y200580D01*
X147790Y199980D01*
X147365Y199245D01*
X147146Y198424D01*
Y197575D01*
X147365Y196755D01*
X147790Y196020D01*
X148390Y195420D01*
X149126Y194995D01*
X149946Y194776D01*
X150795D01*
X151615Y194995D01*
X152350Y195420D01*
X152950Y196020D01*
X153375Y196755D01*
X153595Y197575D01*
Y198424D01*
X153375Y199245D01*
X152950Y199980D01*
X152350Y200580D01*
X151615Y201005D01*
X150795Y201224D01*
D02*
G37*
G36*
X11461Y195500D02*
X10539D01*
X9649Y195262D01*
X8851Y194801D01*
X8199Y194149D01*
X7739Y193351D01*
X7500Y192461D01*
Y191539D01*
X7739Y190649D01*
X8199Y189851D01*
X8851Y189199D01*
X9649Y188739D01*
X10539Y188500D01*
X11461D01*
X12351Y188739D01*
X13149Y189199D01*
X13801Y189851D01*
X14262Y190649D01*
X14500Y191539D01*
Y192461D01*
X14262Y193351D01*
X13801Y194149D01*
X13149Y194801D01*
X12351Y195262D01*
X11461Y195500D01*
D02*
G37*
G36*
X182054Y191224D02*
X181205D01*
X180385Y191005D01*
X179650Y190580D01*
X179050Y189980D01*
X178625Y189245D01*
X178405Y188425D01*
Y187575D01*
X178625Y186755D01*
X179050Y186020D01*
X179650Y185420D01*
X180385Y184995D01*
X181205Y184776D01*
X182054D01*
X182875Y184995D01*
X183610Y185420D01*
X184210Y186020D01*
X184635Y186755D01*
X184854Y187575D01*
Y188425D01*
X184635Y189245D01*
X184210Y189980D01*
X183610Y190580D01*
X182875Y191005D01*
X182054Y191224D01*
D02*
G37*
G36*
X150795D02*
X149946D01*
X149126Y191005D01*
X148390Y190580D01*
X147790Y189980D01*
X147365Y189245D01*
X147146Y188425D01*
Y187575D01*
X147365Y186755D01*
X147790Y186020D01*
X148390Y185420D01*
X149126Y184995D01*
X149946Y184776D01*
X150795D01*
X151615Y184995D01*
X152350Y185420D01*
X152950Y186020D01*
X153375Y186755D01*
X153595Y187575D01*
Y188425D01*
X153375Y189245D01*
X152950Y189980D01*
X152350Y190580D01*
X151615Y191005D01*
X150795Y191224D01*
D02*
G37*
G36*
X106579Y188396D02*
X106500D01*
Y184500D01*
X110396D01*
Y184579D01*
X110096Y185697D01*
X109517Y186699D01*
X108699Y187517D01*
X107697Y188096D01*
X106579Y188396D01*
D02*
G37*
G36*
X105500D02*
X105421D01*
X104303Y188096D01*
X103301Y187517D01*
X102483Y186699D01*
X101904Y185697D01*
X101604Y184579D01*
Y184500D01*
X105500D01*
Y188396D01*
D02*
G37*
G36*
X46579D02*
X46500D01*
Y184500D01*
X50396D01*
Y184579D01*
X50096Y185697D01*
X49517Y186699D01*
X48699Y187517D01*
X47697Y188096D01*
X46579Y188396D01*
D02*
G37*
G36*
X45500D02*
X45421D01*
X44303Y188096D01*
X43301Y187517D01*
X42483Y186699D01*
X41904Y185697D01*
X41604Y184579D01*
Y184500D01*
X45500D01*
Y188396D01*
D02*
G37*
G36*
X436500Y186489D02*
Y183500D01*
X439490D01*
X439261Y184351D01*
X438801Y185149D01*
X438149Y185801D01*
X437351Y186261D01*
X436500Y186489D01*
D02*
G37*
G36*
X435500D02*
X434649Y186261D01*
X433851Y185801D01*
X433199Y185149D01*
X432738Y184351D01*
X432511Y183500D01*
X435500D01*
Y186489D01*
D02*
G37*
G36*
X116579Y188396D02*
X115421D01*
X114303Y188096D01*
X113301Y187517D01*
X112483Y186699D01*
X111904Y185697D01*
X111604Y184579D01*
Y183421D01*
X111904Y182303D01*
X112483Y181301D01*
X113301Y180483D01*
X114303Y179904D01*
X115421Y179604D01*
X116579D01*
X117697Y179904D01*
X118699Y180483D01*
X119517Y181301D01*
X120096Y182303D01*
X120396Y183421D01*
Y184579D01*
X120096Y185697D01*
X119517Y186699D01*
X118699Y187517D01*
X117697Y188096D01*
X116579Y188396D01*
D02*
G37*
G36*
X110396Y183500D02*
X106500D01*
Y179604D01*
X106579D01*
X107697Y179904D01*
X108699Y180483D01*
X109517Y181301D01*
X110096Y182303D01*
X110396Y183421D01*
Y183500D01*
D02*
G37*
G36*
X105500D02*
X101604D01*
Y183421D01*
X101904Y182303D01*
X102483Y181301D01*
X103301Y180483D01*
X104303Y179904D01*
X105421Y179604D01*
X105500D01*
Y183500D01*
D02*
G37*
G36*
X96579Y188396D02*
X95421D01*
X94303Y188096D01*
X93301Y187517D01*
X92483Y186699D01*
X91904Y185697D01*
X91604Y184579D01*
Y183421D01*
X91904Y182303D01*
X92483Y181301D01*
X93301Y180483D01*
X94303Y179904D01*
X95421Y179604D01*
X96579D01*
X97697Y179904D01*
X98699Y180483D01*
X99517Y181301D01*
X100096Y182303D01*
X100396Y183421D01*
Y184579D01*
X100096Y185697D01*
X99517Y186699D01*
X98699Y187517D01*
X97697Y188096D01*
X96579Y188396D01*
D02*
G37*
G36*
X86579D02*
X85421D01*
X84303Y188096D01*
X83301Y187517D01*
X82483Y186699D01*
X81904Y185697D01*
X81604Y184579D01*
Y183421D01*
X81904Y182303D01*
X82483Y181301D01*
X83301Y180483D01*
X84303Y179904D01*
X85421Y179604D01*
X86579D01*
X87697Y179904D01*
X88699Y180483D01*
X89517Y181301D01*
X90096Y182303D01*
X90396Y183421D01*
Y184579D01*
X90096Y185697D01*
X89517Y186699D01*
X88699Y187517D01*
X87697Y188096D01*
X86579Y188396D01*
D02*
G37*
G36*
X66579D02*
X65421D01*
X64303Y188096D01*
X63301Y187517D01*
X62483Y186699D01*
X61904Y185697D01*
X61604Y184579D01*
Y183421D01*
X61904Y182303D01*
X62483Y181301D01*
X63301Y180483D01*
X64303Y179904D01*
X65421Y179604D01*
X66579D01*
X67697Y179904D01*
X68699Y180483D01*
X69517Y181301D01*
X70096Y182303D01*
X70396Y183421D01*
Y184579D01*
X70096Y185697D01*
X69517Y186699D01*
X68699Y187517D01*
X67697Y188096D01*
X66579Y188396D01*
D02*
G37*
G36*
X56579D02*
X55421D01*
X54303Y188096D01*
X53301Y187517D01*
X52483Y186699D01*
X51904Y185697D01*
X51604Y184579D01*
Y183421D01*
X51904Y182303D01*
X52483Y181301D01*
X53301Y180483D01*
X54303Y179904D01*
X55421Y179604D01*
X56579D01*
X57697Y179904D01*
X58699Y180483D01*
X59517Y181301D01*
X60096Y182303D01*
X60396Y183421D01*
Y184579D01*
X60096Y185697D01*
X59517Y186699D01*
X58699Y187517D01*
X57697Y188096D01*
X56579Y188396D01*
D02*
G37*
G36*
X50396Y183500D02*
X46500D01*
Y179604D01*
X46579D01*
X47697Y179904D01*
X48699Y180483D01*
X49517Y181301D01*
X50096Y182303D01*
X50396Y183421D01*
Y183500D01*
D02*
G37*
G36*
X45500D02*
X41604D01*
Y183421D01*
X41904Y182303D01*
X42483Y181301D01*
X43301Y180483D01*
X44303Y179904D01*
X45421Y179604D01*
X45500D01*
Y183500D01*
D02*
G37*
G36*
X439490Y182500D02*
X436500D01*
Y179510D01*
X437351Y179738D01*
X438149Y180199D01*
X438801Y180851D01*
X439261Y181649D01*
X439490Y182500D01*
D02*
G37*
G36*
X435500D02*
X432511D01*
X432738Y181649D01*
X433199Y180851D01*
X433851Y180199D01*
X434649Y179738D01*
X435500Y179510D01*
Y182500D01*
D02*
G37*
G36*
X182054Y181224D02*
X181205D01*
X180385Y181005D01*
X179650Y180580D01*
X179050Y179980D01*
X178625Y179245D01*
X178405Y178425D01*
Y177576D01*
X178625Y176755D01*
X179050Y176020D01*
X179650Y175420D01*
X180385Y174995D01*
X181205Y174776D01*
X182054D01*
X182875Y174995D01*
X183610Y175420D01*
X184210Y176020D01*
X184635Y176755D01*
X184854Y177576D01*
Y178425D01*
X184635Y179245D01*
X184210Y179980D01*
X183610Y180580D01*
X182875Y181005D01*
X182054Y181224D01*
D02*
G37*
G36*
X153595D02*
X147146D01*
Y174776D01*
X153595D01*
Y181224D01*
D02*
G37*
G36*
X476461Y179500D02*
X475539D01*
X474649Y179262D01*
X473851Y178801D01*
X473199Y178149D01*
X472739Y177351D01*
X472500Y176461D01*
Y175539D01*
X472739Y174649D01*
X473199Y173851D01*
X473851Y173199D01*
X474649Y172739D01*
X475539Y172500D01*
X476461D01*
X477351Y172739D01*
X478149Y173199D01*
X478801Y173851D01*
X479261Y174649D01*
X479500Y175539D01*
Y176461D01*
X479261Y177351D01*
X478801Y178149D01*
X478149Y178801D01*
X477351Y179262D01*
X476461Y179500D01*
D02*
G37*
G36*
X489500Y166834D02*
Y164130D01*
X492204D01*
X492005Y164874D01*
X491580Y165610D01*
X490980Y166210D01*
X490245Y166635D01*
X489500Y166834D01*
D02*
G37*
G36*
X488500D02*
X487755Y166635D01*
X487020Y166210D01*
X486420Y165610D01*
X485995Y164874D01*
X485796Y164130D01*
X488500D01*
Y166834D01*
D02*
G37*
G36*
X492204Y163130D02*
X489500D01*
Y160426D01*
X490245Y160625D01*
X490980Y161050D01*
X491580Y161650D01*
X492005Y162385D01*
X492204Y163130D01*
D02*
G37*
G36*
X488500D02*
X485796D01*
X485995Y162385D01*
X486420Y161650D01*
X487020Y161050D01*
X487755Y160625D01*
X488500Y160426D01*
Y163130D01*
D02*
G37*
G36*
X479424Y166854D02*
X478576D01*
X477755Y166635D01*
X477020Y166210D01*
X476420Y165610D01*
X475995Y164874D01*
X475776Y164054D01*
Y163205D01*
X475995Y162385D01*
X476420Y161650D01*
X477020Y161050D01*
X477755Y160625D01*
X478576Y160406D01*
X479424D01*
X480245Y160625D01*
X480980Y161050D01*
X481580Y161650D01*
X482005Y162385D01*
X482224Y163205D01*
Y164054D01*
X482005Y164874D01*
X481580Y165610D01*
X480980Y166210D01*
X480245Y166635D01*
X479424Y166854D01*
D02*
G37*
G36*
X469424D02*
X468575D01*
X467755Y166635D01*
X467020Y166210D01*
X466420Y165610D01*
X465995Y164874D01*
X465776Y164054D01*
Y163205D01*
X465995Y162385D01*
X466420Y161650D01*
X467020Y161050D01*
X467755Y160625D01*
X468575Y160406D01*
X469424D01*
X470245Y160625D01*
X470980Y161050D01*
X471580Y161650D01*
X472005Y162385D01*
X472224Y163205D01*
Y164054D01*
X472005Y164874D01*
X471580Y165610D01*
X470980Y166210D01*
X470245Y166635D01*
X469424Y166854D01*
D02*
G37*
G36*
X462224D02*
X455776D01*
Y160406D01*
X462224D01*
Y166854D01*
D02*
G37*
G36*
X561461Y165500D02*
X560539D01*
X559649Y165261D01*
X558851Y164801D01*
X558199Y164149D01*
X557738Y163351D01*
X557500Y162461D01*
Y161539D01*
X557738Y160649D01*
X558199Y159851D01*
X558851Y159199D01*
X559649Y158739D01*
X560539Y158500D01*
X561461D01*
X562351Y158739D01*
X563149Y159199D01*
X563801Y159851D01*
X564261Y160649D01*
X564500Y161539D01*
Y162461D01*
X564261Y163351D01*
X563801Y164149D01*
X563149Y164801D01*
X562351Y165261D01*
X561461Y165500D01*
D02*
G37*
G36*
X532461Y162500D02*
X531539D01*
X530649Y162261D01*
X529851Y161801D01*
X529199Y161149D01*
X528738Y160351D01*
X528500Y159461D01*
Y158539D01*
X528738Y157649D01*
X529199Y156851D01*
X529851Y156199D01*
X530649Y155738D01*
X531539Y155500D01*
X532461D01*
X533351Y155738D01*
X534149Y156199D01*
X534801Y156851D01*
X535261Y157649D01*
X535500Y158539D01*
Y159461D01*
X535261Y160351D01*
X534801Y161149D01*
X534149Y161801D01*
X533351Y162261D01*
X532461Y162500D01*
D02*
G37*
G36*
X566461Y157500D02*
X565539D01*
X564649Y157262D01*
X563851Y156801D01*
X563199Y156149D01*
X562739Y155351D01*
X562500Y154461D01*
Y153539D01*
X562739Y152649D01*
X563199Y151851D01*
X563851Y151199D01*
X564649Y150739D01*
X565539Y150500D01*
X566461D01*
X567351Y150739D01*
X568149Y151199D01*
X568801Y151851D01*
X569262Y152649D01*
X569500Y153539D01*
Y154461D01*
X569262Y155351D01*
X568801Y156149D01*
X568149Y156801D01*
X567351Y157262D01*
X566461Y157500D01*
D02*
G37*
G36*
X106579Y148396D02*
X106500D01*
Y144500D01*
X110396D01*
Y144579D01*
X110096Y145697D01*
X109517Y146699D01*
X108699Y147517D01*
X107697Y148096D01*
X106579Y148396D01*
D02*
G37*
G36*
X105500D02*
X105421D01*
X104303Y148096D01*
X103301Y147517D01*
X102483Y146699D01*
X101904Y145697D01*
X101604Y144579D01*
Y144500D01*
X105500D01*
Y148396D01*
D02*
G37*
G36*
X46579D02*
X46500D01*
Y144500D01*
X50396D01*
Y144579D01*
X50096Y145697D01*
X49517Y146699D01*
X48699Y147517D01*
X47697Y148096D01*
X46579Y148396D01*
D02*
G37*
G36*
X45500D02*
X45421D01*
X44303Y148096D01*
X43301Y147517D01*
X42483Y146699D01*
X41904Y145697D01*
X41604Y144579D01*
Y144500D01*
X45500D01*
Y148396D01*
D02*
G37*
G36*
X116579D02*
X115421D01*
X114303Y148096D01*
X113301Y147517D01*
X112483Y146699D01*
X111904Y145697D01*
X111604Y144579D01*
Y143421D01*
X111904Y142303D01*
X112483Y141301D01*
X113301Y140483D01*
X114303Y139904D01*
X115421Y139604D01*
X116579D01*
X117697Y139904D01*
X118699Y140483D01*
X119517Y141301D01*
X120096Y142303D01*
X120396Y143421D01*
Y144579D01*
X120096Y145697D01*
X119517Y146699D01*
X118699Y147517D01*
X117697Y148096D01*
X116579Y148396D01*
D02*
G37*
G36*
X110396Y143500D02*
X106500D01*
Y139604D01*
X106579D01*
X107697Y139904D01*
X108699Y140483D01*
X109517Y141301D01*
X110096Y142303D01*
X110396Y143421D01*
Y143500D01*
D02*
G37*
G36*
X105500D02*
X101604D01*
Y143421D01*
X101904Y142303D01*
X102483Y141301D01*
X103301Y140483D01*
X104303Y139904D01*
X105421Y139604D01*
X105500D01*
Y143500D01*
D02*
G37*
G36*
X96579Y148396D02*
X95421D01*
X94303Y148096D01*
X93301Y147517D01*
X92483Y146699D01*
X91904Y145697D01*
X91604Y144579D01*
Y143421D01*
X91904Y142303D01*
X92483Y141301D01*
X93301Y140483D01*
X94303Y139904D01*
X95421Y139604D01*
X96579D01*
X97697Y139904D01*
X98699Y140483D01*
X99517Y141301D01*
X100096Y142303D01*
X100396Y143421D01*
Y144579D01*
X100096Y145697D01*
X99517Y146699D01*
X98699Y147517D01*
X97697Y148096D01*
X96579Y148396D01*
D02*
G37*
G36*
X86579D02*
X85421D01*
X84303Y148096D01*
X83301Y147517D01*
X82483Y146699D01*
X81904Y145697D01*
X81604Y144579D01*
Y143421D01*
X81904Y142303D01*
X82483Y141301D01*
X83301Y140483D01*
X84303Y139904D01*
X85421Y139604D01*
X86579D01*
X87697Y139904D01*
X88699Y140483D01*
X89517Y141301D01*
X90096Y142303D01*
X90396Y143421D01*
Y144579D01*
X90096Y145697D01*
X89517Y146699D01*
X88699Y147517D01*
X87697Y148096D01*
X86579Y148396D01*
D02*
G37*
G36*
X66579D02*
X65421D01*
X64303Y148096D01*
X63301Y147517D01*
X62483Y146699D01*
X61904Y145697D01*
X61604Y144579D01*
Y143421D01*
X61904Y142303D01*
X62483Y141301D01*
X63301Y140483D01*
X64303Y139904D01*
X65421Y139604D01*
X66579D01*
X67697Y139904D01*
X68699Y140483D01*
X69517Y141301D01*
X70096Y142303D01*
X70396Y143421D01*
Y144579D01*
X70096Y145697D01*
X69517Y146699D01*
X68699Y147517D01*
X67697Y148096D01*
X66579Y148396D01*
D02*
G37*
G36*
X56579D02*
X55421D01*
X54303Y148096D01*
X53301Y147517D01*
X52483Y146699D01*
X51904Y145697D01*
X51604Y144579D01*
Y143421D01*
X51904Y142303D01*
X52483Y141301D01*
X53301Y140483D01*
X54303Y139904D01*
X55421Y139604D01*
X56579D01*
X57697Y139904D01*
X58699Y140483D01*
X59517Y141301D01*
X60096Y142303D01*
X60396Y143421D01*
Y144579D01*
X60096Y145697D01*
X59517Y146699D01*
X58699Y147517D01*
X57697Y148096D01*
X56579Y148396D01*
D02*
G37*
G36*
X50396Y143500D02*
X46500D01*
Y139604D01*
X46579D01*
X47697Y139904D01*
X48699Y140483D01*
X49517Y141301D01*
X50096Y142303D01*
X50396Y143421D01*
Y143500D01*
D02*
G37*
G36*
X45500D02*
X41604D01*
Y143421D01*
X41904Y142303D01*
X42483Y141301D01*
X43301Y140483D01*
X44303Y139904D01*
X45421Y139604D01*
X45500D01*
Y143500D01*
D02*
G37*
G36*
X489425Y135594D02*
X488576D01*
X487755Y135375D01*
X487020Y134950D01*
X486420Y134350D01*
X485995Y133615D01*
X485776Y132795D01*
Y131946D01*
X485995Y131125D01*
X486420Y130390D01*
X487020Y129790D01*
X487755Y129365D01*
X488576Y129146D01*
X489425D01*
X490245Y129365D01*
X490980Y129790D01*
X491580Y130390D01*
X492005Y131125D01*
X492224Y131946D01*
Y132795D01*
X492005Y133615D01*
X491580Y134350D01*
X490980Y134950D01*
X490245Y135375D01*
X489425Y135594D01*
D02*
G37*
G36*
X479424D02*
X478576D01*
X477755Y135375D01*
X477020Y134950D01*
X476420Y134350D01*
X475995Y133615D01*
X475776Y132795D01*
Y131946D01*
X475995Y131125D01*
X476420Y130390D01*
X477020Y129790D01*
X477755Y129365D01*
X478576Y129146D01*
X479424D01*
X480245Y129365D01*
X480980Y129790D01*
X481580Y130390D01*
X482005Y131125D01*
X482224Y131946D01*
Y132795D01*
X482005Y133615D01*
X481580Y134350D01*
X480980Y134950D01*
X480245Y135375D01*
X479424Y135594D01*
D02*
G37*
G36*
X469424D02*
X468575D01*
X467755Y135375D01*
X467020Y134950D01*
X466420Y134350D01*
X465995Y133615D01*
X465776Y132795D01*
Y131946D01*
X465995Y131125D01*
X466420Y130390D01*
X467020Y129790D01*
X467755Y129365D01*
X468575Y129146D01*
X469424D01*
X470245Y129365D01*
X470980Y129790D01*
X471580Y130390D01*
X472005Y131125D01*
X472224Y131946D01*
Y132795D01*
X472005Y133615D01*
X471580Y134350D01*
X470980Y134950D01*
X470245Y135375D01*
X469424Y135594D01*
D02*
G37*
G36*
X459424D02*
X458575D01*
X457755Y135375D01*
X457020Y134950D01*
X456420Y134350D01*
X455995Y133615D01*
X455776Y132795D01*
Y131946D01*
X455995Y131125D01*
X456420Y130390D01*
X457020Y129790D01*
X457755Y129365D01*
X458575Y129146D01*
X459424D01*
X460245Y129365D01*
X460980Y129790D01*
X461580Y130390D01*
X462005Y131125D01*
X462224Y131946D01*
Y132795D01*
X462005Y133615D01*
X461580Y134350D01*
X460980Y134950D01*
X460245Y135375D01*
X459424Y135594D01*
D02*
G37*
G36*
X570461Y130500D02*
X569539D01*
X568649Y130262D01*
X567851Y129801D01*
X567199Y129149D01*
X566739Y128351D01*
X566500Y127461D01*
Y126539D01*
X566739Y125649D01*
X567199Y124851D01*
X567851Y124199D01*
X568649Y123739D01*
X569539Y123500D01*
X570461D01*
X571351Y123739D01*
X572149Y124199D01*
X572801Y124851D01*
X573261Y125649D01*
X573500Y126539D01*
Y127461D01*
X573261Y128351D01*
X572801Y129149D01*
X572149Y129801D01*
X571351Y130262D01*
X570461Y130500D01*
D02*
G37*
G36*
X19461Y129500D02*
X18539D01*
X17649Y129262D01*
X16851Y128801D01*
X16199Y128149D01*
X15739Y127351D01*
X15500Y126461D01*
Y125539D01*
X15739Y124649D01*
X16199Y123851D01*
X16851Y123199D01*
X17649Y122739D01*
X18539Y122500D01*
X19461D01*
X20351Y122739D01*
X21149Y123199D01*
X21801Y123851D01*
X22262Y124649D01*
X22500Y125539D01*
Y126461D01*
X22262Y127351D01*
X21801Y128149D01*
X21149Y128801D01*
X20351Y129262D01*
X19461Y129500D01*
D02*
G37*
G36*
X565461Y115500D02*
X564539D01*
X563649Y115261D01*
X562851Y114801D01*
X562199Y114149D01*
X561738Y113351D01*
X561500Y112461D01*
Y111539D01*
X561738Y110649D01*
X562199Y109851D01*
X562851Y109199D01*
X563649Y108739D01*
X564539Y108500D01*
X565461D01*
X566351Y108739D01*
X567149Y109199D01*
X567801Y109851D01*
X568261Y110649D01*
X568500Y111539D01*
Y112461D01*
X568261Y113351D01*
X567801Y114149D01*
X567149Y114801D01*
X566351Y115261D01*
X565461Y115500D01*
D02*
G37*
G36*
X107579Y110396D02*
X107500D01*
Y106500D01*
X111396D01*
Y106579D01*
X111096Y107697D01*
X110517Y108699D01*
X109699Y109517D01*
X108697Y110096D01*
X107579Y110396D01*
D02*
G37*
G36*
X106500D02*
X106421D01*
X105303Y110096D01*
X104301Y109517D01*
X103483Y108699D01*
X102904Y107697D01*
X102604Y106579D01*
Y106500D01*
X106500D01*
Y110396D01*
D02*
G37*
G36*
X47579D02*
X47500D01*
Y106500D01*
X51396D01*
Y106579D01*
X51096Y107697D01*
X50517Y108699D01*
X49699Y109517D01*
X48697Y110096D01*
X47579Y110396D01*
D02*
G37*
G36*
X46500D02*
X46421D01*
X45303Y110096D01*
X44301Y109517D01*
X43483Y108699D01*
X42904Y107697D01*
X42604Y106579D01*
Y106500D01*
X46500D01*
Y110396D01*
D02*
G37*
G36*
X545500Y107490D02*
Y104500D01*
X548490D01*
X548261Y105351D01*
X547801Y106149D01*
X547149Y106801D01*
X546351Y107262D01*
X545500Y107490D01*
D02*
G37*
G36*
X544500D02*
X543649Y107262D01*
X542851Y106801D01*
X542199Y106149D01*
X541739Y105351D01*
X541510Y104500D01*
X544500D01*
Y107490D01*
D02*
G37*
G36*
X464500Y106490D02*
Y103500D01*
X467489D01*
X467262Y104351D01*
X466801Y105149D01*
X466149Y105801D01*
X465351Y106262D01*
X464500Y106490D01*
D02*
G37*
G36*
X463500D02*
X462649Y106262D01*
X461851Y105801D01*
X461199Y105149D01*
X460739Y104351D01*
X460510Y103500D01*
X463500D01*
Y106490D01*
D02*
G37*
G36*
X504500Y105490D02*
Y102500D01*
X507489D01*
X507262Y103351D01*
X506801Y104149D01*
X506149Y104801D01*
X505351Y105262D01*
X504500Y105490D01*
D02*
G37*
G36*
X503500D02*
X502649Y105262D01*
X501851Y104801D01*
X501199Y104149D01*
X500738Y103351D01*
X500511Y102500D01*
X503500D01*
Y105490D01*
D02*
G37*
G36*
X117579Y110396D02*
X116421D01*
X115303Y110096D01*
X114301Y109517D01*
X113483Y108699D01*
X112904Y107697D01*
X112604Y106579D01*
Y105421D01*
X112904Y104303D01*
X113483Y103301D01*
X114301Y102483D01*
X115303Y101904D01*
X116421Y101604D01*
X117579D01*
X118697Y101904D01*
X119699Y102483D01*
X120517Y103301D01*
X121096Y104303D01*
X121396Y105421D01*
Y106579D01*
X121096Y107697D01*
X120517Y108699D01*
X119699Y109517D01*
X118697Y110096D01*
X117579Y110396D01*
D02*
G37*
G36*
X111396Y105500D02*
X107500D01*
Y101604D01*
X107579D01*
X108697Y101904D01*
X109699Y102483D01*
X110517Y103301D01*
X111096Y104303D01*
X111396Y105421D01*
Y105500D01*
D02*
G37*
G36*
X106500D02*
X102604D01*
Y105421D01*
X102904Y104303D01*
X103483Y103301D01*
X104301Y102483D01*
X105303Y101904D01*
X106421Y101604D01*
X106500D01*
Y105500D01*
D02*
G37*
G36*
X97579Y110396D02*
X96421D01*
X95303Y110096D01*
X94301Y109517D01*
X93483Y108699D01*
X92904Y107697D01*
X92604Y106579D01*
Y105421D01*
X92904Y104303D01*
X93483Y103301D01*
X94301Y102483D01*
X95303Y101904D01*
X96421Y101604D01*
X97579D01*
X98697Y101904D01*
X99699Y102483D01*
X100517Y103301D01*
X101096Y104303D01*
X101396Y105421D01*
Y106579D01*
X101096Y107697D01*
X100517Y108699D01*
X99699Y109517D01*
X98697Y110096D01*
X97579Y110396D01*
D02*
G37*
G36*
X87579D02*
X86421D01*
X85303Y110096D01*
X84301Y109517D01*
X83483Y108699D01*
X82904Y107697D01*
X82604Y106579D01*
Y105421D01*
X82904Y104303D01*
X83483Y103301D01*
X84301Y102483D01*
X85303Y101904D01*
X86421Y101604D01*
X87579D01*
X88697Y101904D01*
X89699Y102483D01*
X90517Y103301D01*
X91096Y104303D01*
X91396Y105421D01*
Y106579D01*
X91096Y107697D01*
X90517Y108699D01*
X89699Y109517D01*
X88697Y110096D01*
X87579Y110396D01*
D02*
G37*
G36*
X67579D02*
X66421D01*
X65303Y110096D01*
X64301Y109517D01*
X63483Y108699D01*
X62904Y107697D01*
X62604Y106579D01*
Y105421D01*
X62904Y104303D01*
X63483Y103301D01*
X64301Y102483D01*
X65303Y101904D01*
X66421Y101604D01*
X67579D01*
X68697Y101904D01*
X69699Y102483D01*
X70517Y103301D01*
X71096Y104303D01*
X71396Y105421D01*
Y106579D01*
X71096Y107697D01*
X70517Y108699D01*
X69699Y109517D01*
X68697Y110096D01*
X67579Y110396D01*
D02*
G37*
G36*
X57579D02*
X56421D01*
X55303Y110096D01*
X54301Y109517D01*
X53483Y108699D01*
X52904Y107697D01*
X52604Y106579D01*
Y105421D01*
X52904Y104303D01*
X53483Y103301D01*
X54301Y102483D01*
X55303Y101904D01*
X56421Y101604D01*
X57579D01*
X58697Y101904D01*
X59699Y102483D01*
X60517Y103301D01*
X61096Y104303D01*
X61396Y105421D01*
Y106579D01*
X61096Y107697D01*
X60517Y108699D01*
X59699Y109517D01*
X58697Y110096D01*
X57579Y110396D01*
D02*
G37*
G36*
X51396Y105500D02*
X47500D01*
Y101604D01*
X47579D01*
X48697Y101904D01*
X49699Y102483D01*
X50517Y103301D01*
X51096Y104303D01*
X51396Y105421D01*
Y105500D01*
D02*
G37*
G36*
X46500D02*
X42604D01*
Y105421D01*
X42904Y104303D01*
X43483Y103301D01*
X44301Y102483D01*
X45303Y101904D01*
X46421Y101604D01*
X46500D01*
Y105500D01*
D02*
G37*
G36*
X548490Y103500D02*
X545500D01*
Y100511D01*
X546351Y100739D01*
X547149Y101199D01*
X547801Y101851D01*
X548261Y102649D01*
X548490Y103500D01*
D02*
G37*
G36*
X544500D02*
X541510D01*
X541739Y102649D01*
X542199Y101851D01*
X542851Y101199D01*
X543649Y100739D01*
X544500Y100511D01*
Y103500D01*
D02*
G37*
G36*
X467489Y102500D02*
X464500D01*
Y99511D01*
X465351Y99739D01*
X466149Y100199D01*
X466801Y100851D01*
X467262Y101649D01*
X467489Y102500D01*
D02*
G37*
G36*
X463500D02*
X460510D01*
X460739Y101649D01*
X461199Y100851D01*
X461851Y100199D01*
X462649Y99739D01*
X463500Y99511D01*
Y102500D01*
D02*
G37*
G36*
X507489Y101500D02*
X504500D01*
Y98510D01*
X505351Y98738D01*
X506149Y99199D01*
X506801Y99851D01*
X507262Y100649D01*
X507489Y101500D01*
D02*
G37*
G36*
X503500D02*
X500511D01*
X500738Y100649D01*
X501199Y99851D01*
X501851Y99199D01*
X502649Y98738D01*
X503500Y98510D01*
Y101500D01*
D02*
G37*
G36*
X593461Y98500D02*
X592539D01*
X591649Y98261D01*
X590851Y97801D01*
X590199Y97149D01*
X589739Y96351D01*
X589500Y95461D01*
Y94539D01*
X589739Y93649D01*
X590199Y92851D01*
X590851Y92199D01*
X591649Y91738D01*
X592539Y91500D01*
X593461D01*
X594351Y91738D01*
X595149Y92199D01*
X595801Y92851D01*
X596262Y93649D01*
X596500Y94539D01*
Y95461D01*
X596262Y96351D01*
X595801Y97149D01*
X595149Y97801D01*
X594351Y98261D01*
X593461Y98500D01*
D02*
G37*
G36*
X9461Y89500D02*
X8539D01*
X7649Y89262D01*
X6851Y88801D01*
X6199Y88149D01*
X5739Y87351D01*
X5500Y86461D01*
Y85539D01*
X5739Y84649D01*
X6199Y83851D01*
X6851Y83199D01*
X7649Y82739D01*
X8539Y82500D01*
X9461D01*
X10351Y82739D01*
X11149Y83199D01*
X11801Y83851D01*
X12262Y84649D01*
X12500Y85539D01*
Y86461D01*
X12262Y87351D01*
X11801Y88149D01*
X11149Y88801D01*
X10351Y89262D01*
X9461Y89500D01*
D02*
G37*
G36*
X593461Y86500D02*
X592539D01*
X591649Y86261D01*
X590851Y85801D01*
X590199Y85149D01*
X589739Y84351D01*
X589500Y83461D01*
Y82539D01*
X589739Y81649D01*
X590199Y80851D01*
X590851Y80199D01*
X591649Y79738D01*
X592539Y79500D01*
X593461D01*
X594351Y79738D01*
X595149Y80199D01*
X595801Y80851D01*
X596262Y81649D01*
X596500Y82539D01*
Y83461D01*
X596262Y84351D01*
X595801Y85149D01*
X595149Y85801D01*
X594351Y86261D01*
X593461Y86500D01*
D02*
G37*
G36*
X550461Y82500D02*
X549539D01*
X548649Y82262D01*
X547851Y81801D01*
X547199Y81149D01*
X546738Y80351D01*
X546500Y79461D01*
Y78539D01*
X546738Y77649D01*
X547199Y76851D01*
X547851Y76199D01*
X548649Y75739D01*
X549539Y75500D01*
X550461D01*
X551351Y75739D01*
X552149Y76199D01*
X552801Y76851D01*
X553262Y77649D01*
X553500Y78539D01*
Y79461D01*
X553262Y80351D01*
X552801Y81149D01*
X552149Y81801D01*
X551351Y82262D01*
X550461Y82500D01*
D02*
G37*
G36*
X540461D02*
X539539D01*
X538649Y82262D01*
X537851Y81801D01*
X537199Y81149D01*
X536738Y80351D01*
X536500Y79461D01*
Y78539D01*
X536738Y77649D01*
X537199Y76851D01*
X537851Y76199D01*
X538649Y75739D01*
X539539Y75500D01*
X540461D01*
X541351Y75739D01*
X542149Y76199D01*
X542801Y76851D01*
X543261Y77649D01*
X543500Y78539D01*
Y79461D01*
X543261Y80351D01*
X542801Y81149D01*
X542149Y81801D01*
X541351Y82262D01*
X540461Y82500D01*
D02*
G37*
G36*
X499461D02*
X498539D01*
X497649Y82262D01*
X496851Y81801D01*
X496199Y81149D01*
X495739Y80351D01*
X495500Y79461D01*
Y78539D01*
X495739Y77649D01*
X496199Y76851D01*
X496851Y76199D01*
X497649Y75739D01*
X498539Y75500D01*
X499461D01*
X500351Y75739D01*
X501149Y76199D01*
X501801Y76851D01*
X502261Y77649D01*
X502500Y78539D01*
Y79461D01*
X502261Y80351D01*
X501801Y81149D01*
X501149Y81801D01*
X500351Y82262D01*
X499461Y82500D01*
D02*
G37*
G36*
X510461Y81500D02*
X509539D01*
X508649Y81261D01*
X507851Y80801D01*
X507199Y80149D01*
X506739Y79351D01*
X506500Y78461D01*
Y77539D01*
X506739Y76649D01*
X507199Y75851D01*
X507851Y75199D01*
X508649Y74739D01*
X509539Y74500D01*
X510461D01*
X511351Y74739D01*
X512149Y75199D01*
X512801Y75851D01*
X513262Y76649D01*
X513500Y77539D01*
Y78461D01*
X513262Y79351D01*
X512801Y80149D01*
X512149Y80801D01*
X511351Y81261D01*
X510461Y81500D01*
D02*
G37*
G36*
X469461Y80500D02*
X468539D01*
X467649Y80261D01*
X466851Y79801D01*
X466199Y79149D01*
X465738Y78351D01*
X465500Y77461D01*
Y76539D01*
X465738Y75649D01*
X466199Y74851D01*
X466851Y74199D01*
X467649Y73738D01*
X468539Y73500D01*
X469461D01*
X470351Y73738D01*
X471149Y74199D01*
X471801Y74851D01*
X472261Y75649D01*
X472500Y76539D01*
Y77461D01*
X472261Y78351D01*
X471801Y79149D01*
X471149Y79801D01*
X470351Y80261D01*
X469461Y80500D01*
D02*
G37*
G36*
X458461D02*
X457539D01*
X456649Y80261D01*
X455851Y79801D01*
X455199Y79149D01*
X454739Y78351D01*
X454500Y77461D01*
Y76539D01*
X454739Y75649D01*
X455199Y74851D01*
X455851Y74199D01*
X456649Y73738D01*
X457539Y73500D01*
X458461D01*
X459351Y73738D01*
X460149Y74199D01*
X460801Y74851D01*
X461262Y75649D01*
X461500Y76539D01*
Y77461D01*
X461262Y78351D01*
X460801Y79149D01*
X460149Y79801D01*
X459351Y80261D01*
X458461Y80500D01*
D02*
G37*
G36*
X110500Y75489D02*
Y72500D01*
X113489D01*
X113261Y73351D01*
X112801Y74149D01*
X112149Y74801D01*
X111351Y75261D01*
X110500Y75489D01*
D02*
G37*
G36*
X109500D02*
X108649Y75261D01*
X107851Y74801D01*
X107199Y74149D01*
X106738Y73351D01*
X106510Y72500D01*
X109500D01*
Y75489D01*
D02*
G37*
G36*
X113489Y71500D02*
X110500D01*
Y68511D01*
X111351Y68739D01*
X112149Y69199D01*
X112801Y69851D01*
X113261Y70649D01*
X113489Y71500D01*
D02*
G37*
G36*
X109500D02*
X106510D01*
X106738Y70649D01*
X107199Y69851D01*
X107851Y69199D01*
X108649Y68739D01*
X109500Y68511D01*
Y71500D01*
D02*
G37*
G36*
X593461Y73500D02*
X592539D01*
X591649Y73261D01*
X590851Y72801D01*
X590199Y72149D01*
X589739Y71351D01*
X589500Y70461D01*
Y69539D01*
X589739Y68649D01*
X590199Y67851D01*
X590851Y67199D01*
X591649Y66738D01*
X592539Y66500D01*
X593461D01*
X594351Y66738D01*
X595149Y67199D01*
X595801Y67851D01*
X596262Y68649D01*
X596500Y69539D01*
Y70461D01*
X596262Y71351D01*
X595801Y72149D01*
X595149Y72801D01*
X594351Y73261D01*
X593461Y73500D01*
D02*
G37*
G36*
X146461Y71500D02*
X145539D01*
X144649Y71262D01*
X143851Y70801D01*
X143199Y70149D01*
X142738Y69351D01*
X142500Y68461D01*
Y67539D01*
X142738Y66649D01*
X143199Y65851D01*
X143851Y65199D01*
X144649Y64739D01*
X145539Y64500D01*
X146461D01*
X147351Y64739D01*
X148149Y65199D01*
X148801Y65851D01*
X149261Y66649D01*
X149500Y67539D01*
Y68461D01*
X149261Y69351D01*
X148801Y70149D01*
X148149Y70801D01*
X147351Y71262D01*
X146461Y71500D01*
D02*
G37*
G36*
X89461Y66500D02*
X88539D01*
X87649Y66262D01*
X86851Y65801D01*
X86199Y65149D01*
X85738Y64351D01*
X85500Y63461D01*
Y62539D01*
X85738Y61649D01*
X86199Y60851D01*
X86851Y60199D01*
X87649Y59738D01*
X88539Y59500D01*
X89461D01*
X90351Y59738D01*
X91149Y60199D01*
X91801Y60851D01*
X92261Y61649D01*
X92500Y62539D01*
Y63461D01*
X92261Y64351D01*
X91801Y65149D01*
X91149Y65801D01*
X90351Y66262D01*
X89461Y66500D01*
D02*
G37*
G36*
X44461D02*
X43539D01*
X42649Y66262D01*
X41851Y65801D01*
X41199Y65149D01*
X40738Y64351D01*
X40500Y63461D01*
Y62539D01*
X40738Y61649D01*
X41199Y60851D01*
X41851Y60199D01*
X42649Y59738D01*
X43539Y59500D01*
X44461D01*
X45351Y59738D01*
X46149Y60199D01*
X46801Y60851D01*
X47262Y61649D01*
X47500Y62539D01*
Y63461D01*
X47262Y64351D01*
X46801Y65149D01*
X46149Y65801D01*
X45351Y66262D01*
X44461Y66500D01*
D02*
G37*
G36*
X68461Y65500D02*
X67539D01*
X66649Y65262D01*
X65851Y64801D01*
X65199Y64149D01*
X64739Y63351D01*
X64500Y62461D01*
Y61539D01*
X64739Y60649D01*
X65199Y59851D01*
X65851Y59199D01*
X66649Y58738D01*
X67539Y58500D01*
X68461D01*
X69351Y58738D01*
X70149Y59199D01*
X70801Y59851D01*
X71262Y60649D01*
X71500Y61539D01*
Y62461D01*
X71262Y63351D01*
X70801Y64149D01*
X70149Y64801D01*
X69351Y65262D01*
X68461Y65500D01*
D02*
G37*
G36*
X146461Y63500D02*
X145539D01*
X144649Y63261D01*
X143851Y62801D01*
X143199Y62149D01*
X142738Y61351D01*
X142500Y60461D01*
Y59539D01*
X142738Y58649D01*
X143199Y57851D01*
X143851Y57199D01*
X144649Y56739D01*
X145539Y56500D01*
X146461D01*
X147351Y56739D01*
X148149Y57199D01*
X148801Y57851D01*
X149261Y58649D01*
X149500Y59539D01*
Y60461D01*
X149261Y61351D01*
X148801Y62149D01*
X148149Y62801D01*
X147351Y63261D01*
X146461Y63500D01*
D02*
G37*
G36*
X593461Y62500D02*
X592539D01*
X591649Y62261D01*
X590851Y61801D01*
X590199Y61149D01*
X589739Y60351D01*
X589500Y59461D01*
Y58539D01*
X589739Y57649D01*
X590199Y56851D01*
X590851Y56199D01*
X591649Y55739D01*
X592539Y55500D01*
X593461D01*
X594351Y55739D01*
X595149Y56199D01*
X595801Y56851D01*
X596262Y57649D01*
X596500Y58539D01*
Y59461D01*
X596262Y60351D01*
X595801Y61149D01*
X595149Y61801D01*
X594351Y62261D01*
X593461Y62500D01*
D02*
G37*
G36*
X146461Y55500D02*
X145539D01*
X144649Y55261D01*
X143851Y54801D01*
X143199Y54149D01*
X142738Y53351D01*
X142500Y52461D01*
Y51539D01*
X142738Y50649D01*
X143199Y49851D01*
X143851Y49199D01*
X144649Y48739D01*
X145539Y48500D01*
X146461D01*
X147351Y48739D01*
X148149Y49199D01*
X148801Y49851D01*
X149261Y50649D01*
X149500Y51539D01*
Y52461D01*
X149261Y53351D01*
X148801Y54149D01*
X148149Y54801D01*
X147351Y55261D01*
X146461Y55500D01*
D02*
G37*
G36*
X593461Y51500D02*
X592539D01*
X591649Y51262D01*
X590851Y50801D01*
X590199Y50149D01*
X589739Y49351D01*
X589500Y48461D01*
Y47539D01*
X589739Y46649D01*
X590199Y45851D01*
X590851Y45199D01*
X591649Y44739D01*
X592539Y44500D01*
X593461D01*
X594351Y44739D01*
X595149Y45199D01*
X595801Y45851D01*
X596262Y46649D01*
X596500Y47539D01*
Y48461D01*
X596262Y49351D01*
X595801Y50149D01*
X595149Y50801D01*
X594351Y51262D01*
X593461Y51500D01*
D02*
G37*
G36*
X550533Y43051D02*
X549467D01*
X548436Y42775D01*
X547512Y42242D01*
X546758Y41488D01*
X546225Y40564D01*
X545949Y39533D01*
Y38467D01*
X546225Y37436D01*
X546758Y36513D01*
X547512Y35758D01*
X548436Y35225D01*
X549467Y34949D01*
X550533D01*
X551564Y35225D01*
X552488Y35758D01*
X553242Y36513D01*
X553775Y37436D01*
X554051Y38467D01*
Y39533D01*
X553775Y40564D01*
X553242Y41488D01*
X552488Y42242D01*
X551564Y42775D01*
X550533Y43051D01*
D02*
G37*
G36*
X540533D02*
X539467D01*
X538436Y42775D01*
X537512Y42242D01*
X536758Y41488D01*
X536225Y40564D01*
X535949Y39533D01*
Y38467D01*
X536225Y37436D01*
X536758Y36513D01*
X537512Y35758D01*
X538436Y35225D01*
X539467Y34949D01*
X540533D01*
X541564Y35225D01*
X542487Y35758D01*
X543242Y36513D01*
X543775Y37436D01*
X544051Y38467D01*
Y39533D01*
X543775Y40564D01*
X543242Y41488D01*
X542487Y42242D01*
X541564Y42775D01*
X540533Y43051D01*
D02*
G37*
G36*
X530533D02*
X529467D01*
X528436Y42775D01*
X527513Y42242D01*
X526758Y41488D01*
X526225Y40564D01*
X525949Y39533D01*
Y38467D01*
X526225Y37436D01*
X526758Y36513D01*
X527513Y35758D01*
X528436Y35225D01*
X529467Y34949D01*
X530533D01*
X531564Y35225D01*
X532487Y35758D01*
X533242Y36513D01*
X533775Y37436D01*
X534051Y38467D01*
Y39533D01*
X533775Y40564D01*
X533242Y41488D01*
X532487Y42242D01*
X531564Y42775D01*
X530533Y43051D01*
D02*
G37*
G36*
X520533D02*
X519467D01*
X518436Y42775D01*
X517513Y42242D01*
X516758Y41488D01*
X516225Y40564D01*
X515949Y39533D01*
Y38467D01*
X516225Y37436D01*
X516758Y36513D01*
X517513Y35758D01*
X518436Y35225D01*
X519467Y34949D01*
X520533D01*
X521564Y35225D01*
X522487Y35758D01*
X523242Y36513D01*
X523775Y37436D01*
X524051Y38467D01*
Y39533D01*
X523775Y40564D01*
X523242Y41488D01*
X522487Y42242D01*
X521564Y42775D01*
X520533Y43051D01*
D02*
G37*
G36*
X510533D02*
X509467D01*
X508436Y42775D01*
X507513Y42242D01*
X506758Y41488D01*
X506225Y40564D01*
X505949Y39533D01*
Y38467D01*
X506225Y37436D01*
X506758Y36513D01*
X507513Y35758D01*
X508436Y35225D01*
X509467Y34949D01*
X510533D01*
X511564Y35225D01*
X512488Y35758D01*
X513242Y36513D01*
X513775Y37436D01*
X514051Y38467D01*
Y39533D01*
X513775Y40564D01*
X513242Y41488D01*
X512488Y42242D01*
X511564Y42775D01*
X510533Y43051D01*
D02*
G37*
G36*
X500533D02*
X499467D01*
X498436Y42775D01*
X497512Y42242D01*
X496758Y41488D01*
X496225Y40564D01*
X495949Y39533D01*
Y38467D01*
X496225Y37436D01*
X496758Y36513D01*
X497512Y35758D01*
X498436Y35225D01*
X499467Y34949D01*
X500533D01*
X501564Y35225D01*
X502488Y35758D01*
X503242Y36513D01*
X503775Y37436D01*
X504051Y38467D01*
Y39533D01*
X503775Y40564D01*
X503242Y41488D01*
X502488Y42242D01*
X501564Y42775D01*
X500533Y43051D01*
D02*
G37*
G36*
X490533D02*
X489467D01*
X488436Y42775D01*
X487512Y42242D01*
X486758Y41488D01*
X486225Y40564D01*
X485949Y39533D01*
Y38467D01*
X486225Y37436D01*
X486758Y36513D01*
X487512Y35758D01*
X488436Y35225D01*
X489467Y34949D01*
X490533D01*
X491564Y35225D01*
X492487Y35758D01*
X493242Y36513D01*
X493775Y37436D01*
X494051Y38467D01*
Y39533D01*
X493775Y40564D01*
X493242Y41488D01*
X492487Y42242D01*
X491564Y42775D01*
X490533Y43051D01*
D02*
G37*
G36*
X480533D02*
X479467D01*
X478436Y42775D01*
X477513Y42242D01*
X476758Y41488D01*
X476225Y40564D01*
X475949Y39533D01*
Y38467D01*
X476225Y37436D01*
X476758Y36513D01*
X477513Y35758D01*
X478436Y35225D01*
X479467Y34949D01*
X480533D01*
X481564Y35225D01*
X482487Y35758D01*
X483242Y36513D01*
X483775Y37436D01*
X484051Y38467D01*
Y39533D01*
X483775Y40564D01*
X483242Y41488D01*
X482487Y42242D01*
X481564Y42775D01*
X480533Y43051D01*
D02*
G37*
G36*
X470533D02*
X469467D01*
X468436Y42775D01*
X467513Y42242D01*
X466758Y41488D01*
X466225Y40564D01*
X465949Y39533D01*
Y38467D01*
X466225Y37436D01*
X466758Y36513D01*
X467513Y35758D01*
X468436Y35225D01*
X469467Y34949D01*
X470533D01*
X471564Y35225D01*
X472487Y35758D01*
X473242Y36513D01*
X473775Y37436D01*
X474051Y38467D01*
Y39533D01*
X473775Y40564D01*
X473242Y41488D01*
X472487Y42242D01*
X471564Y42775D01*
X470533Y43051D01*
D02*
G37*
G36*
X460533D02*
X459467D01*
X458436Y42775D01*
X457513Y42242D01*
X456758Y41488D01*
X456225Y40564D01*
X455949Y39533D01*
Y38467D01*
X456225Y37436D01*
X456758Y36513D01*
X457513Y35758D01*
X458436Y35225D01*
X459467Y34949D01*
X460533D01*
X461564Y35225D01*
X462488Y35758D01*
X463242Y36513D01*
X463775Y37436D01*
X464051Y38467D01*
Y39533D01*
X463775Y40564D01*
X463242Y41488D01*
X462488Y42242D01*
X461564Y42775D01*
X460533Y43051D01*
D02*
G37*
G36*
X300533D02*
X299467D01*
X298436Y42775D01*
X297513Y42242D01*
X296758Y41488D01*
X296225Y40564D01*
X295949Y39533D01*
Y38467D01*
X296225Y37436D01*
X296758Y36513D01*
X297513Y35758D01*
X298436Y35225D01*
X299467Y34949D01*
X300533D01*
X301564Y35225D01*
X302487Y35758D01*
X303242Y36513D01*
X303775Y37436D01*
X304051Y38467D01*
Y39533D01*
X303775Y40564D01*
X303242Y41488D01*
X302487Y42242D01*
X301564Y42775D01*
X300533Y43051D01*
D02*
G37*
G36*
X290533D02*
X289467D01*
X288436Y42775D01*
X287512Y42242D01*
X286758Y41488D01*
X286225Y40564D01*
X285949Y39533D01*
Y38467D01*
X286225Y37436D01*
X286758Y36513D01*
X287512Y35758D01*
X288436Y35225D01*
X289467Y34949D01*
X290533D01*
X291564Y35225D01*
X292488Y35758D01*
X293242Y36513D01*
X293775Y37436D01*
X294051Y38467D01*
Y39533D01*
X293775Y40564D01*
X293242Y41488D01*
X292488Y42242D01*
X291564Y42775D01*
X290533Y43051D01*
D02*
G37*
G36*
X280533D02*
X279467D01*
X278436Y42775D01*
X277513Y42242D01*
X276758Y41488D01*
X276225Y40564D01*
X275949Y39533D01*
Y38467D01*
X276225Y37436D01*
X276758Y36513D01*
X277513Y35758D01*
X278436Y35225D01*
X279467Y34949D01*
X280533D01*
X281564Y35225D01*
X282488Y35758D01*
X283242Y36513D01*
X283775Y37436D01*
X284051Y38467D01*
Y39533D01*
X283775Y40564D01*
X283242Y41488D01*
X282488Y42242D01*
X281564Y42775D01*
X280533Y43051D01*
D02*
G37*
G36*
X270533D02*
X269467D01*
X268436Y42775D01*
X267512Y42242D01*
X266758Y41488D01*
X266225Y40564D01*
X265949Y39533D01*
Y38467D01*
X266225Y37436D01*
X266758Y36513D01*
X267512Y35758D01*
X268436Y35225D01*
X269467Y34949D01*
X270533D01*
X271564Y35225D01*
X272487Y35758D01*
X273242Y36513D01*
X273775Y37436D01*
X274051Y38467D01*
Y39533D01*
X273775Y40564D01*
X273242Y41488D01*
X272487Y42242D01*
X271564Y42775D01*
X270533Y43051D01*
D02*
G37*
G36*
X260533D02*
X259467D01*
X258436Y42775D01*
X257512Y42242D01*
X256758Y41488D01*
X256225Y40564D01*
X255949Y39533D01*
Y38467D01*
X256225Y37436D01*
X256758Y36513D01*
X257512Y35758D01*
X258436Y35225D01*
X259467Y34949D01*
X260533D01*
X261564Y35225D01*
X262488Y35758D01*
X263242Y36513D01*
X263775Y37436D01*
X264051Y38467D01*
Y39533D01*
X263775Y40564D01*
X263242Y41488D01*
X262488Y42242D01*
X261564Y42775D01*
X260533Y43051D01*
D02*
G37*
G36*
X250533D02*
X249467D01*
X248436Y42775D01*
X247513Y42242D01*
X246758Y41488D01*
X246225Y40564D01*
X245949Y39533D01*
Y38467D01*
X246225Y37436D01*
X246758Y36513D01*
X247513Y35758D01*
X248436Y35225D01*
X249467Y34949D01*
X250533D01*
X251564Y35225D01*
X252487Y35758D01*
X253242Y36513D01*
X253775Y37436D01*
X254051Y38467D01*
Y39533D01*
X253775Y40564D01*
X253242Y41488D01*
X252487Y42242D01*
X251564Y42775D01*
X250533Y43051D01*
D02*
G37*
G36*
X240533D02*
X239467D01*
X238436Y42775D01*
X237512Y42242D01*
X236758Y41488D01*
X236225Y40564D01*
X235949Y39533D01*
Y38467D01*
X236225Y37436D01*
X236758Y36513D01*
X237512Y35758D01*
X238436Y35225D01*
X239467Y34949D01*
X240533D01*
X241564Y35225D01*
X242488Y35758D01*
X243242Y36513D01*
X243775Y37436D01*
X244051Y38467D01*
Y39533D01*
X243775Y40564D01*
X243242Y41488D01*
X242488Y42242D01*
X241564Y42775D01*
X240533Y43051D01*
D02*
G37*
G36*
X230533D02*
X229467D01*
X228436Y42775D01*
X227513Y42242D01*
X226758Y41488D01*
X226225Y40564D01*
X225949Y39533D01*
Y38467D01*
X226225Y37436D01*
X226758Y36513D01*
X227513Y35758D01*
X228436Y35225D01*
X229467Y34949D01*
X230533D01*
X231564Y35225D01*
X232488Y35758D01*
X233242Y36513D01*
X233775Y37436D01*
X234051Y38467D01*
Y39533D01*
X233775Y40564D01*
X233242Y41488D01*
X232488Y42242D01*
X231564Y42775D01*
X230533Y43051D01*
D02*
G37*
G36*
X220533D02*
X219467D01*
X218436Y42775D01*
X217512Y42242D01*
X216758Y41488D01*
X216225Y40564D01*
X215949Y39533D01*
Y38467D01*
X216225Y37436D01*
X216758Y36513D01*
X217512Y35758D01*
X218436Y35225D01*
X219467Y34949D01*
X220533D01*
X221564Y35225D01*
X222487Y35758D01*
X223242Y36513D01*
X223775Y37436D01*
X224051Y38467D01*
Y39533D01*
X223775Y40564D01*
X223242Y41488D01*
X222487Y42242D01*
X221564Y42775D01*
X220533Y43051D01*
D02*
G37*
G36*
X210533D02*
X209467D01*
X208436Y42775D01*
X207512Y42242D01*
X206758Y41488D01*
X206225Y40564D01*
X205949Y39533D01*
Y38467D01*
X206225Y37436D01*
X206758Y36513D01*
X207512Y35758D01*
X208436Y35225D01*
X209467Y34949D01*
X210533D01*
X211564Y35225D01*
X212488Y35758D01*
X213242Y36513D01*
X213775Y37436D01*
X214051Y38467D01*
Y39533D01*
X213775Y40564D01*
X213242Y41488D01*
X212488Y42242D01*
X211564Y42775D01*
X210533Y43051D01*
D02*
G37*
G36*
X593461Y40500D02*
X592539D01*
X591649Y40262D01*
X590851Y39801D01*
X590199Y39149D01*
X589739Y38351D01*
X589500Y37461D01*
Y36539D01*
X589739Y35649D01*
X590199Y34851D01*
X590851Y34199D01*
X591649Y33738D01*
X592539Y33500D01*
X593461D01*
X594351Y33738D01*
X595149Y34199D01*
X595801Y34851D01*
X596262Y35649D01*
X596500Y36539D01*
Y37461D01*
X596262Y38351D01*
X595801Y39149D01*
X595149Y39801D01*
X594351Y40262D01*
X593461Y40500D01*
D02*
G37*
G36*
X550533Y33051D02*
X550500D01*
Y29500D01*
X554051D01*
Y29533D01*
X553775Y30564D01*
X553242Y31488D01*
X552488Y32242D01*
X551564Y32775D01*
X550533Y33051D01*
D02*
G37*
G36*
X300533D02*
X300500D01*
Y29500D01*
X304051D01*
Y29533D01*
X303775Y30564D01*
X303242Y31488D01*
X302487Y32242D01*
X301564Y32775D01*
X300533Y33051D01*
D02*
G37*
G36*
X355637Y33839D02*
X355500D01*
Y29500D01*
X359839D01*
Y29637D01*
X359509Y30868D01*
X358872Y31971D01*
X357971Y32872D01*
X356868Y33509D01*
X355637Y33839D01*
D02*
G37*
G36*
X549500Y33051D02*
X549467D01*
X548436Y32775D01*
X547512Y32242D01*
X546758Y31488D01*
X546225Y30564D01*
X545949Y29533D01*
Y29500D01*
X549500D01*
Y33051D01*
D02*
G37*
G36*
X299500D02*
X299467D01*
X298436Y32775D01*
X297513Y32242D01*
X296758Y31488D01*
X296225Y30564D01*
X295949Y29533D01*
Y29500D01*
X299500D01*
Y33051D01*
D02*
G37*
G36*
X354500Y33839D02*
X354363D01*
X353132Y33509D01*
X352029Y32872D01*
X351128Y31971D01*
X350491Y30868D01*
X350161Y29637D01*
Y29500D01*
X354500D01*
Y33839D01*
D02*
G37*
G36*
X554051Y28500D02*
X550500D01*
Y24949D01*
X550533D01*
X551564Y25225D01*
X552488Y25758D01*
X553242Y26513D01*
X553775Y27436D01*
X554051Y28467D01*
Y28500D01*
D02*
G37*
G36*
X549500D02*
X545949D01*
Y28467D01*
X546225Y27436D01*
X546758Y26513D01*
X547512Y25758D01*
X548436Y25225D01*
X549467Y24949D01*
X549500D01*
Y28500D01*
D02*
G37*
G36*
X540533Y33051D02*
X539467D01*
X538436Y32775D01*
X537512Y32242D01*
X536758Y31488D01*
X536225Y30564D01*
X535949Y29533D01*
Y28467D01*
X536225Y27436D01*
X536758Y26513D01*
X537512Y25758D01*
X538436Y25225D01*
X539467Y24949D01*
X540533D01*
X541564Y25225D01*
X542487Y25758D01*
X543242Y26513D01*
X543775Y27436D01*
X544051Y28467D01*
Y29533D01*
X543775Y30564D01*
X543242Y31488D01*
X542487Y32242D01*
X541564Y32775D01*
X540533Y33051D01*
D02*
G37*
G36*
X530533D02*
X529467D01*
X528436Y32775D01*
X527513Y32242D01*
X526758Y31488D01*
X526225Y30564D01*
X525949Y29533D01*
Y28467D01*
X526225Y27436D01*
X526758Y26513D01*
X527513Y25758D01*
X528436Y25225D01*
X529467Y24949D01*
X530533D01*
X531564Y25225D01*
X532487Y25758D01*
X533242Y26513D01*
X533775Y27436D01*
X534051Y28467D01*
Y29533D01*
X533775Y30564D01*
X533242Y31488D01*
X532487Y32242D01*
X531564Y32775D01*
X530533Y33051D01*
D02*
G37*
G36*
X520533D02*
X519467D01*
X518436Y32775D01*
X517513Y32242D01*
X516758Y31488D01*
X516225Y30564D01*
X515949Y29533D01*
Y28467D01*
X516225Y27436D01*
X516758Y26513D01*
X517513Y25758D01*
X518436Y25225D01*
X519467Y24949D01*
X520533D01*
X521564Y25225D01*
X522487Y25758D01*
X523242Y26513D01*
X523775Y27436D01*
X524051Y28467D01*
Y29533D01*
X523775Y30564D01*
X523242Y31488D01*
X522487Y32242D01*
X521564Y32775D01*
X520533Y33051D01*
D02*
G37*
G36*
X510533D02*
X509467D01*
X508436Y32775D01*
X507513Y32242D01*
X506758Y31488D01*
X506225Y30564D01*
X505949Y29533D01*
Y28467D01*
X506225Y27436D01*
X506758Y26513D01*
X507513Y25758D01*
X508436Y25225D01*
X509467Y24949D01*
X510533D01*
X511564Y25225D01*
X512488Y25758D01*
X513242Y26513D01*
X513775Y27436D01*
X514051Y28467D01*
Y29533D01*
X513775Y30564D01*
X513242Y31488D01*
X512488Y32242D01*
X511564Y32775D01*
X510533Y33051D01*
D02*
G37*
G36*
X500533D02*
X499467D01*
X498436Y32775D01*
X497512Y32242D01*
X496758Y31488D01*
X496225Y30564D01*
X495949Y29533D01*
Y28467D01*
X496225Y27436D01*
X496758Y26513D01*
X497512Y25758D01*
X498436Y25225D01*
X499467Y24949D01*
X500533D01*
X501564Y25225D01*
X502488Y25758D01*
X503242Y26513D01*
X503775Y27436D01*
X504051Y28467D01*
Y29533D01*
X503775Y30564D01*
X503242Y31488D01*
X502488Y32242D01*
X501564Y32775D01*
X500533Y33051D01*
D02*
G37*
G36*
X490533D02*
X489467D01*
X488436Y32775D01*
X487512Y32242D01*
X486758Y31488D01*
X486225Y30564D01*
X485949Y29533D01*
Y28467D01*
X486225Y27436D01*
X486758Y26513D01*
X487512Y25758D01*
X488436Y25225D01*
X489467Y24949D01*
X490533D01*
X491564Y25225D01*
X492487Y25758D01*
X493242Y26513D01*
X493775Y27436D01*
X494051Y28467D01*
Y29533D01*
X493775Y30564D01*
X493242Y31488D01*
X492487Y32242D01*
X491564Y32775D01*
X490533Y33051D01*
D02*
G37*
G36*
X480533D02*
X479467D01*
X478436Y32775D01*
X477513Y32242D01*
X476758Y31488D01*
X476225Y30564D01*
X475949Y29533D01*
Y28467D01*
X476225Y27436D01*
X476758Y26513D01*
X477513Y25758D01*
X478436Y25225D01*
X479467Y24949D01*
X480533D01*
X481564Y25225D01*
X482487Y25758D01*
X483242Y26513D01*
X483775Y27436D01*
X484051Y28467D01*
Y29533D01*
X483775Y30564D01*
X483242Y31488D01*
X482487Y32242D01*
X481564Y32775D01*
X480533Y33051D01*
D02*
G37*
G36*
X470533D02*
X469467D01*
X468436Y32775D01*
X467513Y32242D01*
X466758Y31488D01*
X466225Y30564D01*
X465949Y29533D01*
Y28467D01*
X466225Y27436D01*
X466758Y26513D01*
X467513Y25758D01*
X468436Y25225D01*
X469467Y24949D01*
X470533D01*
X471564Y25225D01*
X472487Y25758D01*
X473242Y26513D01*
X473775Y27436D01*
X474051Y28467D01*
Y29533D01*
X473775Y30564D01*
X473242Y31488D01*
X472487Y32242D01*
X471564Y32775D01*
X470533Y33051D01*
D02*
G37*
G36*
X460533D02*
X459467D01*
X458436Y32775D01*
X457513Y32242D01*
X456758Y31488D01*
X456225Y30564D01*
X455949Y29533D01*
Y28467D01*
X456225Y27436D01*
X456758Y26513D01*
X457513Y25758D01*
X458436Y25225D01*
X459467Y24949D01*
X460533D01*
X461564Y25225D01*
X462488Y25758D01*
X463242Y26513D01*
X463775Y27436D01*
X464051Y28467D01*
Y29533D01*
X463775Y30564D01*
X463242Y31488D01*
X462488Y32242D01*
X461564Y32775D01*
X460533Y33051D01*
D02*
G37*
G36*
X304051Y28500D02*
X300500D01*
Y24949D01*
X300533D01*
X301564Y25225D01*
X302487Y25758D01*
X303242Y26513D01*
X303775Y27436D01*
X304051Y28467D01*
Y28500D01*
D02*
G37*
G36*
X299500D02*
X295949D01*
Y28467D01*
X296225Y27436D01*
X296758Y26513D01*
X297513Y25758D01*
X298436Y25225D01*
X299467Y24949D01*
X299500D01*
Y28500D01*
D02*
G37*
G36*
X290533Y33051D02*
X289467D01*
X288436Y32775D01*
X287512Y32242D01*
X286758Y31488D01*
X286225Y30564D01*
X285949Y29533D01*
Y28467D01*
X286225Y27436D01*
X286758Y26513D01*
X287512Y25758D01*
X288436Y25225D01*
X289467Y24949D01*
X290533D01*
X291564Y25225D01*
X292488Y25758D01*
X293242Y26513D01*
X293775Y27436D01*
X294051Y28467D01*
Y29533D01*
X293775Y30564D01*
X293242Y31488D01*
X292488Y32242D01*
X291564Y32775D01*
X290533Y33051D01*
D02*
G37*
G36*
X280533D02*
X279467D01*
X278436Y32775D01*
X277513Y32242D01*
X276758Y31488D01*
X276225Y30564D01*
X275949Y29533D01*
Y28467D01*
X276225Y27436D01*
X276758Y26513D01*
X277513Y25758D01*
X278436Y25225D01*
X279467Y24949D01*
X280533D01*
X281564Y25225D01*
X282488Y25758D01*
X283242Y26513D01*
X283775Y27436D01*
X284051Y28467D01*
Y29533D01*
X283775Y30564D01*
X283242Y31488D01*
X282488Y32242D01*
X281564Y32775D01*
X280533Y33051D01*
D02*
G37*
G36*
X270533D02*
X269467D01*
X268436Y32775D01*
X267512Y32242D01*
X266758Y31488D01*
X266225Y30564D01*
X265949Y29533D01*
Y28467D01*
X266225Y27436D01*
X266758Y26513D01*
X267512Y25758D01*
X268436Y25225D01*
X269467Y24949D01*
X270533D01*
X271564Y25225D01*
X272487Y25758D01*
X273242Y26513D01*
X273775Y27436D01*
X274051Y28467D01*
Y29533D01*
X273775Y30564D01*
X273242Y31488D01*
X272487Y32242D01*
X271564Y32775D01*
X270533Y33051D01*
D02*
G37*
G36*
X260533D02*
X259467D01*
X258436Y32775D01*
X257512Y32242D01*
X256758Y31488D01*
X256225Y30564D01*
X255949Y29533D01*
Y28467D01*
X256225Y27436D01*
X256758Y26513D01*
X257512Y25758D01*
X258436Y25225D01*
X259467Y24949D01*
X260533D01*
X261564Y25225D01*
X262488Y25758D01*
X263242Y26513D01*
X263775Y27436D01*
X264051Y28467D01*
Y29533D01*
X263775Y30564D01*
X263242Y31488D01*
X262488Y32242D01*
X261564Y32775D01*
X260533Y33051D01*
D02*
G37*
G36*
X250533D02*
X249467D01*
X248436Y32775D01*
X247513Y32242D01*
X246758Y31488D01*
X246225Y30564D01*
X245949Y29533D01*
Y28467D01*
X246225Y27436D01*
X246758Y26513D01*
X247513Y25758D01*
X248436Y25225D01*
X249467Y24949D01*
X250533D01*
X251564Y25225D01*
X252487Y25758D01*
X253242Y26513D01*
X253775Y27436D01*
X254051Y28467D01*
Y29533D01*
X253775Y30564D01*
X253242Y31488D01*
X252487Y32242D01*
X251564Y32775D01*
X250533Y33051D01*
D02*
G37*
G36*
X240533D02*
X239467D01*
X238436Y32775D01*
X237512Y32242D01*
X236758Y31488D01*
X236225Y30564D01*
X235949Y29533D01*
Y28467D01*
X236225Y27436D01*
X236758Y26513D01*
X237512Y25758D01*
X238436Y25225D01*
X239467Y24949D01*
X240533D01*
X241564Y25225D01*
X242488Y25758D01*
X243242Y26513D01*
X243775Y27436D01*
X244051Y28467D01*
Y29533D01*
X243775Y30564D01*
X243242Y31488D01*
X242488Y32242D01*
X241564Y32775D01*
X240533Y33051D01*
D02*
G37*
G36*
X230533D02*
X229467D01*
X228436Y32775D01*
X227513Y32242D01*
X226758Y31488D01*
X226225Y30564D01*
X225949Y29533D01*
Y28467D01*
X226225Y27436D01*
X226758Y26513D01*
X227513Y25758D01*
X228436Y25225D01*
X229467Y24949D01*
X230533D01*
X231564Y25225D01*
X232488Y25758D01*
X233242Y26513D01*
X233775Y27436D01*
X234051Y28467D01*
Y29533D01*
X233775Y30564D01*
X233242Y31488D01*
X232488Y32242D01*
X231564Y32775D01*
X230533Y33051D01*
D02*
G37*
G36*
X220533D02*
X219467D01*
X218436Y32775D01*
X217512Y32242D01*
X216758Y31488D01*
X216225Y30564D01*
X215949Y29533D01*
Y28467D01*
X216225Y27436D01*
X216758Y26513D01*
X217512Y25758D01*
X218436Y25225D01*
X219467Y24949D01*
X220533D01*
X221564Y25225D01*
X222487Y25758D01*
X223242Y26513D01*
X223775Y27436D01*
X224051Y28467D01*
Y29533D01*
X223775Y30564D01*
X223242Y31488D01*
X222487Y32242D01*
X221564Y32775D01*
X220533Y33051D01*
D02*
G37*
G36*
X210533D02*
X209467D01*
X208436Y32775D01*
X207512Y32242D01*
X206758Y31488D01*
X206225Y30564D01*
X205949Y29533D01*
Y28467D01*
X206225Y27436D01*
X206758Y26513D01*
X207512Y25758D01*
X208436Y25225D01*
X209467Y24949D01*
X210533D01*
X211564Y25225D01*
X212488Y25758D01*
X213242Y26513D01*
X213775Y27436D01*
X214051Y28467D01*
Y29533D01*
X213775Y30564D01*
X213242Y31488D01*
X212488Y32242D01*
X211564Y32775D01*
X210533Y33051D01*
D02*
G37*
G36*
X395637Y33839D02*
X394363D01*
X393132Y33509D01*
X392029Y32872D01*
X391128Y31971D01*
X390491Y30868D01*
X390161Y29637D01*
Y28363D01*
X390491Y27132D01*
X391128Y26029D01*
X392029Y25128D01*
X393132Y24491D01*
X394363Y24161D01*
X395637D01*
X396868Y24491D01*
X397971Y25128D01*
X398872Y26029D01*
X399509Y27132D01*
X399839Y28363D01*
Y29637D01*
X399509Y30868D01*
X398872Y31971D01*
X397971Y32872D01*
X396868Y33509D01*
X395637Y33839D01*
D02*
G37*
G36*
X375637D02*
X374363D01*
X373132Y33509D01*
X372029Y32872D01*
X371128Y31971D01*
X370491Y30868D01*
X370161Y29637D01*
Y28363D01*
X370491Y27132D01*
X371128Y26029D01*
X372029Y25128D01*
X373132Y24491D01*
X374363Y24161D01*
X375637D01*
X376868Y24491D01*
X377971Y25128D01*
X378872Y26029D01*
X379509Y27132D01*
X379839Y28363D01*
Y29637D01*
X379509Y30868D01*
X378872Y31971D01*
X377971Y32872D01*
X376868Y33509D01*
X375637Y33839D01*
D02*
G37*
G36*
X359839Y28500D02*
X355500D01*
Y24161D01*
X355637D01*
X356868Y24491D01*
X357971Y25128D01*
X358872Y26029D01*
X359509Y27132D01*
X359839Y28363D01*
Y28500D01*
D02*
G37*
G36*
X354500D02*
X350161D01*
Y28363D01*
X350491Y27132D01*
X351128Y26029D01*
X352029Y25128D01*
X353132Y24491D01*
X354363Y24161D01*
X354500D01*
Y28500D01*
D02*
G37*
G36*
X46637Y21839D02*
X46500D01*
Y17500D01*
X50839D01*
Y17637D01*
X50509Y18868D01*
X49872Y19971D01*
X48971Y20872D01*
X47868Y21509D01*
X46637Y21839D01*
D02*
G37*
G36*
X45500D02*
X45363D01*
X44132Y21509D01*
X43029Y20872D01*
X42128Y19971D01*
X41491Y18868D01*
X41161Y17637D01*
Y17500D01*
X45500D01*
Y21839D01*
D02*
G37*
G36*
X126637D02*
X125363D01*
X124132Y21509D01*
X123029Y20872D01*
X122128Y19971D01*
X121491Y18868D01*
X121161Y17637D01*
Y16363D01*
X121491Y15132D01*
X122128Y14029D01*
X123029Y13128D01*
X124132Y12491D01*
X125363Y12161D01*
X126637D01*
X127868Y12491D01*
X128971Y13128D01*
X129872Y14029D01*
X130509Y15132D01*
X130839Y16363D01*
Y17637D01*
X130509Y18868D01*
X129872Y19971D01*
X128971Y20872D01*
X127868Y21509D01*
X126637Y21839D01*
D02*
G37*
G36*
X106637D02*
X105363D01*
X104132Y21509D01*
X103029Y20872D01*
X102128Y19971D01*
X101491Y18868D01*
X101161Y17637D01*
Y16363D01*
X101491Y15132D01*
X102128Y14029D01*
X103029Y13128D01*
X104132Y12491D01*
X105363Y12161D01*
X106637D01*
X107868Y12491D01*
X108971Y13128D01*
X109872Y14029D01*
X110509Y15132D01*
X110839Y16363D01*
Y17637D01*
X110509Y18868D01*
X109872Y19971D01*
X108971Y20872D01*
X107868Y21509D01*
X106637Y21839D01*
D02*
G37*
G36*
X86637D02*
X85363D01*
X84132Y21509D01*
X83029Y20872D01*
X82128Y19971D01*
X81491Y18868D01*
X81161Y17637D01*
Y16363D01*
X81491Y15132D01*
X82128Y14029D01*
X83029Y13128D01*
X84132Y12491D01*
X85363Y12161D01*
X86637D01*
X87868Y12491D01*
X88971Y13128D01*
X89872Y14029D01*
X90509Y15132D01*
X90839Y16363D01*
Y17637D01*
X90509Y18868D01*
X89872Y19971D01*
X88971Y20872D01*
X87868Y21509D01*
X86637Y21839D01*
D02*
G37*
G36*
X66637D02*
X65363D01*
X64132Y21509D01*
X63029Y20872D01*
X62128Y19971D01*
X61491Y18868D01*
X61161Y17637D01*
Y16363D01*
X61491Y15132D01*
X62128Y14029D01*
X63029Y13128D01*
X64132Y12491D01*
X65363Y12161D01*
X66637D01*
X67868Y12491D01*
X68971Y13128D01*
X69872Y14029D01*
X70509Y15132D01*
X70839Y16363D01*
Y17637D01*
X70509Y18868D01*
X69872Y19971D01*
X68971Y20872D01*
X67868Y21509D01*
X66637Y21839D01*
D02*
G37*
G36*
X50839Y16500D02*
X46500D01*
Y12161D01*
X46637D01*
X47868Y12491D01*
X48971Y13128D01*
X49872Y14029D01*
X50509Y15132D01*
X50839Y16363D01*
Y16500D01*
D02*
G37*
G36*
X45500D02*
X41161D01*
Y16363D01*
X41491Y15132D01*
X42128Y14029D01*
X43029Y13128D01*
X44132Y12491D01*
X45363Y12161D01*
X45500D01*
Y16500D01*
D02*
G37*
G36*
X580921Y26850D02*
X579079D01*
X577273Y26491D01*
X575571Y25786D01*
X574040Y24763D01*
X572737Y23460D01*
X571714Y21929D01*
X571009Y20227D01*
X570650Y18421D01*
Y16579D01*
X571009Y14773D01*
X571714Y13071D01*
X572737Y11540D01*
X574040Y10237D01*
X575571Y9214D01*
X577273Y8509D01*
X579079Y8150D01*
X580921D01*
X582727Y8509D01*
X584429Y9214D01*
X585960Y10237D01*
X587263Y11540D01*
X588286Y13071D01*
X588991Y14773D01*
X589350Y16579D01*
Y18421D01*
X588991Y20227D01*
X588286Y21929D01*
X587263Y23460D01*
X585960Y24763D01*
X584429Y25786D01*
X582727Y26491D01*
X580921Y26850D01*
D02*
G37*
G36*
X18421D02*
X16579D01*
X14773Y26491D01*
X13071Y25786D01*
X11540Y24763D01*
X10237Y23460D01*
X9214Y21929D01*
X8509Y20227D01*
X8150Y18421D01*
Y16579D01*
X8509Y14773D01*
X9214Y13071D01*
X10237Y11540D01*
X11540Y10237D01*
X13071Y9214D01*
X14773Y8509D01*
X16579Y8150D01*
X18421D01*
X20227Y8509D01*
X21929Y9214D01*
X23460Y10237D01*
X24763Y11540D01*
X25786Y13071D01*
X26491Y14773D01*
X26850Y16579D01*
Y18421D01*
X26491Y20227D01*
X25786Y21929D01*
X24763Y23460D01*
X23460Y24763D01*
X21929Y25786D01*
X20227Y26491D01*
X18421Y26850D01*
D02*
G37*
G36*
X323461Y14500D02*
X322539D01*
X321649Y14262D01*
X320851Y13801D01*
X320199Y13149D01*
X319739Y12351D01*
X319500Y11461D01*
Y10539D01*
X319739Y9649D01*
X320199Y8851D01*
X320851Y8199D01*
X321649Y7739D01*
X322539Y7500D01*
X323461D01*
X324351Y7739D01*
X325149Y8199D01*
X325801Y8851D01*
X326261Y9649D01*
X326500Y10539D01*
Y11461D01*
X326261Y12351D01*
X325801Y13149D01*
X325149Y13801D01*
X324351Y14262D01*
X323461Y14500D01*
D02*
G37*
G36*
X422461Y9500D02*
X421539D01*
X420649Y9262D01*
X419851Y8801D01*
X419199Y8149D01*
X418739Y7351D01*
X418500Y6461D01*
Y5539D01*
X418739Y4649D01*
X419199Y3851D01*
X419851Y3199D01*
X420649Y2739D01*
X421539Y2500D01*
X422461D01*
X423351Y2739D01*
X424149Y3199D01*
X424801Y3851D01*
X425261Y4649D01*
X425500Y5539D01*
Y6461D01*
X425261Y7351D01*
X424801Y8149D01*
X424149Y8801D01*
X423351Y9262D01*
X422461Y9500D01*
D02*
G37*
%LPD*%
D43*
X292685Y485000D02*
D03*
X283000Y466000D02*
D03*
D51*
X240000Y469606D02*
D03*
Y320000D02*
D03*
Y370000D02*
D03*
Y398346D02*
D03*
D52*
X574126Y281500D02*
D03*
D76*
X132000Y476000D02*
D03*
X381685Y477000D02*
D03*
X46000Y17000D02*
D03*
X355000Y29000D02*
D03*
D78*
X150370Y208000D02*
D03*
X489000Y163630D02*
D03*
D80*
X303000Y486000D02*
D03*
D82*
X290000Y199000D02*
D03*
X300000Y29000D02*
D03*
X540000Y199000D02*
D03*
X550000Y29000D02*
D03*
D87*
X381685Y398000D02*
D03*
Y294000D02*
D03*
Y345000D02*
D03*
X77780Y361000D02*
D03*
D90*
X335842Y464528D02*
D03*
D91*
X249000Y361000D02*
D03*
D93*
X46000Y184000D02*
D03*
X106000D02*
D03*
X46000Y144000D02*
D03*
X106000D02*
D03*
X47000Y106000D02*
D03*
X107000D02*
D03*
D94*
X381000Y438000D02*
D03*
X437000Y402000D02*
D03*
X110000Y72000D02*
D03*
X545000Y104000D02*
D03*
X464000Y103000D02*
D03*
X429000Y487000D02*
D03*
X526000Y463000D02*
D03*
X436000Y183000D02*
D03*
X302000Y405000D02*
D03*
X436000Y222000D02*
D03*
X80000Y270000D02*
D03*
X73000Y317000D02*
D03*
X504000Y102000D02*
D03*
M02*
