M48
;Layer_Color=9474304
;FILE_FORMAT=2:5
INCH,LZ
;TYPE=PLATED
T6F00S00C0.03543
;TYPE=NON_PLATED
%
G90
G05
T06
G00X0572748Y02745
M15
G01X0575504
M16
G00X0572748Y02815
M15
G01X0575504
M16
G00X0572748Y02885
M15
G01X0575504
M16
G00X0572748Y02955
M15
G01X0575504
M16
G00X0572748Y03025
M15
G01X0575504
M16
G00X0572748Y03095
M15
G01X0575504
M16
G00X0572748Y03165
M15
G01X0575504
M16
G00X0572748Y03235
M15
G01X0575504
M16
G00X0556606Y03375
M15
G01X0559362
M16
G00X0556606Y03445
M15
G01X0559362
M16
G00X0572748Y0354465
M15
G01X0575504
M16
G00X0572748Y0362535
M15
G01X0575504
M16
G00X0556606Y03725
M15
G01X0559362
M16
G00X0556606Y03795
M15
G01X0559362
M16
G00X0572748Y0389465
M15
G01X0575504
M16
G00X0572748Y0397535
M15
G01X0575504
M16
G00X0556606Y04075
M15
G01X0559362
M16
G00X0556606Y04145
M15
G01X0559362
M16
G00X0572748Y0424465
M15
G01X0575504
M16
G00X0572748Y0432535
M15
G01X0575504
M16
M17
M30
