G04*
G04 #@! TF.GenerationSoftware,Altium Limited,Altium Designer,21.2.2 (38)*
G04*
G04 Layer_Physical_Order=2*
G04 Layer_Color=36540*
%FSLAX25Y25*%
%MOIN*%
G70*
G04*
G04 #@! TF.SameCoordinates,22A5B088-EC4E-48B5-A717-39959E060BC5*
G04*
G04*
G04 #@! TF.FilePolarity,Positive*
G04*
G01*
G75*
%ADD14C,0.01000*%
%ADD43C,0.04724*%
%ADD52O,0.07874X0.05118*%
%ADD72C,0.03000*%
%ADD73C,0.02000*%
%ADD76C,0.07677*%
%ADD77R,0.04449X0.04449*%
%ADD78C,0.04449*%
%ADD81C,0.10335*%
%ADD82C,0.06102*%
%ADD86R,0.05020X0.05020*%
%ADD91C,0.08150*%
%ADD93C,0.06791*%
%ADD94C,0.05000*%
G36*
X334925Y469075D02*
X334776Y468517D01*
X334248Y468376D01*
X333307Y467832D01*
X332538Y467063D01*
X331994Y466122D01*
X331713Y465071D01*
Y463984D01*
X331994Y462933D01*
X332538Y461992D01*
X333307Y461223D01*
X334248Y460679D01*
X335299Y460398D01*
X336386D01*
X337437Y460679D01*
X337567Y460754D01*
X338000Y460504D01*
Y308000D01*
X329000Y299000D01*
X237439D01*
X210000Y271561D01*
Y266000D01*
X168000D01*
X146000Y288000D01*
Y298878D01*
X145878Y299000D01*
X144000Y468000D01*
X171000Y495000D01*
X309000D01*
X334925Y469075D01*
D02*
G37*
G36*
X595000Y494000D02*
X599000Y486000D01*
X599000Y445000D01*
X593000Y439000D01*
X428000D01*
X401000Y466000D01*
Y489000D01*
X409000Y497000D01*
X592000Y497000D01*
X595000Y494000D01*
D02*
G37*
%LPC*%
G36*
X303553Y490200D02*
X302447D01*
X301379Y489914D01*
X300421Y489361D01*
X299639Y488579D01*
X299086Y487621D01*
X298800Y486553D01*
Y485447D01*
X299086Y484379D01*
X299639Y483421D01*
X300421Y482639D01*
X301379Y482086D01*
X302447Y481800D01*
X303553D01*
X304621Y482086D01*
X305579Y482639D01*
X306361Y483421D01*
X306914Y484379D01*
X307200Y485447D01*
Y486553D01*
X306914Y487621D01*
X306361Y488579D01*
X305579Y489361D01*
X304621Y489914D01*
X303553Y490200D01*
D02*
G37*
G36*
X293128Y488362D02*
X292242D01*
X291387Y488133D01*
X290621Y487690D01*
X289995Y487064D01*
X289552Y486298D01*
X289323Y485443D01*
Y484557D01*
X289552Y483702D01*
X289995Y482936D01*
X290621Y482310D01*
X291387Y481867D01*
X292242Y481638D01*
X293128D01*
X293983Y481867D01*
X294749Y482310D01*
X295375Y482936D01*
X295818Y483702D01*
X296047Y484557D01*
Y485443D01*
X295818Y486298D01*
X295375Y487064D01*
X294749Y487690D01*
X293983Y488133D01*
X293128Y488362D01*
D02*
G37*
G36*
X273443D02*
X272557D01*
X271702Y488133D01*
X270936Y487690D01*
X270310Y487064D01*
X269867Y486298D01*
X269638Y485443D01*
Y484557D01*
X269867Y483702D01*
X270310Y482936D01*
X270936Y482310D01*
X271702Y481867D01*
X272557Y481638D01*
X273443D01*
X274298Y481867D01*
X275064Y482310D01*
X275690Y482936D01*
X276133Y483702D01*
X276362Y484557D01*
Y485443D01*
X276133Y486298D01*
X275690Y487064D01*
X275064Y487690D01*
X274298Y488133D01*
X273443Y488362D01*
D02*
G37*
G36*
X240680Y476512D02*
X239320D01*
X237986Y476246D01*
X236729Y475726D01*
X235598Y474970D01*
X234636Y474008D01*
X233880Y472877D01*
X233360Y471621D01*
X233095Y470286D01*
Y468926D01*
X233360Y467592D01*
X233880Y466335D01*
X234636Y465204D01*
X235598Y464242D01*
X236729Y463487D01*
X237986Y462966D01*
X239320Y462701D01*
X240680D01*
X242014Y462966D01*
X243271Y463487D01*
X244402Y464242D01*
X245364Y465204D01*
X246120Y466335D01*
X246640Y467592D01*
X246905Y468926D01*
Y470286D01*
X246640Y471621D01*
X246120Y472877D01*
X245364Y474008D01*
X244402Y474970D01*
X243271Y475726D01*
X242014Y476246D01*
X240680Y476512D01*
D02*
G37*
G36*
X283443Y469362D02*
X282557D01*
X281702Y469133D01*
X280936Y468690D01*
X280310Y468064D01*
X279867Y467298D01*
X279638Y466443D01*
Y465557D01*
X279867Y464702D01*
X280310Y463936D01*
X280936Y463310D01*
X281702Y462867D01*
X282557Y462638D01*
X283443D01*
X284298Y462867D01*
X285064Y463310D01*
X285690Y463936D01*
X286133Y464702D01*
X286362Y465557D01*
Y466443D01*
X286133Y467298D01*
X285690Y468064D01*
X285064Y468690D01*
X284298Y469133D01*
X283443Y469362D01*
D02*
G37*
G36*
X249668Y461075D02*
X249500D01*
Y456500D01*
X254075D01*
Y456668D01*
X253729Y457959D01*
X253061Y459116D01*
X252116Y460061D01*
X250959Y460729D01*
X249668Y461075D01*
D02*
G37*
G36*
X248500D02*
X248332D01*
X247041Y460729D01*
X245884Y460061D01*
X244939Y459116D01*
X244271Y457959D01*
X243925Y456668D01*
Y456500D01*
X248500D01*
Y461075D01*
D02*
G37*
G36*
X283443Y449677D02*
X282557D01*
X281702Y449448D01*
X280936Y449005D01*
X280310Y448379D01*
X279867Y447613D01*
X279638Y446758D01*
Y445872D01*
X279867Y445017D01*
X280310Y444250D01*
X280936Y443624D01*
X281702Y443182D01*
X282557Y442953D01*
X283443D01*
X284298Y443182D01*
X285064Y443624D01*
X285690Y444250D01*
X286133Y445017D01*
X286362Y445872D01*
Y446758D01*
X286133Y447613D01*
X285690Y448379D01*
X285064Y449005D01*
X284298Y449448D01*
X283443Y449677D01*
D02*
G37*
G36*
X172607Y445167D02*
X172500D01*
Y439500D01*
X178167D01*
Y439607D01*
X177930Y440799D01*
X177465Y441921D01*
X176790Y442931D01*
X175931Y443790D01*
X174921Y444465D01*
X173799Y444930D01*
X172607Y445167D01*
D02*
G37*
G36*
X171500D02*
X171393D01*
X170201Y444930D01*
X169079Y444465D01*
X168069Y443790D01*
X167209Y442931D01*
X166535Y441921D01*
X166070Y440799D01*
X165833Y439607D01*
Y439500D01*
X171500D01*
Y445167D01*
D02*
G37*
G36*
X260443Y440374D02*
X259557D01*
X258702Y440145D01*
X257936Y439702D01*
X257310Y439076D01*
X256867Y438310D01*
X256638Y437454D01*
Y436569D01*
X256867Y435714D01*
X257310Y434947D01*
X257936Y434321D01*
X258702Y433879D01*
X259557Y433650D01*
X260443D01*
X261298Y433879D01*
X262064Y434321D01*
X262690Y434947D01*
X263133Y435714D01*
X263362Y436569D01*
Y437454D01*
X263133Y438310D01*
X262690Y439076D01*
X262064Y439702D01*
X261298Y440145D01*
X260443Y440374D01*
D02*
G37*
G36*
X178167Y438500D02*
X172500D01*
Y432833D01*
X172607D01*
X173799Y433070D01*
X174921Y433535D01*
X175931Y434209D01*
X176790Y435069D01*
X177465Y436079D01*
X177930Y437201D01*
X178167Y438393D01*
Y438500D01*
D02*
G37*
G36*
X171500D02*
X165833D01*
Y438393D01*
X166070Y437201D01*
X166535Y436079D01*
X167209Y435069D01*
X168069Y434209D01*
X169079Y433535D01*
X170201Y433070D01*
X171393Y432833D01*
X171500D01*
Y438500D01*
D02*
G37*
G36*
X254075Y455500D02*
X249000D01*
X243925D01*
Y455332D01*
X244271Y454041D01*
X244939Y452884D01*
X245884Y451939D01*
X247041Y451271D01*
X247120Y451250D01*
Y450750D01*
X247041Y450729D01*
X245884Y450061D01*
X244939Y449116D01*
X244271Y447959D01*
X243925Y446668D01*
Y445332D01*
X244271Y444041D01*
X244939Y442884D01*
X245884Y441939D01*
X246515Y441575D01*
X246381Y441075D01*
X243925D01*
Y430925D01*
X254075D01*
Y441075D01*
X251619D01*
X251485Y441575D01*
X252116Y441939D01*
X253061Y442884D01*
X253729Y444041D01*
X254075Y445332D01*
Y446668D01*
X253729Y447959D01*
X253061Y449116D01*
X252116Y450061D01*
X250959Y450729D01*
X250880Y450750D01*
Y451250D01*
X250959Y451271D01*
X252116Y451939D01*
X253061Y452884D01*
X253729Y454041D01*
X254075Y455332D01*
Y455500D01*
D02*
G37*
G36*
X326544Y439130D02*
X325456D01*
X324406Y438848D01*
X323464Y438305D01*
X322695Y437536D01*
X322151Y436594D01*
X321870Y435544D01*
Y434456D01*
X322151Y433406D01*
X322695Y432464D01*
X323464Y431695D01*
X324406Y431151D01*
X325456Y430870D01*
X326544D01*
X327594Y431151D01*
X328536Y431695D01*
X329305Y432464D01*
X329849Y433406D01*
X330130Y434456D01*
Y435544D01*
X329849Y436594D01*
X329305Y437536D01*
X328536Y438305D01*
X327594Y438848D01*
X326544Y439130D01*
D02*
G37*
G36*
X307200Y433000D02*
X298800D01*
Y424600D01*
X307200D01*
Y433000D01*
D02*
G37*
G36*
X172607Y425167D02*
X172500D01*
Y419500D01*
X178167D01*
Y419607D01*
X177930Y420799D01*
X177465Y421921D01*
X176790Y422931D01*
X175931Y423791D01*
X174921Y424465D01*
X173799Y424930D01*
X172607Y425167D01*
D02*
G37*
G36*
X171500D02*
X171393D01*
X170201Y424930D01*
X169079Y424465D01*
X168069Y423791D01*
X167209Y422931D01*
X166535Y421921D01*
X166070Y420799D01*
X165833Y419607D01*
Y419500D01*
X171500D01*
Y425167D01*
D02*
G37*
G36*
X178167Y418500D02*
X172500D01*
Y412833D01*
X172607D01*
X173799Y413070D01*
X174921Y413535D01*
X175931Y414210D01*
X176790Y415069D01*
X177465Y416079D01*
X177930Y417201D01*
X178167Y418393D01*
Y418500D01*
D02*
G37*
G36*
X171500D02*
X165833D01*
Y418393D01*
X166070Y417201D01*
X166535Y416079D01*
X167209Y415069D01*
X168069Y414210D01*
X169079Y413535D01*
X170201Y413070D01*
X171393Y412833D01*
X171500D01*
Y418500D01*
D02*
G37*
G36*
X263362Y410350D02*
X256638D01*
Y403626D01*
X263362D01*
Y410350D01*
D02*
G37*
G36*
X313461Y409500D02*
X312539D01*
X311649Y409262D01*
X310851Y408801D01*
X310199Y408149D01*
X309738Y407351D01*
X309500Y406461D01*
Y405539D01*
X309738Y404649D01*
X310199Y403851D01*
X310851Y403199D01*
X311649Y402739D01*
X312539Y402500D01*
X313461D01*
X314351Y402739D01*
X315149Y403199D01*
X315801Y403851D01*
X316262Y404649D01*
X316500Y405539D01*
Y406461D01*
X316262Y407351D01*
X315801Y408149D01*
X315149Y408801D01*
X314351Y409262D01*
X313461Y409500D01*
D02*
G37*
G36*
X302461Y408500D02*
X301539D01*
X300649Y408261D01*
X299851Y407801D01*
X299199Y407149D01*
X298739Y406351D01*
X298500Y405461D01*
Y404539D01*
X298739Y403649D01*
X299199Y402851D01*
X299851Y402199D01*
X300649Y401739D01*
X301539Y401500D01*
X302461D01*
X303351Y401739D01*
X304149Y402199D01*
X304801Y402851D01*
X305261Y403649D01*
X305500Y404539D01*
Y405461D01*
X305261Y406351D01*
X304801Y407149D01*
X304149Y407801D01*
X303351Y408261D01*
X302461Y408500D01*
D02*
G37*
G36*
X172607Y405167D02*
X172500D01*
Y399500D01*
X178167D01*
Y399607D01*
X177930Y400799D01*
X177465Y401921D01*
X176790Y402931D01*
X175931Y403791D01*
X174921Y404465D01*
X173799Y404930D01*
X172607Y405167D01*
D02*
G37*
G36*
X171500D02*
X171393D01*
X170201Y404930D01*
X169079Y404465D01*
X168069Y403791D01*
X167209Y402931D01*
X166535Y401921D01*
X166070Y400799D01*
X165833Y399607D01*
Y399500D01*
X171500D01*
Y405167D01*
D02*
G37*
G36*
X283461Y403500D02*
X282539D01*
X281649Y403262D01*
X280851Y402801D01*
X280199Y402149D01*
X279738Y401351D01*
X279500Y400461D01*
Y399539D01*
X279738Y398649D01*
X280199Y397851D01*
X280851Y397199D01*
X281649Y396739D01*
X282539Y396500D01*
X283461D01*
X284351Y396739D01*
X285149Y397199D01*
X285801Y397851D01*
X286262Y398649D01*
X286500Y399539D01*
Y400461D01*
X286262Y401351D01*
X285801Y402149D01*
X285149Y402801D01*
X284351Y403262D01*
X283461Y403500D01*
D02*
G37*
G36*
X178167Y398500D02*
X172500D01*
Y392833D01*
X172607D01*
X173799Y393070D01*
X174921Y393535D01*
X175931Y394210D01*
X176790Y395069D01*
X177465Y396079D01*
X177930Y397201D01*
X178167Y398393D01*
Y398500D01*
D02*
G37*
G36*
X171500D02*
X165833D01*
Y398393D01*
X166070Y397201D01*
X166535Y396079D01*
X167209Y395069D01*
X168069Y394210D01*
X169079Y393535D01*
X170201Y393070D01*
X171393Y392833D01*
X171500D01*
Y398500D01*
D02*
G37*
G36*
X240680Y405252D02*
X239320D01*
X237986Y404987D01*
X236729Y404466D01*
X235598Y403710D01*
X234636Y402748D01*
X233880Y401617D01*
X233360Y400361D01*
X233095Y399027D01*
Y397666D01*
X233360Y396332D01*
X233880Y395075D01*
X234636Y393945D01*
X235598Y392983D01*
X236729Y392227D01*
X237986Y391706D01*
X239320Y391441D01*
X240680D01*
X242014Y391706D01*
X243271Y392227D01*
X244402Y392983D01*
X245364Y393945D01*
X246120Y395075D01*
X246640Y396332D01*
X246905Y397666D01*
Y399027D01*
X246640Y400361D01*
X246120Y401617D01*
X245364Y402748D01*
X244402Y403710D01*
X243271Y404466D01*
X242014Y404987D01*
X240680Y405252D01*
D02*
G37*
G36*
X324461Y392500D02*
X323539D01*
X322649Y392262D01*
X321851Y391801D01*
X321199Y391149D01*
X320739Y390351D01*
X320500Y389461D01*
Y388539D01*
X320739Y387649D01*
X321199Y386851D01*
X321851Y386199D01*
X322649Y385738D01*
X323539Y385500D01*
X324461D01*
X325351Y385738D01*
X326149Y386199D01*
X326801Y386851D01*
X327261Y387649D01*
X327500Y388539D01*
Y389461D01*
X327261Y390351D01*
X326801Y391149D01*
X326149Y391801D01*
X325351Y392262D01*
X324461Y392500D01*
D02*
G37*
G36*
X172607Y385167D02*
X172500D01*
Y379500D01*
X178167D01*
Y379607D01*
X177930Y380799D01*
X177465Y381921D01*
X176790Y382931D01*
X175931Y383790D01*
X174921Y384465D01*
X173799Y384930D01*
X172607Y385167D01*
D02*
G37*
G36*
X171500D02*
X171393D01*
X170201Y384930D01*
X169079Y384465D01*
X168069Y383790D01*
X167209Y382931D01*
X166535Y381921D01*
X166070Y380799D01*
X165833Y379607D01*
Y379500D01*
X171500D01*
Y385167D01*
D02*
G37*
G36*
X292500Y379347D02*
Y376500D01*
X295347D01*
X295133Y377298D01*
X294690Y378064D01*
X294064Y378690D01*
X293298Y379133D01*
X292500Y379347D01*
D02*
G37*
G36*
X291500D02*
X290702Y379133D01*
X289936Y378690D01*
X289310Y378064D01*
X288867Y377298D01*
X288653Y376500D01*
X291500D01*
Y379347D01*
D02*
G37*
G36*
X178167Y378500D02*
X172500D01*
Y372833D01*
X172607D01*
X173799Y373070D01*
X174921Y373535D01*
X175931Y374209D01*
X176790Y375069D01*
X177465Y376079D01*
X177930Y377201D01*
X178167Y378393D01*
Y378500D01*
D02*
G37*
G36*
X171500D02*
X165833D01*
Y378393D01*
X166070Y377201D01*
X166535Y376079D01*
X167209Y375069D01*
X168069Y374209D01*
X169079Y373535D01*
X170201Y373070D01*
X171393Y372833D01*
X171500D01*
Y378500D01*
D02*
G37*
G36*
X295347Y375500D02*
X292500D01*
Y372653D01*
X293298Y372867D01*
X294064Y373310D01*
X294690Y373936D01*
X295133Y374702D01*
X295347Y375500D01*
D02*
G37*
G36*
X291500D02*
X288653D01*
X288867Y374702D01*
X289310Y373936D01*
X289936Y373310D01*
X290702Y372867D01*
X291500Y372653D01*
Y375500D01*
D02*
G37*
G36*
X312128Y379362D02*
X311242D01*
X310387Y379133D01*
X309621Y378690D01*
X308995Y378064D01*
X308552Y377298D01*
X308323Y376443D01*
Y375557D01*
X308552Y374702D01*
X308995Y373936D01*
X309621Y373310D01*
X310387Y372867D01*
X311242Y372638D01*
X312128D01*
X312983Y372867D01*
X313750Y373310D01*
X314375Y373936D01*
X314818Y374702D01*
X315047Y375557D01*
Y376443D01*
X314818Y377298D01*
X314375Y378064D01*
X313750Y378690D01*
X312983Y379133D01*
X312128Y379362D01*
D02*
G37*
G36*
X332429Y380831D02*
X321571D01*
Y369972D01*
X332429D01*
Y380831D01*
D02*
G37*
G36*
X240680Y376905D02*
X239320D01*
X237986Y376640D01*
X236729Y376120D01*
X235598Y375364D01*
X234636Y374402D01*
X233880Y373271D01*
X233360Y372014D01*
X233095Y370680D01*
Y369320D01*
X233360Y367986D01*
X233880Y366729D01*
X234636Y365598D01*
X235598Y364636D01*
X236729Y363880D01*
X237986Y363360D01*
X239320Y363094D01*
X240680D01*
X242014Y363360D01*
X243271Y363880D01*
X244402Y364636D01*
X245364Y365598D01*
X246120Y366729D01*
X246640Y367986D01*
X246905Y369320D01*
Y370680D01*
X246640Y372014D01*
X246120Y373271D01*
X245364Y374402D01*
X244402Y375364D01*
X243271Y376120D01*
X242014Y376640D01*
X240680Y376905D01*
D02*
G37*
G36*
X172607Y365167D02*
X172500D01*
Y359500D01*
X178167D01*
Y359607D01*
X177930Y360799D01*
X177465Y361921D01*
X176790Y362931D01*
X175931Y363790D01*
X174921Y364465D01*
X173799Y364930D01*
X172607Y365167D01*
D02*
G37*
G36*
X171500D02*
X171393D01*
X170201Y364930D01*
X169079Y364465D01*
X168069Y363790D01*
X167209Y362931D01*
X166535Y361921D01*
X166070Y360799D01*
X165833Y359607D01*
Y359500D01*
X171500D01*
Y365167D01*
D02*
G37*
G36*
X178167Y358500D02*
X172500D01*
Y352833D01*
X172607D01*
X173799Y353070D01*
X174921Y353535D01*
X175931Y354209D01*
X176790Y355069D01*
X177465Y356079D01*
X177930Y357201D01*
X178167Y358393D01*
Y358500D01*
D02*
G37*
G36*
X171500D02*
X165833D01*
Y358393D01*
X166070Y357201D01*
X166535Y356079D01*
X167209Y355069D01*
X168069Y354209D01*
X169079Y353535D01*
X170201Y353070D01*
X171393Y352833D01*
X171500D01*
Y358500D01*
D02*
G37*
G36*
X249668Y366075D02*
X248332D01*
X247041Y365729D01*
X245884Y365061D01*
X244939Y364116D01*
X244271Y362959D01*
X243925Y361668D01*
Y360332D01*
X244271Y359041D01*
X244939Y357884D01*
X245884Y356939D01*
X247041Y356271D01*
X247120Y356250D01*
Y355750D01*
X247041Y355729D01*
X245884Y355061D01*
X244939Y354116D01*
X244271Y352959D01*
X243925Y351668D01*
Y351500D01*
X249000D01*
X254075D01*
Y351668D01*
X253729Y352959D01*
X253061Y354116D01*
X252116Y355061D01*
X250959Y355729D01*
X250880Y355750D01*
Y356250D01*
X250959Y356271D01*
X252116Y356939D01*
X253061Y357884D01*
X253729Y359041D01*
X254075Y360332D01*
Y361668D01*
X253729Y362959D01*
X253061Y364116D01*
X252116Y365061D01*
X250959Y365729D01*
X249668Y366075D01*
D02*
G37*
G36*
X172607Y345167D02*
X172500D01*
Y339500D01*
X178167D01*
Y339607D01*
X177930Y340799D01*
X177465Y341921D01*
X176790Y342931D01*
X175931Y343791D01*
X174921Y344465D01*
X173799Y344930D01*
X172607Y345167D01*
D02*
G37*
G36*
X171500D02*
X171393D01*
X170201Y344930D01*
X169079Y344465D01*
X168069Y343791D01*
X167209Y342931D01*
X166535Y341921D01*
X166070Y340799D01*
X165833Y339607D01*
Y339500D01*
X171500D01*
Y345167D01*
D02*
G37*
G36*
X254075Y350500D02*
X249000D01*
X243925D01*
Y350332D01*
X244271Y349041D01*
X244939Y347884D01*
X245884Y346939D01*
X246515Y346575D01*
X246381Y346075D01*
X243925D01*
Y335925D01*
X254075D01*
Y346075D01*
X251619D01*
X251485Y346575D01*
X252116Y346939D01*
X253061Y347884D01*
X253729Y349041D01*
X254075Y350332D01*
Y350500D01*
D02*
G37*
G36*
X178167Y338500D02*
X172500D01*
Y332833D01*
X172607D01*
X173799Y333070D01*
X174921Y333535D01*
X175931Y334209D01*
X176790Y335069D01*
X177465Y336079D01*
X177930Y337201D01*
X178167Y338393D01*
Y338500D01*
D02*
G37*
G36*
X171500D02*
X165833D01*
Y338393D01*
X166070Y337201D01*
X166535Y336079D01*
X167209Y335069D01*
X168069Y334209D01*
X169079Y333535D01*
X170201Y333070D01*
X171393Y332833D01*
X171500D01*
Y338500D01*
D02*
G37*
G36*
X172607Y325167D02*
X172500D01*
Y319500D01*
X178167D01*
Y319607D01*
X177930Y320799D01*
X177465Y321921D01*
X176790Y322931D01*
X175931Y323791D01*
X174921Y324465D01*
X173799Y324930D01*
X172607Y325167D01*
D02*
G37*
G36*
X171500D02*
X171393D01*
X170201Y324930D01*
X169079Y324465D01*
X168069Y323791D01*
X167209Y322931D01*
X166535Y321921D01*
X166070Y320799D01*
X165833Y319607D01*
Y319500D01*
X171500D01*
Y325167D01*
D02*
G37*
G36*
X314386Y322362D02*
X307661D01*
Y315638D01*
X314386D01*
Y322362D01*
D02*
G37*
G36*
X281443D02*
X280557D01*
X279702Y322133D01*
X278936Y321690D01*
X278310Y321064D01*
X277867Y320298D01*
X277638Y319443D01*
Y318557D01*
X277867Y317702D01*
X278310Y316936D01*
X278936Y316310D01*
X279702Y315867D01*
X280557Y315638D01*
X281443D01*
X282298Y315867D01*
X283064Y316310D01*
X283690Y316936D01*
X284133Y317702D01*
X284362Y318557D01*
Y319443D01*
X284133Y320298D01*
X283690Y321064D01*
X283064Y321690D01*
X282298Y322133D01*
X281443Y322362D01*
D02*
G37*
G36*
X240680Y326905D02*
X239320D01*
X237986Y326640D01*
X236729Y326120D01*
X235598Y325364D01*
X234636Y324402D01*
X233880Y323271D01*
X233360Y322014D01*
X233095Y320680D01*
Y319320D01*
X233360Y317986D01*
X233880Y316729D01*
X234636Y315598D01*
X235598Y314636D01*
X236729Y313880D01*
X237986Y313360D01*
X239320Y313094D01*
X240680D01*
X242014Y313360D01*
X243271Y313880D01*
X244402Y314636D01*
X245364Y315598D01*
X246120Y316729D01*
X246640Y317986D01*
X246905Y319320D01*
Y320680D01*
X246640Y322014D01*
X246120Y323271D01*
X245364Y324402D01*
X244402Y325364D01*
X243271Y326120D01*
X242014Y326640D01*
X240680Y326905D01*
D02*
G37*
G36*
X178167Y318500D02*
X172500D01*
Y312833D01*
X172607D01*
X173799Y313070D01*
X174921Y313535D01*
X175931Y314210D01*
X176790Y315069D01*
X177465Y316079D01*
X177930Y317201D01*
X178167Y318393D01*
Y318500D01*
D02*
G37*
G36*
X171500D02*
X165833D01*
Y318393D01*
X166070Y317201D01*
X166535Y316079D01*
X167209Y315069D01*
X168069Y314210D01*
X169079Y313535D01*
X170201Y313070D01*
X171393Y312833D01*
X171500D01*
Y318500D01*
D02*
G37*
G36*
X172607Y305167D02*
X172500D01*
Y299500D01*
X178167D01*
Y299607D01*
X177930Y300799D01*
X177465Y301921D01*
X176790Y302931D01*
X175931Y303790D01*
X174921Y304465D01*
X173799Y304930D01*
X172607Y305167D01*
D02*
G37*
G36*
X171500D02*
X171393D01*
X170201Y304930D01*
X169079Y304465D01*
X168069Y303790D01*
X167209Y302931D01*
X166535Y301921D01*
X166070Y300799D01*
X165833Y299607D01*
Y299500D01*
X171500D01*
Y305167D01*
D02*
G37*
G36*
X178167Y298500D02*
X172500D01*
Y292833D01*
X172607D01*
X173799Y293070D01*
X174921Y293535D01*
X175931Y294210D01*
X176790Y295069D01*
X177465Y296079D01*
X177930Y297201D01*
X178167Y298393D01*
Y298500D01*
D02*
G37*
G36*
X171500D02*
X165833D01*
Y298393D01*
X166070Y297201D01*
X166535Y296079D01*
X167209Y295069D01*
X168069Y294210D01*
X169079Y293535D01*
X170201Y293070D01*
X171393Y292833D01*
X171500D01*
Y298500D01*
D02*
G37*
G36*
X216461D02*
X215539D01*
X214649Y298261D01*
X213851Y297801D01*
X213199Y297149D01*
X212738Y296351D01*
X212500Y295461D01*
Y294539D01*
X212738Y293649D01*
X213199Y292851D01*
X213851Y292199D01*
X214649Y291739D01*
X215539Y291500D01*
X216461D01*
X217351Y291739D01*
X218149Y292199D01*
X218801Y292851D01*
X219262Y293649D01*
X219500Y294539D01*
Y295461D01*
X219262Y296351D01*
X218801Y297149D01*
X218149Y297801D01*
X217351Y298261D01*
X216461Y298500D01*
D02*
G37*
G36*
X172607Y285167D02*
X172500D01*
Y279500D01*
X178167D01*
Y279607D01*
X177930Y280799D01*
X177465Y281921D01*
X176790Y282931D01*
X175931Y283790D01*
X174921Y284465D01*
X173799Y284930D01*
X172607Y285167D01*
D02*
G37*
G36*
X171500D02*
X171393D01*
X170201Y284930D01*
X169079Y284465D01*
X168069Y283790D01*
X167209Y282931D01*
X166535Y281921D01*
X166070Y280799D01*
X165833Y279607D01*
Y279500D01*
X171500D01*
Y285167D01*
D02*
G37*
G36*
X178167Y278500D02*
X172500D01*
Y272833D01*
X172607D01*
X173799Y273070D01*
X174921Y273535D01*
X175931Y274209D01*
X176790Y275069D01*
X177465Y276079D01*
X177930Y277201D01*
X178167Y278393D01*
Y278500D01*
D02*
G37*
G36*
X171500D02*
X165833D01*
Y278393D01*
X166070Y277201D01*
X166535Y276079D01*
X167209Y275069D01*
X168069Y274209D01*
X169079Y273535D01*
X170201Y273070D01*
X171393Y272833D01*
X171500D01*
Y278500D01*
D02*
G37*
G36*
X561781Y495393D02*
X560860D01*
X559969Y495155D01*
X559171Y494694D01*
X558520Y494042D01*
X558059Y493244D01*
X557820Y492354D01*
Y491432D01*
X558059Y490542D01*
X558520Y489744D01*
X559171Y489092D01*
X559969Y488632D01*
X560860Y488393D01*
X561781D01*
X562671Y488632D01*
X563469Y489092D01*
X564121Y489744D01*
X564582Y490542D01*
X564820Y491432D01*
Y492354D01*
X564582Y493244D01*
X564121Y494042D01*
X563469Y494694D01*
X562671Y495155D01*
X561781Y495393D01*
D02*
G37*
G36*
X429461Y490500D02*
X428539D01*
X427649Y490262D01*
X426851Y489801D01*
X426199Y489149D01*
X425738Y488351D01*
X425500Y487461D01*
Y486539D01*
X425738Y485649D01*
X426199Y484851D01*
X426851Y484199D01*
X427649Y483739D01*
X428539Y483500D01*
X429461D01*
X430351Y483739D01*
X431149Y484199D01*
X431801Y484851D01*
X432262Y485649D01*
X432500Y486539D01*
Y487461D01*
X432262Y488351D01*
X431801Y489149D01*
X431149Y489801D01*
X430351Y490262D01*
X429461Y490500D01*
D02*
G37*
G36*
X510676Y491858D02*
X509324D01*
X508018Y491508D01*
X506848Y490833D01*
X505892Y489877D01*
X505216Y488706D01*
X504866Y487400D01*
Y486049D01*
X505216Y484743D01*
X505892Y483572D01*
X506848Y482616D01*
X508018Y481940D01*
X509324Y481591D01*
X510676D01*
X511982Y481940D01*
X513152Y482616D01*
X514108Y483572D01*
X514784Y484743D01*
X515134Y486049D01*
Y487400D01*
X514784Y488706D01*
X514108Y489877D01*
X513152Y490833D01*
X511982Y491508D01*
X510676Y491858D01*
D02*
G37*
G36*
X490676D02*
X489324D01*
X488018Y491508D01*
X486848Y490833D01*
X485892Y489877D01*
X485216Y488706D01*
X484866Y487400D01*
Y486049D01*
X485216Y484743D01*
X485892Y483572D01*
X486848Y482616D01*
X488018Y481940D01*
X489324Y481591D01*
X490676D01*
X491982Y481940D01*
X493152Y482616D01*
X494108Y483572D01*
X494784Y484743D01*
X495134Y486049D01*
Y487400D01*
X494784Y488706D01*
X494108Y489877D01*
X493152Y490833D01*
X491982Y491508D01*
X490676Y491858D01*
D02*
G37*
G36*
X470676D02*
X469324D01*
X468018Y491508D01*
X466848Y490833D01*
X465892Y489877D01*
X465216Y488706D01*
X464866Y487400D01*
Y486049D01*
X465216Y484743D01*
X465892Y483572D01*
X466848Y482616D01*
X468018Y481940D01*
X469324Y481591D01*
X470676D01*
X471982Y481940D01*
X473152Y482616D01*
X474108Y483572D01*
X474784Y484743D01*
X475134Y486049D01*
Y487400D01*
X474784Y488706D01*
X474108Y489877D01*
X473152Y490833D01*
X471982Y491508D01*
X470676Y491858D01*
D02*
G37*
G36*
X583421Y491850D02*
X581579D01*
X579773Y491491D01*
X578071Y490786D01*
X576540Y489763D01*
X575237Y488460D01*
X574214Y486929D01*
X573509Y485227D01*
X573150Y483421D01*
Y481579D01*
X573509Y479773D01*
X574214Y478071D01*
X575237Y476540D01*
X576540Y475237D01*
X578071Y474214D01*
X579773Y473509D01*
X581579Y473150D01*
X583421D01*
X585227Y473509D01*
X586929Y474214D01*
X588460Y475237D01*
X589763Y476540D01*
X590786Y478071D01*
X591491Y479773D01*
X591850Y481579D01*
Y483421D01*
X591491Y485227D01*
X590786Y486929D01*
X589763Y488460D01*
X588460Y489763D01*
X586929Y490786D01*
X585227Y491491D01*
X583421Y491850D01*
D02*
G37*
G36*
X420461Y474500D02*
X419539D01*
X418649Y474262D01*
X417851Y473801D01*
X417199Y473149D01*
X416739Y472351D01*
X416500Y471461D01*
Y470539D01*
X416739Y469649D01*
X417199Y468851D01*
X417851Y468199D01*
X418649Y467738D01*
X419539Y467500D01*
X420461D01*
X421351Y467738D01*
X422149Y468199D01*
X422801Y468851D01*
X423261Y469649D01*
X423500Y470539D01*
Y471461D01*
X423261Y472351D01*
X422801Y473149D01*
X422149Y473801D01*
X421351Y474262D01*
X420461Y474500D01*
D02*
G37*
G36*
X595500Y469489D02*
Y466500D01*
X598490D01*
X598261Y467351D01*
X597801Y468149D01*
X597149Y468801D01*
X596351Y469262D01*
X595500Y469489D01*
D02*
G37*
G36*
X594500D02*
X593649Y469262D01*
X592851Y468801D01*
X592199Y468149D01*
X591739Y467351D01*
X591510Y466500D01*
X594500D01*
Y469489D01*
D02*
G37*
G36*
X584500D02*
Y466500D01*
X587490D01*
X587261Y467351D01*
X586801Y468149D01*
X586149Y468801D01*
X585351Y469262D01*
X584500Y469489D01*
D02*
G37*
G36*
X583500D02*
X582649Y469262D01*
X581851Y468801D01*
X581199Y468149D01*
X580738Y467351D01*
X580511Y466500D01*
X583500D01*
Y469489D01*
D02*
G37*
G36*
X552500Y466490D02*
Y463500D01*
X555489D01*
X555262Y464351D01*
X554801Y465149D01*
X554149Y465801D01*
X553351Y466261D01*
X552500Y466490D01*
D02*
G37*
G36*
X551500D02*
X550649Y466261D01*
X549851Y465801D01*
X549199Y465149D01*
X548738Y464351D01*
X548511Y463500D01*
X551500D01*
Y466490D01*
D02*
G37*
G36*
X598490Y465500D02*
X595500D01*
Y462510D01*
X596351Y462739D01*
X597149Y463199D01*
X597801Y463851D01*
X598261Y464649D01*
X598490Y465500D01*
D02*
G37*
G36*
X594500D02*
X591510D01*
X591739Y464649D01*
X592199Y463851D01*
X592851Y463199D01*
X593649Y462739D01*
X594500Y462510D01*
Y465500D01*
D02*
G37*
G36*
X587490D02*
X584500D01*
Y462510D01*
X585351Y462739D01*
X586149Y463199D01*
X586801Y463851D01*
X587261Y464649D01*
X587490Y465500D01*
D02*
G37*
G36*
X583500D02*
X580511D01*
X580738Y464649D01*
X581199Y463851D01*
X581851Y463199D01*
X582649Y462739D01*
X583500Y462510D01*
Y465500D01*
D02*
G37*
G36*
X555489Y462500D02*
X552500D01*
Y459511D01*
X553351Y459738D01*
X554149Y460199D01*
X554801Y460851D01*
X555262Y461649D01*
X555489Y462500D01*
D02*
G37*
G36*
X551500D02*
X548511D01*
X548738Y461649D01*
X549199Y460851D01*
X549851Y460199D01*
X550649Y459738D01*
X551500Y459511D01*
Y462500D01*
D02*
G37*
G36*
X526461Y466500D02*
X525539D01*
X524649Y466261D01*
X523851Y465801D01*
X523199Y465149D01*
X522739Y464351D01*
X522500Y463461D01*
Y462539D01*
X522739Y461649D01*
X523199Y460851D01*
X523851Y460199D01*
X524649Y459738D01*
X525539Y459500D01*
X526461D01*
X527351Y459738D01*
X528149Y460199D01*
X528801Y460851D01*
X529261Y461649D01*
X529500Y462539D01*
Y463461D01*
X529261Y464351D01*
X528801Y465149D01*
X528149Y465801D01*
X527351Y466261D01*
X526461Y466500D01*
D02*
G37*
G36*
X433000Y462490D02*
Y459500D01*
X435990D01*
X435761Y460351D01*
X435301Y461149D01*
X434649Y461801D01*
X433851Y462261D01*
X433000Y462490D01*
D02*
G37*
G36*
X432000D02*
X431149Y462261D01*
X430351Y461801D01*
X429699Y461149D01*
X429239Y460351D01*
X429010Y459500D01*
X432000D01*
Y462490D01*
D02*
G37*
G36*
X435990Y458500D02*
X433000D01*
Y455511D01*
X433851Y455738D01*
X434649Y456199D01*
X435301Y456851D01*
X435761Y457649D01*
X435990Y458500D01*
D02*
G37*
G36*
X432000D02*
X429010D01*
X429239Y457649D01*
X429699Y456851D01*
X430351Y456199D01*
X431149Y455738D01*
X432000Y455511D01*
Y458500D01*
D02*
G37*
G36*
X595500Y457489D02*
Y454500D01*
X598490D01*
X598261Y455351D01*
X597801Y456149D01*
X597149Y456801D01*
X596351Y457262D01*
X595500Y457489D01*
D02*
G37*
G36*
X594500D02*
X593649Y457262D01*
X592851Y456801D01*
X592199Y456149D01*
X591739Y455351D01*
X591510Y454500D01*
X594500D01*
Y457489D01*
D02*
G37*
G36*
X584500D02*
Y454500D01*
X587490D01*
X587261Y455351D01*
X586801Y456149D01*
X586149Y456801D01*
X585351Y457262D01*
X584500Y457489D01*
D02*
G37*
G36*
X583500D02*
X582649Y457262D01*
X581851Y456801D01*
X581199Y456149D01*
X580738Y455351D01*
X580511Y454500D01*
X583500D01*
Y457489D01*
D02*
G37*
G36*
X541461Y459500D02*
X540539D01*
X539649Y459262D01*
X538851Y458801D01*
X538199Y458149D01*
X537739Y457351D01*
X537500Y456461D01*
Y455539D01*
X537739Y454649D01*
X538199Y453851D01*
X538851Y453199D01*
X539649Y452739D01*
X540539Y452500D01*
X541461D01*
X542351Y452739D01*
X543149Y453199D01*
X543801Y453851D01*
X544262Y454649D01*
X544500Y455539D01*
Y456461D01*
X544262Y457351D01*
X543801Y458149D01*
X543149Y458801D01*
X542351Y459262D01*
X541461Y459500D01*
D02*
G37*
G36*
X510676Y462134D02*
X509324D01*
X508018Y461784D01*
X506848Y461108D01*
X505892Y460152D01*
X505216Y458982D01*
X504866Y457676D01*
Y456324D01*
X505216Y455018D01*
X505892Y453848D01*
X506848Y452892D01*
X508018Y452216D01*
X509324Y451866D01*
X510676D01*
X511982Y452216D01*
X513152Y452892D01*
X514108Y453848D01*
X514784Y455018D01*
X515134Y456324D01*
Y457676D01*
X514784Y458982D01*
X514108Y460152D01*
X513152Y461108D01*
X511982Y461784D01*
X510676Y462134D01*
D02*
G37*
G36*
X490676D02*
X489324D01*
X488018Y461784D01*
X486848Y461108D01*
X485892Y460152D01*
X485216Y458982D01*
X484866Y457676D01*
Y456324D01*
X485216Y455018D01*
X485892Y453848D01*
X486848Y452892D01*
X488018Y452216D01*
X489324Y451866D01*
X490676D01*
X491982Y452216D01*
X493152Y452892D01*
X494108Y453848D01*
X494784Y455018D01*
X495134Y456324D01*
Y457676D01*
X494784Y458982D01*
X494108Y460152D01*
X493152Y461108D01*
X491982Y461784D01*
X490676Y462134D01*
D02*
G37*
G36*
X470676D02*
X469324D01*
X468018Y461784D01*
X466848Y461108D01*
X465892Y460152D01*
X465216Y458982D01*
X464866Y457676D01*
Y456324D01*
X465216Y455018D01*
X465892Y453848D01*
X466848Y452892D01*
X468018Y452216D01*
X469324Y451866D01*
X470676D01*
X471982Y452216D01*
X473152Y452892D01*
X474108Y453848D01*
X474784Y455018D01*
X475134Y456324D01*
Y457676D01*
X474784Y458982D01*
X474108Y460152D01*
X473152Y461108D01*
X471982Y461784D01*
X470676Y462134D01*
D02*
G37*
G36*
X598490Y453500D02*
X595500D01*
Y450511D01*
X596351Y450738D01*
X597149Y451199D01*
X597801Y451851D01*
X598261Y452649D01*
X598490Y453500D01*
D02*
G37*
G36*
X594500D02*
X591510D01*
X591739Y452649D01*
X592199Y451851D01*
X592851Y451199D01*
X593649Y450738D01*
X594500Y450511D01*
Y453500D01*
D02*
G37*
G36*
X587490D02*
X584500D01*
Y450511D01*
X585351Y450738D01*
X586149Y451199D01*
X586801Y451851D01*
X587261Y452649D01*
X587490Y453500D01*
D02*
G37*
G36*
X583500D02*
X580511D01*
X580738Y452649D01*
X581199Y451851D01*
X581851Y451199D01*
X582649Y450738D01*
X583500Y450511D01*
Y453500D01*
D02*
G37*
%LPD*%
D14*
X536000Y155000D02*
X580000Y199000D01*
X458000Y77000D02*
X536000Y155000D01*
X532000Y159000D02*
X536000Y155000D01*
X558000Y166000D02*
X582000Y190000D01*
X469000Y77000D02*
X558000Y166000D01*
Y165000D02*
Y166000D01*
Y165000D02*
X561000Y162000D01*
X593000Y37000D02*
Y38000D01*
X555000Y76000D02*
X593000Y38000D01*
X553000Y82000D02*
X555000Y80000D01*
Y76000D02*
Y80000D01*
X566000Y154000D02*
X570000Y150000D01*
X586000Y166000D01*
X499000Y79000D02*
X570000Y150000D01*
X564000Y132000D02*
X590000Y158000D01*
Y372000D01*
X594000Y133000D02*
Y288000D01*
Y337000D02*
X595082D01*
X597293Y335050D02*
X598000Y334343D01*
X567000Y106000D02*
X594000Y133000D01*
X595082Y337000D02*
X597032Y335050D01*
X597293D01*
X553000Y82000D02*
X598000Y127000D01*
Y334343D01*
X510000Y78000D02*
X564000Y132000D01*
X565000D01*
X570000Y127000D01*
X540000Y79000D02*
X567000Y106000D01*
X565000Y108000D02*
Y112000D01*
Y108000D02*
X567000Y106000D01*
X550000Y79000D02*
X553000Y82000D01*
X369586Y6000D02*
X422000D01*
X369000Y6586D02*
X369586Y6000D01*
X369000Y6586D02*
Y35000D01*
X577500Y407500D02*
X582000Y403000D01*
X580000Y199000D02*
Y298004D01*
X74000Y192000D02*
X75000Y191000D01*
X418750Y324250D02*
X573376D01*
X418000Y325000D02*
X418750Y324250D01*
X573376D02*
X574126Y323500D01*
X155000Y165000D02*
X206000D01*
X240000Y199000D01*
X150370Y169630D02*
X155000Y165000D01*
X150370Y169630D02*
Y178000D01*
Y188000D01*
X385000Y184000D02*
Y235000D01*
Y184000D02*
X409000Y160000D01*
X414000Y232000D02*
X488248D01*
X405000Y223000D02*
X414000Y232000D01*
X405000Y182000D02*
Y223000D01*
X418000Y215000D02*
X478248D01*
X488248Y232000D02*
X572748Y316500D01*
Y309500D02*
X574126D01*
X478248Y215000D02*
X572748Y309500D01*
X409000Y160000D02*
X504000D01*
X520000Y176000D01*
Y199000D01*
X550000Y177000D02*
X562117Y189117D01*
X538000Y177000D02*
X550000D01*
X562117Y189117D02*
Y189117D01*
X573000Y200000D01*
X530000Y185000D02*
X538000Y177000D01*
X530000Y185000D02*
Y199000D01*
X586000Y166000D02*
Y295000D01*
X405000Y182000D02*
X411000Y176000D01*
X476000D01*
X572748Y316500D02*
X574126D01*
X300000Y29000D02*
X355000D01*
X557984Y407500D02*
X577500D01*
X582000Y190000D02*
Y403000D01*
X575504Y302500D02*
X580000Y298004D01*
X574126Y302500D02*
X575504D01*
D43*
X292000Y376000D02*
D03*
D52*
X557984Y407500D02*
D03*
X574126Y316500D02*
D03*
Y309500D02*
D03*
Y302500D02*
D03*
Y323500D02*
D03*
D72*
X75000Y191000D02*
Y229000D01*
X50000Y254000D02*
X75000Y229000D01*
X50000Y254000D02*
Y270000D01*
X75000Y128000D02*
Y191000D01*
X11000Y192000D02*
X74000D01*
X75000Y128000D02*
X97000Y106000D01*
X213000Y245000D02*
X262000Y294000D01*
X362000D01*
D73*
X369000Y35000D02*
X375000Y29000D01*
X280000Y124000D02*
X369000Y35000D01*
X62000Y262000D02*
X177000D01*
X230000Y209000D01*
X280000Y124000D02*
Y199000D01*
D76*
X355000Y29000D02*
D03*
X375000D02*
D03*
D77*
X150370Y178000D02*
D03*
D78*
Y188000D02*
D03*
D81*
X172000Y279000D02*
D03*
Y299000D02*
D03*
Y319000D02*
D03*
Y339000D02*
D03*
Y359000D02*
D03*
Y379000D02*
D03*
Y399000D02*
D03*
Y419000D02*
D03*
Y439000D02*
D03*
D82*
X280000Y199000D02*
D03*
X240000D02*
D03*
X230000Y209000D02*
D03*
X300000Y29000D02*
D03*
X520000Y199000D02*
D03*
X530000D02*
D03*
D86*
X362000Y294000D02*
D03*
D91*
X249000Y456000D02*
D03*
Y351000D02*
D03*
D93*
X97000Y106000D02*
D03*
D94*
X532000Y159000D02*
D03*
X561000Y162000D02*
D03*
X593000Y37000D02*
D03*
X566000Y154000D02*
D03*
X570000Y127000D02*
D03*
X565000Y112000D02*
D03*
X422000Y6000D02*
D03*
X11000Y192000D02*
D03*
X213000Y245000D02*
D03*
X418000Y325000D02*
D03*
X584000Y454000D02*
D03*
Y466000D02*
D03*
X595000Y454000D02*
D03*
Y466000D02*
D03*
X385000Y235000D02*
D03*
X432500Y459000D02*
D03*
X418000Y215000D02*
D03*
X62000Y262000D02*
D03*
X573000Y200000D02*
D03*
X594000Y337000D02*
D03*
Y288000D02*
D03*
X586000Y295000D02*
D03*
X476000Y176000D02*
D03*
X50000Y270000D02*
D03*
X540000Y79000D02*
D03*
X590000Y372000D02*
D03*
X550000Y79000D02*
D03*
X510000Y78000D02*
D03*
X499000Y79000D02*
D03*
X469000Y77000D02*
D03*
X458000D02*
D03*
X552000Y463000D02*
D03*
M02*
